<?xml version="1.0" encoding="UTF-8"?>
<!-- Created with Inkscape (http://www.inkscape.org/) -->
<svg width="1312.2" height="1095.2" version="1.1" viewBox="0 0 1312.2 1095.2" xml:space="preserve" xmlns="http://www.w3.org/2000/svg" xmlns:cc="http://creativecommons.org/ns#" xmlns:dc="http://purl.org/dc/elements/1.1/" xmlns:rdf="http://www.w3.org/1999/02/22-rdf-syntax-ns#"><metadata><rdf:RDF><cc:Work rdf:about=""><dc:format>image/svg+xml</dc:format><dc:type rdf:resource="http://purl.org/dc/dcmitype/StillImage"/><dc:title/></cc:Work></rdf:RDF></metadata><defs><clipPath id="clipPath26"><path d="m0 821.4h984.19v-821.4h-984.19z"/></clipPath><clipPath id="clipPath34"><path d="m0 821.4h984.19v-821.4h-984.19z"/></clipPath><clipPath id="clipPath38"><path d="m8.0773 821.4h495.88v-398.45h-495.88z"/></clipPath><clipPath id="clipPath42"><path d="m533.77 821.4h409.41v-374.89h-409.41z"/></clipPath><clipPath id="clipPath46"><path d="m463.51 821.4h97.549v-327.24h-97.549z"/></clipPath><clipPath id="clipPath50"><path d="m549.58 778.53h434.6v-589.64h-434.6z"/></clipPath><clipPath id="clipPath54"><path d="m430.58 819.53h153.47v-333.09h-153.47z"/></clipPath><clipPath id="clipPath58"><path d="m86.986 821.4h379.47v-345.44h-379.47z"/></clipPath><clipPath id="clipPath62"><path d="m545.98 819.53h338.8v-360.82h-338.8z"/></clipPath><clipPath id="clipPath66"><path d="m565.85 630.65h418.34v-361.61h-418.34z"/></clipPath><clipPath id="clipPath70"><path d="m482.72 405.28h498.36v-405.28h-498.36z"/></clipPath><clipPath id="clipPath74"><path d="m39.144 381.72h413.76v-379.86h-413.76z"/></clipPath><clipPath id="clipPath78"><path d="m424.37 334.07h100.03v-334.07h-100.03z"/></clipPath><clipPath id="clipPath82"><path d="m0 639.97h437.09v-592.75h-437.09z"/></clipPath><clipPath id="clipPath86"><path d="m401.38 341.79h156.58v-341.79h-156.58z"/></clipPath><clipPath id="clipPath90"><path d="m520.22 352.28h385.68v-352.28h-385.68z"/></clipPath><clipPath id="clipPath94"><path d="m94.442 369.52h346.25v-369.52h-346.25z"/></clipPath><clipPath id="clipPath98"><path d="m0 572.87h420.83v-399.52h-420.83z"/></clipPath></defs><g transform="matrix(1.3333 0 0 -1.3333 0 1095.2)"><g clip-path="url(#clipPath26)"><g clip-path="url(#clipPath34)" opacity=".72"><g clip-path="url(#clipPath38)" opacity=".22"><g transform="translate(386.47 821.4)"><path d="m0 0 117.49-383.46-52.406-14.991-443.47 396.58z" fill="#bf767e"/></g></g><g clip-path="url(#clipPath42)" opacity=".22"><g transform="translate(626.3 821.4)"><path d="m0 0-92.531-360.7 41.696-14.192 367.71 374.89z" fill="#bf767e"/></g></g><g clip-path="url(#clipPath46)" opacity=".31"><g transform="translate(517.05 494.16)"><path d="m0 0 44.007 327.24-97.549-1.864 40.892-325.37z" fill="#bf767e"/></g></g><g clip-path="url(#clipPath50)" opacity=".22"><g transform="translate(549.58 406.35)"><path d="m0 0 434.6 372.17v-589.64l-434.6 191.77z" fill="#bf767e"/></g></g><g clip-path="url(#clipPath54)" opacity=".22"><g transform="translate(533.32 486.66)"><path d="m0 0 50.732 332.87h-153.47l58.525-333.09z" fill="#bf767e"/></g></g><g clip-path="url(#clipPath58)" opacity=".31"><g transform="translate(466.46 494.16)"><path d="m0 0-151.44 326-228.03 1.242 355.07-345.44z" fill="#bf767e"/></g></g><g clip-path="url(#clipPath62)" opacity=".31"><g transform="translate(545.98 474.41)"><path d="m0 0 129.41 345.13h209.39l-313.19-360.82z" fill="#bf767e"/></g></g><g clip-path="url(#clipPath66)" opacity=".31"><g transform="translate(565.85 409.57)"><path d="m0 0 417.1 221.08 1.243-361.61-418.34 115.9z" fill="#bf767e"/></g></g><g clip-path="url(#clipPath70)" opacity=".22"><g transform="translate(602.07 -3e-4)"><path d="m0 0-119.35 390.29 52.405 14.991 445.96-379.18-6.213-24.233z" fill="#bf767e"/></g></g><g clip-path="url(#clipPath74)" opacity=".22"><g transform="translate(359.13 1.8639)"><path d="m0 0 93.773 365.67-41.695 14.192-372.06-379.86z" fill="#bf767e"/></g></g><g clip-path="url(#clipPath78)" opacity=".31"><g transform="translate(469.62 334.07)"><path d="m0 0-45.25-334.07 100.04 1.243-42.135 332.83z" fill="#bf767e"/></g></g><g clip-path="url(#clipPath82)" opacity=".22"><g transform="translate(437.09 421.88)"><path d="m0 0-437.09-374.66v592.75l437.09-192.39z" fill="#bf767e"/></g></g><g clip-path="url(#clipPath86)" opacity=".22"><g transform="translate(453.35 341.57)"><path d="m0 0-51.975-341.57h156.58l-60.389 341.79z" fill="#bf767e"/></g></g><g clip-path="url(#clipPath90)" opacity=".31"><g transform="translate(520.22 334.07)"><path d="m0 0 155.17-334.07 230.51 1.243-361.29 351.03z" fill="#bf767e"/></g></g><g clip-path="url(#clipPath94)" opacity=".31"><g transform="translate(440.69 353.82)"><path d="m0 0-131.89-351.96-214.36-1.864 320.64 369.52z" fill="#bf767e"/></g></g><g clip-path="url(#clipPath98)" opacity=".31"><g transform="translate(420.83 418.67)"><path d="m0 0-420.83-245.32v399.51l420.83-129.57z" fill="#bf767e"/></g></g></g></g></g></svg>
