<?xml version="1.0" encoding="UTF-8" standalone="no"?>
<!-- Created with Inkscape (http://www.inkscape.org/) -->

<svg
   xmlns:dc="http://purl.org/dc/elements/1.1/"
   xmlns:cc="http://creativecommons.org/ns#"
   xmlns:rdf="http://www.w3.org/1999/02/22-rdf-syntax-ns#"
   xmlns:svg="http://www.w3.org/2000/svg"
   xmlns="http://www.w3.org/2000/svg"
   xmlns:sodipodi="http://sodipodi.sourceforge.net/DTD/sodipodi-0.dtd"
   xmlns:inkscape="http://www.inkscape.org/namespaces/inkscape"
   width="264.01"
   height="196.01"
   version="1.1"
   viewBox="0 0 264.01 196.01"
   xml:space="preserve"
   id="svg351"
   sodipodi:docname="Chip1.svg"
   inkscape:version="0.92.2 2405546, 2018-03-11"><sodipodi:namedview
     pagecolor="#ffffff"
     bordercolor="#666666"
     borderopacity="1"
     objecttolerance="10"
     gridtolerance="10"
     guidetolerance="10"
     inkscape:pageopacity="0"
     inkscape:pageshadow="2"
     inkscape:window-width="726"
     inkscape:window-height="480"
     id="namedview353"
     showgrid="false"
     inkscape:zoom="1.2040202"
     inkscape:cx="132.005"
     inkscape:cy="98.004997"
     inkscape:window-x="0"
     inkscape:window-y="0"
     inkscape:window-maximized="0"
     inkscape:current-layer="g347" /><metadata
     id="metadata192"><rdf:RDF><cc:Work
         rdf:about=""><dc:format>image/svg+xml</dc:format><dc:type
           rdf:resource="http://purl.org/dc/dcmitype/StillImage" /><dc:title /></cc:Work></rdf:RDF></metadata><defs
     id="defs197"><clipPath
       id="clipPath210"><path
         d="M 0,147.008 H 198.008 V 0 H 0 Z"
         id="path194" /></clipPath></defs><g
     id="g347"
     clip-path="url(#clipPath210)"
     transform="matrix(1.3333,0,0,-1.3333,0,196.01)"><g
       id="g201"
       transform="translate(18.425,87.89)"><path
         style="fill:#76664b"
         inkscape:connector-curvature="0"
         id="path199"
         d="M 0,0 0.004,0.007 C 0,0.011 -0.003,0.016 -0.006,0.02 Z" /></g><g
       id="g205"
       transform="translate(154.81,10.209)"><path
         style="fill:#76664b"
         inkscape:connector-curvature="0"
         id="path203"
         d="M 0,0 0.004,0.001 H 0 Z" /></g><g
       id="g209"
       transform="translate(164.65,27.376)"><path
         style="fill:#958c7a"
         inkscape:connector-curvature="0"
         id="path207"
         d="m 0,0 c -18.746,1.995 -46.455,12.192 -75.029,28.689 -27.672,15.977 -49.805,34.2 -61.259,49.173 -3.384,4.424 -5.85,8.568 -7.233,12.281 -1.229,3.303 -1.607,6.266 -1.054,8.795 l -0.007,0.003 -8.466,-13.624 c -0.214,-0.285 -0.431,-0.568 -0.61,-0.877 -3.176,-5.502 -0.193,-14.002 7.429,-23.906 0.003,-0.004 0.006,-0.009 0.01,-0.013 11.498,-14.935 33.56,-33.067 61.107,-48.971 28.701,-16.571 56.529,-26.785 75.279,-28.716 h 0.003 c 10.836,-1.115 18.617,0.551 21.799,5.345 l 0.325,0.08 8.818,15.873 C 19.161,2.049 16.15,0.701 12.23,0.069 8.795,-0.483 4.678,-0.498 0,0" /></g><g
       id="g213"
       transform="translate(118.47,106.04)"><path
         style="fill:#b0b0b0"
         inkscape:connector-curvature="0"
         id="path211"
         d="m 0,0 c -45.824,26.456 -89.43,36.717 -97.397,22.917 -0.471,-0.814 -0.795,-1.7 -1.001,-2.641 -0.553,-2.529 -0.175,-5.492 1.055,-8.796 1.383,-3.712 3.848,-7.856 7.232,-12.28 11.454,-14.973 33.588,-33.196 61.259,-49.173 28.574,-16.497 56.283,-26.694 75.029,-28.689 4.678,-0.498 8.795,-0.484 12.231,0.069 3.92,0.632 6.93,1.98 8.882,4.063 0.475,0.508 0.911,1.043 1.255,1.64 C 76.512,-59.09 45.824,-26.456 0,0" /></g><g
       id="g217"
       transform="translate(83.359,75.238)"><path
         style="fill:#b0b0b0"
         inkscape:connector-curvature="0"
         id="path215"
         d="m 0,0 c -3.384,4.424 -5.85,8.567 -7.232,12.28 -1.23,3.304 -1.608,6.267 -1.055,8.796 0.205,0.941 0.53,1.826 1.001,2.641 5.901,10.221 31.363,7.231 62.789,-5.752 -6.363,4.366 -13.19,8.677 -20.392,12.835 -45.824,26.456 -89.43,36.717 -97.397,22.917 -0.471,-0.815 -0.796,-1.7 -1.001,-2.641 -0.553,-2.529 -0.175,-5.492 1.055,-8.796 C -60.85,38.567 -58.384,34.424 -55,30 -43.546,15.026 -21.413,-3.196 6.259,-19.173 18.139,-26.031 29.858,-31.782 40.856,-36.326 22.785,-23.922 8.47,-11.073 0,0" /></g><g
       id="g221"
       transform="translate(176.88,27.445)"><path
         style="fill:#e6e6e6"
         inkscape:connector-curvature="0"
         id="path219"
         d="m 0,0 c 3.92,0.632 6.93,1.979 8.882,4.062 0.475,0.508 0.911,1.043 1.256,1.641 6.715,11.631 -14.032,36.641 -48.154,60.055 -31.426,12.983 -56.887,15.973 -62.789,5.752 -0.47,-0.815 -0.795,-1.7 -1.001,-2.641 -0.553,-2.529 -0.175,-5.492 1.055,-8.796 1.383,-3.713 3.849,-7.856 7.232,-12.28 C -85.048,36.72 -70.733,23.871 -52.662,11.467 -37.206,5.081 -23.183,1.097 -12.23,-0.069 -7.553,-0.567 -3.436,-0.553 0,0" /></g><g
       id="g225"
       transform="translate(181.16,54.942)"><path
         style="fill:#ff1d25"
         inkscape:connector-curvature="0"
         id="path223"
         d="M 0,0 C -0.009,0.013 -0.017,0.025 -0.026,0.038 -0.057,0.06 -0.106,0.087 -0.183,0.123 -0.082,0.035 -0.018,-0.01 0,0" /></g><g
       id="g229"
       transform="translate(95.254,67.186)"><path
         style="fill:#ff1d25"
         inkscape:connector-curvature="0"
         id="path227"
         d="M 0,0 C -5.001,2.888 -9.744,5.88 -14.167,8.911 L -25.832,1.583 c 6.307,-4.32 13.066,-8.587 20.196,-12.704 8.294,-4.788 16.507,-9.027 24.456,-12.708 L 17.864,-9.245 C 12.07,-6.594 6.063,-3.501 0,0" /></g><g
       id="g233"
       transform="translate(53.876,99.756)"><path
         style="fill:#ff1d25"
         inkscape:connector-curvature="0"
         id="path231"
         d="m 0,0 c -4.034,4.891 -6.555,9.353 -7.207,13.017 l -26.597,13.541 c -0.553,-2.53 -0.175,-5.493 1.055,-8.796 1.383,-3.713 3.849,-7.857 7.232,-12.281 L 0.065,-0.122 Z" /></g><g
       id="g237"
       transform="translate(180.98,55.065)"><path
         style="fill:#ff1d25"
         inkscape:connector-curvature="0"
         id="path235"
         d="M 0,0 C 0.077,-0.036 0.126,-0.063 0.157,-0.085 -3.824,5.462 -9.36,11.506 -16.177,17.751 -15.779,17.304 -1.784,1.547 0,0" /></g><g
       id="g241"
       transform="translate(162.36,61.188)"><path
         style="fill:#ff544a"
         inkscape:connector-curvature="0"
         id="path239"
         d="M 0,0 C 4.283,-1.346 16.904,-5.333 18.613,-6.123 16.829,-4.576 2.834,11.181 2.437,11.628 2.428,11.637 2.419,11.645 2.41,11.652 l -13.954,3.146 C -6.106,9.438 -2.134,4.373 0,0" /></g><g
       id="g245"
       transform="translate(127.83,94.357)"><path
         style="fill:#ff1d25"
         inkscape:connector-curvature="0"
         id="path243"
         d="m 0,0 c -3.92,2.629 -8.068,5.223 -12.42,7.735 -4.585,2.647 -9.135,5.054 -13.588,7.22 -11.516,5.605 -22.355,9.546 -31.341,11.549 -7.214,1.608 -13.237,1.975 -17.441,0.937 -2.67,-0.659 -4.611,-1.878 -5.663,-3.698 -0.857,-1.484 -1.068,-3.283 -0.705,-5.327 0.652,-3.664 3.173,-8.126 7.207,-13.017 6.048,-7.333 15.499,-15.629 27.211,-23.659 4.423,-3.031 9.165,-6.023 14.167,-8.911 6.063,-3.501 12.07,-6.594 17.864,-9.245 14.641,-6.7 27.902,-10.562 37.244,-10.997 6.234,-0.29 10.712,0.948 12.687,3.893 0.077,0.115 0.167,0.221 0.237,0.341 1.462,2.533 1.044,5.979 -0.923,10.01 -2.134,4.373 -6.106,9.439 -11.544,14.798 C 16.955,-12.421 9.121,-6.115 0,0" /></g><g
       id="g249"
       transform="translate(115.41,102.09)"><path
         style="fill:#ff1d25"
         inkscape:connector-curvature="0"
         id="path247"
         d="m 0,0 c 4.352,-2.513 8.5,-5.106 12.42,-7.735 l 3.913,3.576 c -0.018,0.012 -0.036,0.023 -0.054,0.036 l -30.116,17.157 c -0.005,0.003 -0.01,0.005 -0.015,0.008 L -13.587,7.22 C -9.134,5.054 -4.585,2.646 0,0" /></g><g
       id="g253"
       transform="translate(104.04,26.181)"><path
         style="fill:#ff1d25"
         inkscape:connector-curvature="0"
         id="path251"
         d="m 0,0 0.006,0.01 -0.12,0.055 z" /></g><g
       id="g257"
       transform="translate(154.81,10.209)"><path
         style="fill:#ff1d25"
         inkscape:connector-curvature="0"
         id="path255"
         d="M 0,0 0.004,0.001 H 0 Z" /></g><g
       id="g261"
       transform="translate(59.793,51.317)"><path
         style="fill:#ff1d25"
         inkscape:connector-curvature="0"
         id="path259"
         d="M 0,0 0.004,-0.003 C 0.003,-0.002 0.001,-0.001 0,0" /></g><g
       id="g265"
       transform="translate(35.391,137.13)"><path
         style="fill:#ff1d25"
         inkscape:connector-curvature="0"
         id="path263"
         d="M 0,0 C -0.01,-0.024 0.066,-0.062 0.219,-0.11 0.09,-0.022 0.01,0.022 0,0" /></g><g
       id="g269"
       transform="translate(131.74,97.936)"><path
         style="fill:#ff1d25"
         inkscape:connector-curvature="0"
         id="path267"
         d="M 0,0 -0.058,0.033 C -0.04,0.021 -0.022,0.009 -0.003,-0.003 Z" /></g><g
       id="g273"
       transform="translate(181.17,54.939)"><path
         style="fill:#ff1d25"
         inkscape:connector-curvature="0"
         id="path271"
         d="M 0,0 C 0.006,0.009 -0.009,0.023 -0.034,0.041 -0.024,0.028 -0.017,0.016 -0.007,0.003 -0.006,0.004 -0.001,-0.001 0,0" /></g><g
       id="g277"
       transform="translate(101.55,115.14)"><path
         style="fill:#ff1d25"
         inkscape:connector-curvature="0"
         id="path275"
         d="M 0,0 V -0.001 C 0.005,-0.004 0.01,-0.006 0.015,-0.009 Z" /></g><g
       id="g281"
       transform="translate(164.78,72.838)"><path
         style="fill:#ff1d25"
         inkscape:connector-curvature="0"
         id="path279"
         d="M 0,0 -0.007,0.002 0.02,-0.022 C 0.014,-0.016 0,0 0,0" /></g><g
       id="g285"
       transform="translate(118.47,106.04)"><path
         style="fill:#ff1d25"
         inkscape:connector-curvature="0"
         id="path283"
         d="M 0,0 C -5.689,3.285 -11.344,6.318 -16.901,9.089 L 13.215,-8.068 C 8.973,-5.335 4.566,-2.636 0,0" /></g><g
       id="g289"
       transform="translate(18.418,87.91)"><path
         style="fill:#ff1d25"
         inkscape:connector-curvature="0"
         id="path287"
         d="M 0,0 0.006,-0.02 0.01,-0.013 C 0.006,-0.009 0.003,-0.005 0,0" /></g><g
       id="g293"
       transform="translate(185.76,31.506)"><path
         style="fill:#ff1d25"
         inkscape:connector-curvature="0"
         id="path291"
         d="M 0,0 V 0.001 Z" /></g><g
       id="g297"
       transform="translate(176.94,15.634)"><path
         style="fill:#ff1d25"
         inkscape:connector-curvature="0"
         id="path295"
         d="M 0,0 8.818,15.872 Z" /></g><g
       id="g301"
       transform="translate(176.88,27.445)"><path
         style="fill:#ff1d25"
         inkscape:connector-curvature="0"
         id="path299"
         d="m 0,0 c -3.436,-0.553 -7.553,-0.567 -12.23,-0.069 l -9.834,-17.166 h 0.003 c 10.836,-1.116 18.618,0.55 21.799,5.344 l 0.325,0.08 8.819,15.873 C 6.93,1.979 3.92,0.632 0,0" /></g><g
       id="g305"
       transform="translate(176.62,15.554)"><path
         style="fill:#ff1d25"
         inkscape:connector-curvature="0"
         id="path303"
         d="M 0,0 0.325,0.08 Z" /></g><g
       id="g309"
       transform="translate(163.05,50.838)"><path
         style="fill:#ff544a"
         inkscape:connector-curvature="0"
         id="path307"
         d="m 0,0 c -1.975,-2.945 -6.453,-4.184 -12.687,-3.894 l 15.58,-17.309 -1.294,-2.259 c 4.677,-0.498 8.795,-0.483 12.23,0.069 3.92,0.632 6.93,1.98 8.882,4.062 v 0.001 l 1.182,2.127 z" /></g><g
       id="g313"
       transform="translate(185.76,31.506)"><path
         style="fill:#ff1d25"
         inkscape:connector-curvature="0"
         id="path311"
         d="M 0,0 V 0.001 Z" /></g><g
       id="g317"
       transform="translate(18.425,87.89)"><path
         style="fill:#ff1d25"
         inkscape:connector-curvature="0"
         id="path315"
         d="M 0,0 0.004,0.007 Z" /></g><g
       id="g321"
       transform="translate(20.072,126.31)"><path
         style="fill:#ff1d25"
         inkscape:connector-curvature="0"
         id="path319"
         d="M 0,0 -0.006,0.003 Z" /></g><g
       id="g325"
       transform="translate(70.478,120.86)"><path
         style="fill:#e41d25"
         inkscape:connector-curvature="0"
         id="path323"
         d="m 0,0 -11.952,10.997 c -7.788,2.017 -14.75,3.122 -20.546,3.225 3.883,-3.309 11.167,-9.804 15.057,-13.285 C -13.237,1.975 -7.213,1.608 0,0" /></g><g
       id="g329"
       transform="translate(18.429,87.897)"><path
         style="fill:#af1d25"
         inkscape:connector-curvature="0"
         id="path327"
         d="m 0,0 9.918,17.344 0.013,-0.003 c -3.384,4.424 -5.85,8.567 -7.233,12.28 -1.23,3.304 -1.608,6.267 -1.054,8.796 L 1.637,38.42 -6.829,24.796 C -7.043,24.511 -7.261,24.228 -7.439,23.919 -10.616,18.417 -7.632,9.917 -0.01,0.013 -0.007,0.008 -0.004,0.004 0,0" /></g><g
       id="g333"
       transform="translate(18.418,87.91)"><path
         style="fill:#ff1d25"
         inkscape:connector-curvature="0"
         id="path331"
         d="M 0,0 0.006,-0.02 Z" /></g><g
       id="g337"
       transform="translate(18.418,87.91)"><path
         style="fill:#ff1d25"
         inkscape:connector-curvature="0"
         id="path335"
         d="M 0,0 Z" /></g><g
       id="g341"
       transform="translate(114.07,43.357)"><path
         style="fill:#c71d25"
         inkscape:connector-curvature="0"
         id="path339"
         d="m 0,0 c -7.95,3.681 -16.162,7.92 -24.456,12.708 -7.13,4.117 -13.89,8.384 -20.196,12.704 L -44.655,25.411 -54.281,7.96 c 10e-4,-0.001 0.003,-0.002 0.004,-0.003 6.175,-4.213 12.781,-8.372 19.738,-12.389 8.272,-4.775 16.464,-9.005 24.394,-12.678 l 0.121,-0.056 10.025,17.153 z" /></g></g></svg>