<?xml version="1.0" encoding="UTF-8" standalone="no"?>
<!-- Created with Inkscape (http://www.inkscape.org/) -->

<svg
   xmlns:dc="http://purl.org/dc/elements/1.1/"
   xmlns:cc="http://creativecommons.org/ns#"
   xmlns:rdf="http://www.w3.org/1999/02/22-rdf-syntax-ns#"
   xmlns:svg="http://www.w3.org/2000/svg"
   xmlns="http://www.w3.org/2000/svg"
   xmlns:sodipodi="http://sodipodi.sourceforge.net/DTD/sodipodi-0.dtd"
   xmlns:inkscape="http://www.inkscape.org/namespaces/inkscape"
   width="262.68"
   height="228.01"
   version="1.1"
   viewBox="0 0 262.68 228.01"
   xml:space="preserve"
   id="svg188"
   sodipodi:docname="Chip2.svg"
   inkscape:version="0.92.2 2405546, 2018-03-11"><sodipodi:namedview
     pagecolor="#ffffff"
     bordercolor="#666666"
     borderopacity="1"
     objecttolerance="10"
     gridtolerance="10"
     guidetolerance="10"
     inkscape:pageopacity="0"
     inkscape:pageshadow="2"
     inkscape:window-width="726"
     inkscape:window-height="480"
     id="namedview190"
     showgrid="false"
     inkscape:zoom="1.0350423"
     inkscape:cx="131.34"
     inkscape:cy="114.005"
     inkscape:window-x="0"
     inkscape:window-y="0"
     inkscape:window-maximized="0"
     inkscape:current-layer="g184" /><metadata
     id="metadata101"><rdf:RDF><cc:Work
         rdf:about=""><dc:format>image/svg+xml</dc:format><dc:type
           rdf:resource="http://purl.org/dc/dcmitype/StillImage" /><dc:title /></cc:Work></rdf:RDF></metadata><defs
     id="defs106"><clipPath
       id="clipPath478"><path
         d="M 0,171.008 H 197.008 V 0 H 0 Z"
         id="path103" /></clipPath></defs><g
     transform="matrix(1.3333 0 0 -1.3333 0 228.01)"
     id="g186"><g
       clip-path="url(#clipPath478)"
       id="g184"><g
         transform="translate(177.6 104.6)"
         id="g110"><path
           d="m0 0c-0.279-3.16-0.688-6.348-1.239-9.554-2.093-12.174-5.989-23.43-11.224-33.361l4e-3 -3e-3s6.042-1.776 10.212-3.153c4.219 7.472 6.781 12.047 9.241 20.956 2 9 1.942 16.669 2 17 1e-3 6e-3 -3.001 6.994-3 7l-4.213 1.002z"
           fill="#c71d25"
           id="path108" /></g><g
         transform="translate(38.527 68.635)"
         id="g114"><path
           d="m0 0c-11.695 24.657 4.544 56.845 36.272 71.894 31.728 15.048 66.929 7.258 78.624-17.399s-4.545-56.845-36.272-71.893c-31.728-15.048-66.929-7.259-78.624 17.398"
           fill="#e41d25"
           id="path112" /></g><g
         transform="translate(128.91 140.92)"
         id="g118"><path
           d="m0 0c3.716 3.886 10.224 10.713 14.364 15.06-13.112 5.025-28.593 6.628-44.688 4.391l-1.269-16.491c11.365 1.626 22.306 0.536 31.593-2.96"
           fill="#e6e6e6"
           id="path116" /></g><g
         transform="translate(71.476 135.46)"
         id="g122"><path
           d="m0 0c-1.223 3.594-4.017 9.913-6.24 14.781-14.482-6.926-26.644-16.375-35.808-27.135l18.035-7.084c6.078 7.589 14.236 14.336 24.013 19.438"
           fill="#ccc"
           id="path120" /></g><g
         transform="translate(148.2 79.897)"
         id="g126"><path
           d="m0 0c-6.21-10.3-16.074-19.607-28.628-26.194l11.638-20.172c17.062 9.283 30.483 22.149 39.011 36.333-0.561 0.901-0.929 1.488-0.929 1.488s-16.336 6.038-21.092 8.545"
           fill="#e6e6e6"
           id="path124" /></g><g
         transform="translate(56.246,50.731)"
         id="g130"><path
           d="m0 0-18.414-21.003c13.9-8.071 31.788-11.492 50.734-9.566l1.223 24.609c-12.413-1.134-24.148 0.981-33.543 5.96"
           fill="#e6e6e6"
           id="path128" /></g><g
         transform="translate(152.48 119.75)"
         id="g134"><path
           d="m0 0c2.516-5.691 3.452-11.768 3.02-17.908l25.004-1.067c0.622 8.71-0.719 17.327-4.287 25.398-2.233 5.051-5.222 9.591-8.819 13.614l-19.07-12.968c1.625-2.176 3.029-4.527 4.152-7.069"
           fill="#e6e6e6"
           id="path132" /></g><g
         transform="translate(38.408 69.331)"
         id="g138"><path
           d="m0 0c-3.565 8.065-3.982 16.902-1.772 25.605-4.368-0.199-16.122-0.975-23.708-1.486-3.842-13.082-3.504-26.472 1.868-38.625 0.313-0.707 0.661-1.39 1.002-2.078l23.15 15.465c-0.18 0.373-0.372 0.738-0.54 1.119"
           fill="#ccc"
           id="path136" /></g><g
         transform="translate(155.5 101.84)"
         id="g142"><path
           d="m0 0c-0.522-7.405-3.053-14.902-7.298-21.943 4.756-2.507 21.092-8.545 21.092-8.545s0.368-0.587 0.93-1.489c5.964 9.919 9.535 20.481 10.281 30.911z"
           fill="#e41d25"
           id="path140" /></g><g
         transform="translate(114.56 51.276)"
         id="g146"><path
           d="m0 0c-8.237-3.642-16.649-5.764-24.775-6.505l-1.224-24.609c11.169 1.135 22.701 4.12 33.999 9.114 2.976 1.314 5.856 2.738 8.643 4.255l-11.639 20.172c-1.626-0.853-3.289-1.669-5.004-2.427"
           fill="#e41d25"
           id="path144" /></g><g
         transform="translate(38.947 68.211)"
         id="g150"><path
           d="m0 0-23.149-15.465c4.825-9.718 12.479-17.471 22.034-23.018l18.414 21.003c-7.595 4.026-13.648 9.925-17.299 17.48"
           fill="#e41d25"
           id="path148" /></g><g
         transform="translate(47.464 116.02)"
         id="g154"><path
           d="m0 0-18.036 7.085c-7.825-9.187-13.467-19.324-16.501-29.655 7.587 0.51 19.341 1.287 23.709 1.486 1.853 7.301 5.559 14.505 10.828 21.084"
           fill="#c71d25"
           id="path152" /></g><g
         transform="translate(98.59 160.37)"
         id="g158"><path
           d="m0 0c-9.956-1.384-20.143-4.225-30.146-8.646-1.083-0.479-2.149-0.975-3.208-1.481 2.224-4.868 5.018-11.187 6.241-14.781 1.575 0.822 3.184 1.612 4.842 2.345 6.968 3.08 14.063 5.078 21.002 6.072z"
           fill="#c71d25"
           id="path156" /></g><g
         transform="translate(167.39 139.79)"
         id="g162"><path
           d="m0 0c-6.339 7.093-14.599 12.542-24.116 16.189-4.14-4.346-10.648-11.173-14.364-15.059 7.948-2.992 14.674-7.753 19.409-14.098z"
           fill="#e41d25"
           id="path160" /></g><g
         transform="translate(131.21 33.531)"
         id="g166"><path
           d="m0 0c-2.787-1.517-5.667-2.94-8.643-4.255-11.297-4.994-22.83-7.978-33.998-9.114l-1e-3 -5e-3s1.865-6.016 3.026-10.251c8.559 0.621 17.365 2.35 26.147 5.231 8.798 3.492 16.538 6.872 16.847 7.006 5e-3 3e-3 0.011 6e-3 0.017 9e-3l-2.503 9.833z"
           fill="#c71d25"
           id="path164" /></g><g
         transform="translate(37.832 29.728)"
         id="g170"><path
           d="m0 0c-6.62 3.844-12.324 8.747-16.81 14.626 2.271-5 5.27-9.508 8.887-13.486l11.452-9.619c0.035-0.022 0.072-0.043 0.107-0.066l-3.64 8.539z"
           fill="#c71d25"
           id="path168" /></g><g
         transform="translate(88.566 20.162)"
         id="g174"><path
           d="m0 0c-18.946-1.926-36.834 1.495-50.733 9.566l-5e-3 -5e-3 3.641-8.54c13.499-8.652 31.194-12.65 50.122-11.277-1.161 4.235-3.025 10.251-3.025 10.251z"
           fill="#b3b3b3"
           id="path172" /></g><g
         transform="translate(182.21 116.17)"
         id="g178"><path
           d="m0 0c-1.665 3.767-3.764 7.238-6.204 10.438 0.067-0.147 0.139-0.291 0.204-0.438 3.568-8.071 4.91-16.687 4.288-25.397 0 0 4.598-6.79 5.598-7.79 1-10-5.132-25.275-10-33-0.101 0.555-4.04 6.926-5.88 9.879-8.528-14.183-21.949-27.049-39.011-36.333l0.891-1.546 2.503-9.833c40.67 20.81 61.866 61.768 47.611 94.02"
           fill="#b3b3b3"
           id="path176" /></g></g></g></svg>