<?xml version="1.0" encoding="UTF-8" standalone="no"?>
<!-- Created with Inkscape (http://www.inkscape.org/) -->

<svg
   xmlns:dc="http://purl.org/dc/elements/1.1/"
   xmlns:cc="http://creativecommons.org/ns#"
   xmlns:rdf="http://www.w3.org/1999/02/22-rdf-syntax-ns#"
   xmlns:svg="http://www.w3.org/2000/svg"
   xmlns="http://www.w3.org/2000/svg"
   xmlns:sodipodi="http://sodipodi.sourceforge.net/DTD/sodipodi-0.dtd"
   xmlns:inkscape="http://www.inkscape.org/namespaces/inkscape"
   width="156.01"
   height="172.01"
   version="1.1"
   viewBox="0 0 156.01 172.01"
   xml:space="preserve"
   id="svg97"
   sodipodi:docname="Chip3.svg"
   inkscape:version="0.92.2 2405546, 2018-03-11"><sodipodi:namedview
     pagecolor="#ffffff"
     bordercolor="#666666"
     borderopacity="1"
     objecttolerance="10"
     gridtolerance="10"
     guidetolerance="10"
     inkscape:pageopacity="0"
     inkscape:pageshadow="2"
     inkscape:window-width="726"
     inkscape:window-height="480"
     id="namedview99"
     showgrid="false"
     inkscape:zoom="1.3720133"
     inkscape:cx="78.004997"
     inkscape:cy="86.004997"
     inkscape:window-x="0"
     inkscape:window-y="0"
     inkscape:window-maximized="0"
     inkscape:current-layer="g91" /><metadata
     id="metadata2"><rdf:RDF><cc:Work
         rdf:about=""><dc:format>image/svg+xml</dc:format><dc:type
           rdf:resource="http://purl.org/dc/dcmitype/StillImage" /><dc:title /></cc:Work></rdf:RDF></metadata><defs
     id="defs7"><clipPath
       id="clipPath376"><path
         d="M 0,129.008 H 117.008 V 0 H 0 Z"
         id="path4" /></clipPath></defs><g
     transform="matrix(1.3333,0,0,-1.3333,55.837271,70.445872)"
     id="g11"><path
       d="M 0,0 C 12.664,18.951 33.546,27.22 46.643,18.469 59.74,9.717 60.091,-12.74 47.427,-31.691 34.764,-50.644 13.881,-58.912 0.784,-50.161 -12.313,-41.409 -12.664,-18.952 0,0"
       id="path9"
       inkscape:connector-curvature="0"
       style="fill:#e41d25" /></g><g
     transform="matrix(1.3333,0,0,-1.3333,92.544353,132.96298)"
     id="g15"><path
       d="m 0,0 c -5.517,-2.924 -9.517,-3.924 -15.517,-4.924 -0.336,-3.441 -1.624,-11.563 -1.824,-13.795 6.957,1.332 14.224,4.533 21.17,9.373 L 2.29,1.431 C 1.53,0.929 0.768,0.446 0,0"
       id="path13"
       inkscape:connector-curvature="0"
       style="fill:#cccccc" /></g><g
     transform="matrix(1.3333,0,0,-1.3333,125.56486,92.426656)"
     id="g19"><path
       d="m 0,0 -0.774,-0.11 c -2.147,-4.574 -4.795,-10.118 -7.963,-14.514 -0.981,-1.36 -0.995,-1.67 -2.031,-2.946 l -0.003,-0.919 6.251,-5.772 c 0.948,1.181 1.881,2.386 2.783,3.637 5.127,7.114 8.92,14.616 11.365,21.999 z"
       id="path17"
       inkscape:connector-curvature="0"
       style="fill:#cccccc" /></g><g
     transform="matrix(1.3333,0,0,-1.3333,80.765981,28.400257)"
     id="g23"><path
       d="m 0,0 c 8.755,4.03 17.547,5.412 25.196,3.697 l 0.006,0.014 -0.827,4.797 C 14.82,13.352 2.42,12.01 -9.666,5.695 L 0,0.005 Z"
       id="path21"
       inkscape:connector-curvature="0"
       style="fill:#f2f2f2" /></g><g
     transform="matrix(1.3333,0,0,-1.3333,25.715357,94.729265)"
     id="g27"><path
       d="m 0,0 c 2.36,8.331 6.46,16.902 12.278,24.976 1.998,2.772 4.121,5.36 6.331,7.776 l -0.003,0.004 -8.53,5.274 C 8.416,36.113 6.809,34.101 5.278,31.976 -1.009,23.253 -5.292,13.948 -7.539,4.993 L -0.003,0 Z"
       id="path25"
       inkscape:connector-curvature="0"
       style="fill:#f2f2f2" /></g><g
     transform="matrix(1.3333,0,0,-1.3333,23.988734,129.57506)"
     id="g31"><path
       d="m 0,0 -5.14,1.29 c 1.966,-4.58 4.906,-8.456 8.86,-11.306 0.242,-0.173 0.494,-0.327 0.74,-0.491 C 2.394,-7.442 0.911,-3.895 0,0 Z"
       id="path29"
       inkscape:connector-curvature="0"
       style="fill:#f2f2f2" /></g><g
     transform="matrix(1.3333,0,0,-1.3333,133.54333,35.266752)"
     id="g35"><path
       d="m 0,0 -1.937,-2.49 -6.927,-8.906 c 3.512,-3.881 5.364,-9.27 5.587,-15.395 L 6.947,-21.98 C 6.898,-13.342 4.591,-5.667 0,0"
       id="path33"
       inkscape:connector-curvature="0"
       style="fill:#cccccc" /></g><g
     transform="matrix(1.3333,0,0,-1.3333,107.02399,42.713233)"
     id="g39"><path
       d="m 0,0 5.502,14.436 c -7.649,1.714 -16.441,0.333 -25.196,-3.698 0.007,-0.087 1.039,-11.321 1.27,-14.544 C -12.104,-0.516 -5.669,0.862 0,0"
       id="path37"
       inkscape:connector-curvature="0"
       style="fill:#cccccc" /></g><g
     transform="matrix(1.3333,0,0,-1.3333,57.307901,70.165879)"
     id="g43"><path
       d="m 0,0 c 1,1.388 2.047,2.707 3.124,3.971 l -8.21,10.358 c -2.21,-2.416 -4.333,-5.004 -6.331,-7.776 -5.818,-8.074 -9.918,-16.645 -12.278,-24.976 l 14.449,-1.242 C -7.671,-13.149 -4.582,-6.358 0,0"
       id="path41"
       inkscape:connector-curvature="0"
       style="fill:#cccccc" /></g><g
     transform="matrix(1.3333,0,0,-1.3333,54.593302,135.00959)"
     id="g47"><path
       d="M 0,0 C -3.76,2.71 -6.251,6.708 -7.498,11.481 L -22.953,4.076 c 0.911,-3.894 2.393,-7.442 4.459,-10.507 1.698,-2.518 3.777,-4.718 6.261,-6.508 1.037,-0.749 2.12,-1.407 3.241,-1.981 l 3.016,4.175 7.184,9.948 C 0.797,-0.548 0.394,-0.284 0,0"
       id="path45"
       inkscape:connector-curvature="0"
       style="fill:#cccccc" /></g><g
     transform="matrix(1.3333,0,0,-1.3333,23.990067,129.57506)"
     id="g51"><path
       d="M 0,0 C -1.802,7.707 -1.36,16.765 1.294,26.135 H 1.292 l -7.537,4.993 C -9.023,20.053 -8.673,9.523 -5.14,1.29 Z"
       id="path49"
       inkscape:connector-curvature="0"
       style="fill:#c71d25" /></g><g
     transform="matrix(1.3333,0,0,-1.3333,44.980209,96.385224)"
     id="g55"><path
       d="m 0,0 -14.449,1.242 c -2.655,-9.37 -3.096,-18.428 -1.295,-26.135 l 15.456,7.406 C -1.631,-12.344 -1.523,-6.301 0,0"
       id="path53"
       inkscape:connector-curvature="0"
       style="fill:#e41d25" /></g><g
     transform="matrix(1.3333,0,0,-1.3333,50.526737,51.061024)"
     id="g59"><path
       d="m 0,0 c 6.946,7.593 14.792,13.368 22.68,16.999 l -0.001,0.005 -9.665,5.69 C 5.448,18.742 -1.989,12.837 -8.534,5.278 l 8.531,-5.274 z"
       id="path57"
       inkscape:connector-curvature="0"
       style="fill:#af1d25" /></g><g
     transform="matrix(1.3333,0,0,-1.3333,82.460605,47.787772)"
     id="g63"><path
       d="M 0,0 C -0.231,3.223 -1.263,14.457 -1.271,14.544 -9.158,10.913 -17.004,5.138 -23.95,-2.455 l 8.21,-10.358 C -10.979,-7.23 -5.537,-2.883 0,0"
       id="path61"
       inkscape:connector-curvature="0"
       style="fill:#c71d25" /></g><g
     transform="matrix(1.3333,0,0,-1.3333,56.203928,136.07223)"
     id="g67"><path
       d="m 0,0 -7.185,-9.948 -3.015,-4.175 c 5.868,-3.007 12.819,-3.661 20.115,-2.264 0.2,2.232 0.544,5.808 0.881,9.249 0.151,1.549 0.301,3.066 0.434,4.421 C 7.134,-2.855 3.295,-1.992 0,0"
       id="path65"
       inkscape:connector-curvature="0"
       style="fill:#e41d25" /></g><g
     transform="matrix(1.3333,0,0,-1.3333,95.59761,131.05502)"
     id="g71"><path
       d="m 0,0 1.539,-10.776 c 5.828,4.06 11.423,9.273 16.417,15.487 l -6.252,5.771 C 8.11,6.248 4.125,2.722 0,0"
       id="path69"
       inkscape:connector-curvature="0"
       style="fill:#e41d25" /></g><g
     transform="matrix(1.3333,0,0,-1.3333,142.79643,64.574019)"
     id="g75"><path
       d="m 0,0 -10.033,-4.779 c -0.178,-6.438 -2.233,-14.245 -2.896,-16.112 l 9.628,1.375 C -1.072,-12.783 0.035,-6.15 0,0"
       id="path73"
       inkscape:connector-curvature="0"
       style="fill:#c71d25" /></g><g
     transform="matrix(1.3333,0,0,-1.3333,125.56486,92.426656)"
     id="g79"><path
       d="M 0,0 C 0.664,1.866 1.205,3.725 1.627,5.56 0.916,3.67 0.112,1.777 -0.774,-0.11 Z"
       id="path77"
       inkscape:connector-curvature="0"
       style="fill:#c71d25" /></g><g
     transform="matrix(1.3333,0,0,-1.3333,114.35981,23.467047)"
     id="g83"><path
       d="M 0,0 C 3.15,-0.706 6.103,-1.939 8.779,-3.729 7.082,-1.21 5.003,0.99 2.519,2.78 1.451,3.55 0.336,4.225 -0.821,4.811 L 0.006,0.014 Z"
       id="path81"
       inkscape:connector-curvature="0"
       style="fill:#af1d25" /></g><g
     transform="matrix(1.3333,0,0,-1.3333,127.05149,29.093573)"
     id="g87"><path
       d="m 0,0 c -0.241,0.174 -0.493,0.327 -0.739,0.491 -2.677,1.789 -5.63,3.023 -8.78,3.729 l -5.502,-14.436 c 2.991,-0.454 5.772,-1.522 8.205,-3.276 1.039,-0.748 1.974,-1.601 2.819,-2.535 l 6.927,8.906 1.937,2.49 C 3.457,-2.891 1.844,-1.328 0,0"
       id="path85"
       inkscape:connector-curvature="0"
       style="fill:#c71d25" /></g><g
     transform="matrix(1.3333,0,0,-1.3333,86.173846,97.686525)"
     id="g91" /></svg>