<?xml version="1.0" encoding="UTF-8"?>
<!-- Created with Inkscape (http://www.inkscape.org/) -->
<svg width="155.94" height="155.94" version="1.1" viewBox="0 0 155.94 155.94" xml:space="preserve" xmlns="http://www.w3.org/2000/svg" xmlns:cc="http://creativecommons.org/ns#" xmlns:dc="http://purl.org/dc/elements/1.1/" xmlns:rdf="http://www.w3.org/1999/02/22-rdf-syntax-ns#"><metadata><rdf:RDF><cc:Work rdf:about=""><dc:format>image/svg+xml</dc:format><dc:type rdf:resource="http://purl.org/dc/dcmitype/StillImage"/><dc:title/></cc:Work></rdf:RDF></metadata><defs><clipPath id="clipPath26"><path d="M 0,116.956 H 116.956 V 0 H 0 Z"/></clipPath></defs><g transform="matrix(1.3333 0 0 -1.3333 0 155.94)"><g clip-path="url(#clipPath26)"><g transform="translate(10.978 58.478)"><path d="m0 0c0 26.233 21.267 47.5 47.5 47.5s47.5-21.267 47.5-47.5-21.267-47.5-47.5-47.5-47.5 21.267-47.5 47.5" fill="#d5b182"/></g><g transform="translate(10.978 58.478)"><path d="m0 0c0 26.233 21.267 47.5 47.5 47.5s47.5-21.267 47.5-47.5-21.267-47.5-47.5-47.5-47.5 21.267-47.5 47.5z" fill="none" stroke="#750e1e" stroke-miterlimit="10" stroke-width="4.948"/></g><g transform="translate(35.978 79.978)"><path d="m0 0 17-23-17-23h8l14 18 14-18h8l-17 23 17 23h-9l-13-17-14 17z" fill="#750e1e"/></g></g></g></svg>
