<?xml version="1.0" encoding="UTF-8"?>
<!-- Created with Inkscape (http://www.inkscape.org/) -->
<svg width="325.52" height="305.52" version="1.1" viewBox="0 0 325.52 305.52" xml:space="preserve" xmlns="http://www.w3.org/2000/svg" xmlns:cc="http://creativecommons.org/ns#" xmlns:dc="http://purl.org/dc/elements/1.1/" xmlns:rdf="http://www.w3.org/1999/02/22-rdf-syntax-ns#"><metadata><rdf:RDF><cc:Work rdf:about=""><dc:format>image/svg+xml</dc:format><dc:type rdf:resource="http://purl.org/dc/dcmitype/StillImage"/><dc:title/></cc:Work></rdf:RDF></metadata><g transform="matrix(1.3333 0 0 -1.3333 0 305.52)"><path d="m214.57 50.569h-185v128h185zm-2-33h-22v18h22zm-53 0h-22v18h22zm-53 0h-22v18h22zm-51 0h-22v18h22zm-22 188h22v-18h-22zm51 0h22v-18h-22zm53 0h22v-18h-22zm53 0h22v-18h-22zm-182-197h227v212h-227z" fill="#fff"/><g transform="translate(95.569 155.57)"><path d="m0 0v-81l73 40z" fill="#fff"/></g></g></svg>
