<?xml version="1.0" encoding="UTF-8"?>
<!-- Created with Inkscape (http://www.inkscape.org/) -->
<svg width="666.68" height="596.01" version="1.1" viewBox="0 0 666.68 596.01" xml:space="preserve" xmlns="http://www.w3.org/2000/svg" xmlns:cc="http://creativecommons.org/ns#" xmlns:dc="http://purl.org/dc/elements/1.1/" xmlns:rdf="http://www.w3.org/1999/02/22-rdf-syntax-ns#"><metadata><rdf:RDF><cc:Work rdf:about=""><dc:format>image/svg+xml</dc:format><dc:type rdf:resource="http://purl.org/dc/dcmitype/StillImage"/><dc:title/></cc:Work></rdf:RDF></metadata><defs><clipPath id="clipPath32"><path d="M 0,447.008 H 500.008 V 0 H 0 Z"/></clipPath></defs><g transform="matrix(1.3333 0 0 -1.3333 0 596.01)"><g transform="translate(19.004 354)"><path d="m0 0v-351.78l124.96-2.223h337.04v354z" fill="#773d37"/></g><path d="m490.5 9.504h-481v428h481z" fill="#4f4677"/><g clip-path="url(#clipPath32)"><g transform="translate(457 32.504)"><path d="m0 0h-414c-6.075 0-11 4.925-11 11v360c0 6.075 4.925 11 11 11h414c6.075 0 11-4.925 11-11v-360c0-6.075-4.925-11-11-11" fill="#674e7f"/></g><g transform="translate(457 32.504)"><path d="m0 0h-414c-6.075 0-11 4.925-11 11v360c0 6.075 4.925 11 11 11h414c6.075 0 11-4.925 11-11v-360c0-6.075-4.925-11-11-11z" fill="none" stroke="#f5b659" stroke-miterlimit="10" stroke-width="3"/></g></g></g></svg>
