<?xml version="1.0" ?><svg height="32px" id="Facebook" style="enable-background:new 0 0 32 32;" version="1.0" viewBox="0 0 32 32" width="32px" xml:space="preserve" xmlns="http://www.w3.org/2000/svg" xmlns:xlink="http://www.w3.org/1999/xlink"><style type="text/css">
	.Drop_x0020_Shadow{fill:none;}
	.Round_x0020_Corners_x0020_2_x0020_pt{fill:#FFFFFF;stroke:#000000;stroke-miterlimit:10;}
	.Live_x0020_Reflect_x0020_X{fill:none;}
	.Bevel_x0020_Soft{fill:url(#SVGID_1_);}
	.Dusk{fill:#FFFFFF;}
	.Foliage_GS{fill:#FFDD00;}
	.Pompadour_GS{fill-rule:evenodd;clip-rule:evenodd;fill:#44ADE2;}
	.st0{fill:#BE1E2D;}
	.st1{fill:#FFFFFF;}
</style><linearGradient gradientUnits="userSpaceOnUse" id="SVGID_1_" x1="0" x2="0.7071" y1="0" y2="0.7071"><stop offset="0" style="stop-color:#DEDFE3"/><stop offset="0.1738" style="stop-color:#D8D9DD"/><stop offset="0.352" style="stop-color:#C9CACD"/><stop offset="0.5323" style="stop-color:#B4B5B8"/><stop offset="0.7139" style="stop-color:#989A9C"/><stop offset="0.8949" style="stop-color:#797C7E"/><stop offset="1" style="stop-color:#656B6C"/></linearGradient><g id="XMLID_1_"><circle class="st0" cx="16" cy="15.9" id="XMLID_875_" r="15.1"/><path class="st1" d="M12.6,31.1h5.1V18.8h4.2l1-5.1l-5.2,0l0-2.2c0-0.4,0.1-0.8,0.2-1.1c0.3-1,1.3-1.6,2.4-1.7   c0.7,0,2.5-0.1,2.5-0.1V3.4l-3,0c-0.3,0-0.9,0-1.2,0c-0.7,0-2.7,0.1-4.4,1.9c-0.9,1-1.7,2.9-1.7,5.7c0,1.5,0,2.7,0,2.7H8.5v5.1h3.1   h0.7h0.1h0.2L12.6,31.1h5.1l0,0" id="XMLID_867_"/></g></svg>