<?xml version="1.0" encoding="UTF-8" standalone="no"?>
<!-- Created with Inkscape (http://www.inkscape.org/) -->
<svg
   xmlns:svg="http://www.w3.org/2000/svg"
   xmlns="http://www.w3.org/2000/svg"
   version="1.0"
   width="400"
   height="640"
   id="svg2">
  <defs
     id="defs4" />
  <g
     transform="translate(100,-553.87012)"
     id="layer1">
    <path
       d="M 94.07142,1028.8701 L -87.00001,956.72726 L -61.64286,575.65583 L 248.71427,575.65583 L 274.07142,956.72726 L 92.99999,1028.8701"
       style="fill:#007fd0;fill-rule:evenodd;stroke:none;stroke-width:10;stroke-linecap:butt;stroke-linejoin:miter;stroke-miterlimit:4;stroke-dasharray:none;stroke-opacity:1"
       id="path3209" />
      
    <path
       d="M 94.07142,1028.8701 L -87.00001,956.72726 L -75.64286,765.65583 L 260.71427,765.65583 L 274.07142,956.72726 L 92.99999,1028.8701"
       style="fill:#000000;fill-rule:evenodd;stroke:none;stroke-width:10;stroke-linecap:butt;stroke-linejoin:miter;stroke-miterlimit:4;stroke-dasharray:none;stroke-opacity:1"
       id="path3209" />
      
    <path
       d="M 510,540 L 500,504.28571 C 494.65718,488.38463 505.26306,478.61766 511.42857,467.14286 C 517.00916,452.70803 518.23074,436.81046 514.28571,418.57143 C 512.84411,399.88855 509.15397,384.24352 497.14286,370 C 475.6791,353.23324 443.09128,340.72089 421.42857,338.57143 L 421.42857,255.71429 L 460,255.71429 L 482.85714,235.71429 L 441.42857,175.71429 L 331.42857,175.71429 L 310,194.28571 L 310,254.28571 L 368.57143,254.28571 L 368.57143,342.85714 C 351.73078,344.43724 297.07694,363.68941 326.42857,385 C 319.23746,388.40635 301.5343,409.33554 315.71428,424.64285 C 307.87452,431.12659 296.12166,447.39482 316.78571,463.21429 C 314.30128,479.84925 314.24919,496.18016 334.28571,510 L 368.07378,529.58158 C 369.18242,538.36971 365.54072,550.94629 374.28571,551.42857 L 377.14286,575.71429 L 395.71429,585.71429 L 510,540 z "
       transform="translate(-303.07144,443.87012)"
       style="fill:#dab13f;fill-opacity:1;fill-rule:evenodd;stroke:none;stroke-width:1px;stroke-linecap:butt;stroke-linejoin:miter;stroke-opacity:1"
       id="path3211" />
    <path
       d="M 330.31988,482.92128 C 350.25374,474.68881 374.22701,472.51546 399.51533,472.31468 C 408.56704,467.97274 404.63957,448.07408 393.45442,447.56594 C 382.4974,449.84466 367.96482,449.26293 369.71583,461.70808 C 375.40072,468.28757 387.92691,471.70826 400.27295,470.29437"
       transform="translate(-303.07144,443.87012)"
       style="fill:none;fill-rule:evenodd;stroke:#000000;stroke-width:3;stroke-linecap:round;stroke-linejoin:round;stroke-miterlimit:4;stroke-dasharray:none;stroke-opacity:1"
       id="path3243" />
    <path
       d="M 374.28571,551.42857 L 414.28571,551.42857 C 420.82045,551.13173 421.24927,543.12336 421.42857,527.85714 L 421.42857,386.58702"
       transform="translate(-303.07144,443.87012)"
       style="fill:none;fill-rule:evenodd;stroke:#000000;stroke-width:3;stroke-linecap:round;stroke-linejoin:round;stroke-miterlimit:4;stroke-dasharray:none;stroke-opacity:1"
       id="path3214" />
    <path
       d="M 430.71429,471.42857 C 414.23295,429.02907 441.81766,425.51138 455,409.28571 C 435.62732,407.36261 429.82937,395.84261 423.27556,386.59445"
       transform="translate(-303.07144,443.87012)"
       style="fill:none;fill-rule:evenodd;stroke:#000000;stroke-width:3;stroke-linecap:round;stroke-linejoin:round;stroke-miterlimit:4;stroke-dasharray:none;stroke-opacity:1"
       id="path3216" />
    <path
       d="M 439.28571,365 C 436.35139,394.31793 403.86607,387.80247 371.21937,383.69398 C 355.95604,381.08805 361.28966,348.60664 377.29198,350.5913 C 383.68481,350.57365 400.99217,355.36046 401.53564,367.76389 C 406.2053,373.8893 394.44208,383.68177 380.57498,384.93648"
       transform="translate(-303.07144,443.87012)"
       style="fill:none;fill-rule:evenodd;stroke:#000000;stroke-width:3;stroke-linecap:round;stroke-linejoin:round;stroke-miterlimit:4;stroke-dasharray:none;stroke-opacity:1"
       id="path3218" />
    <path
       d="M 94.07142,1028.8701 L -87.00001,956.72726 L -61.64286,575.65583 L 248.71427,575.65583 L 274.07142,956.72726 L 92.99999,1028.8701"
       style="fill:none;fill-rule:evenodd;stroke:#dab13f;stroke-width:10;stroke-linecap:butt;stroke-linejoin:miter;stroke-miterlimit:4;stroke-dasharray:none;stroke-opacity:1"
       id="path3209" />
    <path
       d="M 515.1778,156.05934 L 521.21623,174.0897 L 540.2301,174.26091 L 524.9482,185.57549 L 530.66097,203.71166 L 515.1778,192.6741 L 499.69462,203.71166 L 505.4074,185.57549 L 490.12549,174.2609 L 509.13936,174.0897 L 515.1778,156.05934 z "
       transform="matrix(0.9857441,0,0,0.9857298,-309.29855,440.3657)"
       style="opacity:1;fill:#dab13f;fill-opacity:1;fill-rule:evenodd;stroke:none;stroke-width:1.01446939;stroke-linecap:butt;stroke-linejoin:miter;stroke-miterlimit:4;stroke-dasharray:none;stroke-dashoffset:0;stroke-opacity:1"
       id="path3226" />
    <path
       d="M 323.24881,384.93649 L 362.64476,376.85526"
       transform="translate(-303.07144,443.87012)"
       style="fill:none;fill-rule:evenodd;stroke:#000000;stroke-width:3;stroke-linecap:round;stroke-linejoin:round;stroke-miterlimit:4;stroke-dasharray:none;stroke-opacity:1"
       id="path3237" />
    <path
       d="M 311.8846,425.84766 C 335.20704,415.87308 363.23346,414.1417 387.89858,416.25121 C 408.96659,414.02007 407.22926,396.50829 404.06102,388.97709 C 387.53957,388.02158 368.1544,384.816 369.71583,398.06847 C 367.77313,407.89915 385.37663,409.16469 398.50518,412.71568"
       transform="translate(-303.07144,443.87012)"
       style="fill:none;fill-rule:evenodd;stroke:#000000;stroke-width:3;stroke-linecap:round;stroke-linejoin:round;stroke-miterlimit:4;stroke-dasharray:none;stroke-opacity:1"
       id="path3239" />
    <path
       d="M 316.68282,463.2233 C 335.91539,454.27562 356.73362,447.20134 384.11051,448.82863 C 399.41656,445.2858 406.43263,439.49201 405.57625,427.86797 C 402.05262,419.17667 394.769,417.06533 385.87827,417.76644 C 373.00005,414.45814 363.20428,433.98364 376.7869,439.9898 L 397.49503,443.77787"
       transform="translate(-303.07144,443.87012)"
       style="fill:none;fill-rule:evenodd;stroke:#000000;stroke-width:3;stroke-linecap:round;stroke-linejoin:round;stroke-miterlimit:4;stroke-dasharray:none;stroke-opacity:1"
       id="path3241" />
    <path
       d="M 65.129164,973.22834 L 65.129164,918.07459"
       style="fill:none;fill-rule:evenodd;stroke:#000000;stroke-width:3;stroke-linecap:round;stroke-linejoin:miter;stroke-miterlimit:4;stroke-dasharray:none;stroke-opacity:1"
       id="path3245" />
    <path
       d="M 368.34138,515.57955 C 366.85725,514.21276 365.13716,512.43615 363.14984,510.1954 C 358.54411,497.40637 330.19325,485.85173 368.19315,484.99262 L 368.34138,515.57955 z "
       transform="translate(-303.07144,443.87012)"
       style="fill:#000000;fill-opacity:1;fill-rule:evenodd;stroke:none;stroke-width:1px;stroke-linecap:butt;stroke-linejoin:miter;stroke-opacity:1"
       id="path3247" />
    <path
       d="M 421.7492,503.9454 L 432.34529,493.52788"
       transform="translate(-303.07144,443.87012)"
       style="fill:none;fill-rule:evenodd;stroke:#000000;stroke-width:3;stroke-linecap:round;stroke-linejoin:miter;stroke-miterlimit:4;stroke-dasharray:none;stroke-opacity:1"
       id="path3249" />
    <path
       d="M 421.81048,517.73039 C 429.88451,509.81465 429.47184,507.96852 443.96204,502.61925 C 445.74048,513.01989 438.30693,521.6498 421.33079,534.72967 L 421.81048,517.73039 z "
       transform="translate(-303.07144,443.87012)"
       style="fill:#000000;fill-opacity:1;fill-rule:evenodd;stroke:none;stroke-width:1px;stroke-linecap:butt;stroke-linejoin:miter;stroke-opacity:1"
       id="path3251" />
    <path
       d="M 373.92857,350.35714 C 384.3296,344.48724 423.05073,337.81487 435.35714,338.21429"
       transform="translate(-303.07144,443.87012)"
       style="fill:none;fill-rule:evenodd;stroke:#000000;stroke-width:3;stroke-linecap:round;stroke-linejoin:miter;stroke-miterlimit:4;stroke-dasharray:none;stroke-opacity:1"
       id="path3255" />
  </g>
</svg>
