<svg id="Слой_1" data-name="Слой 1" xmlns="http://www.w3.org/2000/svg" width="117" height="117" viewBox="0 0 117 117"><defs><style>.border{opacity:0.5;}.cls-2{fill:#fff;}</style></defs><title>AddUser</title><g class="cls-1"><path class="cls-2 border" d="M58.5,1A57.5,57.5,0,1,0,116,58.5,57.5,57.5,0,0,0,58.5,1Zm0,111.62A54.12,54.12,0,1,1,112.62,58.5,54.12,54.12,0,0,1,58.5,112.62Z"/><circle class="cls-2" cx="58.28" cy="42.03" r="13.03"/><path class="cls-2" d="M63.91,71.67a15.21,15.21,0,0,1,4.65-11A24.6,24.6,0,0,0,32.42,78.78a24.85,24.85,0,0,0-.25,3.51c0,.29,0,.59,0,.88h37A15.22,15.22,0,0,1,63.91,71.67Z"/><path class="cls-2" d="M79.3,59.58A12.09,12.09,0,1,0,91.4,71.67,12.09,12.09,0,0,0,79.3,59.58ZM85.67,73H80.73V78H77.87V73H72.93V70.36h4.94V65.31h2.85v5.05h4.94Z"/></g></svg>