<svg id="Слой_1" data-name="Слой 1" xmlns="http://www.w3.org/2000/svg" xmlns:xlink="http://www.w3.org/1999/xlink" viewBox="0 0 111 111"><defs><style>.cls-1{fill:#3e0605;}.cls-2{fill:url(#Безымянный_градиент_107);}.cls-3{fill:url(#Безымянный_градиент_90);}.cls-4{fill:url(#Безымянный_градиент_90-2);}.cls-5{fill:url(#Безымянный_градиент_90-3);}</style><radialGradient id="Безымянный_градиент_107" cx="55.5" cy="55.5" r="54.25" gradientUnits="userSpaceOnUse"><stop offset="0.07" stop-color="#bfa323"/><stop offset="0.23" stop-color="#c5a826"/><stop offset="0.44" stop-color="#d8b72d"/><stop offset="0.69" stop-color="#f5d039"/><stop offset="0.75" stop-color="#fed73d"/><stop offset="0.87" stop-color="#fffa51"/><stop offset="0.92" stop-color="#fecd38"/><stop offset="1" stop-color="#fb6a00"/></radialGradient><radialGradient id="Безымянный_градиент_90" cx="55.3" cy="55.76" r="46.57" gradientUnits="userSpaceOnUse"><stop offset="0" stop-color="#fbea00"/><stop offset="0.15" stop-color="#fcf11e"/><stop offset="0.39" stop-color="#ffff54"/><stop offset="0.4" stop-color="#fffc52"/><stop offset="0.56" stop-color="#ffd036"/><stop offset="0.68" stop-color="#ffb524"/><stop offset="0.75" stop-color="#ffab1e"/><stop offset="1" stop-color="#ffff54"/></radialGradient><radialGradient id="Безымянный_градиент_90-2" cx="55.5" cy="55.5" r="52.25" xlink:href="#Безымянный_градиент_90"/><radialGradient id="Безымянный_градиент_90-3" cx="54.25" cy="53.25" r="15.03" xlink:href="#Безымянный_градиент_90"/></defs><title>Chip9</title><circle class="cls-1" cx="55.5" cy="55.5" r="50.75"/><path class="cls-2" d="M55.5,1.25A54.25,54.25,0,1,0,109.75,55.5,54.25,54.25,0,0,0,55.5,1.25Zm0,106.5A52.25,52.25,0,1,1,107.75,55.5,52.25,52.25,0,0,1,55.5,107.75Z"/><path class="cls-3" d="M93.56,59.29c.12-1.25.19-2.51.19-3.79a38.07,38.07,0,0,0-5.48-19.73L94,32.67a26.87,26.87,0,0,0-4.77-8.79,17.39,17.39,0,0,0-7.81-6l-4.4,6a38.06,38.06,0,0,0-21.27-6.61L56,9.94a26.87,26.87,0,0,0-10-.32,17.39,17.39,0,0,0-9.12,3.71L40,20.55A38.39,38.39,0,0,0,22,37l-7.2-4.09a26.87,26.87,0,0,0-4.94,8.7,17.39,17.39,0,0,0-1,9.8l8.51.65c-.1,1.12-.16,2.26-.16,3.41a38.06,38.06,0,0,0,5.26,19.36l-7.19,4.28a26.87,26.87,0,0,0,5.12,8.59,17.39,17.39,0,0,0,8,5.68l4.65-6.89A38.06,38.06,0,0,0,55.5,93.75h.25v8a26.87,26.87,0,0,0,10,0,17.39,17.39,0,0,0,9-4l-3.48-7.4a38.39,38.39,0,0,0,17.45-15.9l6.66,4a26.87,26.87,0,0,0,5.17-8.56,17.39,17.39,0,0,0,1.23-9.77ZM55.5,89.75A34.25,34.25,0,1,1,89.75,55.5,34.25,34.25,0,0,1,55.5,89.75Z"/><path class="cls-4" d="M55.5,3.25A52.25,52.25,0,1,0,107.75,55.5,52.25,52.25,0,0,0,55.5,3.25Zm38,82a8,8,0,0,0-1.2-1.58A45.43,45.43,0,0,1,89,87.51a3,3,0,0,1,.18.25,3,3,0,0,1-4.56,3.75,46,46,0,0,1-4.13,2.93A8,8,0,0,0,84,96.85a50,50,0,0,1-28.54,8.9,50.58,50.58,0,0,1-8.08-.65,12.6,12.6,0,0,0,1.76-2,8,8,0,0,0,.74-1.84,45.41,45.41,0,0,1-5-.88,2.94,2.94,0,0,1-.12.28,3,3,0,0,1-5.56-2,46,46,0,0,1-4.63-2,10.35,10.35,0,0,0,0,4.62A50.4,50.4,0,0,1,7.79,71.29a7.75,7.75,0,0,0,4.16.14,45.41,45.41,0,0,1-1.58-4.81,2.94,2.94,0,0,1-.31,0,3,3,0,0,1-.87-5.84,46,46,0,0,1-.38-5A7.92,7.92,0,0,0,5.3,57.29c0-.6,0-1.19,0-1.79A50.24,50.24,0,0,1,61.94,5.67a7.72,7.72,0,0,0-2,3.61,45.41,45.41,0,0,1,5,.79,2.94,2.94,0,0,1,.12-.28,3,3,0,0,1,5.59,1.89,46,46,0,0,1,4.67,2,8,8,0,0,0,.16-4.24,50.41,50.41,0,0,1,27.3,29.07,16.14,16.14,0,0,0-3.08-.7,8,8,0,0,0-2,.27,45.41,45.41,0,0,1,1.69,4.77,2.94,2.94,0,0,1,.31,0,3,3,0,0,1,1,5.82,46,46,0,0,1,.5,5,10.47,10.47,0,0,0,4.36-1.75c.09,1.2.15,2.41.15,3.64A50,50,0,0,1,94.31,87.41,8,8,0,0,0,93.47,85.26Z"/><path class="cls-5" d="M62.18,37.25H50.59a6.13,6.13,0,0,0-6,5.18l-1.27,7.46a6.43,6.43,0,0,0,.16,2.86,6.22,6.22,0,0,0,3.5,4,5.87,5.87,0,0,0,2.32.48H59.45a2.89,2.89,0,0,1,.2,1.68l-.71,3.73a3.31,3.31,0,0,1-3.32,2.59H49.18a3.21,3.21,0,0,1-3.32-3.68l.25-1.32H40.79l-.45,2.38a5.78,5.78,0,0,0,6,6.62H57.91a6.12,6.12,0,0,0,5.38-3.07,2,2,0,0,0,.7-1.09l2.84-12.24a2,2,0,0,0,0-.67s0-.07,0-.11l1.27-7.46A6.21,6.21,0,0,0,62.18,37.25Zm0,8.63-.66,3.88a3.28,3.28,0,0,1-.83,1.68,3.1,3.1,0,0,1-2.27,1h-6A3.1,3.1,0,0,1,50,51.25a3.32,3.32,0,0,1-.67-2.63L50,44.74A3.19,3.19,0,0,1,53.07,42h6A3.23,3.23,0,0,1,62.2,45.88Z"/></svg>