<?xml version="1.0" encoding="UTF-8" standalone="no"?>
<!-- Created with Inkscape (http://www.inkscape.org/) -->

<svg
   xmlns:dc="http://purl.org/dc/elements/1.1/"
   xmlns:cc="http://creativecommons.org/ns#"
   xmlns:rdf="http://www.w3.org/1999/02/22-rdf-syntax-ns#"
   xmlns:svg="http://www.w3.org/2000/svg"
   xmlns="http://www.w3.org/2000/svg"
   xmlns:sodipodi="http://sodipodi.sourceforge.net/DTD/sodipodi-0.dtd"
   xmlns:inkscape="http://www.inkscape.org/namespaces/inkscape"
   width="345.3605"
   height="159.996"
   version="1.1"
   viewBox="0 0 345.36049 159.99601"
   xml:space="preserve"
   id="svg43"
   sodipodi:docname="DailyBonus.svg"
   inkscape:version="0.92.1 r15371"><sodipodi:namedview
     pagecolor="#ffffff"
     bordercolor="#666666"
     borderopacity="1"
     objecttolerance="10"
     gridtolerance="10"
     guidetolerance="10"
     inkscape:pageopacity="0"
     inkscape:pageshadow="2"
     inkscape:window-width="1022"
     inkscape:window-height="480"
     id="namedview45"
     showgrid="false"
     fit-margin-top="0"
     fit-margin-left="0"
     fit-margin-right="0"
     fit-margin-bottom="0"
     inkscape:zoom="1.1114123"
     inkscape:cx="192.02684"
     inkscape:cy="79.998322"
     inkscape:window-x="0"
     inkscape:window-y="0"
     inkscape:window-maximized="0"
     inkscape:current-layer="svg43" /><metadata
     id="metadata2"><rdf:RDF><cc:Work
         rdf:about=""><dc:format>image/svg+xml</dc:format><dc:type
           rdf:resource="http://purl.org/dc/dcmitype/StillImage" /><dc:title></dc:title></cc:Work></rdf:RDF></metadata><defs
     id="defs17"><clipPath
       id="clipPath134"><path
         d="M 0,139.008 H 249.008 V 0 H 0 Z"
         id="path4"
         inkscape:connector-curvature="0" /></clipPath><clipPath
       id="clipPath142"><path
         d="m 9.501,89.375 h 117 v -42 h -117 z"
         id="path7"
         inkscape:connector-curvature="0" /></clipPath><linearGradient
       id="linearGradient154"
       x2="1"
       gradientTransform="matrix(117,0,0,-117,9.501,68.375)"
       gradientUnits="userSpaceOnUse"><stop
         stop-color="#f99f00"
         offset="0"
         id="stop10" /><stop
         stop-color="#fc0"
         offset=".49189"
         id="stop12" /><stop
         stop-color="#ff8300"
         offset="1"
         id="stop14" /></linearGradient></defs><g
     clip-path="url(#clipPath142)"
     id="g21"
     style="opacity:0.62999998"
     transform="matrix(1.6639824,0,0,-1.3333,-15.809497,172.66768)"><path
       d="M 126.5,47.375 H 9.5 L 22.654,67.698 9.5,89.375 h 117 z"
       id="path19"
       style="fill:url(#linearGradient154)"
       inkscape:connector-curvature="0" /></g><g
     transform="matrix(1.3333,0,0,-1.3333,259.73599,69.34493)"
     id="g25"><path
       d="m 0,0 c 0,1.706 0.981,2.736 2.943,3.092 v -6.76 C 0.981,-2.687 0,-1.465 0,0 m 6.035,-10.875 c 2.019,-0.882 3.028,-2.02 3.028,-3.413 0,-1.72 -1.009,-2.736 -3.028,-3.049 z m 0,-16.079 v 4.627 c 2.781,0.313 4.92,1.191 6.417,2.634 1.496,1.443 2.244,3.344 2.244,5.704 0,2.047 -0.671,3.792 -2.011,5.235 -1.342,1.443 -3.558,2.726 -6.65,3.849 v 8.082 c 2.471,-0.27 4.694,-1.01 6.671,-2.218 V 6.717 C 11.237,7.542 9.014,8.025 6.035,8.167 v 3.881 H 2.943 V 8.082 C 0.36,7.826 -1.715,6.912 -3.282,5.341 -4.85,3.771 -5.633,1.869 -5.633,-0.363 c 0,-2.075 0.604,-3.835 1.811,-5.278 1.207,-1.442 3.462,-2.782 6.765,-4.019 v -7.762 c -1.27,0.085 -2.717,0.412 -4.34,0.981 -1.624,0.568 -2.845,1.187 -3.665,1.855 v -5.907 c 2.471,-1.294 5.139,-1.947 8.005,-1.962 v -4.499 z"
       id="path23"
       inkscape:connector-curvature="0"
       style="fill:#ffbe00" /></g><g
     transform="matrix(1.3333,0,0,-1.3333,310.14806,94.74829)"
     id="g29"><path
       d="M 0,0 V 12.412 H -8.635 V 0 H -21.047 V -8.634 H -8.635 V -21.046 H 0 V -8.634 H 12.412 V 0 Z"
       id="path27"
       inkscape:connector-curvature="0"
       style="fill:#ffbe00" /></g><g
     transform="matrix(1.3333,0,0,-1.3333,250.42955,134.3993)"
     id="g33"><path
       d="m 0,0 c 0,2.159 2.159,9.174 3.238,10.793 3.778,1.619 14.032,1.08 17.27,0 C 22.126,10.254 23.745,0 23.745,0 20.508,-3.238 2.698,-2.158 0,0 m -18.942,10.139 c -3.096,1.535 -11.59,17.225 -10.021,21.527 0,0 9.98,2.859 11.151,1.619 2.345,-2.479 7.162,-11.548 7.289,-15.656 -1.013,-1.661 -6.462,-6.579 -8.419,-7.49 m 0.432,62.806 c 0,0 8.148,-6.432 7.825,-8.108 -0.643,-3.352 -5.193,-12.556 -8.454,-15.057 -1.94,-0.149 -9.114,1.404 -10.997,2.461 -0.56,3.409 7.217,19.466 11.626,20.704 m 42.255,9.68 c 0,-2.158 -2.158,-9.174 -3.237,-10.793 -3.779,-1.619 -14.031,-1.079 -17.27,0 C 1.619,72.372 0,82.625 0,82.625 c 3.238,3.238 21.047,2.159 23.745,0 M 41.62,72.136 C 46.029,70.897 53.807,54.841 53.246,51.431 51.364,50.375 44.189,48.822 42.25,48.97 c -3.262,2.501 -7.812,11.706 -8.455,15.058 -0.322,1.676 7.825,8.108 7.825,8.108 M 30.761,7.073 v 8.905 h -7.8 c -3.602,-1.729 -7.636,-2.699 -11.898,-2.699 -15.2,0 -27.522,12.323 -27.522,27.523 0,15.2 12.322,27.522 27.522,27.522 13.066,0 23.997,-9.106 26.812,-21.316 h 9.615 c 1.49,0 2.698,-1.208 2.698,-2.698 v -8.905 h 6.419 c 0.208,1.772 0.328,3.57 0.328,5.397 0,25.334 -20.538,45.871 -45.872,45.871 -25.334,0 -45.871,-20.537 -45.871,-45.871 0,-25.334 20.537,-45.871 45.871,-45.871 10.485,0 20.141,3.525 27.867,9.444 h -5.471 c -1.49,0 -2.698,1.208 -2.698,2.698"
       id="path31"
       inkscape:connector-curvature="0"
       style="fill:#ffbe00" /></g><g
     transform="matrix(1.3333,0,0,-1.3333,265.36251,154.6628)"
     id="g37"><path
       d="m 0,0 c -30.928,0 -56,25.072 -56,56 0,30.928 25.072,56 56,56 C 30.928,112 56,86.928 56,56 56,25.072 30.928,0 0,0 m 0,116 c -33.137,0 -60,-26.863 -60,-60 0,-33.137 26.863,-60 60,-60 33.137,0 60,26.863 60,60 0,33.137 -26.863,60 -60,60"
       id="path35"
       inkscape:connector-curvature="0"
       style="fill:#ffbe00" /></g></svg>