<svg id="Слой_1" data-name="Слой 1" xmlns="http://www.w3.org/2000/svg" viewBox="0 0 251 111.5"><defs><style>.cls-1{fill:#a05a78;}.cls-2{fill:#f5f4f4;}</style></defs><title>GetMoreChips</title><path class="cls-1" d="M195.58,0H55.42A55.42,55.42,0,0,0,0,55.42v.65A55.42,55.42,0,0,0,55.42,111.5H195.58A55.42,55.42,0,0,0,251,56.08v-.65A55.42,55.42,0,0,0,195.58,0ZM246,55.88A51.12,51.12,0,0,1,194.88,107H56.12A51.12,51.12,0,0,1,5,55.88V54.62A51.12,51.12,0,0,1,56.12,3.5H194.88A51.12,51.12,0,0,1,246,54.62Z"/><path class="cls-2" d="M148.34,12.5H105.66A4.66,4.66,0,0,0,101,17.16V58.34A4.66,4.66,0,0,0,105.66,63h42.67A4.66,4.66,0,0,0,153,58.34V17.16A4.66,4.66,0,0,0,148.34,12.5Zm-31.84,5h8v7h-8ZM134,37.42l-11.5,8v-15ZM111.5,57.5h-6v-7h6Zm13,0h-8v-7h8Zm13,0h-8v-7h8Zm0-33h-8v-7h8Zm10,33h-6v-7h6Zm0-33h-6v-7h6ZM112,25h-6V18h6Z"/></svg>