<?xml version="1.0" encoding="UTF-8"?>
<!-- Created with Inkscape (http://www.inkscape.org/) -->
<svg width="150.67" height="152" version="1.1" viewBox="0 0 150.67 152" xml:space="preserve" xmlns="http://www.w3.org/2000/svg" xmlns:cc="http://creativecommons.org/ns#" xmlns:dc="http://purl.org/dc/elements/1.1/" xmlns:rdf="http://www.w3.org/1999/02/22-rdf-syntax-ns#"><metadata><rdf:RDF><cc:Work rdf:about=""><dc:format>image/svg+xml</dc:format><dc:type rdf:resource="http://purl.org/dc/dcmitype/StillImage"/><dc:title/></cc:Work></rdf:RDF></metadata><defs><clipPath id="clipPath2566"><path d="m0 114h113v-114h-113z"/></clipPath></defs><g transform="matrix(1.3333 0 0 -1.3333 0 152)"><g clip-path="url(#clipPath2566)"><g transform="translate(57,4.7646)"><path d="m0 0c-28.849 0-52.235 23.387-52.235 52.235 0 28.849 23.386 52.236 52.235 52.236s52.235-23.387 52.235-52.236c0-28.848-23.386-52.235-52.235-52.235m0 107.74c-30.652 0-55.5-24.848-55.5-55.5 0-30.651 24.848-55.5 55.5-55.5s55.5 24.849 55.5 55.5c0 30.652-24.848 55.5-55.5 55.5" fill="rgba(255, 255, 255, 0.45)"/></g><g transform="translate(78.527 43.546)"><path d="m0 0-13.454 13.454 13.454 13.454-8.073 8.072-13.454-13.454-13.454 13.454-8.073-8.072 13.455-13.454-13.455-13.454 8.073-8.072 13.454 13.454 13.454-13.454z" fill="rgba(255, 255, 255, 0.85)"/></g></g></g></svg>
