<?xml version="1.0" encoding="UTF-8" standalone="no"?>
<svg
   xmlns:dc="http://purl.org/dc/elements/1.1/"
   xmlns:cc="http://creativecommons.org/ns#"
   xmlns:rdf="http://www.w3.org/1999/02/22-rdf-syntax-ns#"
   xmlns:svg="http://www.w3.org/2000/svg"
   xmlns="http://www.w3.org/2000/svg"
   xmlns:sodipodi="http://sodipodi.sourceforge.net/DTD/sodipodi-0.dtd"
   xmlns:inkscape="http://www.inkscape.org/namespaces/inkscape"
   id="Слой_1"
   data-name="Слой 1"
   width="132"
   height="132"
   viewBox="0 0 132 132"
   version="1.1"
   sodipodi:docname="IconChip_1.svg"
   inkscape:version="0.92.2 2405546, 2018-03-11">
  <metadata
     id="metadata69">
    <rdf:RDF>
      <cc:Work
         rdf:about="">
        <dc:format>image/svg+xml</dc:format>
        <dc:type
           rdf:resource="http://purl.org/dc/dcmitype/StillImage" />
      </cc:Work>
    </rdf:RDF>
  </metadata>
  <sodipodi:namedview
     pagecolor="#ffffff"
     bordercolor="#666666"
     borderopacity="1"
     objecttolerance="10"
     gridtolerance="10"
     guidetolerance="10"
     inkscape:pageopacity="0"
     inkscape:pageshadow="2"
     inkscape:window-width="788"
     inkscape:window-height="480"
     id="namedview67"
     showgrid="false"
     inkscape:zoom="1.7878788"
     inkscape:cx="66"
     inkscape:cy="66"
     inkscape:window-x="0"
     inkscape:window-y="0"
     inkscape:window-maximized="0"
     inkscape:current-layer="Слой_1" />
  <defs
     id="defs4">
    <style
       id="style2">.cls-1{fill:#fff;}.cls-2,.cls-3{fill:#29aba7;}.cls-3{opacity:0.61;}.cls-4{fill:#a31f19;}.cls-5{fill:#c1272d;}.cls-6{fill:#940a0a;}</style>
  </defs>
  <title
     id="title6">IconChip_1</title>
  <path
     class="cls-1"
     d="M17.25,66a48.51,48.51,0,0,1,9.17-28.45L12.84,28.62A64.68,64.68,0,0,0,1,66c0,1,0,1.93.07,2.89l16.19-2.51C17.26,66.25,17.25,66.13,17.25,66Z"
     id="path8" />
  <path
     class="cls-1"
     d="M109.34,43.69l14.23-7.85A65.29,65.29,0,0,0,102.19,12c-1.94,4-4.42,9.28-7,14.92A49,49,0,0,1,109.34,43.69Z"
     id="path10" />
  <path
     class="cls-1"
     d="M114.75,66a48.55,48.55,0,0,1-4.89,21.29l14.4,7.52A64.71,64.71,0,0,0,131,66c0-1,0-1.94-.07-2.91-4.54.64-10.21,1.49-16.19,2.41C114.74,65.67,114.75,65.83,114.75,66Z"
     id="path12" />
  <path
     class="cls-1"
     d="M96.25,104.22a48.51,48.51,0,0,1-29.4,10.51L67.63,131a64.7,64.7,0,0,0,39.53-14.66C104.05,112.82,100.24,108.61,96.25,104.22Z"
     id="path14" />
  <path
     class="cls-1"
     d="M23.21,89.37c-5.75,3.2-10.82,6.06-14.14,8a65.25,65.25,0,0,0,30.39,28c1.4-4.25,3.14-9.73,5-15.6A49,49,0,0,1,23.21,89.37Z"
     id="path16" />
  <path
     class="cls-1"
     d="M66,17.25a49.09,49.09,0,0,1,7.63.6L75,1.63A65.48,65.48,0,0,0,66,1,64.68,64.68,0,0,0,33.69,9.61c2.7,3.74,6.1,8.35,9.69,13.21A48.52,48.52,0,0,1,66,17.25Z"
     id="path18" />
  <path
     class="cls-1"
     d="M96.25,104.22c4,4.39,7.81,8.6,10.91,12.09a65.24,65.24,0,0,0,17.11-21.49l-14.4-7.52A48.93,48.93,0,0,1,96.25,104.22Z"
     id="path20" />
  <path
     class="cls-1"
     d="M114.74,65.5c6-.92,11.65-1.77,16.19-2.41a64.62,64.62,0,0,0-7.35-27.26l-14.23,7.85A48.51,48.51,0,0,1,114.74,65.5Z"
     id="path22" />
  <path
     class="cls-1"
     d="M95.15,26.92c2.63-5.64,5.1-10.89,7-14.92A64.61,64.61,0,0,0,75,1.63L73.63,17.85A48.5,48.5,0,0,1,95.15,26.92Z"
     id="path24" />
  <path
     class="cls-1"
     d="M43.38,22.82c-3.59-4.85-7-9.47-9.69-13.21a65.3,65.3,0,0,0-20.85,19l13.58,8.93A49,49,0,0,1,43.38,22.82Z"
     id="path26" />
  <path
     class="cls-1"
     d="M66,114.75a48.54,48.54,0,0,1-21.55-5c-1.84,5.87-3.59,11.35-5,15.6A64.74,64.74,0,0,0,66,131c.55,0,1.08,0,1.63,0l-.77-16.23Z"
     id="path28" />
  <path
     class="cls-2"
     d="M56.37,71.15l1-.53-.45-1.18Z"
     id="path30" />
  <path
     class="cls-3"
     d="M56.37,71.15l1-.53-.45-1.18Z"
     id="path32" />
  <path
     class="cls-4"
     d="M115,66c0-.18,0-.35,0-.53,5.89-.9,11.46-1.74,15.94-2.37a64.62,64.62,0,0,0-7.35-27.26l-14,7.73a49.21,49.21,0,0,0-14.3-16.88c2.59-5.55,5-10.71,6.94-14.69A64.62,64.62,0,0,0,75,1.63l-1.34,16A49.36,49.36,0,0,0,66,17a48.77,48.77,0,0,0-22.77,5.62c-3.54-4.78-6.88-9.32-9.54-13a65.3,65.3,0,0,0-20.85,19l13.37,8.8A48.76,48.76,0,0,0,17,66c0,.14,0,.27,0,.41L1.07,68.89a64.62,64.62,0,0,0,8,28.5c3.28-1.92,8.26-4.74,13.92-7.89A49.21,49.21,0,0,0,44.38,110c-1.82,5.78-3.53,11.17-4.91,15.36A64.74,64.74,0,0,0,66,131c.55,0,1.08,0,1.63,0l-.76-16A48.76,48.76,0,0,0,96.42,104.4c3.93,4.32,7.68,8.47,10.74,11.9a65.24,65.24,0,0,0,17.11-21.49l-14.18-7.4A48.8,48.8,0,0,0,115,66ZM23,66a43,43,0,1,1,43,43A43,43,0,0,1,23,66Z"
     id="path34" />
  <circle
     class="cls-5"
     cx="66"
     cy="66"
     r="41.79"
     id="circle36" />
  <circle
     class="cls-4"
     cx="66"
     cy="66"
     r="37"
     id="circle38" />
  <path
     class="cls-6"
     d="M99.84,81,104,83.31a41.6,41.6,0,0,0,3.74-16.68l-4.81.85A36.81,36.81,0,0,1,99.84,81Z"
     id="path42" />
  <path
     class="cls-6"
     d="M33.16,83l-4.11,2.48a42,42,0,0,0,18.7,18.07L49.36,99A37.15,37.15,0,0,1,33.16,83Z"
     id="path44" />
  <path
     class="cls-6"
     d="M66.27,103l.19,4.78a41.58,41.58,0,0,0,25-8.66L88.2,95.6A36.83,36.83,0,0,1,66.27,103Z"
     id="path46" />
  <path
     class="cls-6"
     d="M66,29a37.16,37.16,0,0,1,7,.68l.36-4.8a41.71,41.71,0,0,0-25.75,3.56l3.06,3.85A36.85,36.85,0,0,1,66,29Z"
     id="path48" />
  <path
     class="cls-6"
     d="M36.54,43.62l-4-2.67a41.59,41.59,0,0,0-8.33,24.41L29,64.57A36.81,36.81,0,0,1,36.54,43.62Z"
     id="path50" />
  <path
     class="cls-6"
     d="M98.94,49.16l4.24-2.22A41.94,41.94,0,0,0,92,33.3l-2,4.57A37.13,37.13,0,0,1,98.94,49.16Z"
     id="path52" />
  <path
     class="cls-1"
     d="M103,66c0,.5,0,1,0,1.48l4.81-.85c0-.21,0-.42,0-.63a41.59,41.59,0,0,0-4.61-19.07l-4.24,2.22A36.83,36.83,0,0,1,103,66Z"
     id="path54" />
  <path
     class="cls-1"
     d="M104,83.31,99.84,81A37.13,37.13,0,0,1,88.2,95.6l3.27,3.51A41.92,41.92,0,0,0,104,83.31Z"
     id="path56" />
  <path
     class="cls-1"
     d="M29,66c0-.48,0-1,0-1.43l-4.81.78c0,.22,0,.43,0,.65a41.59,41.59,0,0,0,4.84,19.52L33.16,83A36.83,36.83,0,0,1,29,66Z"
     id="path58" />
  <path
     class="cls-1"
     d="M66,103a36.83,36.83,0,0,1-16.64-4l-1.61,4.55A41.61,41.61,0,0,0,66,107.79h.46L66.27,103Z"
     id="path60" />
  <path
     class="cls-1"
     d="M50.73,32.3l-3.06-3.85a42,42,0,0,0-15.11,12.5l4,2.67A37.13,37.13,0,0,1,50.73,32.3Z"
     id="path62" />
  <path
     class="cls-1"
     d="M90,37.86l2-4.57a41.59,41.59,0,0,0-18.58-8.41L73,29.68A36.85,36.85,0,0,1,90,37.86Z"
     id="path64" />
</svg>
