<svg id="Слой_1" data-name="Слой 1" xmlns="http://www.w3.org/2000/svg" width="118" height="118" viewBox="0 0 118 118"><defs><style>.border{opacity:0.5;}.cls-2{fill:#fff;}</style></defs><title>Options</title><g class="cls-1"><path class="cls-2 border" d="M59,1a58,58,0,1,0,58,58A58,58,0,0,0,59,1Zm0,112.59A54.59,54.59,0,1,1,113.59,59,54.59,54.59,0,0,1,59,113.59Z"/><path class="cls-2" d="M84.25,46l-6.31,1.72a21.26,21.26,0,0,0-4.44-5.06l1.88-6.89-8.19-2.73-2.85,5.22A21.24,21.24,0,0,0,60,37.85c-.58,0-1.16,0-1.73.08l-3.39-6.22-8.19,2.73,1.85,6.79a21.26,21.26,0,0,0-5.13,4.66l-7-1.9-2.73,8.19,5.47,3A21.05,21.05,0,0,0,39,61.23l-5.92,3.23,2.73,8.19,6.68-1.82a21.26,21.26,0,0,0,5.35,5.46L46,82.88l8.19,2.73L57.3,80a20.65,20.65,0,0,0,5.45,0l3.08,5.64L74,82.88l-1.8-6.6a21.27,21.27,0,0,0,4.4-4.17l7,1.9,2.73-8.19-5.47-3A21.25,21.25,0,0,0,81.18,59c0-.53,0-1.06-.06-1.58L87,54.22ZM60,70.26A11.26,11.26,0,1,1,71.28,59,11.26,11.26,0,0,1,60,70.26Z"/></g></svg>