<?xml version="1.0" encoding="UTF-8"?>
<!-- Created with Inkscape (http://www.inkscape.org/) -->
<svg width="218.68" height="233.34" version="1.1" viewBox="0 0 218.68 233.34" xml:space="preserve" xmlns="http://www.w3.org/2000/svg" xmlns:cc="http://creativecommons.org/ns#" xmlns:dc="http://purl.org/dc/elements/1.1/" xmlns:rdf="http://www.w3.org/1999/02/22-rdf-syntax-ns#"><metadata><rdf:RDF><cc:Work rdf:about=""><dc:format>image/svg+xml</dc:format><dc:type rdf:resource="http://purl.org/dc/dcmitype/StillImage"/><dc:title/></cc:Work></rdf:RDF></metadata><defs><clipPath id="clipPath26"><path d="M 0,175.008 H 164.008 V 0 H 0 Z"/></clipPath></defs><g transform="matrix(1.3333 0 0 -1.3333 0 233.34)"><g clip-path="url(#clipPath26)"><g transform="translate(143.12 91.8)"><path d="m0 0c-3.899 3.049-7.882 5.993-11.419 8.673-3.359-2.473-6.87-5.123-10.452-7.676-4.592-3.272-5.945-7.811-3.663-12.646 2.199-4.66 7.398-5.804 11.352-2.495 0.61 0.512 1.203 1.043 1.804 1.566 0.229-0.137 0.458-0.275 0.688-0.411-0.964-2.387-1.927-4.774-2.95-7.307h6.823c-1.149 2.532-2.186 4.819-3.223 7.106l0.682 0.392c0.572-0.468 1.131-0.952 1.718-1.401 4.254-3.256 9.691-1.693 11.584 3.324 1.603 4.249 0.622 8.088-2.944 10.875" fill="#690a1c"/></g><g transform="translate(43.482 90.512)"><path d="m0 0c-1.38 0.478-3.191-0.293-4.843-0.52 2.152 5.183 2.077 7.585-0.263 9.316-2.707 2.002-9.092 1.826-11.542-0.317-2.26-1.977-2.31-4.384 1e-3 -8.712-4.64 1.923-6.77 1.539-8.453-1.31-2.078-3.515-1.375-9.158 1.984-11.35 5.137-3.351 9.137 1.649 11.137 3.649-1-4-1.472-6.76-2.305-10h7.046c-0.741 1-1.741 6-3.434 9.547 4.247-5.017 7.654-5.169 10.693-3.547 3.178 1.695 5.022 5.765 3.421 9.828-0.558 1.415-2.041 2.931-3.442 3.416" fill="#690a1c"/></g><g transform="translate(68.988 33.74)"><path d="m0 0c4.285-5.402 8.379-10.563 12.663-15.963 4.427 5.602 8.481 10.731 12.619 15.967-4.236 5.352-8.335 10.532-12.633 15.963-4.376-5.525-8.486-10.713-12.649-15.967" fill="#690a1c"/></g><g transform="translate(82.504 125.5)"><path d="m0 0s9.814 5.92 12.5 9.5c3 4 4 10-3 13-5.813 2.491-9-3-10-5-1 1-4 5-9 5s-11-8-3.5-14.5c3.023-2.62 13-8 13-8" fill="#690a1c"/></g><g transform="translate(95.504 123.5)"><path d="m0 0 23-23" fill="none" stroke="#520b1d" stroke-miterlimit="10"/></g><g transform="translate(44.504 72.504)"><path d="m0 0 23-23" fill="none" stroke="#520b1d" stroke-miterlimit="10"/></g><g transform="translate(67.504 123.5)"><path d="m0 0-23-23" fill="none" stroke="#520b1d" stroke-miterlimit="10"/></g><g transform="translate(118.5 72.504)"><path d="m0 0-23-23" fill="none" stroke="#520b1d" stroke-miterlimit="10"/></g><g transform="translate(95.504 21.504)"><path d="m0 0 11.5-11.5" fill="none" stroke="#520b1d" stroke-miterlimit="10"/></g><g transform="translate(67.504 21.504)"><path d="m0 0-11.5-11.5" fill="none" stroke="#520b1d" stroke-miterlimit="10"/></g><g transform="translate(143.5 72.504)"><path d="m0 0 11.5-11.5" fill="none" stroke="#520b1d" stroke-miterlimit="10"/></g><g transform="translate(155 112)"><path d="m0 0-11.5-11.5" fill="none" stroke="#520b1d" stroke-miterlimit="10"/></g><g transform="translate(56.004 166)"><path d="m0 0 11.5-11.5" fill="none" stroke="#520b1d" stroke-miterlimit="10"/></g><g transform="translate(107 166)"><path d="m0 0-11.5-11.5" fill="none" stroke="#520b1d" stroke-miterlimit="10"/></g><g transform="translate(8.0039 112)"><path d="m0 0 11.5-11.5" fill="none" stroke="#520b1d" stroke-miterlimit="10"/></g><g transform="translate(19.504 72.504)"><path d="m0 0-11.5-11.5" fill="none" stroke="#520b1d" stroke-miterlimit="10"/></g></g></g></svg>
