<svg id="Слой_1" data-name="Слой 1" xmlns="http://www.w3.org/2000/svg" viewBox="0 0 118 118"><defs><style>.cls-1{opacity:0.1;}.cls-2{fill:#fcee21;}</style></defs><title>Target</title><g class="cls-1"><path class="cls-2" d="M86.13,27.63,63.62,50.14a10,10,0,1,0,4.24,4.24L90.42,31.82l8.08-.32,17-17L104,14l-.62-11.62-17,17Z"/><path class="cls-2" d="M59,34a24.91,24.91,0,0,1,9.94,2.06l6.7-6.7a34,34,0,1,0,12.45,12L81.46,48A25,25,0,1,1,59,34Z"/><path class="cls-2" d="M108.78,29.23l-7.05,7.91A48,48,0,1,1,81.55,16.63L88.37,9a58,58,0,1,0,20.41,20.25Z"/></g></svg>