<?xml version="1.0" encoding="UTF-8"?>
<!-- Created with Inkscape (http://www.inkscape.org/) -->
<svg width="333.34" height="117.34" version="1.1" viewBox="0 0 333.34 117.34" xml:space="preserve" xmlns="http://www.w3.org/2000/svg" xmlns:cc="http://creativecommons.org/ns#" xmlns:dc="http://purl.org/dc/elements/1.1/" xmlns:rdf="http://www.w3.org/1999/02/22-rdf-syntax-ns#"><metadata><rdf:RDF><cc:Work rdf:about=""><dc:format>image/svg+xml</dc:format><dc:type rdf:resource="http://purl.org/dc/dcmitype/StillImage"/><dc:title/></cc:Work></rdf:RDF></metadata><defs><clipPath id="clipPath56"><path d="M 0,88.008 H 250.008 V 0 H 0 Z"/></clipPath></defs><g transform="matrix(1.3333 0 0 -1.3333 0 117.34)"><g clip-path="url(#clipPath56)"><g transform="translate(232 10.504)"><path d="m0 0h-213c-3.037 0-5.5 2.462-5.5 5.5v53c0 3.037 2.463 5.5 5.5 5.5h213c3.037 0 5.5-2.463 5.5-5.5v-53c0-3.038-2.463-5.5-5.5-5.5" fill="#210b11"/></g><g><path d="m240.5 14.504h-231v64h231z" fill="#037471"/><path d="m240.5 76.504h-231v1h231z" fill="#11908b"/><path d="m84.038 54.079h-3.563v4.158h3.563zm21.09 0.296h-3.564v4.158h3.564zm0-19.604h-3.564v4.159h3.564zm-5.94 19.604h-4.753v4.158h4.753zm0-19.604h-4.753v4.159h4.753zm-7.724 0h-4.752v4.159h4.752zm-7.723 0h-3.564v4.159h3.564zm13.366 11.926-6.831-4.783v8.882zm-10.395 11.837h4.752v-4.158h-4.752zm18.912 2.97h-25.35c-1.53 0-2.77-1.241-2.77-2.771v-24.458c0-1.53 1.24-2.771 2.77-2.771h25.35c1.53 0 2.771 1.241 2.771 2.771v24.458c0 1.53-1.241 2.771-2.771 2.771" fill="#f5f4f4"/></g></g></g></svg>
