<?xml version="1.0" encoding="UTF-8"?>
<!-- Created with Inkscape (http://www.inkscape.org/) -->
<svg width="376.01" height="589.34" version="1.1" viewBox="0 0 376.01 589.34" xml:space="preserve" xmlns="http://www.w3.org/2000/svg" xmlns:cc="http://creativecommons.org/ns#" xmlns:dc="http://purl.org/dc/elements/1.1/" xmlns:rdf="http://www.w3.org/1999/02/22-rdf-syntax-ns#"><metadata><rdf:RDF><cc:Work rdf:about=""><dc:format>image/svg+xml</dc:format><dc:type rdf:resource="http://purl.org/dc/dcmitype/StillImage"/><dc:title/></cc:Work></rdf:RDF></metadata><defs><clipPath id="clipPath26"><path d="M 0,442.008 H 282.008 V 0 H 0 Z"/></clipPath></defs><g transform="matrix(1.3333 0 0 -1.3333 0 589.34)"><g clip-path="url(#clipPath26)"><g transform="translate(244.73 11.004)"><path d="m0 0h-207.46c-6.776 0-12.269 5.493-12.269 12.27v167.46c0 6.777 5.493 12.27 12.269 12.27h207.46c6.776 0 12.27-5.493 12.27-12.27v-167.46c0-6.777-5.494-12.27-12.27-12.27" fill="#1e030a"/></g><g transform="translate(251.93 16.504)"><path d="m0 0h-221.85c-10.534 0-19.073 8.539-19.073 19.073v375.85c0 10.534 8.539 19.073 19.073 19.073h221.85c10.534 0 19.073-8.539 19.073-19.073v-375.85c0-10.534-8.539-19.073-19.073-19.073" fill="#5f131e"/></g><g transform="translate(251.93 16.504)"><path d="m0 0h-221.85c-10.534 0-19.073 8.539-19.073 19.073v375.85c0 10.534 8.539 19.073 19.073 19.073h221.85c10.534 0 19.073-8.539 19.073-19.073v-375.85c0-10.534-8.539-19.073-19.073-19.073z" fill="none" stroke="#3b071b" stroke-miterlimit="10" stroke-width="3"/></g></g></g></svg>
