<?xml version="1.0" encoding="UTF-8" standalone="no"?>
<!-- Created with Inkscape (http://www.inkscape.org/) -->

<svg
   xmlns:dc="http://purl.org/dc/elements/1.1/"
   xmlns:cc="http://creativecommons.org/ns#"
   xmlns:rdf="http://www.w3.org/1999/02/22-rdf-syntax-ns#"
   xmlns:svg="http://www.w3.org/2000/svg"
   xmlns="http://www.w3.org/2000/svg"
   xmlns:sodipodi="http://sodipodi.sourceforge.net/DTD/sodipodi-0.dtd"
   xmlns:inkscape="http://www.inkscape.org/namespaces/inkscape"
   version="1.1"
   id="svg36"
   xml:space="preserve"
   width="152"
   height="152"
   viewBox="0 0 152 152"
   sodipodi:docname="IconCheck3.svg"
   inkscape:version="0.92.3 (2405546, 2018-03-11)"><metadata
     id="metadata42"><rdf:RDF><cc:Work
         rdf:about=""><dc:format>image/svg+xml</dc:format><dc:type
           rdf:resource="http://purl.org/dc/dcmitype/StillImage" /><dc:title></dc:title></cc:Work></rdf:RDF></metadata><defs
     id="defs40"><clipPath
       clipPathUnits="userSpaceOnUse"
       id="clipPath52"><path
         d="M 0,114 H 114 V 0 H 0 Z"
         id="path50"
         inkscape:connector-curvature="0" /></clipPath></defs><sodipodi:namedview
     pagecolor="#ffffff"
     bordercolor="#666666"
     borderopacity="1"
     objecttolerance="10"
     gridtolerance="10"
     guidetolerance="10"
     inkscape:pageopacity="0"
     inkscape:pageshadow="2"
     inkscape:window-width="640"
     inkscape:window-height="480"
     id="namedview38"
     showgrid="false"
     inkscape:zoom="1.5526316"
     inkscape:cx="76"
     inkscape:cy="76"
     inkscape:window-x="0"
     inkscape:window-y="0"
     inkscape:window-maximized="0"
     inkscape:current-layer="g44" /><g
     id="g44"
     inkscape:groupmode="layer"
     inkscape:label="Zynga poker NEW_UI_1px-3"
     transform="matrix(1.3333333,0,0,-1.3333333,0,152)"><g
       id="g46"><g
         id="g48"
         clip-path="url(#clipPath52)"><g
           id="g54"
           transform="translate(57,110.5)"><path
             d="m 0,0 c -29.547,0 -53.5,-23.953 -53.5,-53.5 0,-29.547 23.953,-53.5 53.5,-53.5 29.547,0 53.5,23.953 53.5,53.5 C 53.5,-23.953 29.547,0 0,0"
             style="fill:#29aba7;fill-opacity:1;fill-rule:nonzero;stroke:none"
             id="path56"
             inkscape:connector-curvature="0" /></g><g
           id="g58"
           transform="translate(49.4785,47.8711)"><path
             d="m 0,0 c 2.368,-2.285 5.479,-3.426 9.33,-3.426 4.763,0 8.472,1.623 11.127,4.873 l 8.393,-5.746 c -4.549,-5.918 -10.97,-8.876 -19.262,-8.876 -7.461,0 -13.303,2.211 -17.527,6.629 -4.224,4.418 -6.336,9.593 -6.336,15.519 0,4.106 1.027,7.889 3.08,11.345 2.054,3.458 4.92,6.176 8.598,8.15 3.679,1.976 7.792,2.965 12.341,2.965 4.211,0 7.993,-0.839 11.347,-2.516 3.352,-1.676 6.095,-4.062 8.227,-7.155 l -8.861,-4.873 c -1.666,1.74 -3.312,2.949 -4.939,3.625 -1.627,0.675 -3.533,1.013 -5.719,1.013 -3.982,0 -7.203,-1.185 -9.663,-3.561 C -2.323,15.592 -3.552,12.548 -3.552,8.837 -3.552,5.229 -2.368,2.283 0,0"
             style="fill:#000000;fill-opacity:1;fill-rule:nonzero;stroke:none"
             id="path60"
             inkscape:connector-curvature="0" /></g></g></g></g></svg>