<?xml version="1.0" encoding="UTF-8"?>
<!-- Created with Inkscape (http://www.inkscape.org/) -->
<svg width="224" height="224" version="1.1" viewBox="0 0 224 224" xml:space="preserve" xmlns="http://www.w3.org/2000/svg" xmlns:cc="http://creativecommons.org/ns#" xmlns:dc="http://purl.org/dc/elements/1.1/" xmlns:rdf="http://www.w3.org/1999/02/22-rdf-syntax-ns#"><metadata><rdf:RDF><cc:Work rdf:about=""><dc:format>image/svg+xml</dc:format><dc:type rdf:resource="http://purl.org/dc/dcmitype/StillImage"/><dc:title/></cc:Work></rdf:RDF></metadata><defs><clipPath id="clipPath16966"><path d="m0 168h168v-168h-168z"/></clipPath></defs><g transform="matrix(1.3333 0 0 -1.3333 0 224)"><g clip-path="url(#clipPath16966)"><g transform="translate(1,84)"><path d="m0 0c0 45.84 37.16 83 83 83s83-37.16 83-83-37.16-83-83-83-83 37.16-83 83" fill="#29aba7"/></g><g transform="translate(70.022 50.064)"><path d="m0 0c2.105-0.296 4.631-0.296 8.28-0.296 9.683 0 18.244 3.854 18.244 14.378 0 10.079-8.561 14.081-19.226 14.081h-7.298zm0 44.319h7.017c11.227 0 17.261 4.892 17.261 12.303 0 7.56-5.473 11.562-15.156 11.562-4.631 0-7.298-0.297-9.122-0.593zm-21.191 38.243c5.613 1.185 16.981 2.074 27.647 2.074 13.051 0 21.05-1.334 27.927-5.632 6.596-3.706 11.367-10.525 11.367-19.566 0-8.893-4.912-17.194-15.577-21.344v-0.296c10.806-3.113 18.805-11.71 18.805-24.606 0-9.042-3.93-16.156-9.824-21.196-6.876-5.78-18.384-9.041-37.189-9.041-10.526 0-18.385 0.74-23.156 1.482z"/></g></g></g></svg>
