<?xml version="1.0" encoding="UTF-8"?>
<!-- Created with Inkscape (http://www.inkscape.org/) -->
<svg width="152" height="152" version="1.1" viewBox="0 0 152 152" xml:space="preserve" xmlns="http://www.w3.org/2000/svg" xmlns:cc="http://creativecommons.org/ns#" xmlns:dc="http://purl.org/dc/elements/1.1/" xmlns:rdf="http://www.w3.org/1999/02/22-rdf-syntax-ns#"><metadata><rdf:RDF><cc:Work rdf:about=""><dc:format>image/svg+xml</dc:format><dc:type rdf:resource="http://purl.org/dc/dcmitype/StillImage"/><dc:title/></cc:Work></rdf:RDF></metadata><defs><clipPath id="clipPath16574"><path d="m0 114h114v-114h-114z"/></clipPath></defs><g transform="matrix(1.3333 0 0 -1.3333 0 152)"><g clip-path="url(#clipPath16574)"><g transform="translate(57,110)"><path d="m0 0c-29.271 0-53-23.729-53-53s23.729-53 53-53 53 23.729 53 53-23.729 53-53 53" fill="#ffdc87"/></g><g transform="translate(82.649 39.393)"><path d="m0 0c-2.472-2.473-6.479-2.473-8.951 0l-15.514 21.843-17.881-22.101c-2.472-2.472-6.479-2.472-8.951 0-2.473 2.472-2.473 6.48 0 8.951l21.094 25.315c0.284 0.521 0.618 1.023 1.059 1.465 2.472 2.472 6.48 2.472 8.952 0l20.192-26.522c2.472-2.472 2.472-6.479 0-8.951"/></g></g></g></svg>
