<?xml version="1.0" encoding="UTF-8"?>
<!-- Created with Inkscape (http://www.inkscape.org/) -->
<svg width="228" height="228" version="1.1" viewBox="0 0 228 228" xml:space="preserve" xmlns="http://www.w3.org/2000/svg" xmlns:cc="http://creativecommons.org/ns#" xmlns:dc="http://purl.org/dc/elements/1.1/" xmlns:rdf="http://www.w3.org/1999/02/22-rdf-syntax-ns#"><metadata><rdf:RDF><cc:Work rdf:about=""><dc:format>image/svg+xml</dc:format><dc:type rdf:resource="http://purl.org/dc/dcmitype/StillImage"/><dc:title/></cc:Work></rdf:RDF></metadata><defs><clipPath id="clipPath16722"><path d="m0 171h171v-171h-171z"/></clipPath><clipPath id="clipPath16738"><path d="m18.794 168.46h52.979v-41.923h-52.979z"/></clipPath><clipPath id="clipPath16754"><path d="m18.794 168.46h52.979v-41.923h-52.979z"/></clipPath><clipPath id="clipPath16770"><path d="m99.227 168.46h52.979v-41.923h-52.979z"/></clipPath><clipPath id="clipPath16786"><path d="m99.227 168.46h52.979v-41.923h-52.979z"/></clipPath><clipPath id="clipPath16802"><path d="m98.607 42.278h51.793v-39.85h-51.793z"/></clipPath><clipPath id="clipPath16818"><path d="m98.607 42.278h51.793v-39.85h-51.793z"/></clipPath><clipPath id="clipPath16834"><path d="m20.6 42.278h51.793v-39.85h-51.793z"/></clipPath><clipPath id="clipPath16850"><path d="m20.6 42.278h51.793v-39.85h-51.793z"/></clipPath><clipPath id="clipPath16866"><path d="m144.48 115.12h25.273v-61.483h-25.273z"/></clipPath><clipPath id="clipPath16882"><path d="m144.48 115.12h25.273v-61.483h-25.273z"/></clipPath><clipPath id="clipPath16898"><path d="m1.25 112.96h24.638v-57.601h-24.638z"/></clipPath><clipPath id="clipPath16914"><path d="m1.25 112.96h24.638v-57.601h-24.638z"/></clipPath></defs><g transform="matrix(1.3333 0 0 -1.3333 0 228)"><g clip-path="url(#clipPath16722)"><g transform="translate(31.339 85.5)"><path d="m0 0c0 29.912 24.249 54.161 54.161 54.161s54.161-24.249 54.161-54.161-24.249-54.161-54.161-54.161-54.161 24.249-54.161 54.161" fill="#29aba7"/></g><g transform="translate(85.5 22.312)"><path d="m0 0c-34.897 0-63.188 28.29-63.188 63.188 0 34.897 28.291 63.187 63.188 63.187 34.898 0 63.188-28.29 63.188-63.187 0-34.898-28.29-63.188-63.188-63.188m0 147.44c-46.53 0-84.25-37.719-84.25-84.249s37.72-84.25 84.25-84.25 84.25 37.72 84.25 84.25-37.72 84.249-84.25 84.249" fill="#fff"/></g><g clip-path="url(#clipPath16738)" opacity=".55"><g transform="translate(71.773 147.15)"><path d="m0 0-0.888 21.312c-21.112-3.695-39.514-15.238-52.091-31.526l18.715-10.396c8.743 10.214 20.672 17.595 34.264 20.61" fill="#29aba7"/></g></g><g clip-path="url(#clipPath16754)" opacity=".55"><g transform="translate(71.773 147.15)"><path d="m0 0-0.888 21.312c-21.112-3.695-39.514-15.238-52.091-31.526l18.715-10.396c8.743 10.214 20.672 17.595 34.264 20.61" fill="#29aba7"/></g></g><g clip-path="url(#clipPath16770)" opacity=".55"><g transform="translate(133.49 126.54)"><path d="m0 0 18.714 10.396c-12.577 16.289-30.979 27.832-52.091 31.527l-0.888-21.313c13.593-3.014 25.522-10.396 34.265-20.61" fill="#29aba7"/></g></g><g clip-path="url(#clipPath16786)" opacity=".55"><g transform="translate(133.49 126.54)"><path d="m0 0 18.714 10.396c-12.577 16.289-30.979 27.832-52.091 31.527l-0.888-21.313c13.593-3.014 25.522-10.396 34.265-20.61" fill="#29aba7"/></g></g><g clip-path="url(#clipPath16802)" opacity=".55"><g transform="translate(150.4 31.781)"><path d="m0 0-18.895 10.497c-8.671-9.226-20.044-15.874-32.898-18.586l0.886-21.264c20.375 3.408 38.276 14.11 50.907 29.353" fill="#29aba7"/></g></g><g clip-path="url(#clipPath16818)" opacity=".55"><g transform="translate(150.4 31.781)"><path d="m0 0-18.895 10.497c-8.671-9.226-20.044-15.874-32.898-18.586l0.886-21.264c20.375 3.408 38.276 14.11 50.907 29.353" fill="#29aba7"/></g></g><g clip-path="url(#clipPath16834)" opacity=".55"><g transform="translate(39.495 42.278)"><path d="m0 0-18.895-10.497c12.631-15.243 30.533-25.945 50.907-29.353l0.886 21.264c-12.854 2.712-24.227 9.359-32.898 18.586" fill="#29aba7"/></g></g><g clip-path="url(#clipPath16850)" opacity=".55"><g transform="translate(39.495 42.278)"><path d="m0 0-18.895-10.497c12.631-15.243 30.533-25.945 50.907-29.353l0.886 21.264c-12.854 2.712-24.227 9.359-32.898 18.586" fill="#29aba7"/></g></g><g clip-path="url(#clipPath16866)" opacity=".55"><g transform="translate(148.69 85.5)"><path d="m0 0c0-7.949-1.531-15.525-4.211-22.533l19.021-9.325c4.02 9.831 6.252 20.581 6.252 31.858 0 10.428-1.906 20.406-5.37 29.624l-18.323-11.647c1.69-5.703 2.631-11.727 2.631-17.977" fill="#29aba7"/></g></g><g clip-path="url(#clipPath16882)" opacity=".55"><g transform="translate(148.69 85.5)"><path d="m0 0c0-7.949-1.531-15.525-4.211-22.533l19.021-9.325c4.02 9.831 6.252 20.581 6.252 31.858 0 10.428-1.906 20.406-5.37 29.624l-18.323-11.647c1.69-5.703 2.631-11.727 2.631-17.977" fill="#29aba7"/></g></g><g clip-path="url(#clipPath16898)" opacity=".55"><g transform="translate(22.312 85.5)"><path d="m0 0c0 5.429 0.757 10.668 2.045 15.694l-18.506 11.764c-2.968-8.609-4.601-17.841-4.601-27.458 0-10.625 1.986-20.781 5.575-30.143l19.062 9.346c-2.275 6.522-3.575 13.5-3.575 20.797" fill="#29aba7"/></g></g><g clip-path="url(#clipPath16914)" opacity=".55"><g transform="translate(22.312 85.5)"><path d="m0 0c0 5.429 0.757 10.668 2.045 15.694l-18.506 11.764c-2.968-8.609-4.601-17.841-4.601-27.458 0-10.625 1.986-20.781 5.575-30.143l19.062 9.346c-2.275 6.522-3.575 13.5-3.575 20.797" fill="#29aba7"/></g></g></g></g></svg>
