<?xml version="1.0" encoding="UTF-8"?>
<!-- Created with Inkscape (http://www.inkscape.org/) -->
<svg width="107" height="107" version="1.1" viewBox="0 0 107 107" xml:space="preserve" xmlns="http://www.w3.org/2000/svg" xmlns:cc="http://creativecommons.org/ns#" xmlns:dc="http://purl.org/dc/elements/1.1/" xmlns:rdf="http://www.w3.org/1999/02/22-rdf-syntax-ns#"><metadata><rdf:RDF><cc:Work rdf:about=""><dc:format>image/svg+xml</dc:format><dc:type rdf:resource="http://purl.org/dc/dcmitype/StillImage"/><dc:title/></cc:Work></rdf:RDF></metadata><defs><clipPath id="clipPath110"><path d="M 0,78.817 H 78.817 V 0 H 0 Z"/></clipPath><clipPath id="clipPath118"><path d="M 0,78.8167 H 78.8167 V 0 H 0 Z"/></clipPath></defs><g transform="matrix(1.3333 0 0 -1.3333 0 105.09)"><g clip-path="url(#clipPath110)"><g clip-path="url(#clipPath118)" opacity=".60001"><g transform="translate(39.408 2.3184)"><path d="m0 0c-20.484 0-37.09 16.605-37.09 37.09 0 20.484 16.606 37.09 37.09 37.09s37.09-16.606 37.09-37.09c0-20.485-16.606-37.09-37.09-37.09m0 76.498c-21.765 0-39.408-17.644-39.408-39.408 0-21.765 17.643-39.408 39.408-39.408s39.408 17.643 39.408 39.408c0 21.764-17.643 39.408-39.408 39.408" fill="#ebdbe2"/></g></g></g><g transform="translate(42.045 44.472)"><path d="m0 0h-17.023v6.064l-13.678-11.17 13.678-11.809v6.064h17.023z" fill="#ebdbe2"/></g><g transform="translate(29.295 49.376)"><path d="m0 0h1.854v12.518h25.037v-43.581h-25.037v10.663h-1.854v-12.517h28.745v47.289h-28.745z" fill="#ebdbe2"/></g></g></svg>
