<?xml version="1.0" encoding="UTF-8"?>
<!-- Created with Inkscape (http://www.inkscape.org/) -->
<svg width="107" height="107" version="1.1" viewBox="0 0 107 107" xml:space="preserve" xmlns="http://www.w3.org/2000/svg" xmlns:cc="http://creativecommons.org/ns#" xmlns:dc="http://purl.org/dc/elements/1.1/" xmlns:rdf="http://www.w3.org/1999/02/22-rdf-syntax-ns#"><metadata><rdf:RDF><cc:Work rdf:about=""><dc:format>image/svg+xml</dc:format><dc:type rdf:resource="http://purl.org/dc/dcmitype/StillImage"/><dc:title/></cc:Work></rdf:RDF></metadata><defs><clipPath id="clipPath26"><path d="M 0,78.817 H 78.817 V 0 H 0 Z"/></clipPath><clipPath id="clipPath34"><path d="M 0,78.8167 H 78.8167 V 0 H 0 Z"/></clipPath></defs><g transform="matrix(1.3333 0 0 -1.3333 0 105.09)"><g clip-path="url(#clipPath26)"><g clip-path="url(#clipPath34)" opacity=".60001"><g transform="translate(39.408 2.3184)"><path d="m0 0c-20.484 0-37.09 16.605-37.09 37.09 0 20.484 16.606 37.09 37.09 37.09s37.09-16.606 37.09-37.09c0-20.485-16.606-37.09-37.09-37.09m0 76.498c-21.765 0-39.408-17.644-39.408-39.408 0-21.765 17.643-39.408 39.408-39.408s39.408 17.643 39.408 39.408c0 21.764-17.643 39.408-39.408 39.408" fill="#ebdbe2"/></g></g><g transform="translate(63.793 32.177)"><path d="m0 0h-4.823v-4.823h-2.046v4.823h-4.822v2.046h4.822v4.822h2.046v-4.822h4.823zm-5.846 10.245c-5.093 0-9.222-4.129-9.222-9.222 0-5.094 4.129-9.223 9.222-9.223 5.094 0 9.222 4.129 9.222 9.223 0 5.093-4.128 9.222-9.222 9.222" fill="#ebdbe2"/></g><g transform="translate(26.584 28.613)"><path d="m0 0v3e-3c-6.552 0.058-11.416 5.385-11.416 11.951 0 6.602 4.922 11.954 11.523 11.954h23.325c5.392 0 9.948-3.571 11.438-8.477h1.791c-1.538 5.87-6.878 10.2-13.229 10.2h-22.893c-7.554 0-13.678-6.123-13.678-13.677 0-7.227 5.607-13.141 12.708-13.639v-0.038h20.674v1.723z" fill="#ebdbe2"/></g></g></g></svg>
