<?xml version="1.0" encoding="UTF-8"?>
<!-- Created with Inkscape (http://www.inkscape.org/) -->
<svg width="107" height="107" version="1.1" viewBox="0 0 107 107" xml:space="preserve" xmlns="http://www.w3.org/2000/svg" xmlns:cc="http://creativecommons.org/ns#" xmlns:dc="http://purl.org/dc/elements/1.1/" xmlns:rdf="http://www.w3.org/1999/02/22-rdf-syntax-ns#"><metadata><rdf:RDF><cc:Work rdf:about=""><dc:format>image/svg+xml</dc:format><dc:type rdf:resource="http://purl.org/dc/dcmitype/StillImage"/><dc:title/></cc:Work></rdf:RDF></metadata><defs><clipPath id="clipPath26"><path d="M 0,78.88 H 78.88 V 0 H 0 Z"/></clipPath><clipPath id="clipPath34"><path d="m0 78.88h78.88v-78.88h-78.88z"/></clipPath></defs><g transform="matrix(1.3333 0 0 -1.3333 0 105.17)"><g clip-path="url(#clipPath26)"><g clip-path="url(#clipPath34)" opacity=".60001"><g transform="translate(39.44 2.3199)"><path d="m0 0c-20.501 0-37.12 16.619-37.12 37.12s16.619 37.12 37.12 37.12c20.5 0 37.12-16.619 37.12-37.12s-16.62-37.12-37.12-37.12m0 76.56c-21.782 0-39.44-17.658-39.44-39.44s17.658-39.44 39.44-39.44 39.44 17.658 39.44 39.44-17.658 39.44-39.44 39.44" fill="#ebdbe2"/></g></g><g transform="translate(31.046 35.874)"><path d="m0 0c-1.107 0-2.078 0.577-2.635 1.444-0.312 0.488-0.495 1.065-0.495 1.686s0.183 1.198 0.495 1.685c0.557 0.868 1.528 1.445 2.635 1.445s2.078-0.577 2.634-1.445c0.312-0.487 0.495-1.064 0.495-1.685s-0.183-1.198-0.495-1.686c-0.556-0.867-1.527-1.444-2.634-1.444m4.762 4.815c-0.695 1.962-2.562 3.371-4.762 3.371-2.201 0-4.067-1.409-4.762-3.371h-7.997v-3.371h7.997c0.695-1.962 2.561-3.37 4.762-3.37 2.2 0 4.067 1.408 4.762 3.37h25.33v3.371z" fill="#ebdbe2"/></g><g transform="translate(42.119 21.429)"><path d="m0 0c-1.107 0-2.078 0.577-2.634 1.444-0.312 0.488-0.495 1.065-0.495 1.686s0.183 1.198 0.495 1.685c0.556 0.868 1.527 1.445 2.634 1.445s2.078-0.577 2.635-1.445c0.312-0.487 0.495-1.064 0.495-1.685s-0.183-1.198-0.495-1.686c-0.557-0.867-1.528-1.444-2.635-1.444m4.762 4.815c-0.695 1.962-2.561 3.371-4.762 3.371-2.2 0-4.067-1.409-4.762-3.371h-19.071v-3.371h19.071c0.695-1.962 2.562-3.37 4.762-3.37 2.201 0 4.067 1.408 4.762 3.37h14.257v3.371z" fill="#ebdbe2"/></g><g transform="translate(49.824 50.318)"><path d="m0 0c-1.107 0-2.078 0.577-2.635 1.445-0.312 0.487-0.495 1.064-0.495 1.685s0.183 1.199 0.495 1.685c0.557 0.868 1.528 1.445 2.635 1.445s2.078-0.577 2.634-1.445c0.312-0.486 0.495-1.064 0.495-1.685s-0.183-1.198-0.495-1.685c-0.556-0.868-1.527-1.445-2.634-1.445m4.761 4.815c-0.694 1.962-2.561 3.371-4.761 3.371-2.201 0-4.067-1.409-4.762-3.371h-26.775v-3.37h26.775c0.695-1.963 2.561-3.371 4.762-3.371 2.2 0 4.067 1.408 4.761 3.371h6.553v3.37z" fill="#ebdbe2"/></g></g></g></svg>
