<?xml version="1.0" encoding="UTF-8"?>
<!-- Created with Inkscape (http://www.inkscape.org/) -->
<svg width="107" height="107" version="1.1" viewBox="0 0 107 107" xml:space="preserve" xmlns="http://www.w3.org/2000/svg" xmlns:cc="http://creativecommons.org/ns#" xmlns:dc="http://purl.org/dc/elements/1.1/" xmlns:rdf="http://www.w3.org/1999/02/22-rdf-syntax-ns#"><metadata><rdf:RDF><cc:Work rdf:about=""><dc:format>image/svg+xml</dc:format><dc:type rdf:resource="http://purl.org/dc/dcmitype/StillImage"/><dc:title/></cc:Work></rdf:RDF></metadata><defs><clipPath id="clipPath72"><path d="m0 79h79v-79h-79z"/></clipPath><clipPath id="clipPath80"><path d="m0 79h79v-79h-79z"/></clipPath></defs><g transform="matrix(1.3333 0 0 -1.3333 0 105.33)"><g clip-path="url(#clipPath72)"><g clip-path="url(#clipPath80)" opacity=".60001"><g transform="translate(39.5 2.3237)"><path d="m0 0c-20.532 0-37.177 16.645-37.177 37.176 0 20.532 16.645 37.177 37.177 37.177s37.176-16.645 37.176-37.177c0-20.531-16.644-37.176-37.176-37.176m0 76.676c-21.815 0-39.5-17.684-39.5-39.5 0-21.815 17.685-39.5 39.5-39.5s39.5 17.685 39.5 39.5c0 21.816-17.685 39.5-39.5 39.5" fill="#ebdbe2"/></g></g></g><g transform="translate(20.098 43.662)"><path d="m0 0h10.24v-27.397h18.323v27.397h10.24l-18.863 18.348z" fill="#ebdbe2"/></g></g></svg>
