<svg id="Слой_1" data-name="Слой 1" xmlns="http://www.w3.org/2000/svg" viewBox="0 0 750 1334"><defs><style>.cls-1{fill:#170a0a;}.cls-2{fill:#4a0a0a;}</style></defs><title>Background</title><rect class="cls-1" x="-9.5" y="-3.5" width="769" height="1341"/><path class="cls-2" d="M138.44,585.76c-4,0-8,2.15-12,3.33-4.44-1.56-9.55-3.59-14.12-2.74-9.37,1.76-13,9.9-9.84,20.14,4.54,14.53,14.25,25.76,24.65,37.82,4.91-6.26,9.78-11.36,13.32-17.26,4.36-7.28,8.53-14.93,11.07-23C154.6,594.49,148.07,585.81,138.44,585.76Z"/><path class="cls-2" d="M11.88,604c2.91-9.63-3.62-18.27-13.24-18.26-3.15,0-6.31,1.36-9.82,2.63v54.25c5-6.27,9.47-11.31,12.91-17A95.88,95.88,0,0,0,11.88,604Z"/><path class="cls-2" d="M546.32,85.49c5.09-6.56,10.35-12.24,14.28-18.72a95.79,95.79,0,0,0,10.15-21.64c2.9-9.62-3.65-18.26-13.27-18.24-4,0-8,2.19-12.64,3.59-3.51-3.09-8.28-5-14-3.07-8.84,3-12.31,10.26-9.14,20.33C526.27,62.25,536,73.45,546.32,85.49Z"/><path class="cls-2" d="M555.11,446c-3.21.49-6.18,2.48-9.72,4-5.63-5-12.17-5.85-19.06-1.13-5.29,3.63-7.18,9.13-5,16.71,4.35,15.18,14.4,26.72,25.1,39.16,5.59-7.4,11.17-13.73,15.5-20.82A77.61,77.61,0,0,0,570.81,464C573.61,453.65,565.29,444.48,555.11,446Z"/><path class="cls-2" d="M279.55,628c4.53-7.59,8.94-15.5,11.69-23.84,3.1-9.41-3-17.92-12.47-18.33-4.12-.18-8.35,2-11.43,2.76-5.33-1-10.22-3.1-14.68-2.42C243,587.66,239,596,242.21,606.41c4.5,14.55,14.21,25.77,24.64,37.85C271.51,638.4,276.21,633.61,279.55,628Z"/><path class="cls-2" d="M420.84,625.71A97.1,97.1,0,0,0,431,604.08c2.89-9.44-3.21-17.92-12.64-18.26-4.13-.15-8.34,2-13.4,3.36a13.79,13.79,0,0,0-13.26-3.1c-9.18,2.71-13,10.18-9.75,20.44,4.54,14.53,14.27,25.74,24.64,37.8C411.65,637.82,416.91,632.17,420.84,625.71Z"/><path class="cls-2" d="M555.86,585.69c-3.37.33-6.57,2.35-9.85,3.59l-.06-1c-4.71-.78-9.62-2.82-14.08-2.09-9.38,1.55-13.39,9.76-10.32,19.89,4.47,14.76,14.33,26.08,24.77,38.24,5.1-6.58,10.36-12.26,14.29-18.74,4.12-6.79,7.91-14.07,10.13-21.64C573.75,593.78,566,584.69,555.86,585.69Z"/><path class="cls-2" d="M12,744.24c2.23-10.26-3.54-18.8-13.44-18.77-3.14,0-6.28,1.38-9.73,2.64v53.45C-1.56,772.71,9.74,754.59,12,744.24Z"/><path class="cls-2" d="M141.09,765.88c4.19-7,8.14-14.35,10.47-22.07,3.09-10.24-4.57-19.31-14.74-18.4-3.37.3-6.59,2.28-10.85,3.86-5.16-4.61-11.36-5.59-18.07-1.47-5.85,3.6-7.51,9.05-6.09,15.3,3.7,16.26,14.44,28.12,25.38,41C132.31,777.5,137.36,772.08,141.09,765.88Z"/><path class="cls-2" d="M420.89,485.91A95.82,95.82,0,0,0,431,464.27c2.89-9.61-3.68-18.27-13.28-18.23-4,0-8,2.19-12.52,3.56-5.67-3.8-8.87-4.62-13.62-3.2-9.17,2.74-12.87,10.22-9.64,20.5,4.56,14.52,14.29,25.71,24.63,37.74C411.71,498.06,417,492.39,420.89,485.91Z"/><path class="cls-2" d="M549.77,360.51c4.12-5.39,8.77-10.47,12.17-16.29,3.65-6.25,7-13,8.88-19.89,2.8-10.4-5.53-19.57-15.7-18-3.21.49-6.19,2.48-9.54,3.9-8.19-5.09-13-5.41-19.24-1.06-5.25,3.67-7.17,9.15-5,16.73,4.35,15.18,14.4,26.72,24.93,39C547.76,363,548.8,361.77,549.77,360.51Z"/><path class="cls-2" d="M276.45,725.41c-3.37.33-6.58,2.33-10.74,3.91C261.89,726,257.13,724,251.4,726c-8.85,3-12.31,10.25-9.13,20.33,4.57,14.52,14.29,25.72,24.63,37.74,5.09-6.56,10.34-12.24,14.27-18.72,4.12-6.79,7.91-14.07,10.14-21.64C294.32,733.51,286.56,724.43,276.45,725.41Z"/><path class="cls-2" d="M417.06,725.43c-3.83.17-7.56,2.37-11.76,3.78-3.69-3.17-8.29-5.07-13.84-3.33-9.13,2.87-12.73,10.28-9.44,20.6,4.56,14.32,14.11,25.45,24.54,37.47,4.56-5.72,9.27-10.49,12.59-16.09,4.6-7.76,9.15-15.81,11.86-24.33A13.71,13.71,0,0,0,417.06,725.43Z"/><path class="cls-2" d="M561.27,764.37a85.56,85.56,0,0,0,9.51-20.76c2.89-10.19-4.94-19.26-15-18.19-3.37.36-6.57,2.38-10.47,3.89-7.52-5.12-13-5.4-19.3-.77-5.42,4-6.95,10-4.12,18.42,4.76,14.2,14.23,25.31,24.51,37.15C551.71,777.15,557.13,771.15,561.27,764.37Z"/><path class="cls-2" d="M11.94,883.23c2.82-10.41-5.47-19.59-15.66-18.06-2.53.38-4.91,1.68-7.46,2.92v54.16C-6.08,915.61-1,909.68,3,903.11A77.8,77.8,0,0,0,11.94,883.23Z"/><path class="cls-2" d="M276.56,446c-3.37.3-6.59,2.27-10.86,3.85-5.15-4.58-11.34-5.59-18.06-1.46-5.84,3.59-7.52,9-6.1,15.29,3.69,16.27,14.45,28.12,25.34,41,4.91-6.26,9.79-11.36,13.32-17.27,4.35-7.28,8.57-14.92,11.06-23C294.42,454.17,286.71,445.08,276.56,446Z"/><path class="cls-2" d="M138.33,446c-4,0-8,2.19-12.64,3.59-3.34-2.94-7.93-4.91-13.49-3.23-9.16,2.76-12.88,10.23-9.65,20.49,4.57,14.52,14.28,25.72,24.63,37.75,5.08-6.56,10.34-12.23,14.28-18.71a95.84,95.84,0,0,0,10.15-21.64C154.5,454.67,147.93,446,138.33,446Z"/><path class="cls-2" d="M139,865.27c-4.13-.17-8.35,2-13.43,3.31-7.06-4.53-11.85-4.88-18.08-.8-5.77,3.78-7.11,9.36-5.62,15.51,3.87,16,14.41,27.8,25.29,40.45,4.86-6.19,9.73-11.29,13.27-17.19,4.36-7.28,8.52-14.93,11.09-23C154.57,874.16,148.45,865.65,139,865.27Z"/><path class="cls-2" d="M280.16,906.54c4.36-7.28,8.52-14.93,11.1-23,3-9.42-3.08-17.93-12.52-18.32-4.12-.17-8.35,2-11.36,2.76-5.38-1-10.29-3.1-14.75-2.41-9.64,1.49-13.65,9.81-10.42,20.25,4.51,14.55,14.22,25.77,24.67,37.87C271.75,917.54,276.63,912.44,280.16,906.54Z"/><path class="cls-2" d="M414.84,865.24c-3,.58-5.82,2.49-8.71,3.79-4.32-1.94-9.21-4.09-13.69-3.43-9.62,1.41-13.74,9.8-10.53,20.19,4.49,14.55,14.18,25.81,24.83,38.07,5.58-7.37,11.16-13.7,15.49-20.8a77.05,77.05,0,0,0,8.88-19.88A14.17,14.17,0,0,0,414.84,865.24Z"/><path class="cls-2" d="M11.91,324.45c2.89-10.2-4.93-19.26-15-18.19-2.66.28-5.21,1.6-8.08,2.88v54.14C-6.28,357-1.4,351.45,2.4,345.21A85.56,85.56,0,0,0,11.91,324.45Z"/><path class="cls-2" d="M141.43,346.24c4.12-6.79,7.92-14.07,10.16-21.63,3-10.21-4.68-19.3-14.81-18.35-3.37.32-6.58,2.31-10.8,3.89-3.6-3.13-8.18-5.15-13.75-3.48-9.19,2.74-12.92,10.16-9.69,20.47,4.55,14.53,14.27,25.74,24.63,37.78C132.24,358.38,137.49,352.71,141.43,346.24Z"/><path class="cls-2" d="M281.12,346.28c4.13-6.78,7.93-14.06,10.18-21.63,3-10.26-4.58-19.31-14.75-18.39-3.37.3-6.58,2.29-8.44,3-6.18-1.08-11.09-3.17-15.55-2.46-9.64,1.55-13.58,9.84-10.32,20.31,4.53,14.54,14.26,25.75,24.64,37.8C271.93,358.39,277.18,352.74,281.12,346.28Z"/><path class="cls-2" d="M416.19,306.26c-3.37.32-6.58,2.32-10.77,3.9-3.62-3.16-8.21-5.15-13.77-3.48-9.17,2.75-12.9,10.21-9.67,20.48,4.56,14.52,14.29,25.73,24.62,37.76,5.08-6.55,10.34-12.22,14.28-18.69,4.12-6.79,7.91-14.07,10.15-21.64C434,314.39,426.3,305.29,416.19,306.26Z"/><path class="cls-2" d="M556.77,865.15c-3.83.17-7.56,2.37-11.67,3.75-5.76-4-9.07-4.8-13.93-3.29-8.95,2.78-12.64,10.09-9.58,20.09,4.46,14.57,14.16,25.82,24.66,37.95,4.36-5.43,8.86-9.91,12-15.2,4.71-7.9,9.47-16,12.36-24.69C574,873.75,566.8,864.71,556.77,865.15Z"/><path class="cls-2" d="M11.85,184.94c3.09-10.23-4.58-19.31-14.74-18.4-2.66.24-5.24,1.52-8.3,2.83v54.16C-6.54,217.69-2,212.68,1.38,207,5.57,200.05,9.52,192.66,11.85,184.94Z"/><path class="cls-2" d="M136.16,166.58c-3.21.43-6.21,2.38-10.1,4-3.74-3.32-8.35-5.24-13.9-3.56-9.15,2.77-12.84,10.24-9.6,20.52,4.58,14.5,14.29,25.7,24.65,37.74,5.3-6.9,10.73-12.89,14.86-19.67a85.45,85.45,0,0,0,9.54-20.75C154.57,174.4,146.4,165.19,136.16,166.58Z"/><path class="cls-2" d="M278,166.6c-4,0-8,2.21-12.58,3.61-3.4-3-8-4.92-13.56-3.22-9,2.74-12.74,10.07-9.71,20,4.48,14.74,14.33,26.06,24.8,38.23,5.31-6.92,10.74-12.92,14.88-19.69a87.31,87.31,0,0,0,9.53-20.76C294.15,175.11,287.61,166.54,278,166.6Z"/><path class="cls-2" d="M406.67,225.22c5.32-6.94,10.75-12.94,14.88-19.73a85,85,0,0,0,9.51-20.76c2.93-10.39-5.33-19.6-15.55-18.15-3.21.45-6.2,2.42-9.83,3.92-7.6-5.19-13.1-5.47-19.4-.84-5.41,4-6.94,10-4.12,18.42C386.92,202.28,396.37,213.4,406.67,225.22Z"/><path class="cls-2" d="M561.91,204.51a77.69,77.69,0,0,0,8.9-19.87c2.82-10.42-5.48-19.58-15.68-18.05-3.21.48-6.19,2.47-9.73,4-5.83-5.12-12.53-5.83-19.48-.81-5.84,4.22-6.33,10.25-4.58,16.39,4.31,15.19,14.39,26.74,25.08,39.18C552,217.93,557.57,211.6,561.91,204.51Z"/><path class="cls-2" d="M11.84,464.39c3-9.41-3.15-17.93-12.58-18.28-3.29-.12-6.65,1.22-10.44,2.44V502.9C-6.75,497.4-2.45,492.7.76,487.35,5.11,480.07,9.27,472.42,11.84,464.39Z"/><path class="cls-2" d="M11.92,45c2.91-10.4-5.4-19.6-15.6-18.1-2.5.37-4.88,1.65-7.5,2.91V83.87C-6.27,77.57-1.37,72,2.43,65.74A84.67,84.67,0,0,0,11.92,45Z"/><path class="cls-2" d="M127,85.22c10.55-12.27,20.78-24,24.63-39.61,2.5-10.16-3.55-18.79-13.42-18.73-4,0-7.95,2.21-12.45,3.58-7.15-4.85-12.64-5.13-18.92-.53-5.53,4.05-7,10.25-4,18.93C107.75,62.8,117,73.83,127,85.22Z"/><path class="cls-2" d="M266.89,85.49c5.08-6.55,10.33-12.22,14.27-18.69,4.12-6.79,7.91-14.07,10.15-21.63,3-10.2-4.69-19.28-14.82-18.33-3.37.32-6.58,2.32-10.79,3.9-3.6-3.18-8.19-5.15-13.75-3.48C242.75,30,239,37.43,242.25,47.71,246.81,62.23,256.54,73.44,266.89,85.49Z"/><path class="cls-2" d="M406.6,85.46c4.92-6.27,9.79-11.37,13.32-17.28,4.35-7.28,8.57-14.92,11.06-23,3.16-10.2-4.57-19.3-14.72-18.39-3.37.3-6.58,2.28-10.71,3.81-7.35-4.81-12.06-5.22-18.21-1.42-5.6,3.47-7.44,8.67-6.16,14.77C384.65,60.56,395.62,72.47,406.6,85.46Z"/><path class="cls-2" d="M503.22,344c2.53-8.49.09-14.75-7.63-20.4-6.71-4.91-13.26-10-19.35-14.68-6.22,4.58-13,9.64-19.85,14.63-8.2,6-10.48,14.88-5.95,23.58,4.18,8,13.32,10,20.37,4.29,1.26-1,2.47-2.09,3.7-3.14l1.22.82-5.35,13.45H483l-6-13.15,1.36-.75c.92.79,1.81,1.61,2.75,2.36C489.41,357.62,500.18,354.2,503.22,344Z"/><path class="cls-2" d="M497.37,185.3c-7.21-5.64-14.58-11.09-21.13-16-6.2,4.57-12.69,9.48-19.32,14.19-8.75,6.23-11.21,15.44-6.3,24.34,4.25,7.71,13.19,9.51,20.07,4,1.23-1,2.33-2.12,3.49-3.19l1.55.69-5.45,13.54h12.62l-6-13.15,1.26-.72c1.06.87,2.09,1.76,3.18,2.59,7.88,6,17.93,3.13,21.43-6.15C505.78,197.53,504,190.47,497.37,185.3Z"/><path class="cls-2" d="M637.09,604.45c-7.21-5.64-14.58-11.09-21.12-16-6.21,4.57-12.71,9.48-19.34,14.2-8.5,6.05-11,14.45-6.78,23.4,4.07,8.62,13.69,10.74,21,4.61,1.13-.95,2.23-1.93,3.34-2.9l1.27.77L610,642h12.62l-6-13.15,1.26-.72c1.06.87,2.1,1.76,3.18,2.6,7.87,6,17.93,3.13,21.43-6.15C645.5,616.71,643.68,609.61,637.09,604.45Z"/><path class="cls-2" d="M450.57,626.83c4.21,7.75,13.13,9.63,20,4.2,1.34-1.05,2.57-2.23,3.85-3.36l1.28.71-5.48,13.73H483l-5.86-13.17,1.46-.77c.64.59,1.25,1.2,1.91,1.76,9.07,7.55,20.39,3.68,23.06-7.8,1.79-7.69-.61-13.64-6.87-18.29-7.09-5.26-14.09-10.64-20.42-15.43-6.1,4.49-12.58,9.41-19.22,14.11C448.22,608.76,445.72,617.9,450.57,626.83Z"/><path class="cls-2" d="M642.95,483.69c2.51-8.51.06-14.72-7.67-20.38-6.71-4.91-13.26-10.06-19.3-14.66-6.11,4.5-12.73,9.5-19.48,14.33-8.53,6.11-11,15.07-6.34,23.92,4.21,8,13.34,9.93,20.39,4.24,1.25-1,2.44-2.09,3.66-3.14l1.23.86-5.36,13.45h12.63l-6-13.16,1.38-.77c.91.8,1.79,1.65,2.74,2.4C629.16,497.34,639.93,493.89,642.95,483.69Z"/><path class="cls-2" d="M310.12,625.34c3.9,9.24,13.92,11.58,21.54,5,1-.88,2-1.82,3-2.73l1.34.74-5.44,13.71h12.69l-5.9-13.16,1.46-.78c.64.58,1.25,1.2,1.91,1.75,9.08,7.56,20.39,3.74,23.08-7.72,1.8-7.68-.55-13.65-6.82-18.31-7.09-5.27-14.1-10.65-20.46-15.47-6.06,4.46-12.54,9.39-19.18,14.09C308.88,608.49,306.31,616.32,310.12,625.34Z"/><path class="cls-2" d="M224,622.31c2-8.4-.38-13.77-8-19.32-6.71-4.91-13.25-10.06-19.25-14.64-6,4.43-12.57,9.21-19.06,14.1a32.39,32.39,0,0,0-5.57,5c-5.11,6.17-4.2,17.47,1.68,23.09,5.68,5.44,12.58,4.77,19.87-1.91a8.21,8.21,0,0,1,1.26-.79l1.23.56L190.95,642h12.62l-6-13.17,1.42-.77c.77.69,1.52,1.41,2.32,2.06C210.19,637.4,221.43,633.51,224,622.31Z"/><path class="cls-2" d="M78.22,604.45c-7.21-5.64-14.58-11.09-21.13-16-6.21,4.57-12.71,9.48-19.34,14.2-8.5,6.05-11,14.45-6.78,23.4,4.07,8.62,13.69,10.74,21,4.61,1.13-.95,2.23-1.93,3.34-2.9l1.27.76L51.14,642H63.76l-6-13.15,1.26-.73c1.06.87,2.09,1.76,3.18,2.59,7.87,6,17.93,3.13,21.43-6.15C86.63,616.71,84.82,609.61,78.22,604.45Z"/><path class="cls-2" d="M589.4,904.36c3.79,9.63,14,12.15,21.76,5.39l3-2.61,1.27.71L610,921.48h12.69l-6-13.12,1.61-.69,1.57,1.36c9.48,8.06,21,4.09,23.53-8,1.53-7.29-.74-13-6.6-17.41l-20.81-15.74c-6.12,4.51-12.61,9.42-19.24,14.13C588.39,887.89,585.87,895.37,589.4,904.36Z"/><path class="cls-2" d="M495.53,882.44c-6.72-4.91-13.26-10.06-19.27-14.64-6.13,4.52-12.76,9.51-19.51,14.35-8.4,6-10.85,14.57-6.54,23.45,4.06,8.37,13.45,10.5,20.64,4.67,1.24-1,2.41-2.1,3.6-3.15l1.27.92-5.39,13.44h12.75l-6.17-12.91,1.48-1c.9.81,1.77,1.67,2.72,2.41,8.34,6.56,19.12,3.08,22.12-7.13C505.74,894.3,503.28,888.1,495.53,882.44Z"/><path class="cls-2" d="M357,184.72c-7.09-5.27-14.1-10.65-20.46-15.47-6.05,4.46-12.53,9.39-19.17,14.09-8.47,6-11,13.83-7.24,22.84,3.89,9.23,13.93,11.59,21.54,5.05,1-.88,2-1.83,3-2.75l1.34.73-5.43,13.72h12.69l-5.92-13.18,1.47-.76c.64.58,1.25,1.19,1.91,1.75,9.08,7.56,20.39,3.74,23.08-7.72C365.6,195.35,363.25,189.38,357,184.72Z"/><path class="cls-2" d="M193.8,209.41a7.24,7.24,0,0,1,1.27-.76l1.19.57-5.36,13.69h12.67l-6-13.18L199,209c.64.58,1.26,1.17,1.92,1.72,9.27,7.76,20.74,3.74,23.21-8.11,1.73-8.29-.75-13.48-8.55-19.08-6.47-4.65-12.71-9.62-18.88-14.31-2,1.75-4.64,4.21-7.47,6.36S183,179.7,180,181.89a47,47,0,0,0-7.11,5.63c-5.66,6-5.21,17.47.68,23.52C179.19,216.83,186.27,216.26,193.8,209.41Z"/><path class="cls-2" d="M355.81,463.28c-6.71-4.91-13.25-10.06-19.26-14.64-6,4.42-12.56,9.2-19,14.09a32.33,32.33,0,0,0-5.58,5c-5.11,6.18-4.2,17.45,1.67,23.1,5.66,5.45,12.6,4.78,19.87-1.9a8.57,8.57,0,0,1,1.25-.81l1.23.55-5.27,13.68h12.6l-6-13.17,1.4-.78c.91.81,1.78,1.67,2.74,2.42,8.34,6.56,19.12,3.07,22.11-7.15C366,475.13,363.56,469,355.81,463.28Z"/><path class="cls-2" d="M356.53,883c-6.92-5.19-13.8-10.45-20-15.14-6.09,4.49-12.57,9.41-19.21,14.11-8.34,5.91-10.89,13.36-7.38,22.36,3.77,9.66,13.92,12.23,21.74,5.5,1-.88,2-1.8,3-2.7l1.31.71-5.46,13.7h12.68l-5.87-13.14,1.45-.78c.77.71,1.51,1.46,2.32,2.12,8.5,6.88,19.46,3.41,22.42-7.07C365.88,894.4,363.68,888.33,356.53,883Z"/><path class="cls-2" d="M216.85,463.85c-6.93-5.2-13.81-10.46-20.12-15.24-5.7,4.27-11.94,8.92-18.16,13.6a43.9,43.9,0,0,0-5.4,4.37c-5.9,6.14-5.64,17.75.4,23.93,5.64,5.76,12.62,5.17,20.25-1.69a6.56,6.56,0,0,1,1.29-.72l1.16.56-5.41,13.71h12.69l-5.93-13.15,1.45-.79c.77.7,1.51,1.44,2.31,2.09,8.69,7,19.81,3.33,22.56-7.51C226,474.81,223.91,469.15,216.85,463.85Z"/><path class="cls-2" d="M52,490.91C53.1,490,54.2,489,55.32,488l1.27.75-5.46,13.54H63.77l-6-13.15,1.26-.72c1.06.86,2.09,1.75,3.17,2.58,7.88,6,17.92,3.15,21.43-6.14,3-7.86,1.16-15-5.43-20.12C71,459.1,63.64,453.65,56.62,448.33c-2.48,2.3-5.32,5.29-8.54,7.79s-6.9,4.46-10.28,6.78c-8.59,5.91-11,14.41-6.83,23.36C35,494.88,44.65,497,52,490.91Z"/><path class="cls-2" d="M216.52,882.74c-6.82-5.06-13.54-10.27-19.69-14.94-6,4.42-12.55,9.21-19.05,14.08a33.33,33.33,0,0,0-5.23,4.56c-5.42,6.21-4.69,17.74,1.34,23.52,5.68,5.43,12.56,4.76,19.88-1.92a8.16,8.16,0,0,1,1.26-.79l1.22.56-5.3,13.68h12.63l-6-13.18,1.42-.77c.91.81,1.77,1.66,2.73,2.41,8.17,6.42,18.71,3.22,21.94-6.66C226.39,894.9,224,888.32,216.52,882.74Z"/><path class="cls-2" d="M30.77,905c3.92,8.93,13.81,11.27,21.26,5,1.11-.94,2.2-1.9,3.29-2.86l1.25.78L51.24,921.4H63.82l-6-13.14,1.31-.73c.93.77,1.84,1.57,2.78,2.32,8.35,6.62,19.11,3.25,22.18-6.92,2.61-8.66.06-14.92-8-20.73-6.6-4.76-13-9.83-18.94-14.37-6.28,4.62-12.78,9.52-19.4,14.24C29.37,888,26.86,896.09,30.77,905Z"/><path class="cls-2" d="M503.22,763.14c2.52-8.5.08-14.73-7.65-20.39-6.71-4.91-13.26-10.05-19.32-14.67-6.24,4.6-13,9.65-19.88,14.64-8.19,6-10.47,14.91-5.93,23.59,4.2,8,13.34,10,20.38,4.27,1.25-1,2.45-2.1,3.68-3.15l1.23.84-5.35,13.45H483l-6-13.13,1.37-.78c.91.8,1.79,1.63,2.74,2.38C489.43,776.77,500.19,773.34,503.22,763.14Z"/><path class="cls-2" d="M331.3,770.43c1.18-1,2.29-2,3.43-3l1.29.71-5.46,13.69h12.66l-5.84-13.12,1.46-.77c.64.59,1.25,1.2,1.91,1.76,9.08,7.55,20.44,3.69,23-7.81,1.92-8.5-.59-13.84-8.58-19.56-6.48-4.63-12.7-9.62-19.17-14.56-2.4,2.24-5.23,5.25-8.44,7.76s-6.88,4.47-10.27,6.79c-8.65,5.92-11.14,14.33-7,23.31C314.34,774.24,324,776.48,331.3,770.43Z"/><path class="cls-2" d="M218,744.19c-7.21-5.65-14.59-11.09-21.15-16.06-6.18,4.55-12.67,9.46-19.3,14.17-8.76,6.22-11.23,15.43-6.33,24.33,4.25,7.72,13.17,9.53,20.07,4.06,1.3-1,2.52-2.17,3.78-3.26l1.28.76-5.45,13.54h12.64l-6-13.15,1.26-.73c1.05.86,2.09,1.75,3.17,2.57,7.87,6,17.92,3.17,21.43-6.11C226.35,756.44,224.56,749.36,218,744.19Z"/><path class="cls-2" d="M52.29,71.45l3-2.62,1.28.71L51.12,83.18H63.83l-6-13.12,1.6-.71,1.56,1.36c9.48,8.07,21,4.1,23.54-8,1.58-7.54-1-13.26-7-17.75C70.41,39.69,63.41,34.32,56.6,29.17c-2.41,2.24-5.24,5.24-8.46,7.74s-6.89,4.47-10.27,6.79C29.45,49.49,27,57.06,30.53,66,34.33,75.7,44.46,78.22,52.29,71.45Z"/><path class="cls-2" d="M193.85,69.65a6.28,6.28,0,0,1,1.3-.7l1.14.56-5.43,13.72h12.69L197.63,70l1.45-.77c.77.71,1.51,1.45,2.32,2.11,8.69,7,19.82,3.31,22.56-7.54,2.08-8.22,0-13.85-7.11-19.15S203,34.23,196.5,29.28c-2.28,2.06-5,4.87-8.13,7.25s-6.56,4.32-9.79,6.54a35.71,35.71,0,0,0-5,4c-6.22,6.2-6.14,18,.05,24.31C179.25,77.11,186.21,76.51,193.85,69.65Z"/><path class="cls-2" d="M331.66,71.5c1-.88,2-1.82,3-2.73l1.32.72-5.34,13.72h12.6L337.36,70l1.47-.75c.63.58,1.25,1.2,1.91,1.75,9.08,7.56,20.39,3.72,23.07-7.74,1.79-7.68-.56-13.65-6.83-18.3-7.09-5.27-14.1-10.65-20.65-15.61-2.47,2.16-5.42,5-8.68,7.49s-6.89,4.46-10.28,6.78c-8.56,5.85-11.05,13.8-7.25,22.81C314,75.71,324,78,331.66,71.5Z"/><path class="cls-2" d="M470.84,72c1.25-1,2.44-2.1,3.66-3.15l1.23.86-5.37,13.45H483L477,70l1.38-.78c.91.8,1.79,1.64,2.74,2.39,8.34,6.58,19.12,3.14,22.14-7.06,2.52-8.51.07-14.73-7.66-20.38-6.71-4.91-13.26-10.06-19.31-14.67-6.11,4.5-12.73,9.5-19.47,14.33-8.54,6.12-11,15.07-6.34,23.92C454.66,75.77,463.8,77.68,470.84,72Z"/><path class="cls-2" d="M613,69.68a6.85,6.85,0,0,1,1.28-.74l1.15.55-5.3,13.72h12.61l-6-13.18,1.43-.75c.91.81,1.78,1.67,2.74,2.42,8.17,6.39,18.74,3.12,21.91-6.77,2.65-8.25.41-14.8-6.79-20.21-6.93-5.21-13.82-10.47-20.1-15.23-5.85,4.35-12.26,9.07-18.63,13.84a39.38,39.38,0,0,0-5,4.07c-5.89,6.15-5.66,17.76.38,23.93C598.37,77.11,605.39,76.53,613,69.68Z"/><path class="cls-2" d="M610.86,351.17c1.13-.94,2.22-1.93,3.33-2.89l1.27.77L610,362.56h12.6l-5.95-13.16,1.26-.71c.93.76,1.84,1.53,2.78,2.28,8.53,6.78,19.46,3.16,22.33-7.37,2.34-8.62-.14-14.49-8.08-20.23-6.6-4.77-13-9.83-19.46-14.76-2.52,2.33-5.36,5.33-8.58,7.83s-6.9,4.46-10.28,6.79c-8.58,5.91-11,14.43-6.78,23.36C593.93,355.19,603.56,357.29,610.86,351.17Z"/><path class="cls-2" d="M76.38,323.57c-6.72-4.91-13.25-10.06-19.26-14.64-6.14,4.52-12.77,9.52-19.51,14.35-8.53,6.11-10.95,15.08-6.29,23.92,4.22,8,13.37,9.9,20.39,4.19,1.24-1,2.41-2.1,3.61-3.15l1.26.9L51.19,362.6H63.85l-6-13.16,1.42-.78c.9.81,1.77,1.67,2.72,2.41,8.33,6.56,19.11,3.07,22.11-7.14C86.58,335.41,84.13,329.24,76.38,323.57Z"/><path class="cls-2" d="M191.41,351.41c1.24-1,2.42-2.09,3.63-3.14l1.25.89-5.38,13.44h12.65l-6-13.17,1.41-.77c.91.8,1.77,1.66,2.72,2.41,8.34,6.57,19.12,3.09,22.12-7.11,2.5-8.51,0-14.72-7.69-20.37-6.71-4.91-13.26-10.06-19.28-14.64-6.12,4.51-12.75,9.5-19.49,14.34-8.54,6.12-11,15.07-6.32,23.92C175.23,355.21,184.38,357.11,191.41,351.41Z"/><path class="cls-2" d="M357.3,324.73c-7.12-5.49-14.33-10.87-20.78-15.75-6.14,4.52-12.62,9.43-19.26,14.14-8.31,5.9-10.83,13.4-7.29,22.38,3.8,9.63,14,12.13,21.77,5.37l3-2.59L336,349l-5.46,13.6h12.68l-6-13.13,1.65-.69c.77.71,1.51,1.46,2.33,2.11,8.5,6.84,19.46,3.31,22.38-7.21C365.78,335.77,363.86,329.79,357.3,324.73Z"/><path class="cls-2" d="M497.39,464.76c-7.21-5.65-14.59-11.09-21.15-16.07-6.18,4.55-12.67,9.46-19.3,14.18-8.77,6.23-11.23,15.42-6.32,24.33,4.25,7.72,13.17,9.54,20.07,4.06,1.3-1,2.52-2.18,3.78-3.27l1.28.75-5.46,13.55h12.65l-6-13.15,1.26-.73c1.05.86,2.09,1.74,3.16,2.57,7.87,6,17.92,3.17,21.44-6.11C505.78,477,504,469.92,497.39,464.76Z"/><path class="cls-2" d="M31.29,766.31c4.2,8,13.35,10,20.38,4.28,1.25-1,2.45-2.1,3.67-3.16l1.23.84-5.36,13.45H63.84l-6-13.15,1.37-.76c.91.79,1.8,1.62,2.75,2.37,8.36,6.59,19.1,3.17,22.14-7,2.53-8.48.08-14.74-7.65-20.39-6.71-4.91-13.26-10.05-19.32-14.67-6.24,4.6-13,9.65-19.88,14.64C29,748.68,26.75,757.64,31.29,766.31Z"/><path class="cls-2" d="M76.74,184.12c-6.82-5.06-13.53-10.27-19.69-15-2.08,1.79-4.69,4.24-7.53,6.39s-6.22,4.17-9.28,6.34a47.81,47.81,0,0,0-6.75,5.24c-6,6.11-5.69,17.73.35,23.91,5.65,5.79,12.68,5.21,20.25-1.64a7,7,0,0,1,1.28-.75l1.18.56-5.38,13.71H63.85l-6-13.18,1.45-.77c.77.7,1.51,1.43,2.31,2.08,8.71,7.06,19.79,3.41,22.59-7.44C86.37,195.31,84.09,189.56,76.74,184.12Z"/><path class="cls-2" d="M590.15,766.31c4.2,8,13.35,10,20.38,4.28,1.26-1,2.45-2.1,3.68-3.15l1.22.84-5.36,13.45h12.63l-6-13.15,1.37-.77c.92.79,1.8,1.63,2.76,2.38,8.36,6.59,19.1,3.17,22.14-7,2.53-8.48.08-14.74-7.65-20.39C628.58,737.84,622,732.7,616,728.08c-6.24,4.6-13,9.65-19.88,14.64C587.9,748.68,585.62,757.64,590.15,766.31Z"/><path class="cls-2" d="M610.56,211.7c1.24-1,2.42-2.1,3.63-3.15l1.25.89-5.37,13.44h12.65l-6-13.14,1.38-.78c.78.68,1.54,1.38,2.34,2,8.91,7.25,20.11,3.42,22.76-7.78,2-8.36-.36-13.8-7.91-19.33C628.56,179,622,173.81,616,169.21c-6.12,4.51-12.74,9.51-19.49,14.34-8.53,6.11-11,15.08-6.33,23.92C594.38,215.49,603.54,217.4,610.56,211.7Z"/><path class="cls-2" d="M293.15,401.49a11.45,11.45,0,0,0-6.39-5.56c-2.54-.73-5.68.66-8.7,1.15,2.28-5.85,6-11.81-.32-17.2C273.27,376,261.31,376,257,380a12.72,12.72,0,0,0-3.65,7.77c-.18,2.71,1.53,5.56,2.41,8.33-8.26-3.24-12.17-2.46-15.23,3.07-3.69,6.66-1.79,16.52,4,21,5.61,4.31,10.48,2.53,20.49-7.92.16,7.32-.42,13.6-6.55,19.29h14.1l-6.51-16.9L268,414c9.27,9.86,14.42,12,20,8.36S296.47,408.51,293.15,401.49Z"/><path class="cls-2" d="M8.28,701.92c5.9-3.66,8.57-14,5.5-21.33-2.34-5.58-5.89-6.54-15.2-3.88,2.32-6.22,6.36-12.62-.95-17.86-2.15-1.54-5.43-2.29-8.82-2.35v36.92C-3.63,702.81,2.52,705.5,8.28,701.92Z"/><path class="cls-2" d="M524,1.06c5.4,4.11,10,2.58,19.7-7.13H519.09A15.12,15.12,0,0,0,524,1.06Z"/><path class="cls-2" d="M537.9,12.42H553c-6.19-9.8-6.91-12.15-5.51-17.6,9,9.86,14.32,12.1,20,8.35,2.83-1.88,4.86-5.36,5.85-9.24H544.52C544.56.89,543.82,6.93,537.9,12.42Z"/><path class="cls-2" d="M426.55,395.93c-2.61-.64-5.7.66-8.73,1.14,2.24-6,6.14-12.16-.76-17.46-5.06-3.89-16.92-3.13-21.28.94-4,3.7-4,8.33.37,15.79-8.86-3.36-12.52-2.73-15.64,2.34-3.72,6-2.87,15.65,2.59,20.32,9.71,8.31,15.4.21,21.24-6.55l1.55,1.09-5.47,18h13.23c-4.42-5.45-7.46-10.81-6.39-17.94,9.94,10.29,14.85,12.36,20.36,8.79,5.85-3.79,8.66-14.35,5.1-21.33A10.75,10.75,0,0,0,426.55,395.93Z"/><path class="cls-2" d="M8.6,562c5.92-4,8.36-15.05,4.83-22-2.5-4.91-6.25-5.71-15-2.82,2.54-6.37,6.16-12.32-.22-17.68-2.05-1.72-5.68-2.67-9.4-2.8v37.14C-2.8,563.43,3,565.8,8.6,562Z"/><path class="cls-2" d="M566.5,116.57c-2.54-.88-5.87.56-8.94,1,4-9.59,3.86-14.09-.51-17.28-5.06-3.69-16.84-3.34-21.35.64-4.13,3.65-4.22,8-.31,15.51-9.18-2.81-12.6-2-15.55,3.51-3.5,6.58-1.81,16.19,4,20.52a11.93,11.93,0,0,0,6.35,2.32c6.67.22,10-5.07,13.62-9.68l1.81.88-5.48,18.2H553.2c-6.25-8.9-7.36-12.56-5.61-17.68,7.67,9.25,13.37,11.91,19,8.86,5.86-3.16,9.24-13,6.26-20.5A12,12,0,0,0,566.5,116.57Z"/><path class="cls-2" d="M566.5,675.44c-2.54-.88-5.87.56-8.94,1,4-9.59,3.86-14.09-.51-17.28-5.06-3.69-16.84-3.33-21.35.65-4.13,3.65-4.22,8-.31,15.52-9.19-2.82-12.59-2.05-15.55,3.51-3.5,6.58-1.71,16.06,3.89,20.6,3.63,2.95,7.76,3.34,11.49.94,3.28-2.12,5.91-5.25,8.83-7.94l1.52.44-5.49,18.2H552l-6.44-17,2-.65c7.65,9.25,13.37,11.91,19,8.86,5.86-3.16,9.24-13,6.26-20.5A12,12,0,0,0,566.5,675.44Z"/><path class="cls-2" d="M105,280.45c1.78,1.24,4.79,2.62,6.34,1.93,4.91-2.19,9.41-5.33,14.07-8.1,0,5.59-.48,11.91-6.74,17.6h15.26c-6.19-9.3-7.12-12.35-5.55-17.64,8.29,9.55,13.84,12,19.5,8.6s8.85-13.42,5.71-20.7a11.3,11.3,0,0,0-6.15-5.86c-2.65-.8-6,.54-9.07,1,2.34-5.84,5.94-11.8-.44-17.15-4.37-3.67-16-3.84-20.35,0a12.42,12.42,0,0,0-4,7.6c-.23,2.85,1.49,5.86,2.35,8.8-7.94-3.29-11.85-2.6-15,2.64C97,265.75,98.79,276.13,105,280.45Z"/><path class="cls-2" d="M8.75,142.61c6-3.44,8.18-14.66,4.72-21.43-.84-1.64-2.4-3.78-3.91-4-3.45-.61-7.07-.19-10.61-.19,1.88-5.2,5.83-11.38-.94-16.71-2.12-1.67-5.59-2.5-9.19-2.58v36.93C-5.66,141.13-.57,148,8.75,142.61Z"/><path class="cls-2" d="M384.29,140.77c5.55,4.23,10.19,2.53,20.49-7.9.13,7.28-.44,13.56-6.6,19.26h15.05c-6.19-9.83-6.89-12.13-5.51-17.6,8.8,9.64,13.95,11.92,19.52,8.64,6-3.51,9.05-13.91,5.62-21.15a11.43,11.43,0,0,0-6.42-5.53c-2.53-.72-5.66.67-8.57,1.14,4-10.13,3.83-14.41-.84-17.56-5.34-3.6-17-3-21.32,1.1-3.9,3.7-3.88,8.28.48,15.86-8.94-3.62-12.92-2.83-16,2.76C376.52,126.46,378.45,136.32,384.29,140.77Z"/><path class="cls-2" d="M105.25,839.64c5.62,3.93,10.15,2.17,20.07-8.24.15,7.33-.42,13.6-6.52,19.3h14.92c-6.2-10.21-6.77-12.07-5.48-17.57,9.29,9.85,14.42,12,20,8.37s8.54-13.83,5.22-20.85a11.44,11.44,0,0,0-6.39-5.56c-2.54-.73-5.68.66-8.57,1.12,4-10.27,3.76-14.38-.84-17.52-5.28-3.61-17-3-21.32,1-3.94,3.7-3.94,8.3.41,15.82-9-3.5-12.87-2.72-15.94,2.79C97,825.17,99.11,835.35,105.25,839.64Z"/><path class="cls-2" d="M572.59,541.22a11.43,11.43,0,0,0-6.38-5.57c-2.54-.73-5.68.66-8.57,1.12,3.95-10.34,3.75-14.36-.85-17.51-5.3-3.63-17-3.07-21.32,1-3.95,3.71-3.95,8.32.4,15.81-9-3.48-12.88-2.71-15.94,2.81-3.8,6.85-1.66,17,4.48,21.32,5.58,3.9,10.22,2.09,20-8.23.19,7.32-.4,13.59-6.56,19.29h15c-6.2-10.22-6.76-12.07-5.49-17.57,9.28,9.85,14.42,12,20,8.37S575.9,548.26,572.59,541.22Z"/><path class="cls-2" d="M-11.19-5.14C-5.86,1.14-.76,8.34,8.75,2.9c2.88-1.65,4.87-5.09,5.79-9H-11.19Z"/><path class="cls-2" d="M384.38,699.58c1.78,1.25,4.79,2.64,6.34,2,4.92-2.18,9.42-5.31,13.72-7.86,1,5.59-.45,10.91-5.84,17.34H412.3l-6.49-17,2-.64c8.55,9.6,13.9,12,19.51,8.62,5.8-3.45,8.89-13.38,5.77-20.68-1.05-2.47-3.67-5.15-6.13-5.89-2.67-.81-6,.53-9.11.95,2.31-5.81,5.95-11.77-.41-17.13-4.56-3.84-16.27-3.64-20.88.13-6.05,5-3.75,10.62-.46,16.49-8.57-3.56-12.48-2.88-15.62,2.33C376.44,684.84,378.21,695.25,384.38,699.58Z"/><path class="cls-2" d="M244.29,140.55c3.63,2.95,7.76,3.33,11.49.92,3.28-2.12,5.91-5.25,8.83-7.93l1.52.45-5.5,18.2h11.91l-6.42-17,2-.65c7.76,9.47,13.75,12.1,19.49,8.58,6.08-3.73,8.74-14.54,5.36-21.8-2.44-5.24-6-6.1-15-3.37,2.33-6.4,6.53-13-1.34-18.17-5.42-3.53-16.74-2.45-20.81,1.55-3.73,3.66-3.71,7.87.09,15.15-9.16-2.82-12.6-2-15.55,3.51C236.9,126.53,238.69,136,244.29,140.55Z"/><path class="cls-2" d="M244.38,280.21c9.52,6.52,14.78-.88,20.08-7.48l1.62,1-5.32,18.21h13c-6.2-8.59-7.47-12.79-5.58-17.65,7.55,9.41,13.71,12.11,19.48,8.53s8.57-14,5.51-21.32c-2.34-5.59-5.93-6.56-15.2-3.87,2.3-6.22,6.37-12.62-.93-17.86-5.08-3.65-16.53-2.9-20.86,1-4.08,3.63-4.16,7.9-.3,15.52-9.08-2.89-12.59-2.1-15.54,3.51C236.91,266.29,238.47,276.16,244.38,280.21Z"/><path class="cls-2" d="M8.27,282.77c5.91-3.66,8.58-14,5.51-21.32-2.35-5.62-5.93-6.58-14.8-4,3.52-11.87,3.3-14.84-1.28-17.8a17.76,17.76,0,0,0-8.89-2.24v36.85C-3.57,283.68,2.52,286.33,8.27,282.77Z"/><path class="cls-2" d="M147.38,675.44c-2.55-.88-5.9.54-9,1,4-9.59,3.84-14-.49-17.23-5-3.7-16.82-3.38-21.35.59-4.18,3.66-4.27,8.11,0,16.12-8.58-3.56-12.52-2.85-15.64,2.42-3.84,6.5-2.27,16.56,3.67,21,1.86,1.39,5.09,2.93,6.76,2.22,4.93-2.12,9.39-5.33,15-8.72L121,711h13c-6.18-9-7.25-12.48-5.59-17.66,7.86,9.28,13.42,11.87,19,8.87,5.88-3.14,9.27-13,6.31-20.49A12,12,0,0,0,147.38,675.44Z"/><path class="cls-2" d="M293,680.15c-2.44-5.24-6-6.09-15-3.37,2.33-6.4,6.53-13-1.34-18.17-5.42-3.53-16.74-2.45-20.81,1.55-3.73,3.66-3.71,7.87.09,15.15-9.16-2.82-12.6-2-15.55,3.51-3.5,6.58-1.71,16.05,3.89,20.6,3.63,2.95,7.76,3.33,11.49.92,3.28-2.12,5.91-5.25,8.83-7.93l1.52.45-5.5,18.2h13.14c-6.23-8.81-7.39-12.63-5.6-17.69,7.76,9.47,13.75,12.1,19.49,8.58C293.75,698.21,296.41,687.4,293,680.15Z"/><path class="cls-2" d="M105.51,141.23c5.75,3.79,11.17,1.56,18.95-7.79l2,.56-5.58,18.17h13.56c-4.89-5.58-7.52-11-6.66-18.66,1.5,1.94,2.42,3.14,3.36,4.32,4.27,5.34,10.28,8,14.92,6.1,6-2.47,8.17-7.71,8.46-13.78a23.46,23.46,0,0,0-.72-7.42c-1.56-5.5-5.79-7.67-11.22-6.09-1.29.38-2.53,1-4.46,1.7,2.48-6.71,6.55-13.1-.77-18.35-5.1-3.65-16.54-2.88-20.86,1-4.06,3.63-4.14,7.79-.31,15.53-9.16-3-12.91-2-15.78,4C97.08,127.53,99.46,137.25,105.51,141.23Z"/><path class="cls-2" d="M523.76,280.14c1.86,1.39,5.09,2.94,6.76,2.22,4.93-2.12,9.39-5.33,14-8.08.05,5.59-.45,11.92-6.68,17.61H552l-6.44-17,2-.65c7.77,9.27,13.4,11.89,19,8.86,5.87-3.15,9.25-13,6.27-20.5a12,12,0,0,0-6.38-6.3c-2.54-.88-5.89.55-9,1,2.39-5.77,5.78-11.53,0-16.9-4.24-3.93-16-4-20.87-.39-6.47,4.86-4.2,10.68-.84,16.75-8.57-3.57-12.52-2.86-15.64,2.4C516.26,265.64,517.82,275.68,523.76,280.14Z"/><path class="cls-2" d="M523.73,420c3.63,2.95,7.77,3.33,11.49.93,3.28-2.12,5.91-5.25,8.83-7.93l1.52.44-5.49,18.2h13.13c-6.24-8.85-7.39-12.62-5.61-17.69,7.79,9.47,13.76,12.09,19.49,8.58,6.08-3.72,8.75-14.54,5.38-21.8-2.44-5.25-6-6.11-15.16-3.32,2.57-6.19,5.95-12,.13-17.32-4.26-3.92-16-4-20.88-.37-6.44,4.85-4.15,10.66-.88,16.71-8.55-3.54-12.51-2.81-15.61,2.48C516.26,405.42,518,415.31,523.73,420Z"/><path class="cls-2" d="M433,262.21c-1-2.47-3.66-5.17-6.11-5.91-2.68-.81-6,.54-9.13,1,2.29-5.8,6-11.76-.38-17.14-4.53-3.84-16.46-3.86-20.77.2a12.76,12.76,0,0,0-3.61,7.79c-.18,2.71,1.53,5.55,2.41,8.33-8.2-3.35-12.18-2.55-15.26,3.06-3.66,6.68-1.72,16.54,4.12,21,5.54,4.2,10.1,2.54,20.5-7.91.06,7.27-.44,13.58-6.68,19.26h15.14c-6.19-9.63-7-12.17-5.53-17.61,8.64,9.6,13.92,11.94,19.51,8.63C433.05,279.44,436.16,269.51,433,262.21Z"/><path class="cls-2" d="M384,.7c1.86,1.39,5.09,2.93,6.76,2.22,4.93-2.12,9.39-5.33,14-8.08,0,5.59-.45,11.92-6.71,17.61h15.32C407.22,3.37,406.2,0,407.83-5.2c7.95,9.3,13.43,11.86,19,8.88,3.23-1.72,5.71-5.47,6.8-9.74H379.31A14.21,14.21,0,0,0,384,.7Z"/><path class="cls-2" d="M244.33.7c1.86,1.39,5.09,2.93,6.76,2.22,4.93-2.12,9.39-5.32,14-8.08.06,5.59-.46,11.91-6.7,17.61h15.3C267.51,3.38,266.49,0,268.1-5.2c8.2,9.54,13.82,12,19.5,8.61,3-1.81,5.31-5.41,6.35-9.47H239.59A14.23,14.23,0,0,0,244.33.7Z"/><path class="cls-2" d="M104.67.78c9.21,6.3,14.43-.45,19.58-6.85H99.79A13.3,13.3,0,0,0,104.67.78Z"/><path class="cls-2" d="M126.45-5.72,120.9,12.46h13.19c-6.23-8.65-7.47-12.77-5.58-17.65C136.08,4.23,142.23,6.91,148,3.33c3-1.85,5.13-5.4,6.14-9.4H125.85Z"/><path class="cls-2" d="M8.74,841.21c6-3.44,8.1-14.59,4.81-21.46-2.41-5-5.78-5.84-14.88-3.39C.84,810.18,5,803.78-2.41,798.54c-2.15-1.52-5.4-2.25-8.78-2.32v36.95C-5.86,839.45-.76,846.64,8.74,841.21Z"/><path class="cls-2" d="M289,815.72c-3.45-.61-7.08-.19-10.61-.19,1.92-5.36,6-11.77-1.38-17-5.14-3.63-16.58-2.81-20.85,1.07-4,3.6-4,7.63-.29,15.53-8.67-3-12.26-2.27-15.29,3-3.65,6.39-2.33,16.31,3.48,20.62,9.64,7.14,15-.68,20.51-7.22l1.63,1-5.62,18.12h13.79c-5.32-5.52-7.55-11-7-18.56,5.93,6.93,11.05,14.62,20.79,9,6-3.45,8.2-14.63,4.73-21.43C292.07,818.13,290.51,816,289,815.72Z"/><path class="cls-2" d="M384.1,839.08c9.52,6.53,14.78-.89,20.09-7.48l1.69,1-5.53,18.19h13.18c-6.22-8.65-7.45-12.75-5.59-17.66,7.61,9.43,13.72,12.1,19.49,8.54s8.59-14,5.52-21.32c-2.35-5.6-6-6.58-15.21-3.86,2.31-6.22,6.38-12.62-.91-17.87-5.08-3.66-16.53-2.91-20.86.94-4.09,3.63-4.17,7.91-.31,15.52-9.09-2.89-12.57-2.11-15.54,3.51C376.62,825.16,378.18,835,384.1,839.08Z"/><path class="cls-2" d="M153.6,401.91c-1.05-2.47-3.66-5.15-6.11-5.9-2.67-.81-6,.53-9,.93,4-10,3.79-14.31-.92-17.46-5.14-3.44-16.51-3-20.91.79-4.25,3.67-4.35,8.33.08,16.23-8.68-3.61-12.6-2.93-15.73,2.3-4,6.66-2.21,17,4,21.36,1.78,1.25,4.79,2.63,6.34,1.94,4.92-2.18,9.41-5.31,13.71-7.87,1,5.63-.45,10.9-5.83,17.35h14.68c-6.21-9.54-7-12.22-5.54-17.63,8.52,9.59,13.89,12,19.5,8.63C153.63,419.15,156.72,409.21,153.6,401.91Z"/><path class="cls-2" d="M8.77,422c6-3.44,8.16-14.68,4.7-21.44-.84-1.64-2.4-3.77-3.92-4-3.45-.6-7.07-.19-10.59-.19C.83,391.17,4.79,385-2,379.66c-2.12-1.67-5.59-2.5-9.19-2.58V414C-5.66,420.6-.55,427.38,8.77,422Z"/><path class="cls-2" d="M426.54,535.64c-2.61-.64-5.7.66-8.58,1.12,3.89-10.47,3.7-14.35-.86-17.49-5-3.47-16.7-3.39-20.81.74a12.11,12.11,0,0,0-3.27,7.44c-.1,2.76,1.53,5.58,2.38,8.32-8.11-3.07-11.78-2.44-14.9,2.62-3.73,6.06-2.89,15.63,2.59,20.32,9.71,8.32,15.4.21,21.25-6.55l1.54,1.08-5.45,18h12.69c-6.19-10.36-6.71-12-5.48-17.55,9.47,9.88,14.46,12,20,8.39,5.84-3.79,8.64-14.35,5.09-21.34A10.74,10.74,0,0,0,426.54,535.64Z"/><path class="cls-2" d="M243.74,559.06c9.63,7.62,15.2-.18,20.84-7l1.58,1.13-5.45,18h13.18c-4.37-5.43-7.42-10.79-6.38-17.9,10.36,10.44,15.33,12.42,20.81,8.49,5.75-4.13,8-15.5,4.42-22.1-2.58-4.72-6.55-5.46-14.89-2.29,2.52-6.61,6.37-12.78-.47-18.1-4.81-3.74-16.66-3.46-20.77.65a12.1,12.1,0,0,0-3.3,7.43c-.1,2.76,1.52,5.59,2.36,8.31-8.12-3-11.75-2.39-14.86,2.64C237,544.59,238,554.5,243.74,559.06Z"/><path class="cls-2" d="M104.36,559.38c9.63,7.11,15-.72,20.86-6.92a32.86,32.86,0,0,1-1,9.76c-.94,3-2.75,5.77-4.38,9.05h14.24c-5.87-7.82-7.1-11.6-5.95-18,5.45,6.38,10.57,14.06,20.31,8.45,6-3.46,8.16-14.67,4.69-21.44-.84-1.64-2.41-3.77-3.93-4-3.45-.6-7.07-.19-10.4-.19,3.46-10.18,3.29-13.66-1.1-16.75-5-3.5-16.41-3.22-20.94.5-4.32,3.56-4.49,7.68-.68,15.9-8.59-3-12.24-2.32-15.29,3C97.2,545.17,98.53,555.07,104.36,559.38Z"/><path class="cls-2" d="M524,839.37c5.54,4.21,10,2.56,19.87-7.28,1.32,6.85-.18,12.23-5.59,18.64H553c-6.19-9.6-7-12.21-5.52-17.61,8.55,9.59,13.91,12,19.51,8.62,5.79-3.45,8.88-13.38,5.76-20.68-1.05-2.47-3.67-5.15-6.12-5.89-2.67-.81-6,.54-9,.94,4-10,3.8-14.31-.9-17.47-5.38-3.61-17-3-21.31,1.14-3.87,3.7-3.85,8.23.5,15.87-8.71-3.6-12.6-2.93-15.74,2.27C516.16,824.55,518,834.8,524,839.37Z"/><path class="cls-2" d="M312.93,404.72l23.43,29.54,23.34-29.54-23.36-29.54Z"/><path class="cls-2" d="M33.5,404.72l23.43,29.54,23.34-29.54L56.91,375.2Z"/><path class="cls-2" d="M220,404.73l-23.33-29.58-23.43,29.56,23.43,29.54Z"/><path class="cls-2" d="M452.66,404.71l23.4,29.52c7.66-9.68,14.9-18.72,22-27.9.57-.74.35-2.8-.29-3.64-7-9-14.09-18-21.66-27.51Z"/><path class="cls-2" d="M639.14,404.72l-23.36-29.53-23.41,29.53,23.43,29.53Z"/><path class="cls-2" d="M73.66-6.07H40.14L56.93,15.1Z"/><path class="cls-2" d="M33.51,544.44,56.93,574l23.34-29.53L56.92,514.9Z"/><path class="cls-2" d="M220,544.46l-23.32-29.59-23.43,29.57L196.64,574Z"/><path class="cls-2" d="M359.71,544.43l-23.37-29.51-23.41,29.52,23.45,29.51Z"/><path class="cls-2" d="M489.76,556.64c3.07-3.94,8.51-8,8.44-11.89-.08-4.2-5.28-8.37-8.39-12.43-4.39-5.73-8.91-11.35-13.71-17.45l-23.42,29.55L476.09,574C481,567.81,485.38,562.25,489.76,556.64Z"/><path class="cls-2" d="M33.5,823.87,57,853.36,80.26,823.9,56.94,794.31Z"/><path class="cls-2" d="M220,823.86l-23.37-29.53-23.4,29.53,23.43,29.53Z"/><path class="cls-2" d="M312.94,823.86l23.43,29.53,23.33-29.51-23.33-29.53Z"/><path class="cls-2" d="M452.66,823.86l23.43,29.52,23.33-29.51-23.34-29.53Z"/><path class="cls-2" d="M592.38,823.86l23.41,29.53c7.65-9.68,14.89-18.72,21.94-27.91.57-.74.36-2.8-.29-3.64-7-9-14.1-18-21.67-27.5Z"/><path class="cls-2" d="M11.94,1027.23c2.82-10.41-5.47-19.59-15.66-18.06-2.53.38-4.91,1.68-7.46,2.92v54.16c5.11-6.63,10.2-12.56,14.22-19.13A77.8,77.8,0,0,0,11.94,1027.23Z"/><path class="cls-2" d="M139,1009.27c-4.13-.17-8.35,2-13.43,3.31-7.06-4.53-11.85-4.88-18.08-.8-5.77,3.78-7.11,9.36-5.62,15.51,3.87,16,14.41,27.8,25.29,40.45,4.86-6.19,9.73-11.29,13.27-17.19,4.36-7.28,8.52-14.93,11.09-23C154.57,1018.16,148.45,1009.65,139,1009.27Z"/><path class="cls-2" d="M280.16,1050.54c4.36-7.28,8.52-14.93,11.1-23,3-9.42-3.08-17.93-12.52-18.32-4.12-.17-8.35,2-11.36,2.76-5.38-1-10.29-3.1-14.75-2.41-9.64,1.49-13.65,9.81-10.42,20.25,4.51,14.55,14.22,25.77,24.67,37.87C271.75,1061.54,276.63,1056.44,280.16,1050.54Z"/><path class="cls-2" d="M414.84,1009.24c-3,.58-5.82,2.49-8.71,3.79-4.32-1.94-9.21-4.09-13.69-3.43-9.62,1.41-13.74,9.8-10.53,20.19,4.49,14.55,14.18,25.81,24.83,38.07,5.58-7.37,11.16-13.7,15.49-20.8a77.05,77.05,0,0,0,8.88-19.88A14.17,14.17,0,0,0,414.84,1009.24Z"/><path class="cls-2" d="M556.77,1009.15c-3.83.17-7.56,2.37-11.67,3.75-5.76-4-9.07-4.8-13.93-3.29-8.95,2.78-12.64,10.09-9.58,20.09,4.46,14.57,14.16,25.82,24.66,37.95,4.36-5.43,8.86-9.91,12-15.2,4.71-7.9,9.47-16,12.36-24.69C574,1017.75,566.8,1008.71,556.77,1009.15Z"/><path class="cls-2" d="M589.4,1048.36c3.79,9.63,14,12.15,21.76,5.39l3-2.61,1.27.71L610,1065.48h12.69l-6-13.12,1.61-.69,1.57,1.36c9.48,8.06,21,4.09,23.53-8,1.53-7.29-.74-13-6.6-17.41l-20.81-15.74c-6.12,4.51-12.61,9.42-19.24,14.13C588.39,1031.89,585.87,1039.37,589.4,1048.36Z"/><path class="cls-2" d="M495.53,1026.44c-6.72-4.91-13.26-10.06-19.27-14.64-6.13,4.52-12.76,9.51-19.51,14.35-8.4,6-10.85,14.57-6.54,23.45,4.06,8.37,13.45,10.5,20.64,4.67,1.24-1,2.41-2.1,3.6-3.15l1.27.92-5.39,13.44h12.75l-6.17-12.91,1.48-1c.9.81,1.77,1.67,2.72,2.41,8.34,6.56,19.12,3.08,22.12-7.13C505.74,1038.3,503.28,1032.1,495.53,1026.44Z"/><path class="cls-2" d="M356.53,1027c-6.92-5.19-13.8-10.45-20-15.14-6.09,4.49-12.57,9.41-19.21,14.11-8.34,5.91-10.89,13.36-7.38,22.36,3.77,9.66,13.92,12.23,21.74,5.5,1-.88,2-1.8,3-2.7l1.31.71-5.46,13.7h12.68l-5.87-13.14,1.45-.78c.77.71,1.51,1.46,2.32,2.12,8.5,6.88,19.46,3.41,22.42-7.07C365.88,1038.4,363.68,1032.33,356.53,1027Z"/><path class="cls-2" d="M216.52,1026.74c-6.82-5.06-13.54-10.27-19.69-14.94-6,4.42-12.55,9.21-19.05,14.08a33.33,33.33,0,0,0-5.23,4.56c-5.42,6.21-4.69,17.74,1.34,23.52,5.68,5.43,12.56,4.76,19.88-1.92a8.16,8.16,0,0,1,1.26-.79l1.22.56-5.3,13.68h12.63l-6-13.18,1.42-.77c.91.81,1.77,1.66,2.73,2.41,8.17,6.42,18.71,3.22,21.94-6.66C226.39,1038.9,224,1032.32,216.52,1026.74Z"/><path class="cls-2" d="M52,1054c1.11-.94,2.2-1.9,3.29-2.86l1.25.78-5.32,13.47H63.82l-6-13.14,1.31-.73c.93.77,1.84,1.57,2.78,2.32,8.35,6.62,19.11,3.25,22.18-6.92,2.61-8.66.06-14.92-8-20.73-6.6-4.76-13-9.83-18.94-14.37-6.28,4.62-12.78,9.52-19.4,14.24-8.34,6-10.85,14-6.94,22.93S44.58,1060.27,52,1054Z"/><path class="cls-2" d="M105.25,983.64c5.62,3.93,10.15,2.17,20.07-8.24.15,7.33-.42,13.6-6.52,19.3h14.92c-6.2-10.21-6.77-12.07-5.48-17.57,9.29,9.85,14.42,12,20,8.37s8.54-13.83,5.22-20.85a11.44,11.44,0,0,0-6.39-5.56c-2.54-.73-5.68.66-8.57,1.12,4-10.27,3.76-14.38-.84-17.52-5.28-3.61-17-3-21.32,1-3.94,3.7-3.94,8.3.41,15.82-9-3.5-12.87-2.72-15.94,2.79C97,969.17,99.11,979.35,105.25,983.64Z"/><path class="cls-2" d="M8.74,985.21c6-3.44,8.1-14.59,4.81-21.46-2.41-5-5.78-5.84-14.88-3.39C.84,954.18,5,947.78-2.41,942.54c-2.15-1.52-5.4-2.25-8.78-2.32v36.95C-5.86,983.45-.76,990.64,8.74,985.21Z"/><path class="cls-2" d="M289,959.72c-3.45-.61-7.08-.19-10.61-.19,1.92-5.36,6-11.77-1.38-17-5.14-3.63-16.58-2.81-20.85,1.07-4,3.6-4,7.63-.29,15.53-8.67-3-12.26-2.27-15.29,3-3.65,6.39-2.33,16.31,3.48,20.62,9.64,7.14,15-.68,20.51-7.22l1.63,1-5.62,18.12h13.79c-5.32-5.52-7.55-11-7-18.56,5.93,6.93,11.05,14.62,20.79,9,6-3.45,8.2-14.63,4.73-21.43C292.07,962.13,290.51,960,289,959.72Z"/><path class="cls-2" d="M384.1,983.08c9.52,6.53,14.78-.89,20.09-7.48l1.69,1-5.53,18.19h13.18c-6.22-8.65-7.45-12.75-5.59-17.66,7.61,9.43,13.72,12.1,19.49,8.54s8.59-14,5.52-21.32c-2.35-5.6-6-6.58-15.21-3.86,2.31-6.22,6.38-12.62-.91-17.87-5.08-3.66-16.53-2.91-20.86.94-4.09,3.63-4.17,7.91-.31,15.52-9.09-2.89-12.57-2.11-15.54,3.51C376.62,969.16,378.18,979,384.1,983.08Z"/><path class="cls-2" d="M524,983.37c5.54,4.21,10,2.56,19.87-7.28,1.32,6.85-.18,12.23-5.59,18.64H553c-6.19-9.6-7-12.21-5.52-17.61,8.55,9.59,13.91,12,19.51,8.62,5.79-3.45,8.88-13.38,5.76-20.68-1.05-2.47-3.67-5.15-6.12-5.89-2.67-.81-6,.54-9,.94,4-10,3.8-14.31-.9-17.47-5.38-3.61-17-3-21.31,1.14-3.87,3.7-3.85,8.23.5,15.87-8.71-3.6-12.6-2.93-15.74,2.27C516.16,968.55,518,978.8,524,983.37Z"/><path class="cls-2" d="M33.5,967.87,57,997.36,80.26,967.9,56.94,938.31Z"/><path class="cls-2" d="M220,967.86l-23.37-29.53-23.4,29.53,23.43,29.53Z"/><path class="cls-2" d="M359.7,967.87l-23.33-29.53-23.43,29.52,23.43,29.53Z"/><path class="cls-2" d="M499.42,967.87l-23.34-29.53-23.43,29.52,23.43,29.52Z"/><path class="cls-2" d="M592.38,967.86l23.41,29.53c7.65-9.68,14.89-18.72,21.94-27.91.57-.74.36-2.8-.29-3.64-7-9-14.1-18-21.67-27.5Z"/><path class="cls-2" d="M592.37,544.44,615.8,574l23.33-29.5L615.8,514.88Z"/><path class="cls-2" d="M213.37-6.07h-33.5L196.64,15.1Z"/><path class="cls-2" d="M353.09-6.07H319.58l16.8,21.13Z"/><path class="cls-2" d="M492.81-6.07H459.29l16.8,21.15Z"/><path class="cls-2" d="M632.53-6.07H599l16.8,21.14Z"/><path class="cls-2" d="M69.63,138.73c3.4-4.36,9.43-8.83,9.34-13.16-.09-4.63-5.9-9.2-9.34-13.7-4.05-5.3-8.23-10.5-12.69-16.16L33.52,125.27l23.42,29.54C61.48,149.06,65.59,143.92,69.63,138.73Z"/><path class="cls-2" d="M173.23,125.27l23.41,29.54L220,125.31,196.65,95.73Z"/><path class="cls-2" d="M359.7,125.29,336.35,95.75l-23.42,29.54,23.44,29.53Z"/><path class="cls-2" d="M499.41,125.3,476.08,95.73l-23.43,29.56,23.43,29.53Z"/><path class="cls-2" d="M80.27,684.15,56.9,654.62,33.5,684.16l23.43,29.53Z"/><path class="cls-2" d="M173.21,684.14l23.43,29.54L220,684.17l-23.33-29.55Z"/><path class="cls-2" d="M312.93,684.16l23.46,29.48,23.31-29.48L336.36,654.6Z"/><path class="cls-2" d="M499.41,684.16l-23.33-29.54-23.44,29.52,23.44,29.53Z"/><path class="cls-2" d="M639.13,684.16l-23.33-29.53-23.43,29.52,23.43,29.53Z"/><path class="cls-2" d="M138.44,1152.76c-4,0-8,2.15-12,3.33-4.44-1.56-9.55-3.59-14.12-2.74-9.37,1.76-13,9.9-9.84,20.14,4.54,14.53,14.25,25.76,24.65,37.82,4.91-6.26,9.78-11.36,13.32-17.26,4.36-7.28,8.53-14.93,11.07-23C154.6,1161.49,148.07,1152.81,138.44,1152.76Z"/><path class="cls-2" d="M11.88,1171c2.91-9.63-3.62-18.27-13.24-18.26-3.15,0-6.31,1.36-9.82,2.63v54.25c5-6.27,9.47-11.31,12.91-17A95.88,95.88,0,0,0,11.88,1171Z"/><path class="cls-2" d="M278.77,1152.84c-4.12-.18-8.35,2-11.43,2.76-5.33-1-10.22-3.1-14.68-2.42-9.63,1.48-13.67,9.82-10.45,20.23,4.5,14.55,14.21,25.77,24.64,37.85,4.67-5.87,9.36-10.66,12.7-16.25,4.53-7.59,8.94-15.5,11.69-23.84C294.34,1161.77,288.22,1153.25,278.77,1152.84Z"/><path class="cls-2" d="M420.84,1192.71A97.1,97.1,0,0,0,431,1171.08c2.89-9.44-3.21-17.92-12.64-18.26-4.13-.15-8.34,2-13.4,3.36a13.79,13.79,0,0,0-13.26-3.1c-9.18,2.71-13,10.18-9.75,20.44,4.54,14.53,14.27,25.74,24.64,37.8C411.65,1204.82,416.91,1199.17,420.84,1192.71Z"/><path class="cls-2" d="M555.86,1152.69c-3.37.33-6.57,2.35-9.85,3.59l-.06-1c-4.71-.78-9.62-2.82-14.08-2.09-9.38,1.55-13.39,9.76-10.32,19.89,4.47,14.76,14.33,26.08,24.77,38.24,5.1-6.58,10.36-12.26,14.29-18.74,4.12-6.79,7.91-14.07,10.13-21.64C573.75,1160.78,566,1151.69,555.86,1152.69Z"/><path class="cls-2" d="M-1.45,1292.47c-3.14,0-6.28,1.38-9.73,2.64v39.82H.24c5.66-8.22,10.38-17.4,11.75-23.7C14.21,1301,8.44,1292.43-1.45,1292.47Z"/><path class="cls-2" d="M151.56,1310.81c3.09-10.24-4.57-19.31-14.74-18.4-3.37.3-6.59,2.28-10.85,3.86-5.16-4.61-11.36-5.59-18.07-1.47-5.85,3.6-7.51,9.05-6.09,15.3,2.14,9.4,6.64,17.33,12.16,24.83h25.8c.45-.68.89-1.36,1.31-2.05C145.28,1325.92,149.23,1318.53,151.56,1310.81Z"/><path class="cls-2" d="M291.31,1310.71c3-10.2-4.75-19.29-14.86-18.3-3.37.33-6.58,2.33-10.74,3.91-3.81-3.33-8.58-5.28-14.31-3.32-8.85,3-12.31,10.25-9.13,20.33a74.36,74.36,0,0,0,11.45,21.61H279.5c.58-.85,1.13-1.71,1.66-2.58C285.29,1325.56,289.08,1318.28,291.31,1310.71Z"/><path class="cls-2" d="M431,1310.53a13.71,13.71,0,0,0-14-18.1c-3.83.17-7.56,2.37-11.76,3.78-3.69-3.17-8.29-5.07-13.84-3.33-9.13,2.87-12.73,10.28-9.44,20.6a74.56,74.56,0,0,0,11.4,21.45h25.69l0-.07C423.75,1327.11,428.31,1319.05,431,1310.53Z"/><path class="cls-2" d="M570.78,1310.61c2.89-10.19-4.94-19.26-15-18.19-3.37.36-6.57,2.38-10.47,3.89-7.52-5.12-13-5.4-19.3-.77-5.42,4-6.95,10-4.12,18.42a77.14,77.14,0,0,0,11.28,21h25.77c.81-1.17,1.6-2.35,2.34-3.56A85.56,85.56,0,0,0,570.78,1310.61Z"/><path class="cls-2" d="M637.09,1171.45c-7.21-5.64-14.58-11.09-21.12-16-6.21,4.57-12.71,9.48-19.34,14.2-8.5,6.05-11,14.45-6.78,23.4,4.07,8.62,13.69,10.74,21,4.61,1.13-.95,2.23-1.93,3.34-2.9l1.27.77L610,1209h12.62l-6-13.15,1.26-.72c1.06.87,2.1,1.76,3.18,2.6,7.87,6,17.93,3.13,21.43-6.15C645.5,1183.71,643.68,1176.61,637.09,1171.45Z"/><path class="cls-2" d="M496.66,1170.84c-7.09-5.26-14.09-10.64-20.42-15.43-6.1,4.49-12.58,9.41-19.22,14.11-8.79,6.24-11.3,15.38-6.45,24.31,4.21,7.75,13.13,9.63,20,4.2,1.34-1.05,2.57-2.23,3.85-3.36l1.28.71-5.48,13.73H483l-5.86-13.17,1.46-.77c.64.59,1.25,1.2,1.91,1.76,9.07,7.55,20.39,3.68,23.06-7.8C505.32,1181.44,502.92,1175.49,496.66,1170.84Z"/><path class="cls-2" d="M357,1170.87c-7.09-5.27-14.1-10.65-20.46-15.47-6.06,4.46-12.54,9.39-19.18,14.09-8.46,6-11,13.83-7.23,22.85,3.9,9.24,13.92,11.58,21.54,5,1-.88,2-1.82,3-2.73l1.34.74-5.44,13.71h12.69l-5.9-13.16,1.46-.78c.64.58,1.25,1.2,1.91,1.75,9.08,7.56,20.39,3.74,23.08-7.72C365.6,1181.5,363.25,1175.53,357,1170.87Z"/><path class="cls-2" d="M216.08,1170c-6.71-4.91-13.25-10.06-19.25-14.64-6,4.43-12.57,9.21-19.06,14.1a32.39,32.39,0,0,0-5.57,5c-5.11,6.17-4.2,17.47,1.68,23.09,5.68,5.44,12.58,4.77,19.87-1.91a8.21,8.21,0,0,1,1.26-.79l1.23.56-5.3,13.68h12.62l-6-13.17,1.42-.77c.77.69,1.52,1.41,2.32,2.06,8.89,7.23,20.13,3.34,22.73-7.86C226,1180.91,223.66,1175.53,216.08,1170Z"/><path class="cls-2" d="M78.22,1171.45c-7.21-5.64-14.58-11.09-21.13-16-6.21,4.57-12.71,9.48-19.34,14.2-8.5,6.05-11,14.45-6.78,23.4,4.07,8.62,13.69,10.74,21,4.61,1.13-.95,2.23-1.93,3.34-2.9l1.27.76L51.14,1209H63.76l-6-13.15,1.26-.73c1.06.87,2.09,1.76,3.18,2.59,7.87,6,17.93,3.13,21.43-6.15C86.63,1183.71,84.82,1176.61,78.22,1171.45Z"/><path class="cls-2" d="M495.57,1309.75c-6.71-4.91-13.26-10.05-19.32-14.67-6.24,4.6-13,9.65-19.88,14.64-8.19,6-10.47,14.91-5.93,23.59a16.28,16.28,0,0,0,1,1.62h22.5l.57-.5.73.5h2.9l.22-.12.14.12h22.43a16.17,16.17,0,0,0,2.31-4.8C505.74,1321.64,503.3,1315.4,495.57,1309.75Z"/><path class="cls-2" d="M355.22,1309.29c-6.48-4.63-12.7-9.62-19.17-14.56-2.4,2.24-5.23,5.25-8.44,7.76s-6.88,4.47-10.27,6.79c-8.65,5.92-11.14,14.33-7,23.31a16.19,16.19,0,0,0,1.35,2.35h22.43l.6-.54,1,.54h3.05l.08,0,0,0h22.28a17.11,17.11,0,0,0,2.62-6.09C365.71,1320.34,363.2,1315,355.22,1309.29Z"/><path class="cls-2" d="M218,1311.19c-7.21-5.65-14.59-11.09-21.15-16.06-6.18,4.55-12.67,9.46-19.3,14.17-8.76,6.22-11.23,15.43-6.33,24.33.25.46.52.89.8,1.3h22.47l.57-.51.86.51h2.73l.15-.09.1.09h22.55a16,16,0,0,0,1.94-3.62C226.35,1323.44,224.56,1316.36,218,1311.19Z"/><path class="cls-2" d="M76.42,1309.75c-6.71-4.91-13.26-10.05-19.32-14.67-6.24,4.6-13,9.65-19.88,14.64-8.19,6-10.47,14.92-5.94,23.59a16.16,16.16,0,0,0,1,1.62h22.5l.57-.5.73.5H59l.21-.12.13.12H81.76a16.21,16.21,0,0,0,2.31-4.79C86.6,1321.67,84.15,1315.41,76.42,1309.75Z"/><path class="cls-2" d="M635.29,1309.76c-6.71-4.91-13.26-10.05-19.33-14.67-6.24,4.6-13,9.65-19.88,14.64-8.19,6-10.47,14.92-5.94,23.59a16.17,16.17,0,0,0,1,1.62h22.51l.57-.5.73.5h2.88l.22-.12.14.12h22.45a16.23,16.23,0,0,0,2.31-4.79C645.47,1321.67,643,1315.41,635.29,1309.76Z"/><path class="cls-2" d="M8.28,1268.92c5.9-3.66,8.57-14,5.5-21.33-2.34-5.58-5.89-6.54-15.2-3.88,2.32-6.22,6.36-12.62-.95-17.86-2.15-1.54-5.43-2.29-8.82-2.35v36.92C-3.63,1269.81,2.52,1272.5,8.28,1268.92Z"/><path class="cls-2" d="M8.6,1129c5.92-4,8.36-15.05,4.83-22-2.5-4.91-6.25-5.71-15-2.82,2.54-6.37,6.16-12.32-.22-17.68-2.05-1.72-5.68-2.67-9.4-2.8v37.14C-2.8,1130.43,3,1132.8,8.6,1129Z"/><path class="cls-2" d="M566.5,1242.44c-2.54-.88-5.87.56-8.94,1,4-9.59,3.86-14.09-.51-17.28-5.06-3.69-16.84-3.33-21.35.65-4.13,3.65-4.22,8-.31,15.52-9.19-2.82-12.59-2.05-15.55,3.51-3.5,6.58-1.71,16.06,3.89,20.6,3.63,2.95,7.76,3.34,11.49.94,3.28-2.12,5.91-5.25,8.83-7.94l1.52.44-5.49,18.2H552l-6.44-17,2-.65c7.65,9.25,13.37,11.91,19,8.86,5.86-3.16,9.24-13,6.26-20.5A12,12,0,0,0,566.5,1242.44Z"/><path class="cls-2" d="M524.41,1127.21c5.58,3.9,10.22,2.09,20-8.23.19,7.32-.4,13.59-6.56,19.29h15c-6.2-10.22-6.76-12.07-5.49-17.57,9.28,9.85,14.42,12,20,8.37s8.54-13.81,5.23-20.85a11.43,11.43,0,0,0-6.38-5.57c-2.54-.73-5.68.66-8.57,1.12,3.95-10.34,3.75-14.36-.85-17.51-5.3-3.63-17-3.07-21.32,1-3.95,3.71-3.95,8.32.4,15.81-9-3.48-12.88-2.71-15.94,2.81C516.13,1112.75,518.27,1122.92,524.41,1127.21Z"/><path class="cls-2" d="M426.91,1242.45c-2.67-.81-6,.53-9.11.95,2.31-5.81,5.95-11.77-.41-17.13-4.56-3.84-16.27-3.64-20.88.13-6.05,5-3.75,10.62-.46,16.49-8.57-3.56-12.48-2.88-15.62,2.33-4,6.63-2.22,17,4,21.37,1.78,1.25,4.79,2.64,6.34,2,4.92-2.18,9.42-5.31,13.72-7.86,1,5.59-.45,10.91-5.84,17.34H412.3l-6.49-17,2-.64c8.55,9.6,13.9,12,19.51,8.62,5.8-3.45,8.89-13.38,5.77-20.68C432,1245.87,429.37,1243.19,426.91,1242.45Z"/><path class="cls-2" d="M147.38,1242.44c-2.55-.88-5.9.54-9,1,4-9.59,3.84-14-.49-17.23-5-3.7-16.82-3.38-21.35.59-4.18,3.66-4.27,8.11,0,16.12-8.58-3.56-12.52-2.85-15.64,2.42-3.84,6.5-2.27,16.56,3.67,21,1.86,1.39,5.09,2.93,6.76,2.22,4.93-2.12,9.39-5.33,15-8.72L121,1278h13c-6.18-9-7.25-12.48-5.59-17.66,7.86,9.28,13.42,11.87,19,8.87,5.88-3.14,9.27-13,6.31-20.49A12,12,0,0,0,147.38,1242.44Z"/><path class="cls-2" d="M278,1243.78c2.33-6.4,6.53-13-1.34-18.17-5.42-3.53-16.74-2.45-20.81,1.55-3.73,3.66-3.71,7.87.09,15.15-9.16-2.82-12.6-2-15.55,3.51-3.5,6.58-1.71,16.05,3.89,20.6,3.63,2.95,7.76,3.33,11.49.92,3.28-2.12,5.91-5.25,8.83-7.93l1.52.45-5.5,18.2h13.14c-6.23-8.81-7.39-12.63-5.6-17.69,7.76,9.47,13.75,12.1,19.49,8.58,6.08-3.73,8.74-14.54,5.36-21.8C290.59,1241.91,287,1241.05,278,1243.78Z"/><path class="cls-2" d="M426.54,1102.64c-2.61-.64-5.7.66-8.58,1.12,3.89-10.47,3.7-14.35-.86-17.49-5-3.47-16.7-3.39-20.81.74a12.11,12.11,0,0,0-3.27,7.44c-.1,2.76,1.53,5.58,2.38,8.32-8.11-3.07-11.78-2.44-14.9,2.62-3.73,6.06-2.89,15.63,2.59,20.32,9.71,8.32,15.4.21,21.25-6.55l1.54,1.08-5.45,18h12.69c-6.19-10.36-6.71-12-5.48-17.55,9.47,9.88,14.46,12,20,8.39,5.84-3.79,8.64-14.35,5.09-21.34A10.74,10.74,0,0,0,426.54,1102.64Z"/><path class="cls-2" d="M243.74,1126.06c9.63,7.62,15.2-.18,20.84-7l1.58,1.13-5.45,18h13.18c-4.37-5.43-7.42-10.79-6.38-17.9,10.36,10.44,15.33,12.42,20.81,8.49,5.75-4.13,8-15.5,4.42-22.1-2.58-4.72-6.55-5.46-14.89-2.29,2.52-6.61,6.37-12.78-.47-18.1-4.81-3.74-16.66-3.46-20.77.65a12.1,12.1,0,0,0-3.3,7.43c-.1,2.76,1.52,5.59,2.36,8.31-8.12-3-11.75-2.39-14.86,2.64C237,1111.59,238,1121.5,243.74,1126.06Z"/><path class="cls-2" d="M104.36,1126.38c9.63,7.11,15-.72,20.86-6.92a32.86,32.86,0,0,1-1,9.76c-.94,3-2.75,5.77-4.38,9.05h14.24c-5.87-7.82-7.1-11.6-5.95-18,5.45,6.38,10.57,14.06,20.31,8.45,6-3.46,8.16-14.67,4.69-21.44-.84-1.64-2.41-3.77-3.93-4-3.45-.6-7.07-.19-10.4-.19,3.46-10.18,3.29-13.66-1.1-16.75-5-3.5-16.41-3.22-20.94.5-4.32,3.56-4.49,7.68-.68,15.9-8.59-3-12.24-2.32-15.29,3C97.2,1112.17,98.53,1122.07,104.36,1126.38Z"/><path class="cls-2" d="M33.51,1111.44,56.93,1141l23.34-29.53L56.92,1081.9Z"/><path class="cls-2" d="M220,1111.46l-23.32-29.59-23.43,29.57L196.64,1141Z"/><path class="cls-2" d="M359.71,1111.43l-23.37-29.51-23.41,29.52,23.45,29.51Z"/><path class="cls-2" d="M489.76,1123.64c3.07-3.94,8.51-8,8.44-11.89-.08-4.2-5.28-8.37-8.39-12.43-4.39-5.73-8.91-11.35-13.71-17.45l-23.42,29.55L476.09,1141C481,1134.81,485.38,1129.25,489.76,1123.64Z"/><path class="cls-2" d="M592.37,1111.44,615.8,1141l23.33-29.5-23.32-29.58Z"/><path class="cls-2" d="M33.5,1251.16l23.43,29.53,23.35-29.54L56.9,1221.62Z"/><path class="cls-2" d="M173.21,1251.14l23.43,29.54L220,1251.17l-23.33-29.55Z"/><path class="cls-2" d="M312.93,1251.16l23.46,29.48,23.31-29.48-23.33-29.57Z"/><path class="cls-2" d="M452.65,1251.14l23.44,29.53,23.33-29.51-23.33-29.54Z"/><path class="cls-2" d="M592.37,1251.14l23.43,29.53,23.33-29.52-23.33-29.53Z"/><path class="cls-2" d="M592.36,125.28l23.43,29.53,23.34-29.51L615.8,95.74Z"/><path class="cls-2" d="M80.26,265,56.93,235.46,33.51,265l23.41,29.54Z"/><path class="cls-2" d="M196.66,235.43,173.23,265l23.42,29.56c4.55-5.76,8.66-10.9,12.7-16.09,3.4-4.36,9.43-8.83,9.35-13.16-.09-4.63-5.91-9.2-9.34-13.69C205.3,246.29,201.11,241.1,196.66,235.43Z"/><path class="cls-2" d="M349.07,278.45c3.4-4.36,9.43-8.83,9.34-13.16-.09-4.63-5.9-9.19-9.34-13.69-4.05-5.3-8.23-10.5-12.69-16.16L312.95,265l23.41,29.54C340.91,288.78,345,283.64,349.07,278.45Z"/><path class="cls-2" d="M499.42,265l-23.34-29.56L452.66,265l23.42,29.54Z"/><path class="cls-2" d="M592.37,265l23.45,29.49L639.12,265l-23.31-29.59Z"/><path class="cls-2" d="M699.84,625.71A97.1,97.1,0,0,0,710,604.08c2.89-9.44-3.21-17.92-12.64-18.26-4.13-.15-8.34,2-13.4,3.36a13.79,13.79,0,0,0-13.26-3.1c-9.18,2.71-13,10.18-9.75,20.44,4.54,14.53,14.27,25.74,24.64,37.8C690.65,637.82,695.91,632.17,699.84,625.71Z"/><path class="cls-2" d="M699.89,485.91A95.82,95.82,0,0,0,710,464.27c2.89-9.61-3.68-18.27-13.28-18.23-4,0-8,2.19-12.52,3.56-5.67-3.8-8.87-4.62-13.62-3.2-9.17,2.74-12.87,10.22-9.64,20.5,4.56,14.52,14.29,25.71,24.63,37.74C690.71,498.06,696,492.39,699.89,485.91Z"/><path class="cls-2" d="M696.06,725.43c-3.83.17-7.56,2.37-11.76,3.78-3.69-3.17-8.29-5.07-13.84-3.33-9.13,2.87-12.73,10.28-9.44,20.6,4.56,14.32,14.11,25.45,24.54,37.47,4.56-5.72,9.27-10.49,12.59-16.09,4.6-7.76,9.15-15.81,11.86-24.33A13.71,13.71,0,0,0,696.06,725.43Z"/><path class="cls-2" d="M693.84,865.24c-3,.58-5.82,2.49-8.71,3.79-4.32-1.94-9.21-4.09-13.69-3.43-9.62,1.41-13.74,9.8-10.53,20.19,4.49,14.55,14.18,25.81,24.83,38.07,5.58-7.37,11.16-13.7,15.49-20.8a77.05,77.05,0,0,0,8.88-19.88A14.17,14.17,0,0,0,693.84,865.24Z"/><path class="cls-2" d="M695.19,306.26c-3.37.32-6.58,2.32-10.77,3.9-3.62-3.16-8.21-5.15-13.77-3.48-9.17,2.75-12.9,10.21-9.67,20.48,4.56,14.52,14.29,25.73,24.62,37.76,5.08-6.55,10.34-12.22,14.28-18.69,4.12-6.79,7.91-14.07,10.15-21.64C713,314.39,705.3,305.29,695.19,306.26Z"/><path class="cls-2" d="M685.67,225.22c5.32-6.94,10.75-12.94,14.88-19.73a85,85,0,0,0,9.51-20.76c2.93-10.39-5.33-19.6-15.55-18.15-3.21.45-6.2,2.42-9.83,3.92-7.6-5.19-13.1-5.47-19.4-.84-5.41,4-6.94,10-4.12,18.42C665.92,202.28,675.37,213.4,685.67,225.22Z"/><path class="cls-2" d="M685.6,85.46c4.92-6.27,9.79-11.37,13.32-17.28,4.35-7.28,8.57-14.92,11.06-23,3.16-10.2-4.57-19.3-14.72-18.39-3.37.3-6.58,2.28-10.71,3.81-7.35-4.81-12.06-5.22-18.21-1.42-5.6,3.47-7.44,8.67-6.16,14.77C663.65,60.56,674.62,72.47,685.6,85.46Z"/><path class="cls-2" d="M735.38,323.56c-8.2,6-10.48,14.88-5.95,23.58,4.18,8,13.32,10,20.37,4.29,1.26-1,2.47-2.09,3.7-3.14l1.22.82-5.35,13.45h8.44v-9.1L756,349.42l1.36-.75.5.44v-38.2l-2.58-2C749,313.52,742.23,318.58,735.38,323.56Z"/><path class="cls-2" d="M735.92,183.45c-8.75,6.23-11.21,15.44-6.3,24.34,4.25,7.71,13.19,9.51,20.07,4,1.23-1,2.33-2.12,3.49-3.19l1.55.69-5.45,13.54h8.52v-9l-1.87-4.12,1.26-.72.61.5V171.19l-2.57-1.94C749,173.82,742.55,178.73,735.92,183.45Z"/><path class="cls-2" d="M736,602.52c-8.79,6.24-11.3,15.38-6.45,24.31,4.21,7.75,13.13,9.63,20,4.2,1.34-1.05,2.57-2.23,3.85-3.36l1.28.71-5.48,13.73h8.56v-9.32l-1.71-3.85,1.46-.77.25.24v-38l-2.58-2C749.14,592.9,742.65,597.82,736,602.52Z"/><path class="cls-2" d="M735.76,882.15c-8.4,6-10.85,14.57-6.54,23.45,4.06,8.37,13.45,10.5,20.64,4.67,1.24-1,2.41-2.1,3.6-3.15l1.27.92-5.39,13.44h8.48v-9l-1.89-4,1.48-1,.41.38V869.76l-2.55-2C749.14,872.32,742.5,877.32,735.76,882.15Z"/><path class="cls-2" d="M735.37,742.72c-8.19,6-10.47,14.91-5.93,23.59,4.2,8,13.34,10,20.38,4.27,1.25-1,2.45-2.1,3.68-3.15l1.23.84-5.35,13.45h8.45v-9.11l-1.84-4,1.37-.78.47.42V730l-2.56-2C749,732.68,742.22,737.73,735.37,742.72Z"/><path class="cls-2" d="M735.78,43.83c-8.54,6.12-11,15.07-6.34,23.92,4.21,8,13.35,9.93,20.39,4.24,1.25-1,2.44-2.1,3.66-3.15l1.23.86-5.37,13.45h8.46V74L756,70l1.38-.78.46.41V31.46l-2.56-2C749.15,34,742.53,39,735.78,43.83Z"/><path class="cls-2" d="M757.2,488.42l.61.51V450.64l-2.58-1.95c-6.18,4.55-12.67,9.46-19.3,14.18-8.77,6.23-11.23,15.42-6.32,24.33,4.25,7.72,13.17,9.54,20.07,4.06,1.3-1,2.52-2.18,3.78-3.27l1.28.75-5.46,13.55h8.53v-9l-1.87-4.11Z"/><path class="cls-2" d="M705.55,395.93c-2.61-.64-5.7.66-8.73,1.14,2.24-6,6.14-12.16-.76-17.46-5.06-3.89-16.92-3.13-21.28.94-4,3.7-4,8.33.37,15.79-8.86-3.36-12.52-2.73-15.64,2.34-3.72,6-2.87,15.65,2.59,20.32,9.71,8.31,15.4.21,21.24-6.55l1.55,1.09-5.47,18h13.23c-4.42-5.45-7.46-10.81-6.39-17.94,9.94,10.29,14.85,12.36,20.36,8.79,5.85-3.79,8.66-14.35,5.1-21.33A10.75,10.75,0,0,0,705.55,395.93Z"/><path class="cls-2" d="M663.29,140.77c5.55,4.23,10.19,2.53,20.49-7.9.13,7.28-.44,13.56-6.6,19.26h15.05c-6.19-9.83-6.89-12.13-5.51-17.6,8.8,9.64,13.95,11.92,19.52,8.64,6-3.51,9.05-13.91,5.62-21.15a11.43,11.43,0,0,0-6.42-5.53c-2.53-.72-5.66.67-8.57,1.14,4-10.13,3.83-14.41-.84-17.56-5.34-3.6-17-3-21.32,1.1-3.9,3.7-3.88,8.28.48,15.86-8.94-3.62-12.92-2.83-16,2.76C655.52,126.46,657.45,136.32,663.29,140.77Z"/><path class="cls-2" d="M663.38,699.58c1.78,1.25,4.79,2.64,6.34,2,4.92-2.18,9.42-5.31,13.72-7.86,1,5.59-.45,10.91-5.84,17.34H691.3l-6.49-17,2-.64c8.55,9.6,13.9,12,19.51,8.62,5.8-3.45,8.89-13.38,5.77-20.68-1.05-2.47-3.67-5.15-6.13-5.89-2.67-.81-6,.53-9.11.95,2.31-5.81,5.95-11.77-.41-17.13-4.56-3.84-16.27-3.64-20.88.13-6.05,5-3.75,10.62-.46,16.49-8.57-3.56-12.48-2.88-15.62,2.33C655.44,684.84,657.21,695.25,663.38,699.58Z"/><path class="cls-2" d="M712,262.21c-1-2.47-3.66-5.17-6.11-5.91-2.68-.81-6,.54-9.13,1,2.29-5.8,6-11.76-.38-17.14-4.53-3.84-16.46-3.86-20.77.2a12.76,12.76,0,0,0-3.61,7.79c-.18,2.71,1.53,5.55,2.41,8.33-8.2-3.35-12.18-2.55-15.26,3.06-3.66,6.68-1.72,16.54,4.12,21,5.54,4.2,10.1,2.54,20.5-7.91.06,7.27-.44,13.58-6.68,19.26h15.14c-6.19-9.63-7-12.17-5.53-17.61,8.64,9.6,13.92,11.94,19.51,8.63C712.05,279.44,715.16,269.51,712,262.21Z"/><path class="cls-2" d="M663,.7c1.86,1.39,5.09,2.93,6.76,2.22,4.93-2.12,9.39-5.33,14-8.08,0,5.59-.45,11.92-6.71,17.61h15.32C686.22,3.37,685.2,0,686.83-5.2c7.95,9.3,13.43,11.86,19,8.88,3.23-1.72,5.71-5.47,6.8-9.74H658.31A14.21,14.21,0,0,0,663,.7Z"/><path class="cls-2" d="M663.1,839.08c9.52,6.53,14.78-.89,20.09-7.48l1.69,1-5.53,18.19h13.18c-6.22-8.65-7.45-12.75-5.59-17.66,7.61,9.43,13.72,12.1,19.49,8.54s8.59-14,5.52-21.32c-2.35-5.6-6-6.58-15.21-3.86,2.31-6.22,6.38-12.62-.91-17.87-5.08-3.66-16.53-2.91-20.86.94-4.09,3.63-4.17,7.91-.31,15.52-9.09-2.89-12.57-2.11-15.54,3.51C655.62,825.16,657.18,835,663.1,839.08Z"/><path class="cls-2" d="M705.54,535.64c-2.61-.64-5.7.66-8.58,1.12,3.89-10.47,3.7-14.35-.86-17.49-5-3.47-16.7-3.39-20.81.74a12.11,12.11,0,0,0-3.27,7.44c-.1,2.76,1.53,5.58,2.38,8.32-8.11-3.07-11.78-2.44-14.9,2.62-3.73,6.06-2.89,15.63,2.59,20.32,9.71,8.32,15.4.21,21.25-6.55l1.54,1.08-5.45,18h12.69c-6.19-10.36-6.71-12-5.48-17.55,9.47,9.88,14.46,12,20,8.39,5.84-3.79,8.64-14.35,5.09-21.34A10.74,10.74,0,0,0,705.54,535.64Z"/><path class="cls-2" d="M731.66,404.71l23.4,29.52,2.75-3.47V378.65l-2.75-3.47Z"/><path class="cls-2" d="M731.67,544.42,755.09,574l2.73-3.45V518.31l-2.72-3.44Z"/><path class="cls-2" d="M731.66,823.86l23.43,29.52,2.72-3.44V797.8l-2.73-3.46Z"/><path class="cls-2" d="M693.84,1009.24c-3,.58-5.82,2.49-8.71,3.79-4.32-1.94-9.21-4.09-13.69-3.43-9.62,1.41-13.74,9.8-10.53,20.19,4.49,14.55,14.18,25.81,24.83,38.07,5.58-7.37,11.16-13.7,15.49-20.8a77.05,77.05,0,0,0,8.88-19.88A14.17,14.17,0,0,0,693.84,1009.24Z"/><path class="cls-2" d="M735.76,1026.15c-8.4,6-10.85,14.57-6.54,23.45,4.06,8.37,13.45,10.5,20.64,4.67,1.24-1,2.41-2.1,3.6-3.15l1.27.92-5.39,13.44h8.48v-9l-1.89-4,1.48-1,.41.38v-38.15l-2.55-2C749.14,1016.32,742.5,1021.32,735.76,1026.15Z"/><path class="cls-2" d="M663.1,983.08c9.52,6.53,14.78-.89,20.09-7.48l1.69,1-5.53,18.19h13.18c-6.22-8.65-7.45-12.75-5.59-17.66,7.61,9.43,13.72,12.1,19.49,8.54s8.59-14,5.52-21.32c-2.35-5.6-6-6.58-15.21-3.86,2.31-6.22,6.38-12.62-.91-17.87-5.08-3.66-16.53-2.91-20.86.94-4.09,3.63-4.17,7.91-.31,15.52-9.09-2.89-12.57-2.11-15.54,3.51C655.62,969.16,657.18,979,663.1,983.08Z"/><path class="cls-2" d="M731.66,967.86l23.43,29.52,2.72-3.44V941.8l-2.73-3.46Z"/><path class="cls-2" d="M757.81,11.65V-6.07H738.29l16.8,21.15Z"/><path class="cls-2" d="M731.65,125.29l23.43,29.53,2.74-3.46V99.19l-2.74-3.47Z"/><path class="cls-2" d="M731.65,684.14l23.44,29.53,2.73-3.45V658.08l-2.73-3.46Z"/><path class="cls-2" d="M699.84,1192.71A97.1,97.1,0,0,0,710,1171.08c2.89-9.44-3.21-17.92-12.64-18.26-4.13-.15-8.34,2-13.4,3.36a13.79,13.79,0,0,0-13.26-3.1c-9.18,2.71-13,10.18-9.75,20.44,4.54,14.53,14.27,25.74,24.64,37.8C690.65,1204.82,695.91,1199.17,699.84,1192.71Z"/><path class="cls-2" d="M710,1310.53a13.71,13.71,0,0,0-14-18.1c-3.83.17-7.56,2.37-11.76,3.78-3.69-3.17-8.29-5.07-13.84-3.33-9.13,2.87-12.73,10.28-9.44,20.6a74.56,74.56,0,0,0,11.4,21.45h25.69l0-.07C702.75,1327.11,707.31,1319.05,710,1310.53Z"/><path class="cls-2" d="M736,1169.52c-8.79,6.24-11.3,15.38-6.45,24.31,4.21,7.75,13.13,9.63,20,4.2,1.34-1.05,2.57-2.23,3.85-3.36l1.28.71-5.48,13.73h8.56v-9.32l-1.71-3.85,1.46-.77.25.24v-38l-2.58-2C749.14,1159.9,742.65,1164.82,736,1169.52Z"/><path class="cls-2" d="M735.37,1309.72c-8.19,6-10.47,14.91-5.93,23.59a16.28,16.28,0,0,0,1,1.62h22.5l.57-.5.73.5h2.9l.22-.12.14.12h.33V1297l-2.56-2C749,1299.68,742.22,1304.73,735.37,1309.72Z"/><path class="cls-2" d="M705.91,1242.45c-2.67-.81-6,.53-9.11.95,2.31-5.81,5.95-11.77-.41-17.13-4.56-3.84-16.27-3.64-20.88.13-6.05,5-3.75,10.62-.46,16.49-8.57-3.56-12.48-2.88-15.62,2.33-4,6.63-2.22,17,4,21.37,1.78,1.25,4.79,2.64,6.34,2,4.92-2.18,9.42-5.31,13.72-7.86,1,5.59-.45,10.91-5.84,17.34H691.3l-6.49-17,2-.64c8.55,9.6,13.9,12,19.51,8.62,5.8-3.45,8.89-13.38,5.77-20.68C711,1245.87,708.37,1243.19,705.91,1242.45Z"/><path class="cls-2" d="M705.54,1102.64c-2.61-.64-5.7.66-8.58,1.12,3.89-10.47,3.7-14.35-.86-17.49-5-3.47-16.7-3.39-20.81.74a12.11,12.11,0,0,0-3.27,7.44c-.1,2.76,1.53,5.58,2.38,8.32-8.11-3.07-11.78-2.44-14.9,2.62-3.73,6.06-2.89,15.63,2.59,20.32,9.71,8.32,15.4.21,21.25-6.55l1.54,1.08-5.45,18h12.69c-6.19-10.36-6.71-12-5.48-17.55,9.47,9.88,14.46,12,20,8.39,5.84-3.79,8.64-14.35,5.09-21.34A10.74,10.74,0,0,0,705.54,1102.64Z"/><path class="cls-2" d="M731.67,1111.42,755.09,1141l2.73-3.45v-52.21l-2.72-3.44Z"/><path class="cls-2" d="M731.65,1251.14l23.44,29.53,2.73-3.45v-52.14l-2.73-3.46Z"/><path class="cls-2" d="M731.66,265l23.42,29.54,2.74-3.46V238.92l-2.73-3.46Z"/></svg>