<svg id="Слой_1" data-name="Слой 1" xmlns="http://www.w3.org/2000/svg" viewBox="0 0 174 175"><defs><style>.cls-1{fill:#140000;}.cls-2{fill:#210103;}</style></defs><title>Background_suitsPattern</title><rect class="cls-1" x="-1" width="175" height="175"/><path class="cls-2" d="M142.62,8.37c-5.19,0-10.4,2.81-15.6,4.34-5.79-2-12.45-4.68-18.4-3.56-12.21,2.29-17,12.9-12.82,26.25,5.91,18.94,18.56,33.57,32.13,49.28,6.39-8.15,12.75-14.8,17.35-22.5C151,52.7,156.4,42.73,159.72,32.26,163.68,19.74,155.17,8.43,142.62,8.37Z"/><path class="cls-2" d="M64.15,32.72c-9.4-7.35-19-14.45-27.53-20.91-8.1,6-16.56,12.35-25.2,18.5C.35,38.21-2.91,49.15,2.59,60.81c5.3,11.23,17.83,14,27.37,6,1.47-1.23,2.9-2.51,4.35-3.77L36,64,28.85,81.65H45.3L37.53,64.52l1.64-.95c1.38,1.13,2.73,2.3,4.14,3.38,10.26,7.85,23.36,4.08,27.93-8C75.11,48.7,72.74,39.44,64.15,32.72Z"/><path class="cls-2" d="M154.28,125.24c-3.33-1.15-7.69.71-11.68,1.25,5.19-12.5,5-18.29-.64-22.46-6.53-4.83-21.92-4.4-27.82.76-5.45,4.77-5.57,10.57,0,21C103,121.16,97.83,122.09,93.77,129c-5,8.47-3,21.58,4.78,27.36,2.42,1.81,6.64,3.82,8.81,2.89,6.43-2.76,11.24-6.95,18.61-11.36-2.35,7.86-3.68,15.64-6.12,23.79h17C135,169,130,157,128.55,148.62c10.24,12.09,18.48,14.47,25.81,10.56,7.66-4.09,12.08-15.91,8.22-25.7A15.64,15.64,0,0,0,154.28,125.24Z"/><path class="cls-2" d="M5.87,136.6,36.4,175.08l30.42-38.49L36.37,98.11Z"/></svg>