<svg id="Слой_1" data-name="Слой 1" xmlns="http://www.w3.org/2000/svg" width="138" height="138" viewBox="0 0 138 138"><defs><style>.cls-1{fill:#ccc;}.cls-2{fill:#8c0102;}</style></defs><title>IconPlus_press</title><circle class="cls-1" cx="70" cy="69" r="64.94"/><polygon class="cls-2" points="101.5 61.5 76.5 61.5 76.5 36.5 61.5 36.5 61.5 61.5 36.5 61.5 36.5 76.5 61.5 76.5 61.5 101.5 76.5 101.5 76.5 76.5 101.5 76.5 101.5 61.5"/><path class="cls-2" d="M69,1a68,68,0,1,0,68,68A68,68,0,0,0,69,1Zm0,132a64,64,0,1,1,64-64A64,64,0,0,1,69,133Z"/></svg>