<?xml version="1.0" encoding="UTF-8" standalone="no"?>
<svg
   xmlns:dc="http://purl.org/dc/elements/1.1/"
   xmlns:cc="http://creativecommons.org/ns#"
   xmlns:rdf="http://www.w3.org/1999/02/22-rdf-syntax-ns#"
   xmlns:svg="http://www.w3.org/2000/svg"
   xmlns="http://www.w3.org/2000/svg"
   xmlns:sodipodi="http://sodipodi.sourceforge.net/DTD/sodipodi-0.dtd"
   xmlns:inkscape="http://www.inkscape.org/namespaces/inkscape"
   id="Слой_1"
   data-name="Слой 1"
   width="172"
   height="172"
   viewBox="0 0 172 172"
   version="1.1"
   sodipodi:docname="btn_watch_up.svg"
   inkscape:version="0.92.1 r15371">
  <metadata
     id="metadata15">
    <rdf:RDF>
      <cc:Work
         rdf:about="">
        <dc:format>image/svg+xml</dc:format>
        <dc:type
           rdf:resource="http://purl.org/dc/dcmitype/StillImage" />
        <dc:title>IconLeft</dc:title>
      </cc:Work>
    </rdf:RDF>
  </metadata>
  <sodipodi:namedview
     pagecolor="#ffffff"
     bordercolor="#666666"
     borderopacity="1"
     objecttolerance="10"
     gridtolerance="10"
     guidetolerance="10"
     inkscape:pageopacity="0"
     inkscape:pageshadow="2"
     inkscape:window-width="1366"
     inkscape:window-height="705"
     id="namedview13"
     showgrid="true"
     inkscape:zoom="0.68604651"
     inkscape:cx="450.5594"
     inkscape:cy="65.382144"
     inkscape:window-x="-8"
     inkscape:window-y="-8"
     inkscape:window-maximized="1"
     inkscape:current-layer="Слой_1"
     showguides="false"
     inkscape:measure-start="300,-60"
     inkscape:measure-end="-100,220">
    <inkscape:grid
       type="xygrid"
       id="grid17" />
  </sodipodi:namedview>
  <defs
     id="defs4">
    <style
       id="style2">.cls-1{fill:#fff;}</style>
    <clipPath
       id="clipPath7230">
      <path
         id="path31"
         d="m0 114h150v-114h-150z" />
    </clipPath>
  </defs>
  <title
     id="title6">IconLeft</title>
  <path
     class="cls-1"
     d="M86,1a85,85,0,1,0,85,85A85,85,0,0,0,86,1Zm0,163a78,78,0,1,1,78-78A78,78,0,0,1,86,164Z"
     id="path8"
     style="fill:#ffffff" />
  <g
     id="g46"
     transform="matrix(0.734599,0,0,-0.734599,30.377838,129.4677)"
     style="fill:#ffffff">
    <g
       id="g44"
       clip-path="url(#clipPath7230)"
       style="fill:#ffffff">
      <g
         id="g38"
         transform="translate(144.67,98.181)"
         style="fill:#ffffff">
        <path
           id="path36"
           d="m 0,0 c 0,-1.349 -1.094,-2.442 -2.443,-2.442 h -9.993 c -1.349,0 -2.443,1.093 -2.443,2.442 v 5.048 c 0,1.349 1.094,2.442 2.443,2.442 h 9.993 C -1.094,7.49 0,6.397 0,5.048 Z m 0,-89.396 c 0,-1.348 -1.094,-2.443 -2.443,-2.443 h -9.993 c -1.349,0 -2.443,1.095 -2.443,2.443 v 5.048 c 0,1.349 1.094,2.443 2.443,2.443 h 9.993 c 1.349,0 2.443,-1.094 2.443,-2.443 z m -24.812,0 c 0,-1.348 -1.093,-2.443 -2.442,-2.443 h -9.992 c -1.35,0 -2.444,1.095 -2.444,2.443 v 5.048 c 0,1.349 1.094,2.443 2.444,2.443 h 9.992 c 1.349,0 2.442,-1.094 2.442,-2.443 z m -24.811,0 c 0,-1.348 -1.093,-2.443 -2.442,-2.443 h -9.993 c -1.349,0 -2.443,1.095 -2.443,2.443 v 5.048 c 0,1.349 1.094,2.443 2.443,2.443 h 9.993 c 1.349,0 2.442,-1.094 2.442,-2.443 z m -24.811,0 c 0,-1.348 -1.093,-2.443 -2.442,-2.443 h -9.993 c -1.35,0 -2.443,1.095 -2.443,2.443 v 5.048 c 0,1.349 1.093,2.443 2.443,2.443 h 9.993 c 1.349,0 2.442,-1.094 2.442,-2.443 z m -24.81,0 c 0,-1.348 -1.095,-2.443 -2.443,-2.443 h -9.993 c -1.349,0 -2.443,1.095 -2.443,2.443 v 5.048 c 0,1.349 1.094,2.443 2.443,2.443 h 9.993 c 1.348,0 2.443,-1.094 2.443,-2.443 z m -24.811,0 c 0,-1.348 -1.095,-2.443 -2.444,-2.443 h -9.992 c -1.349,0 -2.443,1.095 -2.443,2.443 v 5.048 c 0,1.349 1.094,2.443 2.443,2.443 h 9.992 c 1.349,0 2.444,-1.094 2.444,-2.443 z m -14.879,94.444 c 0,1.349 1.094,2.442 2.443,2.442 h 9.992 c 1.349,0 2.444,-1.093 2.444,-2.442 V 0 c 0,-1.349 -1.095,-2.442 -2.444,-2.442 h -9.992 c -1.349,0 -2.443,1.093 -2.443,2.442 z m 24.811,0 c 0,1.349 1.094,2.442 2.443,2.442 h 9.993 c 1.348,0 2.443,-1.093 2.443,-2.442 V 0 c 0,-1.349 -1.095,-2.442 -2.443,-2.442 h -9.993 c -1.349,0 -2.443,1.093 -2.443,2.442 z m 24.811,0 c 0,1.349 1.093,2.442 2.443,2.442 h 9.993 c 1.349,0 2.442,-1.093 2.442,-2.442 V 0 c 0,-1.349 -1.093,-2.442 -2.442,-2.442 h -9.993 c -1.35,0 -2.443,1.093 -2.443,2.442 z m 24.811,0 c 0,1.349 1.094,2.442 2.443,2.442 h 9.993 c 1.349,0 2.442,-1.093 2.442,-2.442 V 0 c 0,-1.349 -1.093,-2.442 -2.442,-2.442 h -9.993 c -1.349,0 -2.443,1.093 -2.443,2.442 z m 60.887,-82.981 h -131.11 V -6.416 H -3.614 Z M -39.69,5.048 c 0,1.349 1.094,2.442 2.444,2.442 h 9.992 c 1.349,0 2.442,-1.093 2.442,-2.442 V 0 c 0,-1.349 -1.093,-2.442 -2.442,-2.442 h -9.992 c -1.35,0 -2.444,1.093 -2.444,2.442 z m -103.98,-101.85 h 148 v 111.25 h -148 z"
           inkscape:connector-curvature="0"
           style="fill:#ffffff" />
      </g>
      <g
         id="g42"
         transform="translate(67.55,69.913)"
         style="fill:#ffffff">
        <path
           id="path40"
           d="m 0,0 v -29.799 l 19.866,13.906 z"
           inkscape:connector-curvature="0"
           style="fill:#ffffff" />
      </g>
    </g>
  </g>
</svg>
