<svg id="Слой_1" data-name="Слой 1" xmlns="http://www.w3.org/2000/svg" viewBox="0 0 292 127" width="292" height="127"><defs><style>.cls-1{fill:#c1272d;}.cls-2{fill:none;}.cls-3{fill:#940a0a;}.cls-4{fill:#eee2d3;}.cls-5{fill:#760a0a;}.cls-6{fill:#fff4e0;}.cls-7{fill:#b40b02;}.cls-8{fill:#fff;}.cls-9{fill:#dd0e01;}.cls-10{fill:#fff4c7;}.cls-11{fill:#890a0a;}</style></defs><title>Chip</title><ellipse class="cls-1" cx="145.5" cy="44.5" rx="88" ry="29"/><ellipse class="cls-2" cx="145.5" cy="44.5" rx="88" ry="29"/><ellipse class="cls-2" cx="146.5" cy="47.64" rx="145" ry="45.64"/><ellipse class="cls-3" cx="145.5" cy="44.5" rx="84.5" ry="25.5"/><path class="cls-4" d="M232.66,40.5h57.07c-4.89-9.8-19.69-18.56-41.07-25.25L223.28,30.93C228,33.86,231.23,37.08,232.66,40.5Z"/><path class="cls-4" d="M145.5,15.5a237.74,237.74,0,0,1,44.34,3.95L198,5A436,436,0,0,0,146.5,2q-3,0-5.92,0l3.27,13.47Z"/><path class="cls-4" d="M225.5,56.6c-4.86,3.49-11.76,6.6-20.2,9.18,6.84,6.44,15.9,15.05,20.76,20,21.35-4.42,38.78-10.57,50.26-17.81Z"/><path class="cls-4" d="M93.17,67.82,54.81,83c20.46,5.26,45.58,8.8,73.11,9.91l5.6-19.68A213.18,213.18,0,0,1,93.17,67.82Z"/><path class="cls-4" d="M57.5,44.5c0-.12,0-.24,0-.36L2.35,42.7a15.2,15.2,0,0,0-.85,4.94c0,6.49,4.32,12.67,12.08,18.26L61.79,53.46C59,50.64,57.5,47.63,57.5,44.5Z"/><path class="cls-4" d="M88.91,22.29,73.73,8.16c-19.81,3.63-36.65,8.69-49.06,14.73l42.55,8.36C72.58,27.8,80,24.76,88.91,22.29Z"/><path class="cls-5" d="M61.79,53.46,13.58,65.9C22.86,72.59,37.09,78.44,54.81,83L93.17,67.82C78.61,64.26,67.5,59.26,61.79,53.46Z"/><path class="cls-5" d="M205.3,65.77c-15.7,4.79-36.71,7.73-59.8,7.73q-6.09,0-12-.27l-5.6,19.68q9.12.37,18.57.37A427.5,427.5,0,0,0,229,85,227.49,227.49,0,0,1,205.3,65.77Z"/><path class="cls-5" d="M233.5,44.5c0,4.32-2.87,8.42-8,12.1L276.31,68C286,61.86,291.5,55,291.5,47.64a15.87,15.87,0,0,0-1.77-7.14H232.66A10.29,10.29,0,0,1,233.5,44.5Z"/><path class="cls-5" d="M223.28,30.93l25.38-15.67C234.38,10.79,217.15,7.26,198,5l-8.15,14.48C204,22.17,215.59,26.15,223.28,30.93Z"/><path class="cls-5" d="M143.85,15.51,140.58,2A404.51,404.51,0,0,0,73.73,8.16L88.91,22.29C103.82,18.16,122.94,15.63,143.85,15.51Z"/><path class="cls-5" d="M67.21,31.25,24.66,22.89C12.69,28.72,4.82,35.46,2.35,42.7l55.17,1.43C57.69,39.5,61.16,35.12,67.21,31.25Z"/><path class="cls-2" d="M291,83.36a14.3,14.3,0,0,0,0-7.5V49h-.51c-.13,5.15-3,10.1-8.08,14.71l-.07-.06c-11,9.25-31.26,17.07-57.23,22.36-22.65,4.61-49.63,7.28-78.6,7.28s-56-2.68-78.6-7.28c-26-5.28-46.23-13.11-57.23-22.36C6.09,59.79,3.11,55.69,2,51.43V75.86a14.58,14.58,0,0,0,0,7.57V86h.91c9.83,22.2,70.37,39.28,143.59,39.28,72.12,0,131.93-16.58,143.11-38.28H291Z"/><path class="cls-6" d="M229.5,85.07v32c20.84-4.59,37.67-10.86,48.5-18.18v-32C267.16,74.21,250.34,80.48,229.5,85.07Z"/><path class="cls-6" d="M2,51.43V75.86a14.58,14.58,0,0,0,0,7.57V86h.91a26.52,26.52,0,0,0,6.77,8.77l.8-31.3C6,59.67,3.1,55.63,2,51.43Z"/><path class="cls-6" d="M67.9,86q-6.45-1.31-12.4-2.83v32c20.33,5.17,45.19,8.64,72.41,9.73l-1-32A380.71,380.71,0,0,1,67.9,86Z"/><path class="cls-3" d="M225.1,86c-22.65,4.61-49.63,7.28-78.6,7.28q-10,0-19.61-.42l1,32q9.13.37,18.59.38c30.87,0,59.49-3,83-8.22v-32C228.05,85.38,226.59,85.7,225.1,86Z"/><path class="cls-3" d="M289.61,87,291,83.36a14.3,14.3,0,0,0,0-7.5V49h-.51c-.13,5.15-3,10.1-8.08,14.71l-.07-.06A51.88,51.88,0,0,1,278,66.89v32C283.5,95.17,287.46,91.18,289.61,87Z"/><path class="cls-3" d="M10.67,63.64l-.19-.17-.8,31.3c9,8.08,25.06,15.13,45.83,20.41v-32C35.49,78.08,19.85,71.36,10.67,63.64Z"/><path class="cls-7" d="M228.24,85.33,225.1,86c-22.65,4.61-49.63,7.28-78.6,7.28q-10,0-19.61-.42l.71,22.1A336.73,336.73,0,0,0,203,104C220.79,99.32,224.55,87.63,228.24,85.33Z"/><path class="cls-8" d="M126.52,92.85A380.31,380.31,0,0,1,67.9,86q-6.45-1.31-12.4-2.83v20c26,9.37,72,11.37,72,11.37Z"/><path class="cls-1" d="M47.5,100.5c2.34.92,5,1.79,8,2.63v-20c-15.16-3.85-27.8-8.64-37-14.09h0S24.5,91.5,47.5,100.5Z"/><path class="cls-9" d="M153.52,93.23c-2.33,0-4.66.06-7,.06q-10,0-19.61-.42l.36,11.26L130,104C137.59,103.6,149.35,97.53,153.52,93.23Z"/><path class="cls-10" d="M67.9,86q-6.45-1.31-12.4-2.83V93.52A48.59,48.59,0,0,0,72,99c23.68,3.79,37.49,5.78,55,5.13l-.51-11.29A380.31,380.31,0,0,1,67.9,86Z"/><path class="cls-9" d="M42.83,79.53h0s2.16,8,12.67,14V83.17Q48.83,81.47,42.83,79.53Z"/><path class="cls-11" d="M11.76,30.76A6.15,6.15,0,0,0,12,32c6-2.6,12.6-5.23,19.54-7.76l-6.88-1.35A70.94,70.94,0,0,0,11.76,30.76Z"/><path class="cls-6" d="M24.66,22.89l6.88,1.35A332.88,332.88,0,0,1,76.92,11.13l-3.2-3C53.91,11.78,37.08,16.85,24.66,22.89Z"/><path class="cls-11" d="M141.54,6l-1-4A404.51,404.51,0,0,0,73.73,8.16l3.2,3C81,10.29,85.09,9.56,89,9,106.38,6.52,125,6.75,141.54,6Z"/><path class="cls-6" d="M146.5,2q-3,0-5.92,0l1,4c10.39-.46,20-1.3,27.89-3.43Q158.23,2,146.5,2Z"/></svg>