<svg id="Слой_1" data-name="Слой 1" xmlns="http://www.w3.org/2000/svg" viewBox="0 0 199 243"><defs><style>.cls-1{fill:#211530;}.cls-2{fill:#b3b3b3;}.cls-3{fill:#ccc;}.cls-4{fill:#500a0a;}.cls-5{fill:#ececf0;}.cls-6{fill:#717276;}.cls-7{fill:#6a4436;}.cls-8{fill:#d2a495;}.cls-9{fill:#c89885;}.cls-10{fill:#cdced5;}.cls-11{fill:#9a6956;}.cls-12{fill:#2e2e47;}.cls-13{fill:#4c505e;}.cls-14{fill:#f6f8fa;}.cls-15{fill:#dcb8a8;}.cls-16{fill:#010020;}.cls-17{fill:#896a3c;}.cls-18{fill:#ceb28e;}.cls-19{fill:#522e11;}.cls-20{fill:#693e2b;}.cls-21{fill:#890a0a;}.cls-22{fill:#32200f;}.cls-23{fill:#2b1b3e;}.cls-24{fill:#e2cbc1;}.cls-25{fill:#584662;}.cls-26{fill:#f1e2cc;}.cls-27{fill:#b8a1ab;}.cls-28{fill:#c5b5c5;}.cls-29{fill:#d8a38b;}.cls-30{fill:#be8972;}.cls-31{fill:#686272;}.cls-32{fill:#836f40;}.cls-33{fill:#b6930f;}.cls-34{fill:#e7ce35;}.cls-35{fill:#ecc9b5;}</style></defs><title>Dealer</title><path class="cls-1" d="M145,131.7c-2.71-11.05-3.44-21.45.26-32.39a1.52,1.52,0,0,0-1.45-1.9c-7.08-.49-14.9-.79-20.78,3.86-4.76,3.76-6.9,9.68-8.14,15.42-1.85,8.5-2.75,17.23-4.41,25.78q-1.36,7-3,13.94c-.68,3-1.47,4-4.74,4.48-3.46.47-6.58-1.1-7.64-4.52-2.67-8.6-3.19-18.56-4.67-27.44-1.06-6.35-1.25-14.86-6-19.82-10.15-10.68-27.23,2-33.92,10.43a1.62,1.62,0,0,0,.14,2.16c.8,7.74-2.2,15.09-2,22.8.19,6.38,2.59,12.32,5.2,18a220.35,220.35,0,0,1,8.71,21.78c2.66,8,5.84,16.25,3.35,24.67a1.53,1.53,0,0,0,1,1.85c1.69.51,3.36,1.06,5,1.6-1.28,2.95,1.47,8.23,2.62,10.41,2.78,5.25,7.5,7.86,13.44,6.94,3.89-.6,7.56-2.32,11.34-3.36a63,63,0,0,1,15.22-2.22c6.83-.15,14.5,1.78,19.44-4.23,3.73-4.55,3.12-9.87.86-14.94-2-4.46-3.93-8.26-3.22-13.32s3.22-9.44,6-13.6c4.24-6.41,9.05-12.51,10.4-20.28C149.71,149,147.07,140.19,145,131.7Z"/><path class="cls-2" d="M89.18,207.17H105a1.43,1.43,0,0,1,1.35,1.53l-.4,25.17a1.48,1.48,0,0,1-1.4,1.53H88.73a1.43,1.43,0,0,1-1.35-1.53l.4-25.17A1.48,1.48,0,0,1,89.18,207.17Z"/><path class="cls-3" d="M88.59,208.36h15.83a1.43,1.43,0,0,1,1.35,1.53l-.4,25.17a1.48,1.48,0,0,1-1.4,1.53H88.15a1.43,1.43,0,0,1-1.35-1.53l.4-25.17A1.48,1.48,0,0,1,88.59,208.36Z"/><path class="cls-2" d="M85.9,207.84h17.86a1.54,1.54,0,0,1,1.46,1.65l-.41,26a1.6,1.6,0,0,1-1.51,1.65H85.43A1.54,1.54,0,0,1,84,235.52l.41-26A1.6,1.6,0,0,1,85.9,207.84Z"/><path class="cls-4" d="M86.29,209.23h17a.85.85,0,0,1,.8.9l-.39,24.74a.88.88,0,0,1-.83.9h-17a.85.85,0,0,1-.8-.9l.39-24.74A.88.88,0,0,1,86.29,209.23Z"/><path class="cls-2" d="M98.49,228.72a5.32,5.32,0,0,0-1.42.62l-.87-.85L94.48,230l-1.72-1.47-.86.82a5.14,5.14,0,0,0-1.4-.62c-.64-.07-1.45,0-1.61.71a2.12,2.12,0,0,1,2.29.19,8.16,8.16,0,0,1,1.31,1.06l.76-.67.55.56-.68.66,1.3,1.31v0h0v0l1.34-1.31-.71-.71.51-.51.87.69a7.11,7.11,0,0,1,1.29-1.05,2.19,2.19,0,0,1,2.32-.22C99.94,228.77,99.14,228.65,98.49,228.72Zm-6.06,1.6a11.28,11.28,0,0,0-1.72-1.3c.46,0,1.82,1.21,1.82,1.21Zm.27-.33-.53-.55.22-.21.54.54Zm2.41,1.25.08.09-.75.73-.74-.74.09-.09.65.66Zm-1.06,0,.41-.42.4.42-.41.42Zm.42-.5-1.83-1.57.14-.16,1.7,1.44,1.72-1.49.15.14Zm1.51-.92.55-.54.21.21-.54.55Zm.48.55-.09-.09A7.24,7.24,0,0,1,98.23,229,11.81,11.81,0,0,0,96.46,230.32Z"/><path class="cls-2" d="M90.7,216.23a5.32,5.32,0,0,0,1.42-.62l.87.85L94.72,215l1.72,1.47.86-.81a5.14,5.14,0,0,0,1.4.62c.64.07,1.45,0,1.61-.71a2.12,2.12,0,0,1-2.29-.19,8.18,8.18,0,0,1-1.31-1.06l-.76.67-.55-.56.68-.66-1.3-1.31v0h0v0l-1.34,1.31.71.71-.51.51-.87-.69a7.11,7.11,0,0,1-1.29,1.05,2.19,2.19,0,0,1-2.32.22C89.25,216.18,90.06,216.3,90.7,216.23Zm6.06-1.6a11.28,11.28,0,0,0,1.72,1.3c-.46,0-1.82-1.21-1.82-1.21Zm-.27.33.53.55-.22.21-.54-.54Zm-2.41-1.25-.08-.09.75-.73.74.74-.09.09-.65-.66Zm1.06,0-.41.42-.4-.42.41-.42Zm-.42.5,1.83,1.57-.14.16-1.7-1.44L93,216l-.15-.14Zm-1.51.92-.55.54-.21-.21L93,215Zm-.48-.55.09.09A7.24,7.24,0,0,1,91,215.93,11.81,11.81,0,0,0,92.73,214.63Z"/><path class="cls-2" d="M94.52,227.72a5.37,5.37,0,0,0,5.37-5.25,5.17,5.17,0,0,0-5.21-5.25,5.37,5.37,0,0,0-5.37,5.25A5.17,5.17,0,0,0,94.52,227.72Zm.16-10.24a4.92,4.92,0,0,1,4.95,5,5.1,5.1,0,0,1-5.11,5,4.91,4.91,0,0,1-4.95-5A5.1,5.1,0,0,1,94.68,217.48Z"/><path class="cls-2" d="M94.51,228.24a5.9,5.9,0,0,0,5.9-5.77,5.68,5.68,0,0,0-5.72-5.77,5.9,5.9,0,0,0-5.9,5.77A5.68,5.68,0,0,0,94.51,228.24ZM94.68,217a5.4,5.4,0,0,1,5.44,5.48A5.61,5.61,0,0,1,94.51,228a5.4,5.4,0,0,1-5.44-5.48A5.61,5.61,0,0,1,94.68,217Z"/><path class="cls-2" d="M92.81,225.57a1.93,1.93,0,0,0,1.28.06c.15,0,.3-.09.44-.15a.33.33,0,0,0,.2-.25c0-.15,0-.31,0-.46-.18,0-.24-.07-.25-.23a3.41,3.41,0,0,1,0-.44s0,0,0,0L95,224a4,4,0,0,0,.92-.19.26.26,0,0,1,.26,0,.74.74,0,0,1,.16.15,1.21,1.21,0,0,1,.2.47c0,.12.05.24.08.35a1.4,1.4,0,0,0-.3-1.27l.17-.23a4.58,4.58,0,0,0,.57-1.7,2,2,0,0,1,.5-1.07.1.1,0,0,0,0-.05c0-.08,0-.17,0-.27l-.17,0a.43.43,0,0,0-.28.33,3.16,3.16,0,0,1-1.22,1.7.23.23,0,0,1-.15,0,.46.46,0,0,1-.26-.18.21.21,0,0,1-.06-.2c0-.12.05-.23.08-.35a.49.49,0,0,0,0-.35.34.34,0,0,1,0-.08,1,1,0,0,0-.2-.48.29.29,0,0,0-.4,0,.42.42,0,0,0,.15.21,1.81,1.81,0,0,1,.17.16.26.26,0,0,1,0,.35,2.06,2.06,0,0,1-.14.18l-.18.16,0-.09c0-.24-.08-.48-.11-.72a6.24,6.24,0,0,1-.06-1.59.27.27,0,0,0,0-.17.31.31,0,0,0-.42,0,.17.17,0,0,0,0,.21,2.07,2.07,0,0,1,.15.8,4.67,4.67,0,0,1-.26,1.42.07.07,0,0,1-.05,0l-.58.08c-.11,0-.11,0-.12-.1s0-.05,0-.08a3.64,3.64,0,0,1,.09-.83,3.38,3.38,0,0,0,.08-.78.3.3,0,0,0-.06-.16.32.32,0,0,0-.45,0,.11.11,0,0,0,0,.15l.12.23a.35.35,0,0,1,0,.26c0,.11,0,.22-.08.32-.14.44-.29.88-.44,1.32a1.56,1.56,0,0,0-.11.71c0,.18.05.35.09.53a1.53,1.53,0,0,1,0,.87,2,2,0,0,0-.06.32.43.43,0,0,1-.25.36.08.08,0,0,0,0,.06.62.62,0,0,0,.19.55A1,1,0,0,0,92.81,225.57Z"/><path class="cls-5" d="M40.5,206.24q-.74-.38-1.45-.78a1.54,1.54,0,0,0-.18-.46,14.81,14.81,0,0,0-9-6.56,1.31,1.31,0,0,0-.95-.26,37.34,37.34,0,0,0-4.13-.78c-3.2-.44-6.43-.76-9.64-1.14-2.44-.28-6.83-1.72-9.24-.72-3.77,1.57-1.48,7.43-.6,10.19.7,2.19,1.35,4.78,3.1,6.4a23.77,23.77,0,0,0,2.84,1.72c1.62,1.14,2.38,2.61,3.4,4.21,2.68,4.18,6.67,6.32,11.57,6.93,1,.13,2.43.28,3.93.36l.05.09a7.15,7.15,0,0,0,3.15,3.19.38.38,0,0,0,.55-.22,13.68,13.68,0,0,0,.16-2.56c.21.19.43.38.66.56a.38.38,0,0,0,.51-.13,5.38,5.38,0,0,0,.24-.63l.26.21a.29.29,0,0,0,.22,0l.13.15a.38.38,0,0,0,.53,0,4.79,4.79,0,0,0,.72-1.35l.09.09a.38.38,0,0,0,.63-.17c0-.09,0-.17,0-.26l.15-.06a.34.34,0,0,0,.32,0c.12.22.23.44.38.66a.38.38,0,0,0,.7-.19,7.49,7.49,0,0,0-.07-1.34,4.62,4.62,0,0,0,.73-.76c1.6-2.19,1-5,1.63-7.43.5-1.84,2.55-3.67,2.31-5.68S42.14,207.08,40.5,206.24Zm-8.83,19.18a3.21,3.21,0,0,1,.11.94,8.77,8.77,0,0,1-.77-.95Zm1.53,0h.06s0,.07,0,.11Zm-.68.72c.18.13.35.26.54.38a.33.33,0,0,0,.23,0q0,.59-.08,1.19a7,7,0,0,1-.77-.55A4.35,4.35,0,0,0,32.51,226.1Z"/><path class="cls-5" d="M48.51,121.44c-.46-3.11-.8-5.47.27-8.45a10.27,10.27,0,0,0,1-3.33c.14-1.25-1.09-1.67-2-1.29a1.46,1.46,0,0,0-2.06,0c-3.2,3-4.08,5.84-5.33,9.89-1.48,4.8-5.84,9.11-8.44,13.43-5.17,8.58-13.25,17.74-16.38,27.25a1.52,1.52,0,0,0,1.45,1.9c4.26.41,12.51.82,16.77,1.23,3.56.34,7.95,1.41,11.51,1,4.94-.51,4-5.52,4.24-9.44a170.87,170.87,0,0,0,.23-22.52C49.46,127.87,49,124.68,48.51,121.44Z"/><path class="cls-5" d="M179,159.48c1.06.49,2.7-.34,2.2-1.69q-4-11-8.39-21.85c-2.48-6.19-4.7-12.94-8.85-18.25-3.63-4.65-8.52-7.75-12-12.58-2-2.76-4.72-5-7.8-2.25a1.31,1.31,0,0,0-.07,2c-1.59,7.48-3.12,15.13-2.72,22.8.42,8.05,4.15,14.55,6.3,22.12,1.54,5.43-.57,11.22,6.7,11.37C162.61,161.29,170.85,155.74,179,159.48Z"/><path class="cls-5" d="M194.43,186.33c-1.56-7.17-3.41-14.33-9.39-19-.68-1.26-3-1.07-2.82.62a38.05,38.05,0,0,0,1.43,7.8c.65,2.12,2.91,5.89,1.84,8.17a1.42,1.42,0,0,0-2.34.72c-.88,3.94-1,9.42-5,11.5-2.6,1.35-8,.8-10.87,1.21a10.38,10.38,0,0,0-4.91,1.48c-2.27,1.62-2.85,4.46-4.83,6.31-2.53,2.38-7.55,2.84-6.67,7.44.58,3,2.64,4.55,2.79,8.1.13,3.13-.3,6,.42,9.05a1.46,1.46,0,0,0,1,1c9,1.33,16.91-2,24.58-6.36,6.29-3.55,13.92-7.6,16.75-14.69C199.37,202.43,196,193.62,194.43,186.33Z"/><path class="cls-6" d="M168.24,130.23c-.62-1.81-3.52-1-2.89.8,1,3-1.85,8-3,10.55-1.31,3-2.69,5.89-4,8.83-.33.72-1.23,3.42-1.94,4l-3.72.57a27.32,27.32,0,0,0,.81-2.64c.78-3.19.2-6.49,1.83-9.44,1.92-3.47,4.59-6.51,3.31-10.75-1.15-3.83-4.7-6.13-8.29-7.32-1.84-.61-2.62,2.29-.8,2.89,3.56,1.18,7.34,3.93,6.18,8.38a17.1,17.1,0,0,1-2.31,4.17,14.32,14.32,0,0,0-2.37,7.19,12.82,12.82,0,0,1-.16,1.29c-.08-.11-.17-.21-.25-.32a14,14,0,0,0-1.72-3.36c0-.81,0-1.64,0-2.49.17-4.45,3.33-7.77,3.34-12.17a1.5,1.5,0,0,0-3,0,12.39,12.39,0,0,1-1.65,5.29c.37-7.68,1-15.35,1.51-23,.13-1.93-2.87-1.92-3,0-.35,5-.73,10-1.06,15.06a1.43,1.43,0,0,0-1.31,1.43c0,1.93-1.75,4.2-2.06,6.2a12.38,12.38,0,0,0,.1,4.41c.71,3.42.68,7.33,2.51,10.38,0,.61,0,1.22,0,1.83a1.51,1.51,0,0,0,2.8.76c.14-.21.27-.42.38-.64q.81,1.77,1.77,3.49c0,.11,0,.22,0,.33a4.14,4.14,0,0,0,0,2,3.74,3.74,0,0,0,3.12,2c5.93.66,8.18-7.15,10-11.19C164.58,143.89,170.1,135.61,168.24,130.23Zm-19.56,18.24c.07-.48.11-1,.14-1.47a18.69,18.69,0,0,0,1.13,1.83,12.15,12.15,0,0,1,.45,1.92l-.11.41A29,29,0,0,0,148.69,148.47Z"/><path class="cls-7" d="M115.5,79.65c-2.6-.16-5.93,1.43-8.35,2.17-3.56,1.09-7.16,2.25-10.93,2.12-4.63-.16-7-2.48-10.07-5.58-.84-.86-1.89-1.36-2.7-2.17-2.11-2.11-2-3.48-2.22-6.13a22.19,22.19,0,0,0-1.55-7.59c-.46-1.1-1-2.16-1.47-3.21A89.37,89.37,0,0,0,77,49.57c-.29-1.57-2.45-1.27-2.89,0-1.25,3.6-.38,6.78,1,10,.2,4.26.11,8.5.05,12.89C75.07,78,76.37,81.3,79.4,85.81c3.23,4.81.49,10.79,4.36,15.47a11.54,11.54,0,0,0,8.61,4.22c2.08,1,4.64.73,7.23.25,4.41-.81,12.25-1.11,15.46-4.89a8.46,8.46,0,0,0,1.76-5.35c.19-3.9-.18-6.42,1.59-10.18C119.77,82.43,118.94,79.86,115.5,79.65Z"/><path class="cls-8" d="M119.53,32.16c-9.62-8.76-32.56-12-36.59,4.14-.18.71-2.46-.61-2-.3-.8,1.43-1.3.51-2,2-.74-.33.55,4.23.18,5.16A25.24,25.24,0,0,0,77.31,52c0,.7-2,3.74-1.52,3.94-.76,6.05.93,8.5,2.79,14.48,2.15,6.89,10.9,21.64,19.9,21.72,6.08.05,19.13-14.84,20.11-12.83,1.24,2.54,1.37-3.36,2.05-6,.19-.38-2.85,0-2.7-.31.77-1.77,1.48-3.57,2.11-5.39a73.41,73.41,0,0,0,3.28-13.5C124.36,47,125.46,37.55,119.53,32.16Z"/><path class="cls-9" d="M101.77,55.17s.52,7.47,3.25,12.4,5.45,6.17,9.53,7.41,9.53-3.7,9.53-9.88,5.13-10.93-.32-10.93S103.13,52.7,101.77,55.17Z"/><path class="cls-10" d="M89.29,94.16a1.65,1.65,0,0,0-2.36.36A1.8,1.8,0,0,0,86.2,98a1.57,1.57,0,0,0,.75,0c.28.28.56.58.67.67a19.51,19.51,0,0,0,1.85,1.39,18.79,18.79,0,0,0,4,2c1.52.54,2.37-1.47,1.46-2.51A42.47,42.47,0,0,0,89.29,94.16Z"/><path class="cls-10" d="M111.48,94.59l-.17-.23a1.51,1.51,0,0,0-1.82-.23,11.76,11.76,0,0,0-5.57,6.75,1.51,1.51,0,0,0,1.85,1.85,14,14,0,0,0,7.95-6.22C114.6,95,112.61,93.66,111.48,94.59Z"/><path class="cls-3" d="M99.43,79c-2.9.1-5.1-.93-7.4-2.19a5,5,0,0,0-.63-.48,17.94,17.94,0,0,0,3.29-.19,29.68,29.68,0,0,1,4.91-.07c.88,0,3.58-1,4.16-.92a18.13,18.13,0,0,1,3.06,1.63C104.52,77.83,101.55,79,99.43,79Z"/><path class="cls-11" d="M114.88,46.8c-1.88-1.39-5.17-.32-7.72,1.07a.39.39,0,0,0-.16,0c-3.2.66-5.87,6.86-5.66,6.87a6.18,6.18,0,0,0-.19.67,4.32,4.32,0,0,0,0,2.57c1.17,3.92,4.63-1.52,5.69-2.69a.38.38,0,0,0,.08-.15c1.69-.66,3.78-.08,5.56-.12a17.91,17.91,0,0,0,3.15-.37c2.5-.15,5-.86,5.36-3.23a3.21,3.21,0,0,0-1.72-3.47C120,48.08,117.21,46.74,114.88,46.8ZM114.54,54h0Z"/><path class="cls-11" d="M93.86,50.05c-1.47-.44-3.1,0-4.59,0a16,16,0,0,1-3-.3,47.91,47.91,0,0,1-4.36-2c-.94-.54-2.6.55-3.8.72a2,2,0,0,0-.73.26l-.2-.1a.38.38,0,0,0-.51.51l.07.13c-1.08,1.23-.57,1.51-.87,2.6-.47,1.71-1.17,5.76.15,7.84.58,3.63,1.49,13.92,2.9,17.19.63,1.48,1.21,3.78,3.14,3.67a.38.38,0,0,0,.32-.56,44.5,44.5,0,0,1-2.79-8.75c-.07-.75-.14-1.51-.25-2.25a26.94,26.94,0,0,0-.54-3.82.4.4,0,0,0-.29-.34c-.34-1.36-.73-2.72-1.21-4.07,1.82.63,4.09-1.4,6-1.92,2.53-.7,5.56-2.1,8-1.07,1,.42,1.84,1.47,3,1.38,2.14-.17,2.51-2.61,2.45-4.25C96.71,52.74,96.14,50.73,93.86,50.05Z"/><path class="cls-11" d="M118.8,67.36c-.64,1-.67,2.63-1.26,3.51-1.25,1.88-5.27,1.52-7.21,1.68a.38.38,0,0,0-.37.38c.05,1.15.06,2.3,0,3.44-.05-.53-.11-1.06-.18-1.59s-.22,5.9-.33,8.9A.34.34,0,0,0,110,84a1.83,1.83,0,0,0,.5,1.19c1.33,1.17,2.26-1.16,3.24-2,3.91-3.37,6-10,5.68-15.81C119.43,67.07,119,67.11,118.8,67.36Z"/><path class="cls-10" d="M119.83,102.3c-11.83,4.32-27,4.53-36.64-4.44,0-.19-.08-.37-.13-.56a1.35,1.35,0,0,0-1.44-1.06l-.4-.44c-1.25-1.47-3.37.66-2.12,2.12.44.52.9,1,1.37,1.48,1.56,6.75,1.76,13.33,2.19,20.24.34,5.48,2.72,9.33,5.46,13.94,3.63,6.11,4.63,12.1,5.31,19,.36,3.7,1.45,7.92,5.09,9.7,10,4.88,13-10.57,14.4-16.64q4.81-20.68,8.76-41.53C121.87,103.13,121,101.88,119.83,102.3Z"/><path class="cls-12" d="M82.91,106.67s14.73,42.5,13.81,52S82.6,160,82.6,160s-14.42-44.3-15.34-48.3S74.63,98.67,82.91,106.67Z"/><path class="cls-13" d="M78.92,140.07l-.25-1a1.36,1.36,0,0,0,1.57-1.45,86.93,86.93,0,0,1,.31-21.87c.19-1.36-1.37-2.66-2.51-1.46-1.9,2-3.52,4.33-3.76,6.79-6.69,3.72-.23,14.84,1.74,19.83A1.5,1.5,0,0,0,78.92,140.07ZM75,124.57c0,.22,0,.44.07.66a3.58,3.58,0,0,0-.25-.29,3.16,3.16,0,0,1,.18-.37Z"/><path class="cls-3" d="M109.53,54.65a5.9,5.9,0,0,0-3.1.29.45.45,0,0,0,.1-.22c.32-2.79,2.92-3.82,5.54-3.58,2.19.2,2.25.86,3.24,1.15a3.66,3.66,0,0,1-.34.41A5.9,5.9,0,0,1,109.53,54.65Z"/><path class="cls-3" d="M82.78,52.71a3.71,3.71,0,0,1-.36-.41c1-.29,1.11-.95,3.41-1.15,2.75-.24,5.49.79,5.83,3.58a.44.44,0,0,0,.1.22,6.52,6.52,0,0,0-3.27-.29C86.24,54.82,84.3,54.42,82.78,52.71Z"/><path class="cls-12" d="M119.89,111.67s-10,37-9.06,51,7.25-1,13.59-4c6.34-12,12.47-29.29,10.87-35S126.23,108.67,119.89,111.67Z"/><rect class="cls-14" x="98.27" y="108.67" width="10" height="52"/><path class="cls-9" d="M94.59,58.46a7.42,7.42,0,0,0-5.83-1.29c-2.55.75-6,1.24-8.43.39-1.41-.5-2.19,1.12-1.64,2.18a1.45,1.45,0,0,0-.4,1,38.8,38.8,0,0,0,.55,8.62c.28,1.53.46,4.13,2.28,4.73s4.31-1.62,5.77-2.48c2.25-1.32,2.89-2.72,4.88-4.41S97.25,60.2,94.59,58.46Z"/><path class="cls-9" d="M100.3,82.74c-3.82,0-8-1.2-9.27-5.24-.58-1.84-3.47-1.05-2.89.8A10.22,10.22,0,0,0,95,85a11.11,11.11,0,0,0,3,.4,4.53,4.53,0,0,1-2.08.82A1.52,1.52,0,0,0,94.8,87l-.62,0c-1.3-.14-1.71,1.19-1.25,2.13a1.26,1.26,0,0,0,1,1.2c2.45.38,5.89,1,8.18-.32,1.48-.82,3-3.27,2.68-5C104.41,82.71,102.07,82.76,100.3,82.74Z"/><path class="cls-9" d="M109.43,73.55c-.68-1-4.43-1.32-7.46-1.6,1.67-.48,3.1-1.35,3.55-3.13s-.69-3.85-1.33-5.47c-1.61-4.11-2.37-7.44,0-11.43a1.5,1.5,0,0,0-2.59-1.51,12.86,12.86,0,0,0-1.69,10c.45,1.84,2.79,5,2.51,6.77-.44,2.65-4.35,2.39-6.33,2.69A1.49,1.49,0,0,0,95,71.29c.18,2,1,2.91,3.06,3.34s4.13.14,6.12.44c.78.08,2.81.9,3.57,1.1a14.79,14.79,0,0,1-3.16,1.34c-1.21,1.49.9,3.62,2.12,2.12S111,75.8,109.43,73.55Z"/><path class="cls-15" d="M113.76,35.31a15,15,0,0,0-7.69-5.55c-4.29-1.4-8.9,0-13.06-1.44a1.27,1.27,0,0,0-1.62.63,1.43,1.43,0,0,0-1.22.39c-3.34,3.07-9.61,11.81-5.94,16.57,2.07,2.68,6.87,2.67,9.81,2.61a111.08,111.08,0,0,0,14.52-1.36c2.41-.36,6-.36,7.23-2.93S115.28,37.49,113.76,35.31Z"/><path class="cls-15" d="M92.34,62.72c.47-1.14-.15-2.72-1-2.69-3.33.08-5.62-3.63-10-2.07-1.59.57-.7,5.8-.71,6-.36,4.69,2.42,4,4.69,4.18C88.3,68.42,90.72,66.68,92.34,62.72Z"/><path class="cls-15" d="M97.8,65.15a6,6,0,0,0-3.47,3.14A1.17,1.17,0,0,0,94.86,70l.36.12a1.85,1.85,0,0,0,1.71,1,3.19,3.19,0,0,0,2.59-1.56c.1-.07.2-.13.3-.21a1,1,0,0,0,.35-1.26C100.45,66.82,100,64.68,97.8,65.15Z"/><path class="cls-15" d="M98.34,83.91a36.19,36.19,0,0,1-6.62-2.83A1.34,1.34,0,0,0,90,79.76a9,9,0,0,1-1-1.16c-1.14-1.53-3.74,0-2.59,1.51a13.45,13.45,0,0,0,2.45,2.52,7,7,0,0,0,4.33,5.11c1.72.74,6.12,2.27,7.65.35S100,84.53,98.34,83.91Z"/><path class="cls-15" d="M116.52,60.86a3.07,3.07,0,0,0-1.94-1.65,1.55,1.55,0,0,0-.15-.46c-.63-1.23-2.36-1.2-3.66-1.06-2.3.24-4.89,1.39-4.92,3.69C105.77,67.31,118.69,65.88,116.52,60.86Z"/><path class="cls-16" d="M70,155.37a1.53,1.53,0,0,0,.9-2.2,101.93,101.93,0,0,1-5.28-14.33,1.41,1.41,0,0,0-1.61-1,4.31,4.31,0,0,0-3.3-1.48c-3.81-.08-5.86,4.6-7.2,7.45-1.71,3.61-4.26,8.94-3.7,13,.54,3.9,4.81,3.39,7.79,3a1.53,1.53,0,0,0,1.5-1.5c-.12-1.76-1.12-6.73-.22-8.19l.42-1.21a7.42,7.42,0,0,1,2.27,1.26,25.61,25.61,0,0,1,2.39,2C65.53,153.52,67.75,156.17,70,155.37Z"/><path class="cls-16" d="M148.4,154.36a20.1,20.1,0,0,0-2.14-6.67,34.88,34.88,0,0,1-2.1-5.82c-.23-2-.56-4-.71-5.83s-3-2-3,0a27.33,27.33,0,0,0,1,7.71,14.86,14.86,0,0,1-.29,5.15l-3.79,5.72c-.78,1.17-2.23,2.72-2,4.28.52,3.48,6.92,2.33,9.14,1.91C147.84,160.17,148.64,157.6,148.4,154.36Z"/><path class="cls-16" d="M79.14,198.65c-1.49-.58-3.3-.34-4.85-.33l-4,0a2.55,2.55,0,0,0-2.29,0h-.54a1.5,1.5,0,0,0,0,3h.3l.11,0c.47.11,1,.2,1.43.31a35.07,35.07,0,0,0,1.73,3.4,4.71,4.71,0,0,0,3.22,1.28c.88.06,1.76-.19,2.64-.12,1.35.11,2.11.79,3.25,1.37a4.29,4.29,0,0,0,3.69.31,1.53,1.53,0,0,0,.9-2.2C83.62,203.22,81.86,199.71,79.14,198.65Z"/><path class="cls-16" d="M124.93,199.55a1.52,1.52,0,0,0-2.52-1.43,3.4,3.4,0,0,0-.81,1.09,4.36,4.36,0,0,0-.28,1.3,7.19,7.19,0,0,1-1.94,2.05c-1.76,1.5-3.71,2.83-5.55,4.23-1.05.8-.9,2.9.76,2.8a18.34,18.34,0,0,1,13,4c1.48,1.2,3.61-.87,2.12-2.12-.31-.26-.63-.5-.95-.75a5.52,5.52,0,0,0,1.56-3.34c.2-1.71.59-5.49-.56-6.95C128.83,199.32,126.69,199.41,124.93,199.55Z"/><path class="cls-10" d="M23,215.57c-.9,1.23-.6,3.09-.75.4a44.36,44.36,0,0,1,.29-7.09,1.52,1.52,0,0,0,0-.41,8.16,8.16,0,0,0,.3-.76,1.51,1.51,0,0,0-1.45-1.9l-.44.07a1.64,1.64,0,0,0-1.78-.25,7.18,7.18,0,0,0-1.55,1.08,14.08,14.08,0,0,0-4.43,2.63c-1.73-2.4-4.19-5.17-6.64-2.86-.21-.33-.43-.66-.64-1a1.59,1.59,0,0,0,2-.94q1.5-3.9,2.93-7.82a1.51,1.51,0,0,0-1.45-1.9c-4.25.31-7.9,3-8,7.6a8.53,8.53,0,0,0,1.78,5c.57.84,1.1,1.66,1.59,2.49-.46,3.36,2.1,6.93,4.67,8.75,1.37,1,2.59-.84,2.05-2.05-.87-2-1.65-4.11-2.59-6.1a2.7,2.7,0,0,1,2.76,1.89,1.52,1.52,0,0,0,2.36.3c.27-.29.55-.57.84-.83-1.2,5.56.92,12.81,4.83,15.71,8.25,6.12,9.38-7.63,5.67-12.3A1.52,1.52,0,0,0,23,215.57Z"/><path class="cls-10" d="M195.13,203.87c-.23-1.59-1.81-3.19-3-4.19a17.18,17.18,0,0,0-2-1.45c-1.08-.67-3.88-1.12-1.81-2.11,1.74-.83.22-3.42-1.51-2.59s-3.05,2-2.53,4c.58,2.14,3.59,2.71,5.23,3.89.43.31,2.44,1.78,2.36,2.39s-1.1.65-1.49.86a8.43,8.43,0,0,0-2.48,1.69,6.57,6.57,0,0,0-1.11,1.7c-3.34-4.29-10-7.79-13.51-9-1.48-.49-2.43,1.47-1.46,2.51a9.35,9.35,0,0,1,2.64,8.32q-.15,3.25-3.66,3.12a11.18,11.18,0,0,1-1.91-3.31c-1.19-2.67-.56-4.79-3.44-5.8a1.27,1.27,0,0,0-1.67.71,1.28,1.28,0,0,0-.64,2c2.49,3.42,1.64,6.44-1.15,9.25A12.81,12.81,0,0,0,159.8,218c-1,1.57-1.12,2.94-2.29,4.58-.8,1.12-1.05.93-1.6,2.26-.4,1,.59,1.82,1.45,1.9a35.83,35.83,0,0,0,17.44-2.35c4.17-1.72,10.55-4.26,13-8.28a6.42,6.42,0,0,0,.59-1.23,1.43,1.43,0,0,0,.37-1c.08-3.14.17-5,3.25-6.61.67-.36,1.38-.28,2-.79A2.59,2.59,0,0,0,195.13,203.87Z"/><path class="cls-10" d="M161.23,160.61c3,.54,6.56.07,9.63.07,1.76,0,4.29.23,5.2-1.73.81-1.75-.55-3.42-1.68-4.61a15.63,15.63,0,0,1-2.88-3.23,27.94,27.94,0,0,0-1.33-3.07,3.81,3.81,0,0,0-6.67.39,1.19,1.19,0,0,0-.69,1.65C163.89,152.7,155.1,159.51,161.23,160.61Z"/><path class="cls-10" d="M46.23,154.74c-1.23-.7-2.15-.4-3.5-.4-2.19,0-3.55-1.27-4.59-3.09a22.73,22.73,0,0,0-2.2-3.45c.17-1-.78-1.56-1.68-1.46a7.14,7.14,0,0,0-1.09-.56c-1.79-.72-2.57,2.18-.8,2.89l.08,0a23.18,23.18,0,0,0-1.19,5.81c-.11,1.6-.38,3.82,1.25,4.75s4.31.33,6.09.09a33,33,0,0,0,7.26-1.88A1.52,1.52,0,0,0,46.23,154.74Z"/><path class="cls-6" d="M5.5,200.81q-1,4.32-2.35,8.57c-.57,1.85,2.32,2.64,2.89.8q1.31-4.25,2.35-8.57C8.84,199.74,6,198.93,5.5,200.81Z"/><path class="cls-6" d="M39.43,219.54a1.51,1.51,0,0,0-2.12,0c-2.64,2.89-5.9,1-9,.33a1.73,1.73,0,0,0-.94.08c.05-1.11.16-2.42.2-2.66.12-.74.61-3.45,1.47-3.7,1.85-.54,1.06-3.44-.8-2.89-2.56.75-3.41,4.41-3.7,6.7s-.64,6,1.88,7c-.18,1.47-.8,2.8-2.73,2.94-2.32.16-4.72-3.71-5.29-5.49s-.41-3.84-1.71-5.4a1.47,1.47,0,0,0-1.46-.39,9.2,9.2,0,0,0-2.54,1.43c0-.17,0-.35,0-.52.13-1.93.81-3.71.7-5.66s-3.11-1.93-3,0a17.69,17.69,0,0,1-.41,4,1.46,1.46,0,0,0-1.42.66c-2.38,3.54.85,6.61,3.07,9.15a1.29,1.29,0,0,0,2,0A7.35,7.35,0,0,0,16,229a25.36,25.36,0,0,0,9.2,4.26c5.52,1.46,14.55,2.32,18.9-2.21a1.52,1.52,0,0,0,.23-1.82C42,226.23,41.89,222.16,39.43,219.54Z"/><path class="cls-6" d="M197.07,205.71c-.77-4.62-6.72-6.33-10.55-7.55-1.84-.59-2.63,2.31-.8,2.89,2,.64,5.14,1.37,6.64,2.88a5.58,5.58,0,0,1,1.67,3.23,1.21,1.21,0,0,0-.86.76,30.8,30.8,0,0,0-1.61,5q-.26.25-.54.48a10.8,10.8,0,0,0-1.42,1.4c-1.11-2-2.74-3.13-2.05-6.72.36-1.89-2.53-2.69-2.89-.8a10.42,10.42,0,0,0,.48,6.52c.3.67,1.73,2.08,1.79,2.8a2.33,2.33,0,0,1-.1.94,1.63,1.63,0,0,0-.19.37c0,.07-.06.13-.09.2-.82,1.16-2.75,1.57-4,2.14-2.53,1.18-3.94,3.12-5.94.49-1.6-2.1-.8-2.19-1.27-4.49a4.83,4.83,0,0,0-3.13-3.91,1.52,1.52,0,0,0-2.26,1.3c0,6.24-3.39,8.94-9,10.59-1.75.52-5.13.64-6.34,2.33-2.22,3.12,2.37,4.5,4.57,4.75,3.11.35,6.22-.67,9.22-1.3,3.33-.7,6.88-.85,10.09-2,3.57-1.32,7.55-3.64,9.77-6.94a6.68,6.68,0,0,0,1.14-1,1.4,1.4,0,0,0,2-.53c.75-1.37,2-2.07,2.59-3.55a13.53,13.53,0,0,0,.56-2,7.68,7.68,0,0,0,1.59-1.95A11.76,11.76,0,0,0,197.07,205.71Z"/><path class="cls-6" d="M186.4,196.46c1.87.48,2.67-2.41.8-2.89a1.86,1.86,0,0,1-.91-2.79,3.6,3.6,0,0,1,3.31-1.36c.18,0,.36,0,.54,0,1.93.21,1.88-2.77,0-3a10.78,10.78,0,0,0-2.57,0,1.47,1.47,0,0,0-.09-.52,19,19,0,0,1-1-9.7c.31-2.05.64-3.62-.42-5.51-.94-1.69-3.53-.17-2.59,1.51s-.35,5.75-.25,7.85a21.66,21.66,0,0,0,1.4,6.64,1.6,1.6,0,0,0,.25.43,1.55,1.55,0,0,0-.78,1.62,4.76,4.76,0,0,0-.81,1.47A4.85,4.85,0,0,0,186.4,196.46Z"/><path class="cls-6" d="M37.87,150.9c1.54,1.16,3-1.44,1.51-2.59-3.25-2.45-3.65-7.1-5.11-10.62-.73-1.76-3.63-1-2.89.8C33.23,143,33.77,147.8,37.87,150.9Z"/><path class="cls-6" d="M26.78,158.37a1.49,1.49,0,0,0,2.73.46,2.51,2.51,0,0,0,.43-1.74,1.61,1.61,0,0,0-.37-.92c0-.48-.08-1-.14-1.45a1.34,1.34,0,0,0-.05-.41A56.91,56.91,0,0,0,28.07,147a1.52,1.52,0,0,0-2.74-.36,3.28,3.28,0,0,1-1.48,1.17c-1.46.76-.58,2.73.77,2.77a8.1,8.1,0,0,0,1.82,4.64,3.88,3.88,0,0,1-2-1.28c-1.22-1.5-3.33.64-2.12,2.12A7,7,0,0,0,26.78,158.37Z"/><path class="cls-6" d="M45.5,146.56c-.84-1.74-3.42-.22-2.59,1.51a35.29,35.29,0,0,1,1.78,4.36c.36,1.12,1.39,3.37,1.15,4.53-.17.8-.12.58-1.24.68-.74.06-1.49,0-2.23,0-.43,0-4.5-.27-4.57.18.29-1.89-2.6-2.7-2.89-.8-.33,2.16,1,3.27,3.06,3.52a36.78,36.78,0,0,0,4.85.1,15.7,15.7,0,0,0,4.54-.26c2.18-.73,1.64-2.94,1.29-4.68A38.34,38.34,0,0,0,45.5,146.56Z"/><path class="cls-15" d="M75,209c-9.59-2.55-19,2.17-28.81.25a1.55,1.55,0,0,0-.71,0A1.62,1.62,0,0,0,43,210c-1.19,3.17-3.5,6.85-.11,9.39,1.54,1.15,3.79,1.39,5.57,1.89A52.19,52.19,0,0,1,58,225a122.17,122.17,0,0,0,14.45,6.74c3.39,1.22,4.54,3.48,7,5.69a5.66,5.66,0,0,0,4.87,1.63,1.55,1.55,0,0,0,1.5-1.5c.23-3.69-1.9-6-4-8.86-2.18-3-4.17-6.17-6.06-9.39,3.36.5,6.86,4.32,10.62,3.65.69-.12,3.77,2.31,4.38,2.19C95.77,224.17,80.69,210.54,75,209Z"/><path class="cls-15" d="M154.28,211c-.75-2-1.91-3-4.1-2.54-2.65.55-4.78,3.27-7.54,4.1a35.78,35.78,0,0,1-8.38,1.16c-3.72.19-6.06-.68-9.19-2.52a15.34,15.34,0,0,0-6.3-2.18c-5.4-.65-11.06,0-16.39.94a2.17,2.17,0,0,0-1.07,2.73,18.93,18.93,0,0,0,12.95,7.95c-2.51,1.88-5,3.83-7.33,5.89a1.51,1.51,0,0,0,.66,2.51c12.12,2.66,22-5.29,33.73-6.31,3.31-.29,9.87,1.55,12.58-.85C156.22,219.83,155.23,213.57,154.28,211Z"/><path class="cls-15" d="M103.54,212.07c.79-1,0-2.88-1.53-2.4a15.72,15.72,0,0,0-5.93,3.41,1.52,1.52,0,0,0,1.06,2.56,23.49,23.49,0,0,0,6-.88A1.52,1.52,0,0,0,103.54,212.07Z"/><path class="cls-17" d="M100.41,25l-1.88-3.1a1.53,1.53,0,0,0-1.5-1.5c-5.61-.59-10,2.34-14.44,5.46A85,85,0,0,1,63.33,36.24c-.79.3-1,1.6-.74,2.92a1.43,1.43,0,0,0-.87.42c-3.21,3.14-6.78,6.79-7.5,11.44a12.23,12.23,0,0,0,.87,6.29c1.17,3.27,2.57,4.38-.95,8.52-.51.6-1.41,1-2,1.57a8.88,8.88,0,0,0-1.53,9.42c1.83,4.6,7.47,6,9.77,9.85l-1.19.43V87a1.51,1.51,0,0,0-2.51-1.46c-2.65,2.2-1.12,4.38-1.88,7.25-1.5,5.66-7.59,4.19-11.19,7.58-1.69,1.59-2.75,3.93-1.65,6.18,1.44,3,7.32,3,7,6.82-.12,1.52-1.57,2.94-1.72,4.56-.11,1.18.38,1.8.53,2.83.52,3.48-.81,4.57-2.73,7.19a23.59,23.59,0,0,0-3.57,5.82,6.86,6.86,0,0,0,1.38,7.51,14.66,14.66,0,0,0,3.77,2.36c3,1.58,7.11,6.25,1.56,8.51a1.52,1.52,0,0,0-.36,2.74c1.8,1,4.08,2.08,6,.71,2.65-1.85,1.06-5.69,2.63-8.13,2.15-3.34,6.47-5.18,8.75-8.53,1.81-2.65,1.61-5.26,1.77-8.35a11.37,11.37,0,0,1,.41-3.76A5.27,5.27,0,0,1,72,123.9c1.09-.69,1.58-.31,2.38-1.49.55-.81.26-1.3.6-2.26,1.68-4.73,4-3.59,7.6-4.28,4.74-.9,8.11-5.33,5.81-10.12-.61-1.27-1.53-1.55-2.27-2.65-2.75-4.13-.12-1,.28-3.09.33-1.68,1-1.08.75-3-.19-1.42-1.06-1.92-1.52-3.14-2.17-5.74,1.26-3.8,1-7.81-.19-2.84-4-6.45-5.29-9-4.55-8.86-7.41-21.24-2.8-30.58a122.06,122.06,0,0,1,7.11-12.3c3.53-5.42,7.88-6.29,14-6.39C101,27.75,101.83,25.62,100.41,25Z"/><path class="cls-17" d="M140.31,85.63a1.32,1.32,0,0,0-.18-.09l.14-.94q.8-.46,1.64-.85c.77-.64,1.81-.87,2.59-1.58a6,6,0,0,0,1.85-2.74c1.1-3.48-1.49-6.86-1-10.33.53-4.08,1.09-5.27-1.7-8.66a29.27,29.27,0,0,1-6.75-14.2c-1.68-8.79-2.39-17.35-7-25.25A44.55,44.55,0,0,0,111.44,3.78a1.57,1.57,0,0,0-.56-.16,1.46,1.46,0,0,0-.44-.13c-3.69-.5-2.52,2.82-4.6,4.49-.86.69-2,.39-2.81,1.48s-.73,2.75-.56,4.07c.55,4.15,2.72,8.37,6.39,10.51,2.58,1.51,6,2,8.06,4.36,2.63,3,2.06,7.52,1.67,11.14-.13,1.22,1.28,1.74,2.21,1.29q0,5.79.13,11.59c.07,3.37.35,6.8.25,10.17-.09,2.9-1.43,5.28-2.35,8s-1.47,5.26-2.4,7.82a17.34,17.34,0,0,1-3,5.59c-.89,1-2.14,1.74-2.87,2.93-1.71,2.8-.65,6.62.86,9.31a19.31,19.31,0,0,0,4.26,5c1.46,1.26,4.63,2.41,5.61,3.89,1.19,1.8.29,5.89.62,8.12a26.36,26.36,0,0,0,2.07,7.42c3.06,6.56,13.27,12.88,17.7,3.78a1.53,1.53,0,0,0-.9-2.2c-1.54-.63-2.56-.28-4.15-.51-4.36-.64-5-4-2.83-7.56,2.39-3.8,6.85-3.49,9.74-6.49a6.83,6.83,0,0,0,1.83-3.74c4.09,2.16,9.21,3.64,10.18-2C156.85,94.48,145.06,89,140.31,85.63Z"/><path class="cls-18" d="M67.27,111.67c3-3-2-9-2-9-9,5-18,13-14,16s3.25-2,8.62-3.5,3.38,5.5,1.38,8.5,2,4,2,7,1,8-2.5,8.5.5,10.5,5.5-1.5-1-10,3-14,8,1,5-5S64.27,114.67,67.27,111.67Z"/><path class="cls-18" d="M117.9,26.6a1.32,1.32,0,0,0-1.31.27,6.66,6.66,0,0,0-1.33-1.78c-4.55-4.33-11.14-5.94-15.77-10.31-1.4-1.32-3.53.79-2.12,2.12a22.37,22.37,0,0,0,3.34,2.55,1.57,1.57,0,0,0,.47.46c4,2.63,5.37,5.61,7.76,9.64,1.05,1.78,2.23,2.06,3.63,2.88a10.37,10.37,0,0,0,1.68,1.23,1.43,1.43,0,0,0,.45.16,7.51,7.51,0,0,0,.52,1.88c.21,2.37.66,4.69,2.37,6.57l0,0c.11.12.2.24.31.35l0,0a3,3,0,0,0,.28.27c1.4,1,3-1.19,1.82-2.36a6.65,6.65,0,0,1-1.24-1.62C118,35.4,124.48,29,117.9,26.6Zm-7.39-.9,0-.07.07,0Z"/><path class="cls-18" d="M53.91,127.27a1.51,1.51,0,0,0,.3-2.36,4.07,4.07,0,0,0-5.33-.25,5.74,5.74,0,0,0-1.8,2.69c-.25.7-.31,1.86-1.28,2-1.68.29-3.66-2.75-3.78-3.89-.2-1.9-3.21-1.92-3,0a7.73,7.73,0,0,0,1.63,4,1.26,1.26,0,0,0,.18,1.19,16.11,16.11,0,0,0,4,4.2c.9.64,2,1,2.86,1.66,2.51,1.81,1.78,3.53.63,5.86a1.52,1.52,0,0,0,1.3,2.26c3.18-.17,4.89-2.4,5.45-5.4A13,13,0,0,0,55,134C54.64,132.35,51.52,128.48,53.91,127.27Z"/><path class="cls-18" d="M56.51,42.54l-.24.13Z"/><path class="cls-18" d="M91.27,24.67c-3-1-11,6-9,2s6-8,6-14-8,5-7-1,8-7,8-7c-5-1-9,2-13,5s-8,19-12,25a25.11,25.11,0,0,1-7.76,7.87c1.24-.68,7.29-3.87,11.76-3.87,5,0-3,6-14,22-3.86,5.62-4.14,6.91-2.5,5.89A9.65,9.65,0,0,0,51.88,72,7.23,7.23,0,0,0,53,75.77c.92,1.31,2.41,1.85,3.51,2.94a5.22,5.22,0,0,1,1.33,2.4c-1.53,4-.45,8.73,1.73,12.49a5.31,5.31,0,0,0,1.76-3.81,11.73,11.73,0,0,0-.07-2.13c.42-1.65,1-3.52,1.26-5.31l.45.58a4,4,0,0,0,.7,1c.07.07.16.13.23.2a7.42,7.42,0,0,0,3.64,2.7,1.51,1.51,0,0,0,1.9-1.43l.56,0a2.43,2.43,0,0,0,2.83-1.87L74,80.57c-1.77.27-3.29,1.68-5,1.95a12.56,12.56,0,0,0-.62-1.35C67.15,79,65.49,78,66.92,75.3c1.28-1,2.93-1.51,4.17-2.58a11.44,11.44,0,0,0,2.76-4.52,8.14,8.14,0,0,0,.77-2.72,4.18,4.18,0,0,0-.18-1.37,8.05,8.05,0,0,0-.19-1.84c-.33-1.49-1.25-3-3.1-2.25a3,3,0,0,0-.45.25A20.91,20.91,0,0,0,66.43,59a16.28,16.28,0,0,1,2.75,3.36,4,4,0,0,1,.75,3.22,4.52,4.52,0,0,1-1,1.48L62.9,74.21h1a5.55,5.55,0,0,0-.51,2.94c-.13.25-.24.51-.35.77-.17-.21-.33-.41-.49-.59s-.37-.36-.55-.54a9.07,9.07,0,0,0-.57-.88l1.45-1.7-2.69,0-.09-.12,0-.39A4.53,4.53,0,0,0,59.55,69a30.58,30.58,0,0,0-1.33-5.34,61.64,61.64,0,0,1,3.12-5.32c.15-.23.29-.48.43-.72,3-2.85,6.07-5.81,8.5-8C79.27,41.67,94.27,25.67,91.27,24.67Z"/><path class="cls-18" d="M129.27,113.67a9.7,9.7,0,0,1-1-1.93C128.31,114,131.29,117,129.27,113.67Z"/><path class="cls-18" d="M143.27,100.67c-4-2-15-7-15-7s-6-2-4,2,10,0,8,8c-1.66,6.65-4.7,5.7-4,8.07,0-1.11.68-2.07,3-2.07C138.27,109.67,147.27,102.67,143.27,100.67Z"/><path class="cls-18" d="M127.55,47.75a1.32,1.32,0,0,0,0,.93,86.83,86.83,0,0,0,3.89,9.74c.93,1.95,5.46,8.38,5.32,11.73a3.67,3.67,0,0,1-.24.39c-2,1.12-4.65,1.2-6.36,2.87a5.46,5.46,0,0,0-1.3,4.12,5.16,5.16,0,0,0,.31,3.65c.61,1.42,2.81.63,2.8-.76a13.59,13.59,0,0,1,.21-3.13c1-1.13,2.87-2,4.5-2.73a1.7,1.7,0,0,0,.46,0c2.35-.55,4.51-.51,5.23-3a10.92,10.92,0,0,0-1.28-7.85,21.54,21.54,0,0,0-3.55-4.17c-1.83-3.59-4.19-7-6.22-10.3a35.5,35.5,0,0,0-1.82-4.34c-.89-1.71-3.48-.2-2.59,1.51C127.13,46.83,127.34,47.29,127.55,47.75Z"/><path class="cls-18" d="M149.42,97.51a58.85,58.85,0,0,0-7.87-10.88s0-.09,0-.13c-.21-1.85-3.06-1.91-3-.14a1.3,1.3,0,0,0-.1,1l.07.21c-.2,1.38-.88,2.69-.77,4.14a5.65,5.65,0,0,0,1.37,3.16c2.14,2.55,5.66,3.58,8.62,4.79C149,100.24,150,98.54,149.42,97.51Zm-5.56-2.62a1.49,1.49,0,0,0-.07-.64l0,0,.67,1Z"/><path class="cls-19" d="M124.34,39.7a15.08,15.08,0,0,1-.32-6,18.72,18.72,0,0,0,0-2.33c.26-4.81-.82-9-5.7-12.22l0-.05c-1.23-1.49-3.35.65-2.12,2.12,2.17,2.61,4.26,5.24,4.79,8.66a12.72,12.72,0,0,1,.11,2.5c-.32,3.14-1.17,6.44-1.29,9.55-.08,2.28.39,6.67,3.91,4.91a3.41,3.41,0,0,0,1.77-3.11A22.34,22.34,0,0,0,124.34,39.7Z"/><path class="cls-19" d="M68.57,57.35l-.06,0v0A1.52,1.52,0,0,0,65.72,57a2.89,2.89,0,0,0-1.66,1.86,23.88,23.88,0,0,0-.53,4.57l-.72,6.47c-.14,1.25,1.35,1.71,2.26,1.3,2.31-1.06,4.84-2.47,5.58-5.11a6.23,6.23,0,0,0-.09-3.44A4.49,4.49,0,0,0,68.57,57.35Z"/><path class="cls-19" d="M80,75c-2.81-5.52-3-10.76-2.66-16.81.11-1.93-2.89-1.92-3,0-.31,5.2-.47,10.39,1.59,15.28a44.37,44.37,0,0,0,4.23,7.06A4.85,4.85,0,0,0,78,80a1.51,1.51,0,0,0-1.45,1.9,28.29,28.29,0,0,1,1,16.19c-.49,2.44-1.54,5.07,0,7.4,2.77,4.27,6.47,1.36,7.85-2,2.25-5.5,3.77-14.4.55-19.83C84.16,80.66,81.66,78.2,80,75Z"/><path class="cls-17" d="M51.21,127.25a7.85,7.85,0,0,0,2.69,4.56c.77.64,2.31.56,2.51-.66a16.92,16.92,0,0,0-.22-6.71,1.52,1.52,0,0,0-2.74-.36l-1.34,2.32a1.5,1.5,0,0,0,2.59,1.51L56,125.59l-2.74-.36a13.05,13.05,0,0,1,.22,5.12l2.51-.66a5.3,5.3,0,0,1-1.92-3.23c-.37-1.89-3.26-1.09-2.89.8Z"/><path class="cls-19" d="M108.74,14.56q-1.32-.56-2.63-1.15.19-3.22,2.4-1.79c2.59.34,4.56,2.58,7.32,2.61a1.53,1.53,0,0,0,1.45-1.1c.55-1.86-1.18-4.19-2.36-5.52l-.16-.15c-1.15-2.26-4.39-4.55-5.71-5.15-2.13-1-8.83-2.25-9.73,1.08a1.58,1.58,0,0,0-1.37.6,1.55,1.55,0,0,0-.85-.35c-5.5-.57-7.5-2.22-12.36,1.26a19.26,19.26,0,0,0-7.27,9,1.51,1.51,0,0,0,1,1.84c1.11.28,1.37-.2,2.35-.12A3.83,3.83,0,0,0,82,15q4.72,2.92,1.07,7c-1.78,2.65-4.82,4.59-5,8.12-.29,5,4.73,4.44,7.23,1.72,2.09-2.28,3.74-3.87,7-4.24,1.23-.14,2.61.11,3.81-.31A4.31,4.31,0,0,0,98.76,25c1.92,2.45,7.42,2.3,9.53.4s3.39-7.67,1.75-9.87A4.7,4.7,0,0,0,108.74,14.56Z"/><path class="cls-19" d="M57.74,57.88c2-.43,2.46-2.13,3.16-3.81a31.63,31.63,0,0,1,6.3-9.52c1-1.07,2.44-2.26,1.79-3.9a2.13,2.13,0,0,0-.12-.24,19.07,19.07,0,0,0,1.21-2.55c.68-1.81-2.22-2.59-2.89-.8a13.88,13.88,0,0,1-1,2.15c-1,0-2,.13-2.72.14-1.93,0-1.93,3,0,3l.36,0c-2.71,2.94-6.15,5.29-8.63,8.51C53.21,53.38,53.06,58.9,57.74,57.88Z"/><path class="cls-19" d="M133.71,41.44a1.19,1.19,0,0,0-1.18-.77c-.75-2.5-2.16-4.77-2.62-7.53-.32-1.9-3.21-1.09-2.89.8.68,4.05,3.69,7.1,2.81,11.47-.77,3.81-3.54,6.87-4.8,10.49a9.13,9.13,0,0,0-.07,6.79v0l-.22.8c-.46-1.61-3-.91-2.86.78-.9-.25-2,.19-1.8,1.35a14.64,14.64,0,0,1-3,11.33c-1,1.21.29,3.41,1.82,2.36a16.09,16.09,0,0,0,2.59-2.26c0,.19-.06.38-.09.57-.78,1.12-1.62,2.25-2.32,3.39a1.63,1.63,0,0,0-.36.29,3.09,3.09,0,0,0-.76,2,5.87,5.87,0,0,0-.36,2.25,7,7,0,0,0,1.18,3.24c-.61,1.85-2.59,2.14-4.12,3.55-1.1,1-1.45,1.33-1.41,2.8a1.53,1.53,0,0,0,1.5,1.5c5.21.26,11.78-.38,8.54-7-.18-.36-.37-.71-.56-1.05-.12-2.05-2.09-3.72-.19-5.77,1.3-1.4,2.49-1.46,3-3.42a1.29,1.29,0,0,0,.84-1.33c0-1-.12-2-.2-3a7.39,7.39,0,0,0-.19-5.68c.5-1.32.93-2.67,1.33-4a8.24,8.24,0,0,0,1.48.73,1.51,1.51,0,0,0,1.9-1.45c-.65-5.52,1.07-9.52,3-14.55C134.89,47,135.06,44.44,133.71,41.44Zm-6,16.61q-.15,1-.21,2.09A8.3,8.3,0,0,1,127.75,58Z"/><path class="cls-19" d="M82.21,81.17C80.9,80,78.12,78.87,78,77.57c-.22-1.9-3.22-1.92-3,0a4.59,4.59,0,0,0,1.54,3.32c.6.57,1.58.82,2.13,1.34l.38.63q.1,2.66.4,5.27c-1.22-.76-3.11-1.17-3.63-2.44a1.58,1.58,0,0,0-1.53-1,3.71,3.71,0,0,0,0-.57c0-2.19-1.37-3-3.44-2.64-.75.14-1.68,1.09-2.25,1.17l-4.88-.94q-.05-.44-.13-.87c-.81-1.11-.44-1.7-1.79-2.53-1.64-1-3.15,1.57-1.51,2.59.85.53.86,3.76,1.87,4.73a5.08,5.08,0,0,0,3.21,1.24c1.2,0,4.71-1.87,5.28-1.25s-5.81,3.83-6.47,4.47l-.25.27a1.28,1.28,0,0,0-1.56,1.05c-.71,3.47-9.44,1.73-11.92,3.87a18.91,18.91,0,0,0-2.1,2.62A4.41,4.41,0,0,0,44,101.22a1.55,1.55,0,0,0-.38,2.17c-.12,4.09,2.68,8.52,7.73,5.75,3.7-2,6.45-4.86,11.08-3.83,3.52.78,4,3.86,6.83,5.34,4.46,2.36,8.84-1.18,11.8-4.18a1.51,1.51,0,0,0-.3-2.36c-2.58-1.17-5.11-2.43-7.56-3.85-1.45-.84-3-1.72-4.32-2.7-1.91-1.37-3-3.69-1.37-6,.85-1.18,3.54-1.72,4.71-3a11.05,11.05,0,0,0,1-1.33,4.5,4.5,0,0,0,1.68,1.63,2.42,2.42,0,0,0-.23,1.36c.08.93,1.5,2.09,2,2.64,2.48,2.69,4.53,4.93,4.21,8.84-.14,1.66,2.69,2.07,2.95.4a67.35,67.35,0,0,0,.75-16.31C84.38,83.48,83.88,81.86,82.21,81.17Z"/><path class="cls-17" d="M93.52,14.88c-3.53-2.08-8.84,1.74-11.77,3.64-4,2.57-7.1,5.82-8.7,10.32-.65,1.82,2.25,2.61,2.89.8a16.85,16.85,0,0,1,6.87-8.22C84.5,20.28,90,16.3,92,17.47A1.5,1.5,0,0,0,93.52,14.88Z"/><path class="cls-17" d="M72,39.22q-1.21,7-2.56,14.07c-.36,1.89,2.53,2.69,2.89.8.16-.85.32-1.7.48-2.55A1.53,1.53,0,0,0,75,50.65a17.51,17.51,0,0,0-.06-11.43C74.45,38,72.26,37.64,72,39.22Z"/><path class="cls-17" d="M61.8,71.17v.15a1.36,1.36,0,0,0-.89,1,5.61,5.61,0,0,0,1.21,5.26c.88,1,2.53.15,2.56-1.06l.12-5.33C64.84,69.24,61.84,69.24,61.8,71.17Z"/><path class="cls-20" d="M94.59,50.52a9.81,9.81,0,0,1,1.86,4.76c.05.5.85.51.79,0a10.58,10.58,0,0,0-2-5.16c-.3-.41-1,0-.68.4Z"/><path class="cls-20" d="M103.55,50.62c-1.26,1.7-2.15,2.47-2.68,4.41-.13.5.78.71.92.21.51-1.88,1.36-2.58,2.58-4.22.32-.43-.5-.83-.82-.4Z"/><path class="cls-20" d="M106.3,57.73a4.47,4.47,0,0,1,3,.06c.53.19.76-.66.23-.85a5.27,5.27,0,0,0-3.45-.06c-.54.17-.31,1,.23.85Z"/><path d="M113.22,52a2.42,2.42,0,0,0-2.68-1.3,2.73,2.73,0,0,0-1.24.42l0,0-.07.07a1.37,1.37,0,0,0-.39,2c0,.84,1.22,1.55,2.47,1.54C113.26,54.66,113.27,51.87,113.22,52Z"/><path class="cls-20" d="M110.06,71.44a28,28,0,0,0-2.29-2.27c-.62-.57-1.7-.69-2.39-1.2a.3.3,0,0,0-.35,0c-.24-.49-1.36-1-1.43-.83l-.43-.24c-.45-.23.15.45.6.68s.84,1.7.6,1.93c-1.08,1-1.16.14-2.07.29a1.4,1.4,0,0,0-.62.3c-.46.14-.91,1.11-2.91,1.81-2-.7-2.45-1.67-2.91-1.81a1.4,1.4,0,0,0-.62-.3c-.88-.14-1,.67-2-.2a6.68,6.68,0,0,0-.12-1.2c0-.4,1.21-.61,1.62-.82s.05-.92-.4-.68l-.43.24c-.07-.21-1.39.63-1.64,1.31a1.18,1.18,0,0,0-.22.39,8.37,8.37,0,0,0-2.95,1.79c-.63.57-.7,1.56-1,2.39-.22.55-1.55,3.25-1.3,3.78a1.11,1.11,0,0,0,.26,1.33c.35.26,3.25-6.14,3.46-6.42a4.05,4.05,0,0,1,1.74-1.19,2,2,0,0,0,2.05,1.26c1.38,0,3.41,1.94,3.91,2.06a5.7,5.7,0,0,0,1.08,0,4.15,4.15,0,0,0,1.38-.87c1-.79,1.15-1.16,2.53-1.19,1.22,0,1.72-.43,2.23-1.64,0,0,0,0,0,0a21.06,21.06,0,0,0,1.82,1.81,4.86,4.86,0,0,1,2.06,2.72,3.27,3.27,0,0,1-.29.89c-.11.23,1.08,1.84,1,2-.23.45.46.85.68.4.44-.9-.42-2.64-.55-3.34C110.36,73.44,111,72.53,110.06,71.44Z"/><path class="cls-20" d="M100.2,82.5a8.11,8.11,0,0,0-3.29.29.4.4,0,0,0,.21.76,7.55,7.55,0,0,1,3.08-.26C100.7,83.35,100.7,82.56,100.2,82.5Z"/><path class="cls-21" d="M108.18,75.63c-1.65.41-2.22-.39-3.83-.4a8.72,8.72,0,0,0-5.26-.34h0l-.19,0c-1.37,0-1.32-.77-2.35-.44-3.64,1.16-7.47.87-7.09,1.34a.43.43,0,0,0-.18,0h-.06a.41.41,0,0,0-.39.29l0,.14a.4.4,0,0,0,.19.45l.11.07a.37.37,0,0,0,.31,0c1.19,1,4.16,4.11,4.64,4.44,1.07.74,5.1.75,6.53.74,4,0,5.45-3.16,6.54-4.21a29.58,29.58,0,0,0,2.23-2.12l.08-.1h0C110,75.38,108.7,75.51,108.18,75.63ZM100.11,79a14.6,14.6,0,0,1-7.67-2.19c-.2-.18-1.31-.67-.65-.48a19.22,19.22,0,0,0,3.41-.19,25.63,25.63,0,0,1,4.56,0h2.76c1.82,0,3.53,0,4.14,0C104.27,77.2,102.3,79,100.11,79Z"/><path class="cls-3" d="M110.49,51.52a.74.74,0,0,1,.67.32.43.43,0,0,0,0,.35.71.71,0,0,1,.06.16.84.84,0,0,1-.05.25.64.64,0,0,1-1.16.19.43.43,0,0,0-.22-.42.72.72,0,0,1,.2-.65v0A.74.74,0,0,1,110.49,51.52Z"/><path class="cls-20" d="M91.77,57.73a4.47,4.47,0,0,0-3,.06c-.53.19-.76-.66-.23-.85A5.27,5.27,0,0,1,92,56.88c.54.17.31,1-.23.85Z"/><path d="M86.79,54.67c1.25,0,2.49-.7,2.47-1.54a1.37,1.37,0,0,0-.39-2l-.07-.07,0,0a2.73,2.73,0,0,0-1.24-.42A2.42,2.42,0,0,0,84.85,52C84.79,51.87,84.8,54.66,86.79,54.67Z"/><path class="cls-3" d="M88,51.7v0a.72.72,0,0,1,.2.65.43.43,0,0,0-.22.42.64.64,0,0,1-1.16-.19.84.84,0,0,1-.05-.25.71.71,0,0,1,.06-.16.43.43,0,0,0,0-.35A.8.8,0,0,1,88,51.7Z"/><path class="cls-22" d="M79.36,52.06a30.61,30.61,0,0,0,3.95,2.1l0,0a6.39,6.39,0,0,0,3.29,1.39c1.69.19,3.69-.72,5.25.26.48.31.58-.82.54-1.12-.24-2.08-1-3.8-3-4.59a13,13,0,0,0-4.84-.66,7.53,7.53,0,0,0-2.88,1.36C81.58,50.88,78.87,51.77,79.36,52.06Zm3.75.64a3.66,3.66,0,0,1-.34-.41c1-.29,1.05-.95,3.24-1.15,2.62-.24,5.22.79,5.54,3.58a.45.45,0,0,0,.1.22,5.9,5.9,0,0,0-3.1-.29A5.9,5.9,0,0,1,83.1,52.71Z"/><path class="cls-22" d="M116.4,50.83a7.53,7.53,0,0,0-2.88-1.36,13,13,0,0,0-4.84.66c-2,.79-2.8,2.51-3,4.59,0,.3.06,1.43.54,1.12,1.55-1,3.55-.08,5.25-.26a6.39,6.39,0,0,0,3.29-1.39l0,0a30.61,30.61,0,0,0,3.95-2.1C119.19,51.77,116.49,50.88,116.4,50.83Zm-6.87,3.83a5.9,5.9,0,0,0-3.1.29.45.45,0,0,0,.1-.22c.32-2.79,2.92-3.82,5.54-3.58,2.19.2,2.25.86,3.24,1.15a3.66,3.66,0,0,1-.34.41A5.9,5.9,0,0,1,109.53,54.65Z"/><path class="cls-23" d="M98.89,105.71A10.91,10.91,0,0,0,92,102.83a1.51,1.51,0,0,0-1.5,1.5l.16,6a1.51,1.51,0,0,0,2.26,1.3l5-2.94A1.5,1.5,0,0,0,96.46,106l-5,2.94,2.26,1.3-.16-6-1.5,1.5a7.6,7.6,0,0,1,4.72,2c1.42,1.3,3.55-.82,2.12-2.12Z"/><path class="cls-15" d="M96.43,35.86l.27.11a1.51,1.51,0,0,0,1.69-.69l.2-.31a1.53,1.53,0,0,0-.23-1.82c-2.49-2.71-8.09.25-9.85,2.51-3,3.84-.18,7.46,4,8.19,3.86.67,10.76,0,12.4-4.37,1.33-3.56-2.56-6.81-5.51-4.1-1.42,1.31.7,3.43,2.12,2.12l0,1.7-1.06.7a10.73,10.73,0,0,1-2.36.83,11.73,11.73,0,0,1-5.69.05c-1.21-.33-1.3-.35-1.61-1.71s0-1.74,1.12-2.58c.56-.41,3.55-2,4.26-1.22L96,33.45l-.2.31,1.69-.69L97.22,33c-1.79-.72-2.57,2.18-.8,2.89Z"/><path class="cls-24" d="M101.51,33.33a1.4,1.4,0,0,0-.82-.58,9.43,9.43,0,0,0-9,2.06c-1.73,1.62-3.2,4.72-1.38,6.84,2,2.31,7.53,1.73,10.1,1.1,2.37-.57,6.06-2.55,5.83-5.45C106.06,35.09,103.64,33.84,101.51,33.33Z"/><path class="cls-23" d="M101.78,108.51s7.87,5.07,8.84,5.06,12.65-6.28,12.64-7.31-10.84-9.15-14.74-8.09c-1.93,3.1-3.87,4.15-6.79,6.23,0,0-12.77-7.08-13.75-7.07-2.19,0-.81,18.51-.81,18.51s12.67-4.23,14.6-7.33"/><path class="cls-25" d="M99.62,106.52a2.79,2.79,0,0,0-2.22-1.67,7.91,7.91,0,0,1-2.77-.85c-.51-.35-.89-.87-1.39-1.25a1.49,1.49,0,0,0-1.73-.19,29.13,29.13,0,0,0,0,4.9c.06.71.27,1.57,1,1.76a1.8,1.8,0,0,0,1.16-.21,42.54,42.54,0,0,0,4.85-2.45c.31-.11.62.37.38.6s-.72-.09-.59-.4"/><path class="cls-25" d="M114.16,104.42a2.83,2.83,0,0,1-1.53-1.41,1.49,1.49,0,0,0-1.3-.74,13.26,13.26,0,0,0-7.87,3c-1.09.85-.3,2.17.79,2.42a1.58,1.58,0,0,0,.48.48c2,1.28,3.49,2.62,5.89,1.68,1.77-.69,4.71-1.62,4.64-3.94A1.56,1.56,0,0,0,114.16,104.42Z"/><path class="cls-26" d="M72.55,37.18a35,35,0,0,1,1.87,5.17c.29,1.6-.91,2.21-1.32,3.67a1.5,1.5,0,0,0,2.89.8c.2-.73.92-1.22,1.28-1.88a3.55,3.55,0,0,0,.36-2.18c-.27-2.13-1.46-4.37-2.18-6.38-.65-1.8-3.55-1-2.89.8Z"/><path class="cls-26" d="M137.1,80.32l1.08.6-.69-1.69c-.92,2.33-4.24,2.83-6.06,4.25a5.67,5.67,0,0,0-2.34,4.21,3.65,3.65,0,0,0,6.08,2.88c1.4-1.33-.72-3.45-2.12-2.12-.81.77-.88-1.25-.51-1.83a4.12,4.12,0,0,1,1.3-1.17c1-.65,2.15-1,3.18-1.64A7.34,7.34,0,0,0,140.38,80a1.5,1.5,0,0,0-.69-1.69l-1.08-.6c-1.69-.94-3.2,1.65-1.51,2.59Z"/><path class="cls-26" d="M122.25,19.55a2.38,2.38,0,0,1,2.43,3.09l.69-.9-1.36.63c-1.75.8-.23,3.39,1.51,2.59,1.23-.56,2-.91,2.25-2.36a5.17,5.17,0,0,0-.54-3.09,5.31,5.31,0,0,0-5-3c-1.91.14-1.93,3.14,0,3Z"/><path class="cls-26" d="M58.41,60.85c-1.82,2.76-3.48,6.31-3.25,9.71a5.4,5.4,0,0,0,.94,2.78,6.7,6.7,0,0,0,1.43,1.42c.34.28,2.87,2.56,2.42,2.49-1.89-.28-2.7,2.61-.8,2.89a3.22,3.22,0,0,0,3.53-4.72c-.87-1.75-2.94-2.08-4-3.57-1.85-2.69.82-7.29,2.28-9.5,1.07-1.62-1.53-3.12-2.59-1.51Z"/><path class="cls-26" d="M56.82,109.19c-3.6,1.57-9.3,5.81-5.7,10.28a4.27,4.27,0,0,0,5.15,1.36,8.29,8.29,0,0,0,2.21-2,4.25,4.25,0,0,1,1.73-1.34c.47-.14,2.23.07,1.31.81-1.5,1.21.63,3.32,2.12,2.12,3.13-2.52-.56-6.84-3.86-6a6.57,6.57,0,0,0-2.52,1.4c-.74.62-1.83,2.5-2.91,2.37-2.22-.25-.89-3.29,0-4.18a12.84,12.84,0,0,1,4-2.24c1.77-.77.24-3.35-1.51-2.59Z"/><path class="cls-26" d="M54.08,124.4c-2.62-.71-6.5-.17-5.94,3.46a5.39,5.39,0,0,0,2.44,3.44c.87.62,2,1.1,2.32,2.2a2.3,2.3,0,0,1-1.22,2.66c-1.75.73-1,3.64.8,2.89a5.38,5.38,0,0,0,3.44-5.9A5.1,5.1,0,0,0,54,130c-.59-.48-1.29-.81-1.87-1.3-1.69-1.41-.08-1.76,1.2-1.42a1.5,1.5,0,0,0,.8-2.89Z"/><path class="cls-26" d="M72.27,90.19a5.53,5.53,0,1,0,1.33,10.66c1.8-.66,1-3.56-.8-2.89a2.76,2.76,0,0,1-3.69-1.79c-.38-1.83,1.54-3.13,3.15-3,1.92.19,1.91-2.82,0-3Z"/><path class="cls-26" d="M134.42,99.88l3.38.78c.56.13,1.13.24,1.69.39s.71,0,.62.43c-.14.68-1.76,1.66-2.28,2a11.2,11.2,0,0,1-3,1.29,1.5,1.5,0,0,0,.8,2.89c2.69-.75,7.16-2.87,7.62-6a3,3,0,0,0-2.21-3.23A50.87,50.87,0,0,0,135.22,97c-1.88-.43-2.68,2.46-.8,2.89Z"/><path class="cls-26" d="M131.27,77.52a1.34,1.34,0,0,1,.24-2.23,29.84,29.84,0,0,1,3-1c1.79-.81,3.14-2.61,2.46-4.61-.61-1.82-3.51-1-2.89.8.41,1.22-2.81,1.64-3.52,1.94a4.33,4.33,0,0,0-2.34,2.16,4.47,4.47,0,0,0,1.58,5.51c1.56,1.14,3.06-1.46,1.51-2.59Z"/><path class="cls-26" d="M129.27,49.15c.41,2.71.94,5.55,2.49,7.88a8.61,8.61,0,0,0,2.45,2.47c.74.48,3.39,1.23,3.39,2.25a1.5,1.5,0,0,0,3,0c0-2.69-2.29-3.34-4.27-4.49-3.1-1.79-3.68-5.67-4.16-8.91-.29-1.9-3.18-1.09-2.89.8Z"/><path class="cls-26" d="M83.84,20.1c-4.66,1.75-9.42,8.71-5.87,13.35,1.16,1.51,3.76,0,2.59-1.51s-1-3.36.05-5c.79-1.26,2.59-3.4,4-3.93,1.79-.67,1-3.57-.8-2.89Z"/><path class="cls-26" d="M80.82,13.79a10.15,10.15,0,0,0-8.44,8.49c-.26,1.89,2.63,2.7,2.89.8a7.34,7.34,0,0,1,6.35-6.39c1.9-.27,1.09-3.16-.8-2.89Z"/><path class="cls-26" d="M110.15,26.67A12.45,12.45,0,0,1,117,35.54c.38,1.89,3.27,1.09,2.89-.8a15.27,15.27,0,0,0-8.2-10.67c-1.72-.85-3.25,1.73-1.51,2.59Z"/><path class="cls-26" d="M130.65,115a3.82,3.82,0,0,1,0-7.22c1.77-.76.24-3.35-1.51-2.59a6.77,6.77,0,0,0,0,12.4c1.75.76,3.28-1.83,1.51-2.59Z"/><path class="cls-26" d="M143.7,93.76l3,2a4.6,4.6,0,0,1,1,.81,4.5,4.5,0,0,0,.3.42c.39.34-.44.37.35-.2-1.54,1.13,0,3.73,1.51,2.59s1.48-2.95.37-4.43c-1.24-1.66-3.37-2.69-5.05-3.82s-3.11,1.52-1.51,2.59Z"/><path class="cls-25" d="M75.65,146.49a1.41,1.41,0,0,0-2.17-1.08c-2.59,1.71-.07,4.62,1.1,6.49.26.42.54.82.8,1.24a1.48,1.48,0,0,0-1.82,1,10.54,10.54,0,0,1-2.35,4.9c-1,1.2.35,3.42,1.82,2.36A4.48,4.48,0,0,1,78,161a1.44,1.44,0,0,0,1.87-.38l.79,1.46a1.31,1.31,0,0,0,1.21.74l.5.73a1.5,1.5,0,0,0,2.59-1.51A137.79,137.79,0,0,0,75.65,146.49Zm.06,10.82.21.18h-.29Z"/><path class="cls-25" d="M127.38,160.42l4-10.46c.7-1.8-2.2-2.58-2.89-.8l-5.07,13.09c-.51,1.32,1.15,2.22,2.2,1.69l1.87-.93A1.44,1.44,0,0,0,127.38,160.42Z"/><path class="cls-25" d="M134.3,152.77a14,14,0,0,1-2.66,5.79c-1.19,1.5.92,3.64,2.12,2.12a17.25,17.25,0,0,0,3.43-7.11C137.6,151.68,134.71,150.88,134.3,152.77Z"/><path class="cls-25" d="M136.62,133.24l-1.6,9.07c-.33,1.89,2.56,2.7,2.89.8l1.6-9.07C139.84,132.15,137,131.34,136.62,133.24Z"/><path class="cls-13" d="M83.76,135.33c-1-1-3.11,0-2.51,1.46l.54,1.3a1.58,1.58,0,0,0,1.37,1,59.92,59.92,0,0,1,7.65,10.47,1.54,1.54,0,0,0,.34.75l.47.56c1.12,1.34,3.15-.37,2.36-1.82A62.92,62.92,0,0,0,83.76,135.33Z"/><path class="cls-13" d="M124,136.69a19.38,19.38,0,0,1-1.89-4.5,42.06,42.06,0,0,0-.3-8.12,1.65,1.65,0,0,0-.61-1,5.29,5.29,0,0,1,.44-2c1.87-.46,1.08-3.35-.8-2.89-3.46.84-2.51,6.23-2.77,8.86a94.84,94.84,0,0,1-2,12,44.87,44.87,0,0,0-2.7,9.7,1.56,1.56,0,0,0,1.34,1.85,1.3,1.3,0,0,0,2.15-.37,57.88,57.88,0,0,1,7.13-12A1.47,1.47,0,0,0,124,136.69Z"/><rect class="cls-27" x="5.77" y="163.17" width="179" height="36"/><rect class="cls-28" x="5.77" y="159.17" width="179" height="4"/><path d="M21.48,191.65h-.19l-.29-.22,0-.42-.07-.58.09-.58,0-.2,0-.42,0-.17,0-.39,0-.19.07-.39v-.19l-.07-.22,0-.58,0-.22,0-.33v-.42l0-.2v-.56l0-.17,0-.39.09-.28-.1-.28v-.19l0-.19.07-.39,0-.42,0-.19-.09-.19.08-.33,0-.17-.07-.39,0-.28,0-.25,0-.2.08-.17,0-.2,0-.17v-.42l-.06-.19.08-.31,0-.28,0-.14,0-.22v-.19l0-.19.06-.45V178l0-.17v-.2l0-.17,0-.36,0-.19,0-.42-.05-.44h-1.5l-.39,0L19,176h-.25l-.28,0h-.22L18,175.9l-.13-.25v-.33l0-.22,0-.22-.06-.19,0-.39,0-.17,0-.39,0-.36.05-.17-.07-.39v-.17l.08-.31.22-.2.19,0H19l.14,0h.19l.19,0h2.06l.2,0h.61l1.78,0,.42,0,.58,0,.26,0h1.72l.39,0,.26.06.09.22,0,.17v.2l0,.22,0,.2v.17l0,.19,0,.17v.33l0,.19v.17l0,.33,0,.36,0,.19,0,.39-.07.25-.27,0-.26,0h-.33l-.25,0h-.28l-1.17,0-.25,0,0,.19.06.17,0,.19,0,.17,0,.17v.56l0,.5-.07.22.08.14-.07.39,0,.36,0,.17,0,.33v.17l0,.2-.08.33,0,.42,0,.2v.39l-.05.17,0,.19,0,.36,0,.33-.08.19,0,.39,0,.17,0,.17v1.06l0,.28v.17l0,.17v.19l-.05.33v.36L25,186v.83l0,.36v.19l0,.36,0,.58,0,.22,0,.39.07.22,0,.61,0,.78v.78l0,.17-.31.14H22.06l-.32.08Z"/><path d="M33.48,191.68h-.81l-.4-.06H32l-.19,0-.31,0-.2,0-.22,0-.23-.06-.26-.2-.1-.42.07-.39,0-.42,0-.2v-1.22l0-.22v-.19l0-.36-.06-.17v-.5l0-.31v-.25l0-.25v-.58l0-.19,0-.2v-.17l0-.2-.06-.19.09-.61,0-.42,0-.17,0-.19v-.75l-.07-.39,0-.39,0-.19v-.39l.07-.22-.06-.36v-.33l0-.36.07-.39,0-.58-.07-.39,0-.19V178l-.06-.2.05-.33v-.17l0-.36v-.19l0-.36-.06-.2V176l0-.36,0-.14v-.39l0-.36v-.17l0-.17,0-.33v-.31l.06-.31,0-.42,0-.17v-.19l.15-.28.18-.08.15-.11.19,0,.41,0,.26,0h.39l.19,0H34l.19,0,.32.08.16.28v.17l.06.36,0,.08,0,.31.06.17-.06.11,0,.25-.06.14v.39l-.07.25,0,.22v.17l0,.19v1.2l0,.17v.53l0,.33v.56l0,.33,0,.36v.53l0,.25,0,.25v.42l0,.19v.36l0,.28v.83l0,.39,0,.19,0,.22,0,.36v.7l0,.39,0,.22,0,.39,0,.22v.53l.07.39-.09.28.08.31v.64l0,.36,0,.22v1.14l0,.19,0,.31V190l0,.36v.39l0,.36v.22l0,.25-.29.08h-.72Z"/><path d="M39.56,191.65l-.2,0-.5,0-.19-.14-.09-.53.05-.17-.06-.19,0-.39,0-.17v-.81l0-.36v-.2l0-.33v-1l.05-.17,0-.36v-.19l0-.17,0-.36v-.17l0-.33,0-.14.09-.28-.05-.31,0-.17,0-.19.05-.17,0-.42,0-.58,0-.19v-.22l0-.39,0-.2v-.17l0-.2v-.78l0-.42v-.44l0-.36-.06-.33,0-.36,0-.19,0-.2,0-.36v-.17l0-.44,0-.31,0-.11,0-.36V177l-.06-.5,0-.22,0-.39,0-.25,0-.33,0-.19,0-.22,0-.19v-.19l0-.17,0-.19,0-.45v-1l0-.36.2-.11H40.3l.36,0,.37,0,.16,0h1.86l.2,0,.41,0h.39l.43.06h.22l.37.06.6.08.46.08.2.06.22.14.21.08.4.19.29.22.14.14.21.22.2.19.12.22.23.36.09.19.17.31.08.31.06.19.14.31,0,.28.1.42,0,.19.08.31,0,.31v.5l.05.61v.39l0,.19V179l0,.19v.17l0,.17v.39l0,.22-.07.39-.13.53-.08.31-.14.33-.18.42-.14.17-.14.33-.21.22-.15.28-.11.19-.31.28-.11.17-.36.19-.26.08-.33.17-.42.14-.32.06-.36,0-.38.06-.77.06-.53,0h-.61l-.42,0v.25l0,.22,0,.36,0,.14,0,.36v.36l0,.17v.2l0,.17v.39l0,.25v.33l0,.19,0,.33v.19l0,.19,0,.28v.42l.07.39-.08.17,0,.22v.2l0,.17v.2l0,.22,0,.25v.22l0,.33-.19,0H40ZM43.22,181l.3-.06.52-.06.18-.08.39-.33.26-.28.14-.31.08-.17.07-.39V179l.07-.25,0-.47,0-.78-.07-.72-.08-.47L44.9,176l-.21-.25-.35-.22-.26-.06-.76,0-.63,0-.18.06-.08.33,0,.14,0,.28,0,.47,0,.2,0,.33v1.28l0,.33,0,.22v.25l0,.7,0,.25v.39l0,.25Z"/><path d="M61.4,191.65h-.19l-.29-.22,0-.42-.07-.58.09-.58,0-.2,0-.42,0-.17,0-.39,0-.19.07-.39v-.19l-.07-.22,0-.58,0-.22,0-.33v-.42l0-.2v-.56l0-.17,0-.39.09-.28-.1-.28v-.19l0-.19.07-.39,0-.42,0-.19-.09-.19.08-.33,0-.17-.07-.39,0-.28,0-.25,0-.2.08-.17,0-.2,0-.17v-.42l-.06-.19.08-.31,0-.28,0-.14,0-.22v-.19l0-.19.06-.45V178l0-.17v-.2l0-.17,0-.36,0-.19,0-.42L61,176h-1.5l-.39,0-.19,0h-.25l-.28,0h-.22l-.26-.08-.13-.25v-.33l0-.22,0-.22-.06-.19,0-.39,0-.17,0-.39,0-.36.05-.17-.07-.39v-.17l.08-.31.22-.2.19,0H59l.14,0h.19l.19,0h2.06l.2,0h.61l1.78,0,.42,0,.58,0,.26,0h1.72l.39,0,.26.06.09.22,0,.17v.2l0,.22,0,.2v.17l0,.19,0,.17v.33l0,.19v.17l0,.33,0,.36,0,.19,0,.39-.07.25-.27,0-.26,0H67l-.25,0h-.28l-1.17,0L65,176l0,.19.06.17,0,.19,0,.17,0,.17v.56l0,.5-.07.22.08.14-.07.39,0,.36,0,.17,0,.33v.17l0,.2-.08.33,0,.42,0,.2v.39l-.05.17,0,.19,0,.36,0,.33-.08.19,0,.39,0,.17,0,.17v1.06l0,.28v.17l0,.17v.19l-.05.33v.36l.06.19v.83l0,.36v.19l0,.36,0,.58,0,.22,0,.39.07.22,0,.61,0,.78V191l0,.39,0,.17-.31.14H62l-.32.08Z"/><path d="M79,191.65h-.75l-.31,0h-.19l-.2,0-.21-.25v-.22l0-.25v-.25l.08-.2-.07-.39v-.78l0-.2v-.19l0-.36,0-.14,0-.39v-.42l0-.53,0-.83.06-.31v-.28l-.06-.33v-.39l0-.19v-.39l0-.19v-.33l-.25,0h-.19l-.26-.06-.88.08-.43-.08-.48,0v.36l0,.39v.36l-.08.19.08.47,0,.2,0,.64-.06.61.06.17-.08.33v.14l0,.36,0,.42,0,.78v.61l0,.19v.39l0,.22v.19l0,.42-.09.28-.2.11-.25,0-.33,0-.41.06h-.22l-.21-.08-.19,0-.18.06-.34-.06h-.89l-.57-.06-.17-.31,0-.22.07-.25.08-.36,0-.28v-.25l0-.19,0-.17-.09-.19.11-.31,0-.19-.07-.22,0-.39-.1-.39.08-.19.07-.25v-.19l0-.22v-.39l0-.22,0-1,0-.17v-.17l0-.22-.06-.19,0-.39,0-.36,0-.28v-.33l0-.19,0-.42,0-.2,0-.22,0-.22,0-.39v-1.36l0-.39.1-.39v-.19l0-.39V178l0-.22,0-.58V177l-.07-.39.07-.22V176l0-.36-.1-.58.13-.36-.1-.39,0-.19v-.2l0-.19-.07-.22,0-.19,0-.36,0-.33,0-.31.23-.14h.7l1.14,0,.39,0h.61l.26-.08.34.06.29.06.1.25,0,.17.06.2,0,.33v.17l0,.39,0,.25,0,.25,0,.53v.39l0,.33,0,.19.08.45,0,.19,0,.22,0,.36,0,.14,0,.33,0,.17,0,.14,0,.22v.19l-.05.17.06.19,0,.36,0,.2.06.17,0,.22v.17l0,.22.2,0h.22l.81,0,.22,0,.34,0,.22,0,.59,0v-.45l.07-.25,0-.19v-.19l.07-.42-.09-.17.08-.36V177l0-.17,0-.2,0-.36,0-.36.07-.25-.06-.33-.07-.22v-.2l0-.39,0-.22,0-.36,0-.17v-.53l.07-.25,0-.19-.06-.2v-.17l.18-.25.16,0,.25,0h1l.56,0h.78l.46.06.21.08.24.25v.17l.06.2-.08.17,0,.11v.17l0,.19-.05.33,0,.39,0,.22v.2l0,.19,0,.22,0,.36,0,.19v.56l0,.36v.2l0,.19v.75l-.08.33v.53l0,.45,0,.42-.07.39,0,.42v.17l0,.39V181l-.08.17,0,.22.09.2-.05.17V182l.06.36v.19l-.08.36v.2l0,.5,0,.17v.7l0,.19.06.17-.06.58.06.17,0,.2,0,.17v.58l0,.22v.19l0,.39,0,.31,0,.17,0,.39.05.45,0,.39v.56l0,.19,0,.31v.33l-.06.14v.22l0,.19,0,.22,0,.19-.08.17-.32.08h-.42l-.16,0-.36,0h-.56l-.22,0Z"/><path d="M88,191.65h-.72l-.2,0H85.6l-.26-.06-.13-.25,0-.25v-.25l0-.42,0-.45,0-.42-.05-.44,0-.22,0-.25,0-.19,0-.2,0-.22v-.2l0-.39v-.36l.07-.22,0-.45,0-.19,0-.22v-.36l0-.14.05-.33-.06-.17,0-.36,0-.19v-.61l0-.19V183l-.07-.42,0-.39,0-.42,0-.19v-.42l0-.2.08-.17,0-.83,0-.22,0-.19-.06-.17,0-.39,0-.42-.11-.78,0-.19-.07-.58.08-.17,0-.22v-.19l-.06-.17v-.19l0-.36v-.39l.05-.17,0-.2,0-.19-.06-.17,0-.19,0-.36,0-.17v-.17l0-.36v-.17l-.09-.19,0-.33.05-.17v-.17l.19-.17h.47l.16,0,.2,0,.33,0h.19l.23,0h.28l.61,0,2.08,0,.64,0,.23,0,.8,0h.61l.25,0,.28,0,.26,0,.17.19,0,.31,0,.17.07.7,0,.17,0,.19v.78l0,.22,0,.39v.17l0,.36-.27,0H91.84l-.33,0H89.7l-.66,0,0,.33v.2l.07.39L89,177l0,.22v.92l0,.39,0,.19.07.22,0,.28,0,.5h.5l1,0,.52-.06h.72l.23.06.21.22v.33l0,.22v.7l0,.19v.42l0,.19,0,.22v1.22l0,.06H92l-.41,0H91.3l-.69,0-.48,0h-.31l-.36,0h-.25l-.06.31,0,.36,0,.78,0,.28v.25l0,.28,0,.19v.5l0,.72,0,.22.13.11.4.06h1.64l.39,0,.62,0,.77,0,.21.08v1.47l.06.36,0,.2,0,.17v.61l.06.47v.25l0,.31H90.74l-.44,0-.37,0-.16,0h-.58l-.44,0-.22,0Z"/><path d="M107.81,191.68l-.37,0-.36,0-.43-.06-.33,0-.23,0h-.25l-.4-.06-.17,0h-.22l-.19,0H104l-.4-.06-.23-.06-.11-.64,0-.25.08-.33v-.56l0-.39V189l0-.22,0-.22v-.92l.07-.22v-.28l0-.22v-.39l0-.22,0-.36v-.17l.08-.19-.11-.61v-1.56l0-.19,0-.33v-.17l.05-.33-.1-.56,0-.2,0-.17v-.39l0-.17v-.78l0-.19,0-.2v-.19l0-.17v-.72l0-.33,0-.17v-.33l.05-.33-.07-.39v-.22l0-.58V176l.05-.5,0-.19,0-.17v-.19l0-.36v-.72l.05-.17v-.2l0-.33,0-.19,0-.28,0-.08,0-.31.26-.08H104l.34,0,.2,0,.44-.06h.22l.62,0,.55,0h.7l.31,0,.16,0H108l.23,0,.26,0,.43.06h.19l.24.08.41.11h.06l.18.06.5.14.15.08.12.06.31.17.22.14.19.14.52.56.28.33.14.14.18.25.18.39.24.42.15.2.17.47,0,.19.21.39v.2l.15.56.09.36-.05.17.15.39.06.17v.2l.09.19V179l0,.17v.44l0,.2,0,.47v.19l.14.78-.06.45,0,.19,0,.53,0,.42.06.64,0,.22,0,.22,0,.28-.06.58,0,.36v.33l0,.2-.13.36,0,.17,0,.31-.1.36v.17l0,.39-.13.39-.1.56-.09.28-.18.22v.17l-.11.2-.11.17-.14.33-.31.47-.34.31-.21.22-.15.11-.33.17-.29.08-.24.19-.37.11-.27.06-.44.06-.29.11H109l-.19,0h-.14l-.19,0Zm.7-3.76.26-.08.2-.11.28-.17.12-.11.18-.22.16-.22.05-.17.08-.19.06-.28.09-.28.08-.36.07-.53,0-.31v-.39l0-.36V184l0-.14,0-.17,0-.33v-.95l0-.42v-.19l0-.22.07-.39-.07-.39,0-.58V180l0-.58-.13-.58L110,178l-.19-.75-.07-.22-.25-.47-.26-.36-.19-.14-.16-.11-.5-.14-.46-.06-.37,0-.25,0,0,.22,0,.19,0,.17,0,.19V177l0,.39v.75l.05.61v.17l0,.2,0,.19v.22l-.05.17,0,.17v.39l0,.44,0,.2,0,.39,0,.17v.39l0,.17,0,.39,0,.19.06.17,0,.19,0,.72.06.36v.17l-.07.39,0,.17v.42l0,.5v.2l0,.39,0,.42,0,.42v.72l.41.11Z"/><path d="M120.25,191.65h-.72l-.2,0h-1.47l-.26-.06-.13-.25,0-.25v-.25l0-.42,0-.45,0-.42-.05-.44,0-.22,0-.25,0-.19,0-.2,0-.22v-.2l0-.39v-.36l.07-.22,0-.45,0-.19,0-.22v-.36l0-.14.05-.33-.06-.17,0-.36,0-.19v-.61l0-.19V183l-.07-.42,0-.39,0-.42,0-.19v-.42l0-.2.08-.17,0-.83,0-.22,0-.19-.06-.17,0-.39,0-.42-.11-.78,0-.19-.07-.58.08-.17,0-.22v-.19l-.06-.17v-.19l0-.36v-.39l.05-.17,0-.2,0-.19-.06-.17,0-.19,0-.36,0-.17v-.17l0-.36v-.17l-.09-.19,0-.33.05-.17v-.17l.19-.17h.47l.16,0,.2,0,.33,0h.19l.23,0h.28l.61,0,2.08,0,.64,0,.23,0,.8,0h.61l.25,0,.28,0,.26,0,.17.19,0,.31,0,.17.07.7,0,.17,0,.19v.78l0,.22,0,.39v.17l0,.36-.27,0h-1.17l-.33,0h-1.81l-.66,0,0,.33v.2l.07.39-.05.17,0,.22v.92l0,.39,0,.19.07.22,0,.28,0,.5h.5l1,0,.52-.06h.72l.23.06.21.22v.33l0,.22v.7l0,.19v.42l0,.19,0,.22v1.22l0,.06h-.28l-.41,0h-.25l-.69,0-.48,0h-.31l-.36,0h-.25l-.06.31,0,.36,0,.78,0,.28v.25l0,.28,0,.19v.5l0,.72,0,.22.13.11.4.06h1.64l.39,0,.62,0,.77,0,.21.08v1.47l.06.36,0,.2,0,.17v.61l.06.47v.25l0,.31H123l-.44,0-.37,0-.16,0h-.58l-.44,0-.22,0Z"/><path d="M130.68,191.68l-.2,0-2,0-.26-.06-.09-.22,0-.19V191l.11-.33.16-.36.13-.83.11-.33.08-.33.19-.67,0-.36.13-.5,0-.17.1-.19.08-.33,0-.17v-.19l.05-.17.08-.36,0-.19.13-.39,0-.19v-.25l.1-.22.11-.33,0-.2.1-.39v-.17l0-.19.05-.17.07-.39.05-.17.09-.78,0-.22.13-.36.06-.47.11-.31.05-.17,0-.36.1-.19,0-.36,0-.14.1-.36v-.39l.11-.19.08-.17.12-.58.08-.36.05-.17.12-.25,0-.28,0-.19.16-.5,0-.2.05-.17,0-.17,0-.2.11-.31.08-.17,0-.14.08-.5.13-.36.16-.5,0-.19.05-.17.06-.31.19,0h.28l.53,0,.27,0h.45l.52,0h.25l.2.06.25,0H136l.15.06.22.14.29,1.2.11.61.09.17.09.5.2,1,.07.39.09.36.15.56.07.39.1.42v.19l.11.61.12.39.1.56.1.39v.17l.09.36,0,.17.11.44.11.31.19,1.09.09.33.07.22.15.83.25,1.28,0,.19.1.42,0,.42.1.39v.2l.24,1.06,0,.17.09.36.06.2.07.42,0,.39.07.22,0,.25.14.61.1.58c0,.11.12.36,0,.44a1.14,1.14,0,0,1-.31,0l-.19,0-.23,0h-.39l-.61,0h-.22l-.34,0-.19,0-.27,0-.37,0h-.42l-.13-.08-.1-.28-.12-.5-.08-.28,0-.28-.23-1.31-.07-.22-.62,0-.45-.06-1.23,0H133l-.09.31-.13.36,0,.19,0,.2-.05.33-.19.53-.09.42,0,.31-.06.14-.08.19-.15.11-.78,0-.22,0Zm4.66-6.68.14-.14,0-.39-.07-.22V184l-.13-.72v-.19l-.08-.47,0-.22-.15-.67-.16-1.06-.15-1-.14-.64-.21.08,0,.36-.06.45,0,.28-.06.45-.07.22-.06.28v.2l-.08.19,0,.25,0,.19,0,.25-.06.61v.19l-.07.42-.08.19-.06.47,0,.2v.25l0,.19.22.17h.22l.31,0,.26,0Z"/><path d="M142.93,191.54l-.14-.17-.06-.19-.06-.17v-.17l.06-.28,0-.28v-.36l0-.36-.07-.42,0-.36,0-.2v-.78l-.06-.33.07-.39,0-.17,0-.19-.06-.17,0-.36,0-.19,0-.17v-.56l0-.17-.07-.39v-.36l0-.17,0-.39,0-.19.07-.39,0-.83,0-.39,0-.14,0-.78v-.7l.08-.36v-.22l-.07-.39.08-.36,0-.2v-.33l0-.58-.07-.22,0-.22,0-.39,0-.22-.09-.19,0-.22,0-.36v-.31l.08-.17,0-.19v-.2l0-.17.08-.2-.05-.44V174l.05-.33,0-.33,0-.19,0-.17,0-.56.05-.17.44-.06H144l1,0h1.08l.56,0,.14.33v.2l0,.19,0,.67,0,.2,0,.17,0,.58v.58l-.05,1v.39l0,.22,0,.39v.39l-.08.19.09.22,0,.22v.19l0,.19v.39l0,.36-.08.19.07.22,0,.19,0,.22,0,.58,0,.19.07.39,0,.19v.61l0,.45,0,.42v.81l0,.45,0,.19,0,.22,0,.39,0,.36,0,.36V186l0,.28v.36l0,.19,0,.31v.28l0,.28.16.14h.28l.26,0H149l.61,0h.72l.18.08,0,.42,0,.19.06.2,0,.22,0,1,0,.19,0,.19v.17l0,.42,0,.45-.19.19h-.53l-.35.06-.6.08-.51,0-.41,0-.4-.06-.55,0h-2.28l-.27,0h-.78l-.2,0-.36,0Z"/><path d="M156,191.65h-.72l-.2,0H153.6l-.26-.06-.13-.25,0-.25v-.25l0-.42,0-.45,0-.42-.05-.44,0-.22,0-.25,0-.19,0-.2,0-.22v-.2l0-.39v-.36l.07-.22,0-.45,0-.19,0-.22v-.36l0-.14.05-.33-.06-.17,0-.36,0-.19v-.61l0-.19V183l-.07-.42,0-.39,0-.42,0-.19v-.42l0-.2.08-.17,0-.83,0-.22,0-.19-.06-.17,0-.39,0-.42-.11-.78,0-.19-.07-.58.08-.17,0-.22v-.19l-.06-.17v-.19l0-.36v-.39l.05-.17,0-.2,0-.19-.06-.17,0-.19,0-.36,0-.17v-.17l0-.36v-.17l-.09-.19,0-.33.05-.17v-.17l.19-.17h.47l.16,0,.2,0,.33,0h.19l.23,0h.28l.61,0,2.08,0,.64,0,.23,0,.8,0h.61l.25,0,.28,0,.26,0,.17.19,0,.31,0,.17.07.7,0,.17,0,.19v.78l0,.22,0,.39v.17l0,.36-.27,0h-1.17l-.33,0h-1.81l-.66,0,0,.33v.2l.07.39L157,177l0,.22v.92l0,.39,0,.19.07.22,0,.28,0,.5h.5l1,0,.52-.06h.72l.23.06.21.22v.33l0,.22v.7l0,.19v.42l0,.19,0,.22v1.22l0,.06H160l-.41,0h-.25l-.69,0-.48,0h-.31l-.36,0h-.25l-.06.31,0,.36,0,.78,0,.28v.25l0,.28,0,.19v.5l0,.72,0,.22.13.11.4.06h1.64l.39,0,.62,0,.77,0,.21.08v1.47l.06.36,0,.2,0,.17v.61l.06.47v.25l0,.31h-2.64l-.44,0-.37,0-.16,0h-.58l-.44,0-.22,0Z"/><path d="M166.29,191.68h-.36l-.87-.06-.26-.06-.09-.17,0-.25,0-.28,0-.28,0-.31,0-.19,0-.17,0-.19,0-.2,0-.17v-.2l0-.39,0-.2,0-.22-.06-.2,0-.22,0-.39,0-.22v-.19l-.07-.22.07-.22-.07-.42.05-.5,0-.25v-.28l0-.42,0-.22,0-.39v-.42l0-.25.1-.2,0-.17-.06-.17,0-.33,0-.19.05-.17,0-.17,0-.19v-1.22l0-.22,0-.58,0-.2v-.89l0-.19v-.17l.05-.33,0-.39v-1.56l0-.17,0-.36,0-.17,0-.19,0-.33v-.44l0-.78v-.42l0-.22.07-.22-.08-.31.09-.14.16-.22.27-.06h.39l1.67,0h1.2l.19,0,.27,0,.23.06.43.06h.25l.37.06.42,0,.32.06H171l.23.06.33.14.27.11.2.06.28.17.18.08.15.08.37.2.13.11.17.17.14.14.25.33.26.39.16.44.15.53,0,.2.18.53,0,.22v.58l.1.42,0,.19V178l0,.44,0,.28-.05.33,0,.19,0,.17,0,.19-.08.33-.19.36,0,.19-.07.25-.16.36-.05.17-.24.36-.11.14-.32.42-.49.36-.35.19-.19,0,0,.25.12.22.21.42,0,.25.12.36.14.17.07.22.12.36.11.17.15.36.09.17.12.39.12.19.09.22.17.36,0,.17.21.42.12.36.48,1,.12.39.28.47.09.33.06.19.1.25.29.53,0,.36-.13,0-.3.06h-.36l-.57.08-.71.08h-.36l-.3,0h-.22l-.25,0-.17,0-.29-.25-.08-.14-.14-.33-.08-.14-.14-.31-.24-.42,0-.22-.12-.22-.07-.08-.12-.36-.12-.19,0-.19-.11-.17-.06-.19-.14-.31-.16-.28-.06-.33-.26-.5-.06-.2-.17-.33-.09-.19-.12-.36-.18-.36-.1-.39-.08-.14-.15-.39-.1-.28-.15-.22-.09-.22-.15-.22-.13-.11-.2,0v.11l0,.17,0,.39v.22l0,.58.08.47-.08.36v.39l0,.17v.39l-.07.22.1.58,0,.22v.81l0,.17,0,.22v.39l.06.17,0,.2,0,.17,0,.36v.2l0,.17v.19l0,.33,0,.19,0,.25-.28,0-.25,0-.41,0-.22,0Zm3-11.43.32-.08.15-.11.25-.17.18-.11.16-.22.08-.17.17-.17.08-.36,0-.22v-.17l.13-.39,0-.22,0-.22-.05-.45-.14-.61-.19-.58-.18-.25-.23-.19-.28-.14-.63-.08-.67,0-.24.08,0,.31,0,.19,0,.45,0,.42,0,.36,0,.22v.44l0,.19,0,.42,0,.25.07.25v.89l.06.19v.22l.48.06Z"/><path class="cls-22" d="M119,46a3.71,3.71,0,0,0-1.59-.68A.37.37,0,0,0,117,45a31.82,31.82,0,0,0-11.37,2.3c-.44.18-.25.9.2.72h0a2.09,2.09,0,0,1-.54,1.59.38.38,0,0,0,.13.51c1.58.68,2.63-.34,3.91-1.25a18.7,18.7,0,0,1,6.82-3,.32.32,0,0,0,.27.11,3.1,3.1,0,0,1,2.1.64C119,47,119.38,46.33,119,46Z"/><path class="cls-22" d="M93,48.81c-2.9-1-6-2.45-9.06-2.89-2.19-.32-3.88.75-5.61,2a.4.4,0,0,0,0,.61l-.19.06c-.47.1-.27.83.2.72a8.81,8.81,0,0,0,2-.9,6.6,6.6,0,0,1,5-.12C87.75,49,90,50.07,92.29,51a.38.38,0,0,0,.46-.26l.52-1.34A.38.38,0,0,0,93,48.81Z"/><path class="cls-20" d="M96.53,60.5l-.27,3.67c-.07,1,1.43,1,1.5,0L98,60.5c.07-1-1.43-1-1.5,0Z"/><path class="cls-10" d="M46.77,224.76c1.49,0,3-.08,4.48-.1,1.27,0,3.86-.47,4.84.25.59.43.72,1.22,1.26,1.73.32.3,2.83,1.33,2.83,1.4l2.8-.76c-1.9-3.19-5.28-6.66-9.15-4.11-1.6,1.06-.1,3.66,1.51,2.59,2.31-1.53,4.05,1.37,5,3a1.51,1.51,0,0,0,2.8-.76,2.77,2.77,0,0,0-1.57-2.83c-1.06-.63-1.63-.41-2.54-1.55-.3-.37-.43-.92-.82-1.27-1-.89-2.41-.76-3.63-.77-2.61,0-5.23.06-7.85.13-1.93.05-1.93,3.05,0,3Z"/><path class="cls-29" d="M74.88,221.52a1.63,1.63,0,0,0,2.34.32,19.33,19.33,0,0,0,8.53,1.31l.24.07a1.54,1.54,0,0,0,.34.07,9.19,9.19,0,0,1,1.54,1.7c1.1,1.57,3.7.08,2.59-1.51A12.64,12.64,0,0,0,79.88,218a8.43,8.43,0,0,0-3.12-1.57,2.12,2.12,0,0,0-1.12.13,1.54,1.54,0,0,0-2.25,1.68A9.45,9.45,0,0,0,74.88,221.52Z"/><path class="cls-29" d="M154.85,217c-3.26-3.2-10.08,1.21-13.34,2.27-4.07,1.32-8.82,2.27-12.76,0-1.88-1.08-3.35-3.33-5.81-3.08a6.13,6.13,0,0,0-3.79,2.52c-.8,1-.93,2.14-1.62,3.17a5.94,5.94,0,0,1-3.52,2.48c-1.65.59-3,.79-4.23,2.1-1.85,1.93-2.26,4.88-4.71,6.3a1.35,1.35,0,0,0-.72,1.11c-.59.8-.49,2.06.73,2.24a10.57,10.57,0,0,0,5.8-.56c3.78-1.42,6.82-3,11-3.25,2.8-.18,5.19-1.28,7.88-1.93,4-1,8.26,0,12.27.08,3.67.1,10,1.47,12.28-2.08C155.88,225.93,157.26,219.33,154.85,217Z"/><path class="cls-29" d="M106.06,219.62a12.35,12.35,0,0,0,5.71,1.34,1.5,1.5,0,0,0,0-3,9,9,0,0,1-4.19-.93C105.85,216.17,104.33,218.76,106.06,219.62Z"/><path class="cls-29" d="M93.68,237.37l-10.79-.55a1.41,1.41,0,0,0-.39-.73,24.43,24.43,0,0,0-4.61-3.85,66.82,66.82,0,0,0-5.65-5.32,12.36,12.36,0,0,0-3.06-1.68c-2.5-1.08-5-1.71-7.41-3.38-6.37-4.46-12.24-7.42-20.17-7.84a1.33,1.33,0,0,0-1.44,1.42,1.4,1.4,0,0,0-.32,1.36l1.75,6.66a1.43,1.43,0,0,0,.4.69c.42,2,1,3.77,2.47,4.94,1.17.95,3.1,1,4.55,1.13,4.07.48,7.69.23,11.42,2.24,2.39,1.28,6.43,5.91,9.81,6.24a1.55,1.55,0,0,0,.59.66,1.48,1.48,0,0,0,1.86-.31,1.59,1.59,0,0,0,1.6-.32,1.42,1.42,0,0,0,1.46-.7A1.52,1.52,0,0,0,75.2,236a2.28,2.28,0,0,0-1.23-.32l-.16,0c0-.92-.9-1.51,2.22-.76a44.81,44.81,0,0,0,4.32,3.33,1.77,1.77,0,0,0,0,.28,1.37,1.37,0,0,0,.89,2.07,26.19,26.19,0,0,0,3,.54,6,6,0,0,1,.68.41,1.25,1.25,0,0,0,1.79-.24,25,25,0,0,0,7.32-.94A1.51,1.51,0,0,0,93.68,237.37Z"/><path class="cls-30" d="M110.84,218.1c1.16,1.52,3.76,0,2.59-1.51-4.33-5.68-11.28-4.27-17.19-2.23-1.81.63-1,3.52.8,2.89C101.33,215.77,107.49,213.69,110.84,218.1Z"/><path class="cls-30" d="M143.64,226.07c-5.88-1.7-10.88-.9-16.88-1.9-3,3-9.27,2.14-14,4,0,0-4,1-4,1s-2.93,1.76-3.14,2.56a1.51,1.51,0,0,0,2.05,2.05,22.78,22.78,0,0,1,8.08-2.61c-.07.91,3.61,1.69,5,1,2-1,4.55-1,6.32-.92,1.33,0,5.28-2.49,5.93-2.63,3.31-.72,8.84,2.76,11.29,0A1.52,1.52,0,0,0,143.64,226.07Z"/><path class="cls-30" d="M61.4,228.66c-1.48-1-4.73-1.5-5-3.52a1.54,1.54,0,0,0-1.5-1.5c-1,0-8.81.32-10.14.53-.76.12,2.14,2.65,2.17,3.34a1.45,1.45,0,0,0,0,2.53c2.51,1.35,10.2.89,10.53.49a39,39,0,0,1,4.25,3.06,1.51,1.51,0,0,0,2.2-1.69A5.82,5.82,0,0,0,61.4,228.66Z"/><path class="cls-30" d="M79.08,237.66a3,3,0,0,0-.52-1.22,4.7,4.7,0,0,0-4.3-2.32,1.54,1.54,0,0,0-1.5,1.5,1.51,1.51,0,0,0,.24.79,1.54,1.54,0,0,0,.9,2.72,2,2,0,0,1,1.1.34,1.42,1.42,0,0,0,.79.22,3.59,3.59,0,0,1,.5.39c.95.89,2.85.12,2.58-1.21A1.72,1.72,0,0,0,79.08,237.66Z"/><path class="cls-6" d="M98,110.52a19.42,19.42,0,0,0-5.59,2.56,4.8,4.8,0,0,0-.71.24,1.21,1.21,0,0,0-.75.83l-.65.53c-1.47,1.26.66,3.37,2.12,2.12.32-.28.66-.52,1-.76.78,1.23,1.76,10.89,1.87,11.94.16,1.58,2.5,2.15,2.95.4,1.27-5-1.83-11.26,1.47-15.65C100.48,111.64,99.13,110.19,98,110.52Z"/><path class="cls-6" d="M107.95,123.6c-.21-1.47-2.61-1.39-2.89,0-.79,4,.09,7.4-.89,10.66a1.56,1.56,0,0,0-.21.43c-.09.31-.19.59-.3.86a10.37,10.37,0,0,1-2.53,3.27c-1.47,1.31.65,3.3,2.12,2.12a10.22,10.22,0,0,0,2.37-2.62c.23-.32.45-.66.65-1q.19,4.42.1,8.85c0,1.93,3,1.93,3,0A136.72,136.72,0,0,0,107.95,123.6Z"/><path class="cls-6" d="M101.06,151.86a2.13,2.13,0,0,0,2.93-.06,2.1,2.1,0,0,0,.4-2.69,1.52,1.52,0,0,0-2.05-.54,2.5,2.5,0,0,0,1.34,4.56,1.52,1.52,0,0,0,1.45-1.1c.29-1.41.35-3.92-1.7-3.85a2.2,2.2,0,0,0-1.89,3.21,1.5,1.5,0,1,0,2.59-1.51,1.16,1.16,0,0,1,0,1,1,1,0,0,1-1.18.18l-.69-.9a3.72,3.72,0,0,1,0,1.1l1.45-1.1a.77.77,0,0,1,.37.13q-.2-.12.07.06l.11.15q-.12-.21,0,.08c0-.35,0,.34,0,0q-.06.35,0,.11a.76.76,0,0,1-.39.51l-2.05-.54c.19.25-.08-.38-.08-.42l.13-.49q-.1.16,0,0a.91.91,0,0,1,1.33,0,1.54,1.54,0,0,0-2.12,0,1.51,1.51,0,0,0,0,2.12Z"/><path class="cls-6" d="M102.09,119a2.89,2.89,0,0,0,.65,5.13,1.52,1.52,0,0,0,1.85-1l.54-1.92a1.52,1.52,0,0,0-.69-1.69c-1.07-.54-2.45-.66-3.14.54a1.85,1.85,0,0,0,1.1,2.73,1.54,1.54,0,0,0,1.85-1,1.52,1.52,0,0,0-1-1.85l.45.27.39.66q-.32-.94-1.21,1.25-.14-.09.1,0l-.69-1.69-.54,1.92,1.85-1c.45.15-.06-.07.15.08s.1.07,0,0l.11.14c-.1-.26.06.22,0,0s0-.27,0,0a1,1,0,0,0,0-.21c.06.26-.06.21,0,0s-.1.3,0,0l-.11.15q.18-.16-.06,0a1.5,1.5,0,1,0-1.51-2.59Z"/><path class="cls-6" d="M32.37,229.32a2,2,0,0,0-1.64.35.38.38,0,0,0,0,.65c.63.32,1.66.67,2.07-.16a.85.85,0,0,0-.64-1.29c-.48,0-.48.72,0,.75.09,0-.14.29-.17.3-.26.11-.67-.14-.89-.25v.65a1.3,1.3,0,0,1,1.07-.28c.47.09.67-.63.2-.72Z"/><path class="cls-31" d="M95.45,103.5,91,102.33a.75.75,0,0,0-.4,1.45l4.46,1.17A.75.75,0,0,0,95.45,103.5Z"/><path class="cls-31" d="M93.56,106.93l-4,1.5c-.9.34-.51,1.79.4,1.45l4-1.5C94.85,108,94.47,106.59,93.56,106.93Z"/><path class="cls-31" d="M112.77,103.42h-4.5a.75.75,0,0,0,0,1.5h4.5A.75.75,0,0,0,112.77,103.42Z"/><path class="cls-31" d="M115.38,106.52a13.62,13.62,0,0,1-5.62,1.43c-1,0-1,1.54,0,1.5a15.46,15.46,0,0,0,6.37-1.64C117,107.38,116.25,106.09,115.38,106.52Z"/><path class="cls-32" d="M71.52,123q6.32,18.63,14.19,36.66c.38.88,1.68.12,1.3-.76Q79.22,141,73,122.56c-.31-.91-1.76-.52-1.45.4Z"/><path class="cls-32" d="M131.31,127.61c0,11.14-6.34,20.7-9.29,31.16a.75.75,0,0,0,1.45.4c3-10.61,9.31-20.26,9.35-31.56a.75.75,0,0,0-1.5,0Z"/><polygon class="cls-33" points="134.26 136.67 114.27 136.67 114.27 132.67 134.26 130.67 134.26 136.67"/><path class="cls-34" d="M131.82,133.1a2,2,0,0,0-1.77-.68,7.29,7.29,0,0,0-5.2,1.67.76.76,0,0,0,.53,1.28,39.06,39.06,0,0,0,6.11-1A.76.76,0,0,0,131.82,133.1Z"/><path class="cls-30" d="M72.53,224.87c-.83-1.24-2.26-2.69-3.86-2.69a2.37,2.37,0,0,0-2.23,3.13,3.25,3.25,0,0,0,1.1,1.66,5.59,5.59,0,0,0,4.75,3.83,1.51,1.51,0,0,0,1.5-1.5A7.68,7.68,0,0,0,72.53,224.87Z"/><path class="cls-35" d="M71.87,218.35a1.29,1.29,0,0,0,.05-1.59c-.85-1.35-7.83,0-8.15-.16q-1.46-.36-.25-1.21c.3-1.08,2.08-2.59,2.79-3.47a1.51,1.51,0,0,0-1.46-2.51c-2.67.65-8.68,2.56-7.42,6.39a6.94,6.94,0,0,0,1.9,2.67l.05.06c3,2.83,9,.67,12,3.5,1.4,1.33,3.51-.77,2.12-2.12Z"/><path class="cls-35" d="M119.72,210.33a4.94,4.94,0,0,1-.78,0,3.27,3.27,0,0,0-.53-.27c-1-.77-2.09-.48-3.19-1.13a1.52,1.52,0,0,0-2.13,1.91c0,.52.17.06.65.4l.93.65a1.68,1.68,0,0,0,1.67,1.17l1.67,1.16a1.25,1.25,0,0,0,1.44,0,1.57,1.57,0,0,0,1.53-1.76A1.4,1.4,0,0,0,119.72,210.33Z"/></svg>