<?xml version="1.0" encoding="UTF-8"?>
<!-- Created with Inkscape (http://www.inkscape.org/) -->
<svg width="224" height="224" version="1.1" viewBox="0 0 224 224" xml:space="preserve" xmlns="http://www.w3.org/2000/svg" xmlns:cc="http://creativecommons.org/ns#" xmlns:dc="http://purl.org/dc/elements/1.1/" xmlns:rdf="http://www.w3.org/1999/02/22-rdf-syntax-ns#"><metadata><rdf:RDF><cc:Work rdf:about=""><dc:format>image/svg+xml</dc:format><dc:type rdf:resource="http://purl.org/dc/dcmitype/StillImage"/><dc:title/></cc:Work></rdf:RDF></metadata><defs><clipPath id="clipPath16670"><path d="m0 168h168v-168h-168z"/></clipPath></defs><g transform="matrix(1.3333 0 0 -1.3333 0 224)"><g clip-path="url(#clipPath16670)"><g transform="translate(1,84)"><path d="m0 0c0 45.84 37.16 83 83 83s83-37.16 83-83-37.16-83-83-83-83 37.16-83 83" fill="#c5b9be"/></g><g transform="translate(72.278 114.15)"><path d="m0 0v-60.104h8.421c8.289 0 14.302 0.953 18.037 2.853 3.734 1.903 6.789 5.102 9.164 9.596 2.374 4.495 3.561 10.027 3.561 16.598 0 10.114-2.827 17.96-8.483 23.535-5.096 5.014-13.277 7.522-24.546 7.522zm-18.005 17.487h21.485c13.847 0 24.136-1.717 30.866-5.148 6.729-3.434 12.272-9.016 16.631-16.742 4.357-7.732 6.535-16.755 6.535-27.073 0-7.341-1.22-14.087-3.655-20.24-2.438-6.152-5.803-11.259-10.097-15.316-4.292-4.061-8.939-6.866-13.944-8.419-5.004-1.556-13.674-2.333-26.013-2.333h-21.808z"/></g></g></g></svg>
