<?xml version="1.0" encoding="UTF-8"?>
<!-- Created with Inkscape (http://www.inkscape.org/) -->
<svg width="125.33" height="125.33" version="1.1" viewBox="0 0 125.33 125.33" xml:space="preserve" xmlns="http://www.w3.org/2000/svg" xmlns:cc="http://creativecommons.org/ns#" xmlns:dc="http://purl.org/dc/elements/1.1/" xmlns:rdf="http://www.w3.org/1999/02/22-rdf-syntax-ns#"><metadata><rdf:RDF><cc:Work rdf:about=""><dc:format>image/svg+xml</dc:format><dc:type rdf:resource="http://purl.org/dc/dcmitype/StillImage"/><dc:title/></cc:Work></rdf:RDF></metadata><defs><clipPath id="clipPath26"><path d="m0 94h94v-94h-94z"/></clipPath></defs><g transform="matrix(1.3333 0 0 -1.3333 0 125.33)"><g clip-path="url(#clipPath26)"><g transform="translate(47 91.235)"><path d="m0 0c24.43 0 44.235-19.805 44.235-44.235 0-24.431-19.805-44.236-44.235-44.236s-44.235 19.805-44.235 44.236c0 24.43 19.805 44.235 44.235 44.235m0-91.235c25.958 0 47 21.043 47 47s-21.042 47-47 47-47-21.043-47-47 21.042-47 47-47" fill="#cd7bac"/></g><g transform="translate(70.085 42.048)"><path d="m0 0h-12.184v32.599h-21.803v-32.599h-12.184l22.444-21.831z" fill="#ebdbe2"/></g></g></g></svg>
