<svg id="Слой_1" data-name="Слой 1" xmlns="http://www.w3.org/2000/svg" viewBox="0 0 188 277.25" width="188" height="277.25"><defs><style>.cls-1{fill:#ffdc87;}.cls-1,.cls-10,.cls-11,.cls-13,.cls-14,.cls-2,.cls-4,.cls-6,.cls-7,.cls-8,.cls-9{stroke:#000;stroke-linecap:round;stroke-linejoin:round;}.cls-1,.cls-10,.cls-2,.cls-4,.cls-6,.cls-7,.cls-8,.cls-9{stroke-width:1.3px;}.cls-2,.cls-5{fill:#263352;}.cls-11,.cls-3,.cls-7{fill:gray;}.cls-12,.cls-13,.cls-4{fill:#fff;}.cls-14,.cls-15,.cls-6{fill:#a3853a;}.cls-8{fill:none;}.cls-10{fill:#1a1a1a;}.cls-11{stroke-width:1.5px;}.cls-13{stroke-width:1.11px;}.cls-14{stroke-width:0.75px;}</style></defs><title>JackOfSClubs</title><path class="cls-1" d="M1.88,205.25c1-7.5,8-11.5,8-11.5l30-26,22-18,96,51v74l-156,1Z"/><polygon class="cls-2" points="39.88 203.75 39.88 167.75 136.88 88.75 157.88 101.75 157.88 272.75 39.88 203.75"/><path class="cls-3" d="M62.38,150.25l15.81-12.84s79.69,42.34,79.69,43.34.5,20.5.5,20.5-34.87-5.2-61-22C83.38,170.25,62.38,150.25,62.38,150.25Z"/><path class="cls-4" d="M69.88,110.29A13.5,13.5,0,0,0,82,123.62L81.78,96.8A13.5,13.5,0,0,0,69.88,110.29Z"/><polygon class="cls-5" points="40.88 275.75 126.88 275.75 39.88 223.75 40.88 275.75"/><polygon class="cls-2" points="80.88 1.75 80.88 11.75 85.88 13.75 96.88 3.75 108.88 13.75 120.88 3.75 132.88 13.75 143.88 3.75 157.88 15.75 157.88 1.75 80.88 1.75"/><rect class="cls-6" x="80.87" y="23.75" width="77" height="8"/><rect class="cls-7" x="80.87" y="31.75" width="77" height="4"/><path class="cls-8" d="M81.88,45.75s13,1,15,7v21h14s-1-4-4-4"/><polygon class="cls-4" points="132.88 13.75 120.88 3.75 108.88 13.75 96.88 3.75 85.88 13.75 80.88 11.75 80.88 23.75 157.88 23.75 157.88 15.75 143.88 3.75 132.88 13.75"/><path class="cls-8" d="M107.88,50.75a11.25,11.25,0,0,1,5-4c3-1,16,0,16,0"/><path class="cls-8" d="M108.88,54.75s1.94-4,10-4c7,0,10,4,10,4"/><path class="cls-8" d="M109.88,53.75s2,5,9,5c5,0,9-4,9-5"/><circle class="cls-9" cx="118.87" cy="52.75" r="2"/><path class="cls-8" d="M114.11,51.33a4.94,4.94,0,0,0-.23,1.42,5,5,0,1,0,9.82-1.27,15.59,15.59,0,0,0-4.82-.73A18.21,18.21,0,0,0,114.11,51.33Z"/><circle class="cls-9" cx="87.87" cy="52.75" r="2"/><path class="cls-8" d="M83.11,51.33a4.94,4.94,0,0,0-.23,1.42,5,5,0,1,0,9.82-1.27,15.59,15.59,0,0,0-4.82-.73A18.21,18.21,0,0,0,83.11,51.33Z"/><path class="cls-8" d="M92.88,82.75c3-2,11-3,17,0"/><path class="cls-8" d="M97.88,87.75a8.22,8.22,0,0,0,9,0"/><polygon class="cls-8" points="81.88 116.75 136.88 84.75 136.88 35.75 81.88 35.75 81.88 116.75"/><circle class="cls-8" cx="172.37" cy="47.2" r="10.95"/><circle class="cls-4" cx="76.37" cy="151.25" r="8.5"/><circle class="cls-4" cx="90.37" cy="163.25" r="8.5"/><circle class="cls-4" cx="105.37" cy="173.25" r="8.5"/><circle class="cls-4" cx="122.37" cy="181.25" r="8.5"/><circle class="cls-4" cx="140.37" cy="188.25" r="8.5"/><path class="cls-4" d="M149.88,191.25a8.49,8.49,0,0,0,8,8.47V182.78A8.49,8.49,0,0,0,149.88,191.25Z"/><polygon class="cls-10" points="136.88 88.75 81.88 133.75 81.88 116.75 136.88 84.75 136.88 88.75"/><rect class="cls-8" x="160.28" y="58.14" width="24.2" height="4.61" rx="2.3" ry="2.3"/><circle class="cls-11" cx="172.37" cy="260.8" r="10.95"/><rect class="cls-11" x="160.28" y="245.25" width="24.2" height="4.61" rx="2.3" ry="2.3" transform="translate(344.75 495.11) rotate(180)"/><rect class="cls-11" x="172.37" y="62.75" width="5.25" height="182.5"/><rect class="cls-11" x="167.12" y="62.75" width="5.25" height="182.5"/><line class="cls-11" x1="167.12" y1="244.75" x2="172.12" y2="238.28"/><line class="cls-11" x1="167.12" y1="238.41" x2="172.12" y2="231.93"/><line class="cls-11" x1="167.12" y1="232.07" x2="172.12" y2="225.59"/><line class="cls-11" x1="167.12" y1="225.72" x2="172.12" y2="219.25"/><line class="cls-11" x1="167.12" y1="218.72" x2="172.12" y2="212.25"/><line class="cls-11" x1="167.12" y1="183.75" x2="172.12" y2="177.28"/><line class="cls-11" x1="167.12" y1="177.41" x2="172.12" y2="170.93"/><line class="cls-11" x1="167.12" y1="171.07" x2="172.12" y2="164.59"/><line class="cls-11" x1="167.12" y1="164.72" x2="172.12" y2="158.25"/><line class="cls-11" x1="167.12" y1="157.72" x2="172.12" y2="151.25"/><line class="cls-11" x1="167.12" y1="151.75" x2="172.12" y2="145.28"/><line class="cls-11" x1="167.12" y1="145.41" x2="172.12" y2="138.93"/><line class="cls-11" x1="167.12" y1="139.07" x2="172.12" y2="132.59"/><line class="cls-11" x1="167.12" y1="132.72" x2="172.12" y2="126.25"/><line class="cls-11" x1="167.12" y1="125.72" x2="172.12" y2="119.25"/><line class="cls-11" x1="167.12" y1="118.75" x2="172.12" y2="112.28"/><line class="cls-11" x1="167.12" y1="112.41" x2="172.12" y2="105.93"/><line class="cls-11" x1="167.12" y1="106.07" x2="172.12" y2="99.59"/><line class="cls-11" x1="167.12" y1="99.72" x2="172.12" y2="93.25"/><line class="cls-11" x1="167.12" y1="92.72" x2="172.12" y2="86.25"/><line class="cls-11" x1="167.12" y1="86.75" x2="172.12" y2="80.28"/><line class="cls-11" x1="167.12" y1="80.41" x2="172.12" y2="73.93"/><line class="cls-11" x1="167.12" y1="67.72" x2="170.87" y2="62.75"/><line class="cls-11" x1="167.12" y1="74.07" x2="172.12" y2="67.59"/><path class="cls-6" d="M81.38,212.25a40.92,40.92,0,0,1-2.26,13.42l2.64,1.55a44,44,0,0,0-41.39-59v3A41,41,0,0,1,81.38,212.25Z"/><path class="cls-10" d="M40.38,171.25V193.3a19,19,0,0,1,18,18.95c0,.42,0,.83-.06,1.25l20.81,12.17a41,41,0,0,0-38.74-54.42Z"/><path class="cls-6" d="M56.38,212.25s0,.07,0,.11l1.94,1.14c0-.41.06-.83.06-1.25a19,19,0,0,0-18-18.95v2A17,17,0,0,1,56.38,212.25Z"/><path class="cls-4" d="M40.38,195.3V203l16,9.36s0-.07,0-.11A17,17,0,0,0,40.38,195.3Z"/><path class="cls-6" d="M112.38,214.25a41,41,0,0,1,39,53.52l2.36,1.4A44,44,0,0,0,79.48,225L82.71,227A40.87,40.87,0,0,1,112.38,214.25Z"/><path class="cls-10" d="M111.38,235.25a19,19,0,0,1,19,19c0,.33,0,.66-.05,1l21.1,12.53A41,41,0,0,0,82.71,227l18.72,11.12A18.88,18.88,0,0,1,111.38,235.25Z"/><path class="cls-6" d="M111.38,235.25a18.88,18.88,0,0,0-9.94,2.83l2,1.16a17,17,0,0,1,25,14.83l2,1.16c0-.33.05-.66.05-1A19,19,0,0,0,111.38,235.25Z"/><path class="cls-4" d="M111.38,237.25a16.92,16.92,0,0,0-8,2l25,14.83A17,17,0,0,0,111.38,237.25Z"/><polygon class="cls-4" points="160.56 274.57 40.18 203.52 40.3 216.41 138.46 275.14 160.56 274.57"/><path d="M85.25,275.25a43.53,43.53,0,0,0-44.87-22.51v22.51Z"/><polygon class="cls-8" points="40.88 275.75 41.93 275.75 40.88 271 40.88 275.75"/><path class="cls-12" d="M53.31,259a3.5,3.5,0,1,0-6.89.44h-.05L46.5,276l3.25-.21c1.46-5.86,3.6-16.76,3.6-16.76Z"/><path class="cls-12" d="M45,257.47h0a3.39,3.39,0,0,0-4.12-3V271l1.05,4.75h3C45.24,270.12,45,257.47,45,257.47Z"/><path class="cls-12" d="M61.56,262a3.43,3.43,0,0,0,.13-.49,3.5,3.5,0,1,0-6.94-.61h0l-3.24,14.87h3.83C58,270.17,61.61,262,61.61,262Z"/><path class="cls-12" d="M68.64,265.87a3.44,3.44,0,0,0,.2-.46,3.5,3.5,0,1,0-6.76-1.68l0,0-4.67,12h4.83c3.16-4.67,6.5-9.86,6.5-9.86Z"/><path class="cls-12" d="M75.39,270.84l0,0a3.5,3.5,0,1,0-6-3.45l0,0-5.5,8.41h6.63C73.19,273.06,75.39,270.84,75.39,270.84Z"/><path class="cls-12" d="M81.06,271.91a3.41,3.41,0,0,0-5.26.53l0,0-3.54,3.34h9.67A3.5,3.5,0,0,0,81.06,271.91Z"/><polygon class="cls-4" points="138.2 275.18 40.91 216.91 41.2 225.19 126.79 275.4 138.2 275.18"/><line class="cls-4" x1="45.11" y1="219.42" x2="45.11" y2="227.21"/><line class="cls-4" x1="50.11" y1="222.42" x2="50.11" y2="230.21"/><line class="cls-4" x1="55.11" y1="225.42" x2="55.11" y2="233.21"/><line class="cls-4" x1="60.11" y1="228.42" x2="60.11" y2="236.21"/><line class="cls-4" x1="65.11" y1="231.42" x2="65.11" y2="239.21"/><line class="cls-4" x1="70.11" y1="234.42" x2="70.11" y2="242.21"/><line class="cls-4" x1="75.11" y1="237.42" x2="75.11" y2="244.88"/><line class="cls-4" x1="80.11" y1="240.3" x2="80.11" y2="247.76"/><line class="cls-4" x1="85.11" y1="243.17" x2="85.11" y2="250.63"/><line class="cls-4" x1="90.11" y1="246.04" x2="90.11" y2="253.5"/><line class="cls-4" x1="95.11" y1="248.92" x2="95.11" y2="256.38"/><line class="cls-4" x1="100.11" y1="251.79" x2="100.11" y2="259.25"/><line class="cls-4" x1="105.11" y1="255.42" x2="105.11" y2="262.88"/><line class="cls-4" x1="110.11" y1="258.3" x2="110.11" y2="265.76"/><line class="cls-4" x1="115.11" y1="261.17" x2="115.11" y2="268.63"/><line class="cls-4" x1="120.11" y1="264.04" x2="120.11" y2="271.5"/><line class="cls-4" x1="125.11" y1="266.92" x2="125.11" y2="274.38"/><line class="cls-13" x1="130.11" y1="269.79" x2="130.11" y2="275.25"/><path class="cls-14" d="M98.42,179.87a12.49,12.49,0,0,1-19.94-14.73l-.29-.25a14.57,14.57,0,0,1-2.75,2.41A14.48,14.48,0,0,0,98.1,182.82a14.36,14.36,0,0,1,.74-2.71Z"/><path class="cls-8" d="M76.88,171.25a12.49,12.49,0,0,0,21.54,8.62,147.09,147.09,0,0,1-19.94-14.73A12.43,12.43,0,0,0,76.88,171.25Z"/><path class="cls-14" d="M123.15,191.56a12.49,12.49,0,0,1-22.55-10.48l-.4-.21-1.37-.77a14.36,14.36,0,0,0-.74,2.71,14.48,14.48,0,0,0,26,10.93,14.38,14.38,0,0,1,.38-1.64Z"/><path class="cls-8" d="M100.6,181.09a12.49,12.49,0,0,0,22.55,10.48c-7.77-3.23-15.24-6.8-21.28-9.81Z"/><path class="cls-8" d="M125.88,196.25a12.5,12.5,0,0,0,24.37,3.89c-7.22-1.21-15.63-4-23.9-7.28A12.48,12.48,0,0,0,125.88,196.25Z"/><path class="cls-14" d="M150.47,200.18l-.22,0a12.49,12.49,0,0,1-23.9-7.28l-1.33-.53-.54-.22a14.5,14.5,0,0,0,27.77,8.33Q151.37,200.33,150.47,200.18Z"/><path class="cls-14" d="M76.94,163.82l-.27-.23a12.49,12.49,0,0,1-21.8-8.33s0,0,0-.06l-1.93,1.47a14.47,14.47,0,0,0,25.24,8.23Z"/><path class="cls-8" d="M54.88,155.25a12.49,12.49,0,0,0,21.8,8.33c-8-6.95-14.06-13.08-14.73-13.77l-7.06,5.37S54.88,155.23,54.88,155.25Z"/><path class="cls-14" d="M151.88,204.25a12.49,12.49,0,0,1,.59-3.78,37.36,37.36,0,0,0,5.41.31v-.44A40.12,40.12,0,0,1,151,200a14,14,0,0,0,6.84,16.63v-1.73A12.48,12.48,0,0,1,151.88,204.25Z"/><path class="cls-14" d="M152.46,200.47a12.48,12.48,0,0,0,5.41,14.44V200.78A37.36,37.36,0,0,1,152.46,200.47Z"/><rect class="cls-8" x="136.87" y="35.75" width="6.83" height="67"/><rect class="cls-8" x="143.71" y="35.75" width="6.83" height="67"/><rect class="cls-8" x="150.54" y="35.75" width="6.83" height="67"/><path class="cls-4" d="M71.88,132.75a10,10,0,0,1,10-10V111.28a22.5,22.5,0,0,0-16.95,36l9.59-7.81A10,10,0,0,1,71.88,132.75Z"/><path class="cls-4" d="M71.88,132.75a10,10,0,0,0,2.64,6.76l7.36-6V122.75A10,10,0,0,0,71.88,132.75Z"/><polygon class="cls-8" points="136.88 152.94 90.25 126.94 90.17 127 136.88 153.05 136.88 152.94"/><path class="cls-8" d="M87.06,148.56l49.82,27.79v-7.77l-58-32.34-2.52,2.22S80.82,143,87.06,148.56Z"/><path class="cls-4" d="M136.88,177.67v-1.09L87.76,149.19a143.87,143.87,0,0,0,23.32,17A159,159,0,0,0,136.88,177.67Z"/><polygon class="cls-4" points="136.88 160.82 84.53 131.62 78.89 136.24 136.88 168.58 136.88 160.82"/><polygon class="cls-8" points="136.88 153.05 90.17 127 84.53 131.62 136.88 160.82 136.88 153.05"/><polygon class="cls-4" points="136.88 145.18 95.89 122.32 90.25 126.94 136.88 152.94 136.88 145.18"/><polygon class="cls-8" points="136.88 137.41 101.53 117.7 95.89 122.32 136.88 145.18 136.88 137.41"/><polygon class="cls-4" points="136.88 129.66 107.17 113.08 101.53 117.7 136.88 137.41 136.88 129.66"/><polygon class="cls-8" points="136.88 121.89 112.81 108.47 107.17 113.08 136.88 129.65 136.88 121.89"/><polygon class="cls-4" points="136.88 114.24 118.36 103.91 112.81 108.47 136.88 121.89 136.88 114.24"/><polygon class="cls-8" points="136.88 106.51 123.98 99.31 118.45 103.84 136.88 114.12 136.88 106.51"/><polygon class="cls-4" points="136.88 98.89 129.51 94.78 124 99.29 136.88 106.47 136.88 98.89"/><polygon class="cls-8" points="136.88 91.28 135.04 90.25 129.62 94.69 136.88 98.74 136.88 91.28"/><polygon class="cls-8" points="136.88 98.74 129.62 94.69 129.51 94.78 136.88 98.89 136.88 98.74"/><polygon class="cls-8" points="136.88 88.75 135.15 90.16 136.88 91.13 136.88 88.75"/><polygon class="cls-8" points="136.88 91.13 135.15 90.16 135.04 90.25 136.88 91.28 136.88 91.13"/><polygon class="cls-4" points="39.88 275.75 33.88 275.75 33.88 173.75 39.88 167.75 39.88 275.75"/><path class="cls-2" d="M1.88,205.25v1.5a19.7,19.7,0,0,1,.33-3.11A13.3,13.3,0,0,0,1.88,205.25Z"/><path class="cls-2" d="M3.88,266.75l14-14-14-12,14-12-14-12,14-15-9.09-7.27a17.31,17.31,0,0,0-6.58,9.16,19.7,19.7,0,0,0-.33,3.11v69h18Z"/><rect class="cls-4" x="171.75" y="192.38" width="6.75" height="18" rx="3.18" ry="3.18" transform="translate(-26.25 376.5) rotate(-90)"/><rect class="cls-4" x="173.75" y="185.62" width="6.75" height="18" rx="3.18" ry="3.18" transform="translate(-17.5 371.75) rotate(-90)"/><rect class="cls-4" x="172.75" y="178.87" width="6.75" height="18" rx="3.18" ry="3.18" transform="translate(-11.75 364) rotate(-90)"/><path class="cls-4" d="M162.13,202c1-1,5-3,6-9,2,3,7,6,7,6V184h-17v27h9.5"/><rect class="cls-4" x="171.25" y="199.63" width="6.75" height="17" rx="3.09" ry="3.09" transform="translate(-33.5 382.75) rotate(-90)"/><path class="cls-8" d="M81.88,35.75v16a16.71,16.71,0,0,1,6-1c7,0,10,4,10,4s-3-4-10-4a16.71,16.71,0,0,0-6,1v5.39a10.71,10.71,0,0,0,6,1.64c5,0,9-4,9-5,0,1-4,5-9,5a10.71,10.71,0,0,1-6-1.64v59.64l55-32v-49Z"/><path class="cls-10" d="M157.88,182.75,149,181.9A33.89,33.89,0,0,0,157.88,182.75Z"/><path class="cls-10" d="M136.88,88.75v89.42A82,82,0,0,0,149,181.9l8.91.85v-81Z"/><path class="cls-15" d="M155.37,166.39c-.15-4.18-5.43-2.57-5.43-2.57a3.1,3.1,0,0,0,1.51-2.77c.11-2.93-2.67-3.08-3.31-3.08s-3.42.15-3.31,3.08a3.1,3.1,0,0,0,1.51,2.77s-5.28-1.61-5.43,2.57c-.1,3,4.3,4.26,6.9.9a4.9,4.9,0,0,1-4.35,3.89,34.13,34.13,0,0,0,4.68,0,34.13,34.13,0,0,0,4.68,0,4.9,4.9,0,0,1-4.35-3.89C151.07,170.65,155.48,169.37,155.37,166.39Z"/><path class="cls-15" d="M155.37,139.39c-.15-4.18-5.43-2.57-5.43-2.57a3.1,3.1,0,0,0,1.51-2.77c.11-2.93-2.67-3.08-3.31-3.08s-3.42.15-3.31,3.08a3.1,3.1,0,0,0,1.51,2.77s-5.28-1.61-5.43,2.57c-.1,3,4.3,4.26,6.9.9a4.9,4.9,0,0,1-4.35,3.89,34.13,34.13,0,0,0,4.68,0,34.13,34.13,0,0,0,4.68,0,4.9,4.9,0,0,1-4.35-3.89C151.07,143.65,155.48,142.37,155.37,139.39Z"/><path class="cls-15" d="M155.37,110.39c-.15-4.18-5.43-2.57-5.43-2.57a3.1,3.1,0,0,0,1.51-2.77c.11-2.93-2.67-3.08-3.31-3.08s-3.42.15-3.31,3.08a3.1,3.1,0,0,0,1.51,2.77s-5.28-1.61-5.43,2.57c-.1,3,4.3,4.26,6.9.9a4.9,4.9,0,0,1-4.35,3.89,34.13,34.13,0,0,0,4.68,0,34.13,34.13,0,0,0,4.68,0,4.9,4.9,0,0,1-4.35-3.89C151.07,114.65,155.48,113.37,155.37,110.39Z"/></svg>