<svg id="Слой_1" data-name="Слой 1" xmlns="http://www.w3.org/2000/svg" viewBox="0 0 203 284" width="203" height="284"><defs><style>.cls-1{fill:gray;}.cls-1,.cls-10,.cls-11,.cls-12,.cls-2,.cls-3,.cls-4,.cls-5,.cls-6,.cls-8,.cls-9{stroke:#000;stroke-linecap:round;stroke-linejoin:round;}.cls-1,.cls-2,.cls-3,.cls-4,.cls-5,.cls-6{stroke-width:1.5px;}.cls-11,.cls-2,.cls-7,.cls-8{fill:#fff;}.cls-10,.cls-3{fill:none;}.cls-4,.cls-9{fill:#940a0a;}.cls-5{fill:#1a1a1a;}.cls-12,.cls-6{fill:#a3853a;}.cls-8{stroke-width:1.59px;}.cls-10,.cls-11,.cls-12,.cls-9{stroke-width:1.53px;}</style></defs><title>JackOfDiamond</title><rect class="cls-1" x="182.5" y="95.46" width="4" height="55"/><rect class="cls-1" x="178.5" y="147.96" width="4" height="2.5"/><rect class="cls-1" x="178.5" y="95.96" width="4" height="4.52"/><rect class="cls-1" x="178.5" y="100.48" width="4" height="7.91"/><rect class="cls-1" x="178.5" y="108.39" width="4" height="7.91"/><rect class="cls-1" x="178.5" y="116.3" width="4" height="7.91"/><rect class="cls-1" x="178.5" y="124.22" width="4" height="7.91"/><rect class="cls-1" x="178.5" y="132.13" width="4" height="7.91"/><rect class="cls-1" x="178.5" y="140.04" width="4" height="7.91"/><rect class="cls-1" x="178.5" y="95.46" width="4" height="55"/><polygon class="cls-1" points="182.5 49.45 197.5 76.45 186.5 95.45 182.5 95.45 182.5 49.45"/><polygon class="cls-1" points="182.5 61.45 182.5 49.45 175.83 61.45 182.5 61.45"/><polygon class="cls-1" points="171.67 68.95 182.5 68.95 182.5 61.45 175.83 61.45 171.67 68.95"/><polygon class="cls-1" points="171.5 69.25 167.5 76.45 167.79 76.95 182.5 76.95 182.5 69.45 171.5 69.45 171.5 69.25"/><polygon class="cls-1" points="171.67 68.95 171.5 68.95 171.5 69.25 171.67 68.95"/><polygon class="cls-1" points="172.42 84.95 182.5 84.95 182.5 76.95 167.79 76.95 172.42 84.95"/><polygon class="cls-1" points="177.05 92.95 182.5 92.95 182.5 84.95 172.42 84.95 177.05 92.95"/><polygon class="cls-1" points="178.5 95.45 182.5 95.45 182.5 92.95 177.05 92.95 178.5 95.45"/><rect class="cls-2" x="76.5" y="49.46" width="57" height="66"/><path class="cls-3" d="M69,146.21h0l-.5.54h0Z"/><path class="cls-3" d="M40.5,181.34c-3.58,5.08-7.16,10.49-10.6,16.16,3.44-5.66,7-11.06,10.6-16.14Z"/><path class="cls-3" d="M40.5,181.35a344.41,344.41,0,0,1,28-34.61h0a343.89,343.89,0,0,0-28,34.6Z"/><path class="cls-3" d="M76.5,138.46s-2.89,2.79-7.5,7.75h0C73.61,141.24,76.5,138.46,76.5,138.46Z"/><path class="cls-3" d="M68.5,146.75v84.68l.5.44V146.21Z"/><polygon class="cls-3" points="29.89 197.51 29.89 197.51 29.9 197.5 29.89 197.51"/><path class="cls-3" d="M29.9,197.5h0l10.61,9.32V181.35C36.92,186.44,33.34,191.84,29.9,197.5Z"/><path class="cls-3" d="M40.5,181.35v25.47l28,24.6V146.75A344.41,344.41,0,0,0,40.5,181.35Z"/><path class="cls-3" d="M76.5,138.46s-2.89,2.79-7.5,7.75v85.66l7.5,6.59Z"/><path class="cls-4" d="M76.5,238.46v-100a373.83,373.83,0,0,0-47.94,61.26C5,238,1.5,281.46,1.5,281.46h122Z"/><path class="cls-4" d="M120.75,123.74c1.08,1.27,5.65,6.64,11.37,13.43,3.54,4.21,7.52,9,11.37,13.64,1.58,1.91,3.13,3.8,4.63,5.64C154,163.7,159,170,160.78,172.8h0c.43.69,1,1.57,1.63,2.6a340,340,0,0,1,22.77,43.75c2.09-.13,14.33,43.3,16.33,62.3v-108s-14-21-27-36-41-42-41-42l-35,19-22-16v22l22,16Z"/><path class="cls-5" d="M185.17,219.15A340,340,0,0,0,162.4,175.4a97.61,97.61,0,0,1-85.9,25.29v37.76l28.62,26.18A104.4,104.4,0,0,1,185.17,219.15Z"/><path class="cls-6" d="M162.4,175.4c-.64-1-1.19-1.92-1.63-2.6h0A94.61,94.61,0,0,1,76.5,197.64v3.05a97.61,97.61,0,0,0,85.9-25.29Z"/><path class="cls-5" d="M160.78,172.8C159,170,154,163.7,148.12,156.45A74.08,74.08,0,0,1,76.5,176.62v21a94.61,94.61,0,0,0,84.28-24.84Z"/><path class="cls-2" d="M148.12,156.45c-1.5-1.84-3.05-3.73-4.63-5.64a66.69,66.69,0,0,1-67,18.28v7.53a74.08,74.08,0,0,0,71.62-20.17Z"/><path class="cls-6" d="M143.48,150.81c-3.86-4.67-7.83-9.43-11.37-13.64A49.14,49.14,0,0,1,76.5,150.5v18.59a66.69,66.69,0,0,0,67-18.28Z"/><path class="cls-5" d="M95,154.12a49,49,0,0,0,37.11-16.94c-5.71-6.79-10.28-12.16-11.37-13.43L98.5,136.46l-22-16v30A49,49,0,0,0,95,154.12Z"/><path class="cls-6" d="M187,223.56q-.91-2.23-1.84-4.41a104.4,104.4,0,0,0-80.05,45.49l3.35,3.07A99.91,99.91,0,0,1,187,223.56Z"/><path class="cls-5" d="M191.5,241.46c.68,0,1.35,0,2,.05-2-6.16-4.17-12.18-6.52-17.95a99.91,99.91,0,0,0-78.54,44.15L121.95,280A81.93,81.93,0,0,1,191.5,241.46Z"/><path class="cls-4" d="M121.95,280c-.29.47-.59.94-.88,1.42h2.43Z"/><path class="cls-2" d="M121.95,280l1.55,1.42h8.31a72.89,72.89,0,0,1,59.69-31c1.58,0,3.14.07,4.69.17-.81-3.06-1.71-6.1-2.67-9.11-.68,0-1.35-.05-2-.05A81.93,81.93,0,0,0,121.95,280Z"/><path class="cls-6" d="M191.5,268.46a55.41,55.41,0,0,1,8.47.65,155.62,155.62,0,0,0-3.77-18.48c-1.55-.1-3.12-.17-4.69-.17a72.89,72.89,0,0,0-59.69,31H156A54.77,54.77,0,0,1,191.5,268.46Z"/><path class="cls-4" d="M200.51,271.89c0,.57,0,1.1,0,1.57-.15-1.45-.33-2.9-.53-4.35a55.41,55.41,0,0,0-8.47-.65,54.77,54.77,0,0,0-35.49,13H201.5Z"/><path class="cls-3" d="M33.74,201l3.78,3.39.25.22L41.56,208l.27.24,3.78,3.38.25.22,3.78,3.38.27.24,3.78,3.38.25.22,3.78,3.38.27.24,4,3.61.27.24,4,3.61.27.24,3.78,3.38.25.22,3.78,3.38.27.24L78.49,241l.25.22,3.78,3.38.27.24,3.78,3.38.25.22,3.78,3.38.27.24,4,3.57,0,0,4,3.57.27.24,3.78,3.38.25.22,3.78,3.38.27.24,4,3.61h0l.31.28L76.5,238.46v-100a328.24,328.24,0,0,0-46.61,59.06l3.58,3.21Z"/><polygon class="cls-7" points="93.4 188.89 87.48 197.43 81.33 188.89 87.48 180 93.4 188.89"/><polygon class="cls-7" points="113.3 186.62 109.35 196.23 101.51 189.21 105.6 179.2 113.3 186.62"/><polygon class="cls-7" points="133.88 180.29 132.28 190.56 123.02 185.55 124.68 174.87 133.88 180.29"/><polygon class="cls-7" points="152.17 167.1 153 177.46 142.83 174.74 141.96 163.97 152.17 167.1"/><polygon class="cls-7" points="168.6 235.5 172.53 225.88 180.38 232.88 176.32 242.9 168.6 235.5"/><polygon class="cls-7" points="147.68 243.05 149.44 232.81 158.62 237.96 156.8 248.62 147.68 243.05"/><polygon class="cls-7" points="129.96 254.7 129.3 244.33 139.42 247.21 140.13 257.99 129.96 254.7"/><polygon class="cls-7" points="115.98 271.55 112.92 261.62 123.43 262.07 126.63 272.39 115.98 271.55"/><path class="cls-3" d="M147,108.73c-6.44-6.42-11.57-11.39-13.52-13.27l-35,19-22-16v22l22,16Z"/><path class="cls-2" d="M120.5,123.46s33,37,47.4,61.19c14.7,24.68,29.6,60.81,33.6,93V227.46s-21.83-41.37-33-57c-10-14-40-46-44.88-48.92A10.81,10.81,0,0,0,120.5,123.46Z"/><path class="cls-3" d="M88.5,91.46s5-2,9,0c.79,0,2-1,12,0"/><path class="cls-3" d="M91.5,96.46a7.65,7.65,0,0,0,5,2c3,0,5,0,7-2"/><path class="cls-3" d="M76.5,56.46h18v25h12s-1-3-3-4"/><path class="cls-3" d="M122.5,56.46h-16s-2,0-2,3"/><circle cx="114" cy="60.96" r="1.5"/><path class="cls-3" d="M123.29,59H104.71A9.51,9.51,0,0,0,111,66h6A9.51,9.51,0,0,0,123.29,59Z"/><path class="cls-3" d="M117.45,59a4,4,0,0,1,.55,2,4,4,0,0,1-8,0,4,4,0,0,1,.55-2h-5.84A9.51,9.51,0,0,0,111,66h6a9.51,9.51,0,0,0,6.26-7Z"/><path class="cls-3" d="M114,65a4,4,0,0,0,4-4,4,4,0,0,0-.55-2h-6.89a4,4,0,0,0-.55,2A4,4,0,0,0,114,65Z"/><circle cx="86" cy="60.96" r="1.5"/><path class="cls-3" d="M95.29,59H76.71A9.51,9.51,0,0,0,83,66h6A9.51,9.51,0,0,0,95.29,59Z"/><path class="cls-3" d="M89.45,59A4,4,0,0,1,90,61a4,4,0,0,1-8,0,4,4,0,0,1,.55-2H76.71A9.51,9.51,0,0,0,83,66h6a9.51,9.51,0,0,0,6.26-7Z"/><path class="cls-3" d="M86,65a4,4,0,0,0,4-4,4,4,0,0,0-.55-2H82.55A4,4,0,0,0,82,61,4,4,0,0,0,86,65Z"/><polygon class="cls-2" points="140.5 49.45 150.5 49.45 150.5 112.45 140.5 102.45 140.5 49.45"/><polygon class="cls-2" points="133.5 49.45 140.5 49.45 140.5 102.95 133.5 95.95 133.5 49.45"/><path class="cls-1" d="M92.89,281.46l-.32.34h.51l.31-.33Z"/><path class="cls-1" d="M100.82,281.46l-.17.18h0l.17-.18Z"/><path class="cls-1" d="M119.34,277.65l.09-.09-.27-.24-.08.09Z"/><path class="cls-1" d="M84.42,281.46l.56.5.47-.5Z"/><path class="cls-1" d="M85.92,281.46l-.46.49,7.11-.15.32-.34Z"/><path class="cls-1" d="M85.46,281.46,85,282h.47l.46-.49Z"/><path class="cls-1" d="M93.39,281.46l-.31.33,7.58-.16.17-.18Z"/><path class="cls-1" d="M100.85,281.46l-.17.18,7.11-.15,0,0Z"/><path class="cls-1" d="M115.11,273.71l-3.47-3.1,3.43,3.14Z"/><path class="cls-1" d="M119.07,277.4l.08-.09-3.78-3.38,0,0Z"/><path class="cls-1" d="M108.26,281.47l.93,0h-.91Z"/><path class="cls-1" d="M107.82,281.46l0,0h.47l0,0Z"/><path class="cls-1" d="M115.32,274l0,0-.25-.22,0,0Z"/><path class="cls-1" d="M123.18,281.17h.27l-4-3.61-.09.09Z"/><path class="cls-1" d="M123.18,281.17l-7.31.15h-.51l-6.18.13H123.5Z"/><path class="cls-1" d="M62,226.28,43.94,245.5l.27.24,18.1-19.22Z"/><path class="cls-1" d="M49.64,215.2,31.51,234.46l.27.24,18.13-19.26Z"/><path class="cls-1" d="M57.73,222.43,39.62,241.66l.27.24L58,222.67Z"/><path class="cls-1" d="M80.92,278.34l.27.24,18-19.11-.27-.24Z"/><path class="cls-1" d="M66.34,230.13l-18.08,19.2.27.24,18.08-19.2Z"/><path class="cls-1" d="M21.11,213.86l-.49,1.05L33.74,201l-.27-.24Z"/><path class="cls-1" d="M82.52,244.59l-18,19.15.27.24,18-19.15Z"/><path class="cls-1" d="M107,266.47l-14.12,15h.5l13.89-14.75Z"/><path class="cls-1" d="M90.61,251.82,72.6,271l.27.24,18-19.13Z"/><path class="cls-1" d="M111.31,270.31l-10.49,11.14h0l10.48-11.13Z"/><path class="cls-1" d="M74.43,237.36,56.37,256.54l.27.24L74.7,237.6Z"/><polygon class="cls-1" points="119.07 277.4 115.37 281.33 115.88 281.32 119.34 277.64 119.07 277.4"/><path class="cls-1" d="M41.56,208,23.39,227.25l.27.24,18.16-19.28Z"/><path class="cls-1" d="M62.31,226.52l-18.1,19.22,4,3.59,18.08-19.2Z"/><path class="cls-1" d="M66.61,230.37l-18.08,19.2,3.79,3.37L70.4,233.75Z"/><path class="cls-1" d="M70.65,234,52.58,253.17l3.79,3.37,18.06-19.18Z"/><path class="cls-1" d="M70.4,233.75,52.32,252.94l.25.22L70.65,234Z"/><path class="cls-1" d="M74.7,237.6,56.64,256.78l3.79,3.37L78.49,241Z"/><path class="cls-1" d="M78.74,241.21l-18,19.17,3.79,3.37,18-19.15Z"/><path class="cls-1" d="M78.49,241,60.44,260.15l.25.22,18-19.17Z"/><path class="cls-1" d="M82.79,244.83,64.76,264l3.79,3.37,18-19.14Z"/><path class="cls-1" d="M86.83,248.44l-18,19.14L72.6,271l18-19.13Z"/><path class="cls-1" d="M86.58,248.21l-18,19.14.25.22,18-19.14Z"/><path class="cls-1" d="M90.89,252.06l-18,19.13,4,3.56,18-19.12Z"/><path class="cls-1" d="M94.92,255.67l-18,19.12,4,3.56,18-19.11Z"/><path class="cls-1" d="M94.88,255.63l-18,19.12,0,0,18-19.12Z"/><path class="cls-1" d="M103,262.86l-3.78-3.38-18,19.11,3.23,2.87h1Z"/><path class="cls-1" d="M103.22,263.08l-17.3,18.37h7l14.12-15Z"/><path class="cls-1" d="M103,262.86l-17.51,18.6h.46l17.3-18.37Z"/><path class="cls-1" d="M107.28,266.71,93.39,281.46h7.43l10.49-11.14Z"/><path class="cls-1" d="M100.85,281.46h7l7.26-7.71-3.43-3.14-.31-.28Z"/><path class="cls-1" d="M119.07,277.4,115.32,274l-7,7.48h.91l6.18-.13Z"/><path class="cls-1" d="M107.82,281.46h.46l7-7.48-.25-.23Z"/><polygon class="cls-1" points="115.88 281.32 123.18 281.17 119.34 277.64 115.88 281.32"/><path class="cls-1" d="M21.11,213.86l12.37-13.13-3.58-3.21c-.44.73-.89,1.46-1.33,2.2C25.85,204.28,23.37,209,21.11,213.86Z"/><path class="cls-1" d="M37.52,204.35,33.74,201,20.61,214.91Q19,218.45,17.5,222l1.85,1.64Z"/><path class="cls-1" d="M37.77,204.58,19.6,223.88l3.79,3.37L41.56,208Z"/><path class="cls-1" d="M37.52,204.35l-18.18,19.3.25.22,18.18-19.3Z"/><path class="cls-1" d="M41.83,208.21,23.67,227.49l3.79,3.37,18.15-19.27Z"/><path class="cls-1" d="M45.86,211.81,27.71,231.08l3.79,3.37L49.64,215.2Z"/><path class="cls-1" d="M45.61,211.59,27.46,230.86l.25.22,18.15-19.27Z"/><path class="cls-1" d="M49.91,215.44,31.78,234.7l3.79,3.37L53.7,218.82Z"/><path class="cls-1" d="M53.95,219,35.83,238.29l3.79,3.37,18.11-19.23Z"/><path class="cls-1" d="M53.7,218.82,35.57,238.07l.25.22L53.95,219Z"/><path class="cls-1" d="M58,222.67,39.89,241.9l4,3.59L62,226.28Z"/><path class="cls-8" d="M77,241l.31-40.26V137.46A95,95,0,0,1,70,145.13v89.38C73,236.95,77,241,77,241Z"/><path class="cls-4" d="M70,234.51V145.13a344.15,344.15,0,0,0-28.5,34.8v28.55C50.06,216.33,60,225.44,70,234.51Z"/><path class="cls-2" d="M41,180.63c-3.79,5.35-7.59,11.08-11.23,17.08L41,208Z"/><path class="cls-4" d="M41.5,208.48V179.93l-.5.7V208Z"/><path class="cls-4" d="M122.79,280.91c.1,0,.17.06.21,0Z"/><path class="cls-2" d="M33,238l-16,9S7.89,266.24,3,277c-.37,2.85-.51,4.49-.51,4.49H4.63L30,257Z"/><path class="cls-2" d="M50.08,254.32l-18.2,2.37s-18.79,17.4-26.42,24.76H14L40.2,270.82Z"/><path class="cls-2" d="M58.14,276.23l-17.8-4.48s-13.77,5.35-24.69,9.7h35.7Z"/><path class="cls-2" d="M13.47,232.57A231.55,231.55,0,0,0,3.19,275.63l13.36-28.17Z"/><polygon class="cls-9" points="168.91 12.73 154.67 21.88 141.46 12.73 128.24 21.88 114 12.73 98.75 20.87 86.55 12.73 72.32 22.9 58.08 12.73 73.91 45.27 153.08 45.27 168.91 12.73"/><polygon class="cls-9" points="73.91 45.27 76.39 50.35 150.61 50.35 153.08 45.27 73.91 45.27"/><polygon class="cls-10" points="58.08 12.73 76.39 50.35 150.61 50.35 168.91 12.73 154.67 21.88 141.46 12.73 128.24 21.88 114 12.73 98.75 20.87 86.55 12.73 72.32 22.9 58.08 12.73"/><path class="cls-11" d="M154.67,29l-13.22-9.15L128.24,29,114,19.85,98.75,28l-12.2-8.13L72.32,30l-9.49-6.78,6.95,13.9h87.84c1.53-3.4,4.63-10.27,6.59-14.26Z"/><polygon class="cls-11" points="76.39 50.35 150.61 50.35 153.08 45.27 73.91 45.27 76.39 50.35"/><polygon class="cls-12" points="69.95 37.13 73.91 45.27 153.08 45.27 157.04 37.13 69.95 37.13"/><circle class="cls-11" cx="58.08" cy="7.65" r="5.08"/><circle class="cls-11" cx="86.04" cy="7.14" r="5.08"/><circle class="cls-11" cx="113.5" cy="7.14" r="5.08"/><circle class="cls-11" cx="140.95" cy="7.14" r="5.08"/><circle class="cls-11" cx="169.42" cy="7.14" r="5.08"/></svg>