<svg id="Слой_1" data-name="Слой 1" xmlns="http://www.w3.org/2000/svg" viewBox="0 0 197 269" width="197" height="269"><defs><style>.cls-1{fill:#1a1a1a;}.cls-1,.cls-2,.cls-3,.cls-4,.cls-5,.cls-6,.cls-8,.cls-9{stroke:#000;stroke-linecap:round;stroke-linejoin:round;stroke-width:1.5px;}.cls-2{fill:#940a0a;}.cls-3,.cls-7{fill:none;}.cls-5{fill:gray;}.cls-6{fill:#a3853a;}.cls-8{fill:#fff;}.cls-9{fill:#ffdc87;}</style></defs><title>JackOfHearts</title><polygon class="cls-1" points="156 235 156.08 251.92 55.51 155.71 63.82 147 156 235"/><path class="cls-2" d="M156,251.75,55.8,156.13c-.91,1-1.84,1.91-2.8,2.87a253.18,253.18,0,0,1-22.81,19.72L122.7,267H156Z"/><polygon class="cls-3" points="33.3 188.06 29.37 184.21 14 197.18 14 204.34 33.3 188.06"/><path class="cls-3" d="M108,49s-11.79-4-15-2c-2,2-1,7,1,10C97,58,108,49,108,49Z"/><path class="cls-4" d="M94,47c2.17.61,1,8,0,9S90,50,94,47Z"/><path class="cls-3" d="M97,47s3,6-1,9.44"/><path class="cls-3" d="M93,47s0-5,3-6c5.77-1.92,14,0,14,0"/><path class="cls-3" d="M94,45c3-1,10,1,13,2l3,1"/><polygon class="cls-3" points="87 36 87 48 77 70 87 70 87 102 134 102 134 36 87 36"/><path class="cls-3" d="M87,71s4-1,7,0,7,3,10,3c2,0,3-2,3-4,1,1,3,4,2,7-.63,1.9-3,4-7,4-3,0-6-3-10-3-5,0-5,1-5,1Z"/><path class="cls-5" d="M174,79l11-10s10,17,10,38c0,23.19-10,42-10,42l-10-10s6-18,6-30S177,83,174,79Z"/><polygon class="cls-3" points="156 229 156.08 234.92 64 147 66.82 144 156 229"/><line class="cls-3" x1="156" y1="235" x2="156.08" y2="251.92"/><path class="cls-3" d="M70.94,170.46a20,20,0,0,0,27.41,26.22Z"/><path class="cls-3" d="M99.08,197.63A20,20,0,0,0,126.38,224Z"/><path class="cls-3" d="M126.94,224.46a20,20,0,0,0,27.41,26.22Z"/><path class="cls-3" d="M87,102a71.44,71.44,0,0,1-1.9,8l14.71,54.06,15.24-4.15L101.19,109c-5.32-4.33-8.73-7-8.73-7Z"/><path class="cls-3" d="M121.52,186.58l15.24-4.15-14.44-55.37c-8.09-7.31-15.79-13.76-21.34-18.28Z"/><path class="cls-3" d="M122.12,126.88l21.12,77.24L156,201v-9l-11.55-43.2C137.6,141.3,129.68,133.71,122.12,126.88Z"/><path class="cls-3" d="M78.06,144.53l15.24-4.15-8.24-30.27a91.26,91.26,0,0,1-10.32,22.21Z"/><polygon class="cls-3" points="92.86 140.31 77.62 144.46 81.24 157.74 103.34 178.8 92.86 140.31"/><path class="cls-6" d="M79.55,156.13l1-.26L74.3,133a135.26,135.26,0,0,1-10.22,13.89L66.82,144Z"/><path class="cls-6" d="M64,147h0l.07-.09Z"/><polygon class="cls-6" points="114.61 159.83 99.37 163.98 103.43 178.89 125.53 199.95 114.61 159.83"/><polygon class="cls-6" points="146.77 218.44 137.33 182.37 122.09 186.51 125.31 199.75 145.33 218.83 146.77 218.44"/><path class="cls-3" d="M45.7,165.87a20,20,0,0,0,24.64,4.81L55.48,156.47c-.81.84-1.64,1.69-2.48,2.53C50.72,161.28,48.26,163.58,45.7,165.87Z"/><path class="cls-7" d="M15.21,189.88l-1.21.86V191Z"/><polygon class="cls-3" points="14 230.98 14.91 232.06 48.92 203.38 45.23 199.76 14 226.11 14 230.98"/><polygon class="cls-2" points="49.09 203.54 14 233.15 14 240 53.01 207.39 49.09 203.54"/><path class="cls-2" d="M14,197l15.12-13-2.53-2.48h0c-4.07,3.1-8,5.94-11.39,8.4L14,191Z"/><polygon class="cls-2" points="37.21 191.89 33.47 188.23 14 204.65 14 211.47 37.21 191.89"/><polygon class="cls-3" points="14 218.64 41.13 195.74 37.4 192.08 14 211.81 14 218.64"/><polygon class="cls-3" points="14 211.81 37.4 192.08 37.21 191.89 14 211.47 14 211.81"/><polygon class="cls-2" points="44.99 199.53 41.3 195.91 14 218.95 14 225.67 44.99 199.53"/><polygon class="cls-3" points="14 226.11 45.23 199.76 44.99 199.53 14 225.67 14 226.11"/><polygon class="cls-3" points="57.26 211.56 53.33 207.71 14 240.63 14 247.77 57.26 211.56"/><polygon class="cls-2" points="61.17 215.39 57.43 211.72 14 248.09 14 254.88 61.17 215.39"/><polygon class="cls-3" points="65.09 219.24 61.35 215.57 14 255.22 14 262.02 65.09 219.24"/><polygon class="cls-3" points="61.35 215.57 61.17 215.39 14 254.88 14 255.22 61.35 215.57"/><path class="cls-3" d="M2,199l12-8v76H2V199s31.9-20.9,51-40c21-21,31-40,34-57h5.46S138,137,156,163V267H106"/><polygon class="cls-7" points="87.81 267 87.81 267 88.08 266.77 87.81 267"/><polygon class="cls-2" points="65.26 219.41 14 262.35 14 267 16.97 267 69.19 223.26 65.26 219.41"/><polygon class="cls-3" points="69.51 223.57 17.65 267 26.17 267 73.44 227.42 69.51 223.57"/><polygon class="cls-2" points="40.83 261.9 77.26 231.17 73.61 227.59 26.56 267 35.27 267 41.08 262.2 40.83 261.9"/><polygon class="cls-3" points="81.18 235.02 77.53 231.44 35.98 267 43.65 267 55.19 257.26 81.18 235.02"/><polygon class="cls-2" points="81.35 235.19 55.19 257.26 43.81 267 52.13 267 85.28 239.04 81.35 235.19"/><polygon class="cls-2" points="43.65 267 43.81 267 55.19 257.26 43.65 267"/><polygon class="cls-3" points="85.6 239.35 52.83 267 61.32 267 89.52 243.2 85.6 239.35"/><polygon class="cls-2" points="89.69 243.37 61.69 267 69.77 267 93.43 247.04 89.69 243.37"/><polygon class="cls-3" points="93.62 247.22 70.17 267 78.26 267 97.36 250.89 93.62 247.22"/><polygon class="cls-3" points="93.43 247.04 69.77 267 70.17 267 93.62 247.22 93.43 247.04"/><polygon class="cls-2" points="101.78 255.22 101.93 255.37 102 255.32 97.44 251.13 78.63 267 87.81 267 88.08 266.77 101.78 255.22"/><polygon class="cls-3" points="101.93 255.37 88.08 266.77 87.81 267 96.3 267 105.7 259.07 101.93 255.37"/><polygon class="cls-3" points="88.08 266.77 101.93 255.37 101.78 255.22 88.08 266.77"/><polygon class="cls-2" points="106.07 258.91 96.53 267 104.99 267 109.6 263.09 106.07 258.91"/><path class="cls-6" d="M31.12,178q-2.29,1.79-4.53,3.5L113.79,267h8.09Z"/><path class="cls-8" d="M114.52,233.2c-2.28,0-3.7,2.24-4,2.79-.32-.56-1.73-2.77-4-2.79-3.69,0-5.84,2.92-4.67,6.42,1.11,3.33,4,5.79,8.62,8.1v.07l.07,0,.07,0v-.07c4.59-2.31,7.51-4.77,8.62-8.1A4.67,4.67,0,0,0,114.52,233.2Z"/><path class="cls-8" d="M86.52,206.2c-2.28,0-3.7,2.24-4,2.79-.32-.56-1.73-2.77-4-2.79-3.69,0-5.84,2.92-4.67,6.42,1.11,3.33,4,5.79,8.62,8.1v.07l.07,0,.07,0v-.07c4.59-2.31,7.51-4.77,8.62-8.1A4.67,4.67,0,0,0,86.52,206.2Z"/><path class="cls-8" d="M58.52,178.2c-2.28,0-3.7,2.24-4,2.79-.32-.56-1.73-2.77-4-2.79-3.69,0-5.84,2.92-4.67,6.42,1.11,3.33,4,5.79,8.62,8.1v.07l.07,0,.07,0v-.07c4.59-2.31,7.51-4.77,8.62-8.1A4.67,4.67,0,0,0,58.52,178.2Z"/><path class="cls-5" d="M156,164.64V163c-1-1.4-2-2.82-3.14-4.27q1.27,1.64,2.41,3.24Z"/><path class="cls-5" d="M148.68,153.59c1.43,1.68,2.79,3.34,4.06,5C151.46,156.93,150.11,155.27,148.68,153.59Z"/><path class="cls-5" d="M144,148.35q2.37,2.59,4.57,5.15Q146.42,150.94,144,148.35Z"/><path class="cls-5" d="M4.14,197.57,2,199Z"/><path class="cls-5" d="M2,267H14V191l-9.86,6.57L2,199Z"/><path class="cls-5" d="M148.6,153.5l.08.09Z"/><path class="cls-5" d="M152.74,158.57l.13.17Z"/><polygon class="cls-5" points="144.03 148.35 144.03 148.35 144.03 148.35 144.03 148.35"/><path class="cls-5" d="M155.28,162q-1.14-1.6-2.41-3.24l-.13-.17c-1.27-1.64-2.63-3.3-4.06-5l-.08-.09q-2.18-2.56-4.57-5.15h0l8.75,32.16.1,0L156,192.8V164.64Z"/><rect class="cls-3" x="134" y="36" width="9" height="66"/><rect class="cls-3" x="143" y="36" width="7" height="66"/><rect class="cls-3" x="150" y="36" width="7" height="66"/><path class="cls-3" d="M107.29,102c14.93,12.51,37.33,32.56,48.71,49l1-49Z"/><path class="cls-6" d="M146.9,139.54q-1.49-1.69-3.05-3.39Q145.41,137.85,146.9,139.54Z"/><path class="cls-6" d="M147.16,139.84q1.53,1.75,3,3.48h0q-1.43-1.73-3-3.48Z"/><path class="cls-6" d="M153.23,147.22h0q-.67-.88-1.38-1.77Q152.56,146.34,153.23,147.22Z"/><path class="cls-6" d="M150.38,143.62q.74.9,1.45,1.79-.71-.89-1.45-1.79Z"/><path class="cls-6" d="M154.72,149.21q-.61-.83-1.25-1.68Q154.12,148.38,154.72,149.21Z"/><path class="cls-6" d="M156,151c-.39-.57-.8-1.14-1.22-1.71Q155.41,150.15,156,151Z"/><path class="cls-6" d="M130.14,122.31q1.54,1.46,3.06,2.94-1.52-1.48-3.06-2.94Z"/><path class="cls-6" d="M133.48,125.52q1.63,1.59,3.24,3.2Q135.11,127.11,133.48,125.52Z"/><path class="cls-6" d="M140.18,132.26q-1.57-1.63-3.18-3.25Q138.62,130.63,140.18,132.26Z"/><path class="cls-6" d="M143.59,135.86h0q-1.53-1.66-3.13-3.32Q142.05,134.2,143.59,135.86Z"/><path class="cls-6" d="M115.76,109.24l3.43,3h0l-3.43-3Z"/><path class="cls-6" d="M122.87,115.57q-1.71-1.55-3.39-3Z"/><path class="cls-6" d="M123.17,115.83q1.67,1.52,3.36,3.09h0q-1.69-1.56-3.36-3.09Z"/><path class="cls-6" d="M129.91,122.09q-1.54-1.47-3.09-2.9Q128.37,120.62,129.91,122.09Z"/><path class="cls-6" d="M130.05,122.22l.09.09h0Z"/><path class="cls-6" d="M111.71,105.74h0l-1.76-1.5Z"/><path class="cls-6" d="M109.89,104.19l-1.66-1.4Z"/><path class="cls-6" d="M112,106l3.46,3h0L112,106Z"/><path class="cls-6" d="M156.28,137.17l-6.15,6.15.25.3,5.89-5.89Z"/><path class="cls-6" d="M110,104.25l-.06-.05Z"/><path class="cls-6" d="M115.45,102l-3.74,3.74.3.25,4-4Z"/><path class="cls-6" d="M109,102h-.55l-.53.53-.63-.53.94.79h0Z"/><path class="cls-6" d="M151.85,145.45l0,0Z"/><path class="cls-6" d="M154.78,149.29l-.06-.08Z"/><path class="cls-6" d="M156.13,144.88v-.56l-2.9,2.9.24.32h0Z"/><path class="cls-6" d="M130,102h-.55l-10.26,10.26.29.26h0Z"/><path class="cls-6" d="M136.45,102l-13.57,13.57h0l.29.27L137,102Z"/><path class="cls-6" d="M129.91,122.09l.14.13-.14-.13Z"/><path class="cls-6" d="M144,102h-.55l-16.92,16.92.29.27h0Z"/><path class="cls-6" d="M156.85,109.15v-.56l-20.14,20.14h0l.29.29h0Z"/><path class="cls-6" d="M156.71,116.29v-.56l-16.53,16.53h0l.27.29h0Z"/><path class="cls-6" d="M156.56,123.44v-.56l-13,13,.27.29h0Z"/><path class="cls-6" d="M156.43,130l-9.52,9.52h0l.26.3,9.25-9.25Z"/><path class="cls-6" d="M157,102h-.55L133.2,125.25h0l.28.27h0Z"/><path class="cls-6" d="M122.45,102l-7,7,.29.26L123,102Z"/><path class="cls-6" d="M156.43,130l.13-6.58-12.71,12.71h0q1.56,1.7,3.05,3.39h0Z"/><path class="cls-6" d="M156.42,130.58l-9.25,9.25q1.53,1.75,3,3.48l6.15-6.15Z"/><path class="cls-6" d="M156.27,137.73l-5.89,5.89q.74.9,1.45,1.79l0,0q.71.89,1.38,1.77l2.9-2.9Z"/><path class="cls-6" d="M153.47,147.53h0q.64.84,1.25,1.68l.06.08c.42.57.82,1.14,1.22,1.71l.13-6.12Z"/><path class="cls-6" d="M156.45,102h-6l-20.31,20.31q1.54,1.46,3.06,2.94h0Z"/><path class="cls-6" d="M156.87,108.58,157,102h0l-23.52,23.52h0q1.63,1.59,3.24,3.2h0Z"/><path class="cls-6" d="M156.72,115.73l.13-6.58L137,129h0q1.61,1.62,3.18,3.25h0Z"/><path class="cls-6" d="M156.71,116.29l-16.25,16.25h0q1.59,1.66,3.13,3.32l13-13Z"/><path class="cls-6" d="M123,102l-7.24,7.24,3.43,3L129.45,102Z"/><path class="cls-6" d="M136.45,102H130l-10.52,10.52h0q1.68,1.49,3.39,3h0Z"/><path class="cls-6" d="M137,102l-13.83,13.83q1.67,1.52,3.36,3.09L143.45,102Z"/><path class="cls-6" d="M150,102h-6l-17.18,17.18h0q1.55,1.44,3.09,2.9h0Z"/><path class="cls-6" d="M150.45,102H150l-20.09,20.09.14.13.09.09Z"/><path class="cls-6" d="M108.45,102h-1.16l.63.53Z"/><path class="cls-6" d="M109,102l-.78.78h0l1.66,1.4.06.05,1.76,1.5,3.74-3.74Z"/><path class="cls-6" d="M116,102l-4,4,3.46,3,7-7Z"/><polygon class="cls-2" points="133.5 80 133.5 102 87 102 87 99 133.5 80"/><polygon class="cls-2" points="95.66 11.04 102.28 20.02 108.89 29 95.66 29 82.43 29 89.05 20.02 95.66 11.04"/><polygon class="cls-2" points="121.88 11.04 128.5 20.02 135.11 29 121.88 29 108.65 29 115.26 20.02 121.88 11.04"/><polygon class="cls-2" points="148.1 11.04 154.71 20.02 161.33 29 148.1 29 134.87 29 141.48 20.02 148.1 11.04"/><polygon class="cls-3" points="160.88 28.46 154.26 19.48 147.65 10.5 160.88 10.5 174.11 10.5 167.49 19.48 160.88 28.46"/><polygon class="cls-3" points="134.66 28.46 128.05 19.48 121.43 10.5 134.66 10.5 147.89 10.5 141.28 19.48 134.66 28.46"/><polygon class="cls-3" points="108.44 28.46 101.83 19.48 95.21 10.5 108.44 10.5 121.68 10.5 115.06 19.48 108.44 28.46"/><polygon class="cls-3" points="82.88 28.46 76.27 19.48 69.65 10.5 82.88 10.5 96.11 10.5 89.5 19.48 82.88 28.46"/><polygon class="cls-5" points="63.5 2 180.5 2 174.6 10 69.4 10 63.5 2"/><polygon class="cls-6" points="82.78 29 161 29 156 36 87.84 36 82.78 29"/><polygon class="cls-5" points="160 74 160 80 166 84 166 267 170 267 170 81 160 74"/><path class="cls-5" d="M177.81,87.29,170,93.67v12l10.29-7.75S179.62,88.57,177.81,87.29Z"/><path class="cls-5" d="M177.81,129.62,170,123.24v-12L180.29,119S179.62,128.34,177.81,129.62Z"/><polygon class="cls-5" points="160 80 160 267 166 267 166 83 160 80"/><polygon class="cls-6" points="143 204 147.2 220.61 155.95 229.05 156 201 143 204"/><path class="cls-9" d="M76.35,175.72a13,13,0,0,0,16.41,15.7Z"/><path class="cls-9" d="M104.52,202.56a13,13,0,0,0,16.08,16Z"/><path class="cls-9" d="M132.35,229.72a13,13,0,0,0,16.41,15.7Z"/><path class="cls-9" d="M50.8,161.15a13,13,0,0,0,14,4.27l-9.32-8.91c-.8.83-1.61,1.66-2.44,2.49S51.55,160.43,50.8,161.15Z"/><path class="cls-9" d="M107.29,102H92.46S138,137,156,163V151C144.62,134.56,122.22,114.51,107.29,102Z"/></svg>