<svg id="Слой_1" data-name="Слой 1" xmlns="http://www.w3.org/2000/svg" viewBox="0 0 190 273" width="190" height="273"><defs><style>.cls-1,.cls-9{fill:#fff;}.cls-1,.cls-3,.cls-4,.cls-5,.cls-6,.cls-7,.cls-8{stroke:#000;stroke-linecap:round;stroke-linejoin:round;}.cls-1,.cls-3,.cls-4,.cls-5,.cls-6,.cls-7{stroke-width:1.5px;}.cls-2,.cls-6{fill:none;}.cls-3{fill:#263352;}.cls-4{fill:#a3853a;}.cls-5{fill:gray;}.cls-7{fill:#1a1a1a;}.cls-8{fill:#ffdc87;stroke-width:1.53px;}</style></defs><title>JackOfSpades </title><rect class="cls-1" x="170.69" y="201.83" width="6.75" height="18" rx="3.18" ry="3.18" transform="translate(-36.77 384.9) rotate(-90)"/><rect class="cls-1" x="172.69" y="195.08" width="6.75" height="18" rx="3.18" ry="3.18" transform="translate(-28.02 380.15) rotate(-90)"/><rect class="cls-1" x="171.69" y="188.33" width="6.75" height="18" rx="3.18" ry="3.18" transform="translate(-22.27 372.4) rotate(-90)"/><path class="cls-1" d="M161.06,211.46c1-1,5-3,6-9,2,3,7,6,7,6v-15h-17v27h9.5"/><rect class="cls-1" x="170.19" y="209.08" width="6.75" height="17" rx="3.09" ry="3.09" transform="translate(-44.02 391.15) rotate(-90)"/><polygon class="cls-2" points="116.7 98.72 116.58 98.8 117.81 99.21 137.81 99.21 116.7 98.72"/><polygon class="cls-2" points="137.81 99.21 123.31 37.71 134.31 86.71 137.81 99.21"/><path class="cls-2" d="M105.45,157.41l-3.07-1.46-.06,0-5-2.4-.06,0-5-2.4-.06,0-5-2.4-.06,0-5-2.4-.06,0-5-2.4-.06,0-5-2.4-.06,0-5-2.4-.45-.22,39,18.86Z"/><path class="cls-2" d="M173.31,170.21c4.14,0,7.5-7.5,7.5-16.75,0-5.9-1.37-11.08-3.43-14.06l-4.07,5.16-4.07-5.16c-2.06,3-3.43,8.16-3.43,14.06C165.81,162.71,169.17,170.21,173.31,170.21Z"/><path class="cls-2" d="M177.37,111.54c2.07-3,3.44-8.17,3.44-14.08,0-9.25-3.36-16.75-7.5-16.75s-7.5,7.5-7.5,16.75c0,5.91,1.37,11.09,3.44,14.08l4.06-5.33Z"/><path class="cls-3" d="M153.28,180.26l-5-2.4-.06,0-5-2.4-.12-.06-5-2.4-.06,0-5-2.4-.06,0-5-2.4-.06,0-5-2.4-.06,0-5-2.4-.06,0-5-2.4-.06,0-1-.49-.15.19,45,21.75v-.52l-3-1.42Z"/><polygon class="cls-1" points="116.31 98.71 116.58 98.8 116.7 98.72 116.31 98.71"/><path class="cls-1" d="M134.31,86.71l-11-49h-36l-8,38h11v1.5l18,.5s5,1,5-2c2,2,4.52,4.13.5,9.5-3.8,1.9-21.69.94-23.5.84v30.66l18.86-12.86,7.14-5.14Zm-40.5-34.5.24.11.1,0,.21.09.14.06.23.09.16.06.28.11.16.06.34.12.16.06.41.15.13,0,1.23.42.82.28.1,0,1.75.58.08,0,.84.27.09,0,1.79.58.09,0,1.68.53.11,0,1.44.45.11,0,.57.18.06,0,1,.3.08,0,.22.07.21.06.05,0,.13,0-14,6a6.7,6.7,0,0,1-.91-1.27v0a9.18,9.18,0,0,1-1-2.93v0c0-.19-.06-.4-.08-.6v-.12a11.23,11.23,0,0,1,.36-4h0c.08-.31.17-.63.28-1s.25-.71.41-1.08c0-3,3-2,3-2l14,5Zm-1.5-5.5a3.1,3.1,0,0,0-2,4,3.1,3.1,0,0,1,2-4c3-1,21,0,21,0S95.31,45.71,92.31,46.71Z"/><path class="cls-1" d="M90.15,86h.16V77.21Z"/><path class="cls-1" d="M113.81,85.21c4-5.37,1.5-7.5-.5-9.5,0,3-5,2-5,2l-18-.5v8.84C92.12,86.15,110,87.11,113.81,85.21Z"/><path class="cls-1" d="M108.42,57.09l.21.06Z"/><path class="cls-1" d="M93.91,61.94a6.7,6.7,0,0,0,.91,1.27s-.09-.1-.23-.27A7.41,7.41,0,0,1,93.91,61.94Z"/><path class="cls-1" d="M108.11,57l.08,0Z"/><path class="cls-1" d="M108.68,57.17l.13,0Z"/><path class="cls-1" d="M93.12,54.24q.12-.47.28-1C93.29,53.61,93.2,53.93,93.12,54.24Z"/><path class="cls-1" d="M92.85,59c0-.19-.06-.4-.08-.6C92.79,58.57,92.82,58.77,92.85,59Z"/><path class="cls-1" d="M93.12,54.24a11.23,11.23,0,0,0-.36,4A11.32,11.32,0,0,1,93.12,54.24Z"/><path class="cls-1" d="M107.09,56.67l.06,0Z"/><path class="cls-1" d="M92.85,59a9.18,9.18,0,0,0,1,2.93,9.11,9.11,0,0,1-.75-1.74A9.29,9.29,0,0,1,92.85,59Z"/><path class="cls-1" d="M95.18,52.76l.16.06Z"/><path class="cls-1" d="M95.68,52.95l.16.06Z"/><path class="cls-1" d="M94.73,52.6l.16.06Z"/><path class="cls-1" d="M94.05,52.32l.1,0Z"/><path class="cls-1" d="M94.36,52.45l.14.06Z"/><path class="cls-1" d="M98.44,53.9l.1,0Z"/><path class="cls-1" d="M101.21,54.81l.09,0Z"/><path class="cls-1" d="M104.86,56l.11,0Z"/><path class="cls-1" d="M106.41,56.46l.11,0Z"/><path class="cls-1" d="M96.25,53.15l.13,0Z"/><path class="cls-1" d="M100.29,54.51l.08,0Z"/><path class="cls-1" d="M103.09,55.41l.09,0Z"/><path class="cls-1" d="M93.81,52.21l17,3-14-5S93.81,49.21,93.81,52.21Z"/><polygon class="cls-3" points="160.64 31.21 180.81 2.21 140.81 15.21 121.81 6.21 98.81 14.21 69.81 3.21 84.44 31.21 160.64 31.21"/><path class="cls-1" d="M108.63,57.15l.05,0Z"/><path class="cls-1" d="M103.18,55.44l1.68.53Z"/><path class="cls-1" d="M105,56l1.44.45Z"/><path class="cls-1" d="M107.15,56.69l1,.3Z"/><path class="cls-1" d="M98.44,53.9l-.82-.28h0Z"/><path class="cls-1" d="M101.3,54.84l1.79.58Z"/><path class="cls-1" d="M100.38,54.54l.84.27Z"/><path class="cls-1" d="M108.2,57l.22.07Z"/><path class="cls-1" d="M106.52,56.5l.57.18Z"/><path class="cls-1" d="M98.54,53.93l1.75.58Z"/><path class="cls-1" d="M98.81,57.21a6,6,0,0,1-4.23,5.73c.14.17.23.27.23.27l14-6-.13,0-.05,0-.21-.06L108.2,57l-.08,0-1-.3-.06,0-.57-.18-.11,0L105,56l-.11,0-1.68-.53-.09,0-1.79-.58-.09,0-.84-.27-.08,0-1.75-.58-.1,0-.82-.28A6,6,0,0,1,98.81,57.21Z"/><path class="cls-1" d="M94.15,52.36l.21.09Z"/><path class="cls-1" d="M95.34,52.83l.34.12Z"/><path class="cls-1" d="M93.81,52.21l.24.11Z"/><polygon class="cls-1" points="93.12 54.24 93.12 54.24 93.12 54.24 93.12 54.24"/><path class="cls-1" d="M94.5,52.51l.23.09Z"/><path class="cls-1" d="M94.89,52.66l.28.11Z"/><path class="cls-1" d="M95.84,53l.41.15Z"/><path class="cls-1" d="M93.81,52.21c-.16.37-.29.73-.41,1.08C93.53,52.94,93.66,52.58,93.81,52.21Z"/><path class="cls-1" d="M93.91,61.94v0Z"/><path class="cls-1" d="M97.61,53.62l-1.23-.42,1.23.42Z"/><path class="cls-1" d="M93.12,54.24h0a3,3,0,0,1,0,5.94,9.11,9.11,0,0,0,.75,1.74v0a7.41,7.41,0,0,0,.68,1,6,6,0,0,0,3-9.32l-1.23-.42-.13,0L95.84,53l-.16-.06-.34-.12-.16-.06-.28-.11-.16-.06-.23-.09-.14-.06-.21-.09-.1,0-.24-.11c-.16.37-.29.73-.41,1.08S93.2,53.93,93.12,54.24Z"/><path d="M92.85,59v0Z"/><path d="M92.77,58.36v0Z"/><polygon points="93.12 54.24 93.12 54.24 93.12 54.24 93.12 54.24"/><path d="M95.81,57.21a3,3,0,0,0-2.69-3h0a11.32,11.32,0,0,0-.36,4v.12c0,.21,0,.41.08.6v0a9.29,9.29,0,0,0,.29,1.19A3,3,0,0,0,95.81,57.21Z"/><polygon class="cls-4" points="87.31 36.71 156.81 36.71 160.64 31.21 84.44 31.21 87.31 36.71"/><polygon class="cls-1" points="148.81 99.21 134.81 38.21 148.81 99.21 155.81 99.21 155.81 38.21 123.31 37.71 137.81 99.21 148.81 99.21"/><path class="cls-5" d="M168.16,221a3.1,3.1,0,0,1-3.09-3.09v-.57a3.1,3.1,0,0,1,3.09-3.09h.09a3.19,3.19,0,0,1-3.18-3.13,7,7,0,0,0-1.76,4.63v9a7,7,0,0,0,7,7h2a7,7,0,0,0,7-7v-3.78a3,3,0,0,1-.34,0Z"/><path class="cls-5" d="M173.31,71.71c-7.46,0-13.5,11.53-13.5,25.75,0,8,1.94,15.23,5,20l4.48-5.88c-2.07-3-3.44-8.17-3.44-14.08,0-9.25,3.36-16.75,7.5-16.75s7.5,7.5,7.5,16.75c0,5.91-1.37,11.09-3.44,14.08l4.48,5.88c3-4.72,5-11.91,5-20C186.81,83.24,180.77,71.71,173.31,71.71Z"/><path class="cls-5" d="M180.81,153.46c0,9.25-3.36,16.75-7.5,16.75s-7.5-7.5-7.5-16.75c0-5.9,1.37-11.08,3.43-14.06l-4.54-5.77c-3,4.72-4.89,11.85-4.89,19.83,0,14.22,6,25.75,13.5,25.75s13.5-11.53,13.5-25.75c0-8-1.9-15.11-4.89-19.83l-4.54,5.77C179.44,142.38,180.81,147.56,180.81,153.46Z"/><path class="cls-5" d="M173.31,114.21c1.5,0,2.89-1,4.06-2.67l-4.06-5.33-4.06,5.33C170.43,113.22,171.82,114.21,173.31,114.21Z"/><path class="cls-5" d="M177.38,139.4c-1.17-1.69-2.57-2.69-4.07-2.69s-2.89,1-4.07,2.69l4.07,5.16Z"/><path class="cls-5" d="M173.31,123.21c-3.24,0-6.21-2.17-8.53-5.8l-6.32,8.3,6.24,7.92c2.34-3.7,5.34-5.92,8.61-5.92s6.27,2.22,8.61,5.92l6.24-7.92-6.32-8.3C179.52,121,176.55,123.21,173.31,123.21Z"/><path class="cls-5" d="M173.31,114.21c-1.5,0-2.89-1-4.06-2.67l-4.48,5.88c2.33,3.62,5.3,5.8,8.53,5.8s6.21-2.17,8.53-5.8l-4.48-5.88C176.2,113.22,174.81,114.21,173.31,114.21Z"/><path class="cls-5" d="M173.31,127.71c-3.27,0-6.27,2.22-8.61,5.92l4.54,5.77c1.17-1.69,2.57-2.69,4.07-2.69s2.89,1,4.07,2.69l4.54-5.77C179.59,129.93,176.59,127.71,173.31,127.71Z"/><rect class="cls-5" x="158.31" y="180.71" width="29" height="6.5" rx="2.95" ry="2.95"/><path class="cls-5" d="M158.31,190.16v.59a3,3,0,0,0,1.77,2.7h14v.25h10.3a3,3,0,0,0,3-3v-.59a3,3,0,0,0-3-3H161.27A3,3,0,0,0,158.31,190.16Z"/><path class="cls-1" d="M160.08,193.46a2.94,2.94,0,0,0,1.18.25h12.8v-.25Z"/><polygon class="cls-6" points="105.32 157.57 66.31 138.71 105.32 157.57 105.32 157.57"/><polygon class="cls-6" points="157.31 182.71 156.31 182.23 156.31 182.23 157.31 182.71"/><path class="cls-6" d="M63.81,269.18V208c-.28-5.47,0-17.25,0-17.25V141.21l2.5-2.5-6,5.51v.15l-.5.47V270.71h4v-1.53Z"/><polygon class="cls-6" points="43.81 159.39 39.81 163.07 43.81 159.39 43.81 159.39"/><path class="cls-6" d="M3.7,197.06a15.54,15.54,0,0,0-1.86,5.53l.48,68.11L1.84,202.6A15.54,15.54,0,0,1,3.7,197.06Z"/><polygon class="cls-3" points="111.33 160.47 156.31 182.23 156.31 182.23 111.33 160.47 111.33 160.47"/><path class="cls-3" d="M63.81,190.77s-.28,11.78,0,17.25V190.77Z"/><polygon class="cls-6" points="39.31 270.71 29.41 270.71 44.01 270.79 44.01 270.71 43.81 270.71 39.31 270.71"/><polygon class="cls-6" points="137.81 99.21 117.81 99.21 119.31 99.71 90.31 135.71 84.23 133.1 84.23 133.1 103.29 141.92 126.31 99.71 134.31 99.71 116.03 147.81 107.54 143.88 128.56 153.6 140.56 99.71 148.31 99.71 140.31 158.71 137.75 157.85 130.4 154.45 155.81 166.21 155.81 99.21 148.81 99.21 137.81 99.21"/><polygon class="cls-6" points="75.81 129.21 76.51 129.53 89.8 118.02 75.81 129.21"/><polygon class="cls-5" points="79.96 131.13 76.51 129.53 76.31 129.71 84.23 133.1 79.96 131.13"/><polygon class="cls-5" points="79.96 131.13 84.23 133.1 84.23 133.1 79.96 131.13"/><polygon class="cls-5" points="103.29 141.92 107.54 143.88 103.29 141.92 103.29 141.92"/><polygon class="cls-5" points="134.31 99.71 126.31 99.71 103.29 141.92 107.54 143.88 116.03 147.81 134.31 99.71"/><polygon class="cls-5" points="128.56 153.6 130.4 154.45 128.56 153.6 128.56 153.6"/><polygon class="cls-5" points="140.31 158.71 148.31 99.71 140.56 99.71 128.56 153.6 130.4 154.45 137.75 157.85 140.31 158.71"/><polygon class="cls-5" points="112.84 101.35 109.17 103.85 91.31 116.71 89.8 118.02 90.81 117.21 112.84 101.35"/><polygon class="cls-5" points="76.51 129.53 76.51 129.53 79.96 131.13 76.51 129.53"/><polygon class="cls-5" points="115.98 99.21 117.81 99.21 116.58 98.8 115.98 99.21"/><polygon class="cls-5" points="115.81 99.21 115.98 99.21 116.58 98.8 116.31 98.71 109.17 103.85 112.84 101.35 115.81 99.21"/><polygon class="cls-5" points="84.23 133.1 90.31 135.71 119.31 99.71 117.81 99.21 115.98 99.21 112.84 101.35 90.81 117.21 89.8 118.02 76.51 129.53 79.96 131.13 84.23 133.1"/><polygon class="cls-5" points="112.84 101.35 115.98 99.21 115.81 99.21 112.84 101.35"/><polygon class="cls-4" points="82.03 146.22 87.59 134.92 87.53 134.9 81.97 146.19 82.03 146.22"/><polygon class="cls-4" points="153.52 179.93 156.31 174.24 156.31 174.1 153.46 179.9 153.52 179.93"/><polygon class="cls-4" points="153.34 180.29 153.52 179.93 153.46 179.9 153.28 180.26 153.34 180.29"/><polygon class="cls-4" points="67.31 137.81 66.31 138.71 66.77 138.93 67.31 137.81"/><polygon class="cls-4" points="76.94 143.79 82.47 132.56 82.41 132.53 76.89 143.76 76.94 143.79"/><polygon class="cls-4" points="71.85 141.36 77.35 130.19 77.29 130.16 71.8 141.33 71.85 141.36"/><polygon class="cls-4" points="139.09 170.75 143.91 160.97 143.85 160.94 139.04 170.72 139.09 170.75"/><polygon class="cls-4" points="138.01 172.96 139.09 170.75 139.04 170.72 137.95 172.94 138.01 172.96"/><polygon class="cls-4" points="119.95 158.57 123.42 151.5 123.37 151.47 119.9 158.53 119.95 158.57"/><polygon class="cls-4" points="117.65 163.24 119.95 158.57 119.9 158.53 117.6 163.21 117.65 163.24"/><polygon class="cls-4" points="124.73 161.61 128.54 153.87 128.49 153.84 124.68 161.58 124.73 161.61"/><polygon class="cls-4" points="122.74 165.67 124.73 161.61 124.68 161.58 122.68 165.64 122.74 165.67"/><polygon class="cls-4" points="123.42 151.5 119.95 158.57 117.65 163.24 122.68 165.64 124.68 161.58 128.49 153.84 123.42 151.5"/><polygon class="cls-4" points="129.52 164.66 133.66 156.23 133.61 156.21 129.47 164.63 129.52 164.66"/><polygon class="cls-4" points="127.83 168.1 129.52 164.66 129.47 164.63 127.77 168.07 127.83 168.1"/><polygon class="cls-4" points="115.16 155.52 118.31 149.13 118.25 149.1 115.11 155.49 115.16 155.52"/><polygon class="cls-4" points="112.56 160.81 115.16 155.52 115.11 155.49 112.51 160.78 112.56 160.81"/><polygon class="cls-4" points="108.24 156.82 113.19 146.76 113.13 146.74 108.13 156.91 108.24 156.82"/><polygon class="cls-4" points="107.49 158.35 108.24 156.82 108.13 156.91 107.43 158.32 107.49 158.35"/><polygon class="cls-4" points="102.39 155.94 108.07 144.4 108.01 144.37 102.33 155.92 102.39 155.94"/><path class="cls-4" d="M105.45,157.41h0l1.25.59,1.41-1.08,5-10.17-5.06-2.34-5.68,11.55Z"/><polygon class="cls-4" points="108.13 156.91 106.72 157.99 107.43 158.32 108.13 156.91"/><polygon class="cls-4" points="134.31 167.71 138.78 158.6 138.73 158.58 134.25 167.67 134.31 167.71"/><polygon class="cls-4" points="132.92 170.53 134.31 167.71 134.25 167.67 132.86 170.5 132.92 170.53"/><polygon class="cls-4" points="143.94 173.84 149.09 163.37 148.97 163.31 143.83 173.76 143.94 173.84"/><polygon class="cls-4" points="143.16 175.43 143.94 173.84 143.83 173.76 143.04 175.37 143.16 175.43"/><polygon class="cls-4" points="148.73 176.88 154.21 165.74 154.15 165.71 148.68 176.85 148.73 176.88"/><polygon class="cls-4" points="148.25 177.86 148.73 176.88 148.68 176.85 148.19 177.83 148.25 177.86"/><polygon class="cls-4" points="97.3 153.51 102.95 142.03 102.89 142 97.24 153.49 97.3 153.51"/><polygon class="cls-4" points="92.21 151.08 97.83 139.66 97.77 139.63 92.15 151.05 92.21 151.08"/><polygon class="cls-4" points="87.12 148.65 92.71 137.29 92.65 137.26 87.06 148.62 87.12 148.65"/><polygon class="cls-4" points="92.15 151.05 97.77 139.63 92.71 137.29 87.12 148.65 92.15 151.05"/><polygon class="cls-4" points="76.89 143.76 82.41 132.53 77.35 130.19 71.85 141.36 76.89 143.76"/><polygon class="cls-4" points="71.8 141.33 77.29 130.16 76.31 129.71 67.31 137.81 66.77 138.93 71.8 141.33"/><polygon class="cls-4" points="81.97 146.19 87.53 134.9 82.47 132.56 76.94 143.79 81.97 146.19"/><polygon class="cls-4" points="87.06 148.62 92.65 137.26 87.59 134.92 82.03 146.22 87.06 148.62"/><polygon class="cls-4" points="97.24 153.49 102.89 142 97.83 139.66 92.21 151.08 97.24 153.49"/><polygon class="cls-4" points="102.33 155.92 108.01 144.37 102.95 142.03 97.3 153.51 102.33 155.92"/><path class="cls-4" d="M113.19,146.76l-4.95,10.06-.75,1.53,4,1.89,0,0,1,.49,2.6-5.29,3.14-6.38Z"/><polygon class="cls-4" points="118.31 149.13 115.16 155.52 112.56 160.81 117.6 163.21 119.9 158.53 123.37 151.47 118.31 149.13"/><polygon class="cls-4" points="128.54 153.87 124.73 161.61 122.74 165.67 127.77 168.07 129.47 164.63 133.61 156.21 128.54 153.87"/><polygon class="cls-4" points="138.78 158.6 134.31 167.71 132.92 170.53 137.95 172.94 139.04 170.72 143.85 160.94 138.78 158.6"/><polygon class="cls-4" points="133.66 156.23 129.52 164.66 127.83 168.1 132.86 170.5 134.25 167.67 138.73 158.58 133.66 156.23"/><polygon class="cls-4" points="143.91 160.97 139.09 170.75 138.01 172.96 143.04 175.37 143.83 173.76 148.97 163.31 143.91 160.97"/><polygon class="cls-4" points="154.21 165.74 148.73 176.88 148.25 177.86 153.28 180.26 153.46 179.9 156.31 174.1 156.31 166.71 154.21 165.74"/><polygon class="cls-4" points="149.09 163.37 143.94 173.84 143.16 175.43 148.19 177.83 148.68 176.85 154.15 165.71 149.09 163.37"/><polygon class="cls-4" points="156.31 181.71 156.31 174.24 153.52 179.93 156.31 181.71"/><polygon class="cls-4" points="153.34 180.29 156.31 181.71 153.52 179.93 153.34 180.29"/><polygon class="cls-6" points="110.7 257.98 110.65 258.04 107.87 255.27 107.95 255.18 104.82 251.99 104.71 252.11 113.81 261.2 113.83 261.18 110.7 257.98"/><polygon class="cls-6" points="156.31 186.95 157.31 185.8 157.31 182.71 156.31 182.23 156.31 186.95"/><polygon class="cls-6" points="138.47 238.85 157.06 217.99 157.06 217.52 138.47 238.85"/><polygon class="cls-6" points="156.31 199.69 157.06 198.83 157.06 193.46 157.31 193.46 157.31 191.75 156.31 192.9 156.31 199.69"/><path class="cls-6" d="M64.31,210.71c-.25.25-.41-.87-.5-2.69v3.19l38.13,38.13.13-.15Z"/><polygon class="cls-6" points="63.81 269.71 63.81 270.71 65.34 270.71 64.34 269.71 63.81 269.71"/><polygon class="cls-6" points="156.31 212.42 157.06 211.56 157.06 204.78 156.31 205.64 156.31 212.42"/><polygon class="cls-3" points="107.95 255.18 156.31 199.69 156.31 192.9 104.82 251.99 107.95 255.18"/><path class="cls-3" d="M64.31,210.71l37.76,38.48,54.24-62.24v-4.72l-45-21.75a109.75,109.75,0,0,1-47.51,34.75V208C63.91,209.84,64.06,211,64.31,210.71Z"/><polygon class="cls-3" points="110.7 257.98 113.83 261.18 156.31 212.42 156.31 205.64 110.7 257.98"/><path class="cls-7" d="M157.06,218l-18.59,20.86L116.58,264l6.74,6.74h34V220.46h-.25Zm-15.42,40.48a5.71,5.71,0,0,0,2.5,4.56,8.94,8.94,0,0,0,4.9,1.68h-15a8.13,8.13,0,0,0,4.45-1.68,5.72,5.72,0,0,0,2.5-4.56c-2.5,3.69-9.82,4.11-9.75-3.23.27-4.51,10-9.53,10-9.53s9.82,5,10.09,9.53C151.46,262.59,144.14,262.17,141.64,258.47Z"/><polygon class="cls-1" points="157.06 211.56 157.31 211.28 157.31 204.49 157.06 204.78 157.06 211.56"/><polygon class="cls-1" points="157.06 217.99 157.31 217.71 157.31 217.23 157.06 217.52 157.06 217.99"/><polygon class="cls-1" points="157.06 198.83 157.31 198.54 157.31 193.46 157.06 193.46 157.06 198.83"/><path class="cls-1" d="M157.06,218v2.47h.25v-2.75Z"/><path class="cls-7" d="M66.31,138.71l-2.5,2.5v47c2.8-1.13,5.52-2.38,8.19-3.74a103.31,103.31,0,0,0,29.57-22.59c1.29-1.42,2.54-2.86,3.75-4.35Z"/><path class="cls-6" d="M60.31,144.22v-.38L53,150.74l.2,0Z"/><polygon class="cls-6" points="44.23 159 49.85 153.7 43.81 159.39 44.23 159.01 44.23 159"/><path class="cls-6" d="M59.81,155.78V144.85l.5-.47v-.15l-7.13,6.55A8.09,8.09,0,0,1,59.81,155.78Z"/><path class="cls-6" d="M54.54,182.77a8.1,8.1,0,0,1,5.27,3.85V178A8.1,8.1,0,0,1,54.54,182.77Z"/><path class="cls-6" d="M52.82,215a8.08,8.08,0,0,1,7,4v-8.08A8.08,8.08,0,0,1,52.82,215Z"/><path class="cls-6" d="M52.82,263.52a8.08,8.08,0,0,1,7,4v-8.08A8.08,8.08,0,0,1,52.82,263.52Z"/><path class="cls-6" d="M52.82,247.33a8.08,8.08,0,0,1,7,4v-8.08A8.08,8.08,0,0,1,52.82,247.33Z"/><path class="cls-6" d="M54.54,182.77a8,8,0,0,0-4,.13,8,8,0,0,0,4-.13Z"/><path class="cls-6" d="M52.31,166.9a8.09,8.09,0,0,1,7.5,5.07V161.83A8.09,8.09,0,0,1,52.31,166.9Z"/><path class="cls-6" d="M52.82,231.14a8.08,8.08,0,0,1,7,4v-8.08A8.08,8.08,0,0,1,52.82,231.14Z"/><path class="cls-6" d="M52.31,166.9a8.09,8.09,0,0,1-7.69-5.59l-.06,11.37A8.09,8.09,0,0,1,52.31,166.9Z"/><path class="cls-6" d="M52.82,198.77a8.08,8.08,0,0,1,7,4v-8.08A8.08,8.08,0,0,1,52.82,198.77Z"/><path class="cls-6" d="M52.82,263.52a8.09,8.09,0,1,1,0-16.19,8.09,8.09,0,1,1,0-16.19,8.09,8.09,0,1,1,0-16.19,8.09,8.09,0,1,1,0-16.19,8.09,8.09,0,0,1-2.23-15.87,8.1,8.1,0,0,1-6.06-5.68L44,270.71h.77A8.09,8.09,0,0,1,52.82,263.52Z"/><path class="cls-6" d="M43.81,159.76l.44-.4c0-.12,0-.23,0-.35l-.41.38h0Z"/><path class="cls-6" d="M44.22,175a8.09,8.09,0,0,1,.34-2.32l.06-11.37a8.07,8.07,0,0,1-.37-1.94l-.44.4v111H44l.52-93.49A8.08,8.08,0,0,1,44.22,175Z"/><path class="cls-6" d="M106.69,158l-1.24-.59-.13.16,1.19.58Z"/><path class="cls-3" d="M107.42,158.35l-.72-.35-.19.14,4.82,2.33.15-.19-4-1.91Z"/><polygon class="cls-6" points="106.51 158.15 105.32 157.57 105.32 157.57 106.51 158.15 106.51 158.15"/><polygon class="cls-3" points="106.51 158.15 111.33 160.47 111.33 160.47 106.51 158.15 106.51 158.15"/><polygon class="cls-4" points="107.49 158.35 107.43 158.32 107.42 158.35 107.47 158.38 107.49 158.35"/><path class="cls-4" d="M106.72,158l-1.25-.59h0l1.24.59Z"/><polygon class="cls-4" points="107.42 158.35 107.43 158.32 106.72 157.99 106.69 158 107.42 158.35"/><path class="cls-4" d="M107.49,158.35v0l4,1.91,0,0Z"/><path class="cls-1" d="M106.51,158.14l-1.19-.58c-1.21,1.49-2.46,2.93-3.75,4.35A103.31,103.31,0,0,1,72,184.51c-2.67,1.36-5.4,2.61-8.19,3.74v7a109.75,109.75,0,0,0,47.51-34.75Z"/><polygon class="cls-6" points="63.81 269.71 64.34 269.71 63.81 269.18 63.81 269.71"/><polygon class="cls-6" points="116.58 263.97 113.81 261.2 113.81 261.2 104.71 252.11 101.94 249.34 101.94 249.34 63.81 211.21 63.81 221.21 113.31 270.71 123.31 270.71 116.58 263.97 116.58 263.97"/><polygon class="cls-8" points="63.81 225.91 107.61 269.71 63.81 225.91 63.81 226.01 108.52 270.71 113.14 270.71 63.81 221.38 63.81 225.91"/><polygon class="cls-8" points="63.81 221.38 113.14 270.71 113.31 270.71 63.81 221.21 63.81 221.38"/><polygon class="cls-8" points="63.81 230.8 103.72 270.71 108.52 270.71 63.81 226.01 63.81 230.8"/><polygon class="cls-8" points="63.81 235.6 98.92 270.71 103.72 270.71 63.81 230.8 63.81 235.6"/><polygon class="cls-8" points="63.81 240.01 93.51 269.71 63.81 240.01 63.81 240.4 94.13 270.71 98.92 270.71 63.81 235.6 63.81 240.01"/><polygon class="cls-8" points="63.81 245.19 89.33 270.71 94.13 270.71 63.81 240.4 63.81 245.19"/><polygon class="cls-8" points="63.81 249.41 84.11 269.71 63.81 249.41 63.81 249.99 84.53 270.71 89.33 270.71 63.81 245.19 63.81 249.41"/><polygon class="cls-8" points="63.81 254.79 79.73 270.71 84.53 270.71 63.81 249.99 63.81 254.79"/><polygon class="cls-8" points="63.81 259.58 74.94 270.71 79.73 270.71 63.81 254.79 63.81 259.58"/><polygon class="cls-8" points="63.81 263.51 70.01 269.71 63.81 263.51 63.81 264.38 70.14 270.71 74.94 270.71 63.81 259.58 63.81 263.51"/><polygon class="cls-8" points="63.81 268.21 65.31 269.71 64.34 269.71 65.34 270.71 70.14 270.71 63.81 264.38 63.81 268.21"/><polygon class="cls-8" points="64.34 269.71 65.31 269.71 63.81 268.21 63.81 269.18 64.34 269.71"/><polygon class="cls-1" points="102.07 249.19 101.94 249.34 104.71 252.11 104.82 251.99 102.07 249.19"/><polygon class="cls-1" points="156.31 192.9 157.31 191.75 157.31 185.8 156.31 186.95 156.31 192.9"/><polygon class="cls-1" points="104.82 251.99 156.31 192.9 156.31 186.95 102.07 249.19 104.82 251.99"/><polygon class="cls-1" points="101.94 249.34 104.71 252.11 101.94 249.34 101.94 249.34"/><polygon class="cls-1" points="157.06 204.78 157.06 198.83 156.31 199.69 156.31 205.64 157.06 204.78"/><polygon class="cls-1" points="107.87 255.27 110.65 258.04 110.7 257.98 107.95 255.18 107.87 255.27"/><polygon class="cls-1" points="110.7 257.98 156.31 205.64 156.31 199.69 107.95 255.18 110.7 257.98"/><polygon class="cls-1" points="157.06 204.78 157.31 204.49 157.31 198.54 157.06 198.83 157.06 204.78"/><polygon class="cls-1" points="157.06 211.56 156.31 212.42 156.31 215.71 116.31 263.71 138.47 238.85 157.06 217.52 157.06 211.56"/><polygon class="cls-1" points="113.83 261.18 113.81 261.2 116.31 263.71 113.83 261.18"/><polygon class="cls-1" points="116.31 263.71 156.31 215.71 156.31 212.42 113.83 261.18 116.31 263.71"/><polygon class="cls-1" points="116.58 263.97 138.47 238.85 116.31 263.71 116.58 263.97"/><polygon class="cls-1" points="157.06 217.52 157.31 217.23 157.31 211.28 157.06 211.56 157.06 217.52"/><polygon class="cls-1" points="113.81 261.2 113.81 261.2 116.58 263.97 116.58 263.97 116.31 263.71 113.81 261.2"/><polygon class="cls-6" points="52.99 150.74 49.85 153.7 52.99 150.74 52.99 150.74"/><path class="cls-6" d="M44.23,159l9-8.24-.2,0-3.14,3L44.23,159Z"/><path class="cls-6" d="M53.19,150.77l-9,8.24c0,.12,0,.23,0,.35l.38-.35v2.29a8.09,8.09,0,0,0,15.19.53v-6.06A8.09,8.09,0,0,0,53.19,150.77Z"/><path class="cls-6" d="M44.25,159.36a8.07,8.07,0,0,0,.37,1.94V159Z"/><path class="cls-6" d="M52.31,166.9a8.09,8.09,0,0,0-7.75,5.78l0,4.54a8.1,8.1,0,0,0,6.06,5.68,8,8,0,0,1,4-.13A8.1,8.1,0,0,0,59.81,178V172A8.09,8.09,0,0,0,52.31,166.9Z"/><path class="cls-6" d="M44.22,175a8.08,8.08,0,0,0,.32,2.23l0-4.54A8.09,8.09,0,0,0,44.22,175Z"/><path class="cls-6" d="M54.54,182.77a8,8,0,0,1-4,.13,8.09,8.09,0,1,0,9.23,11.83v-8.11A8.1,8.1,0,0,0,54.54,182.77Z"/><path class="cls-6" d="M52.82,198.77a8.09,8.09,0,1,0,7,12.15v-8.11A8.08,8.08,0,0,0,52.82,198.77Z"/><path class="cls-6" d="M52.82,215a8.09,8.09,0,1,0,7,12.15V219A8.08,8.08,0,0,0,52.82,215Z"/><path class="cls-6" d="M52.82,231.14a8.09,8.09,0,1,0,7,12.15v-8.11A8.08,8.08,0,0,0,52.82,231.14Z"/><path class="cls-6" d="M52.82,247.33a8.09,8.09,0,1,0,7,12.15v-8.11A8.08,8.08,0,0,0,52.82,247.33Z"/><path class="cls-6" d="M52.82,263.52a8.09,8.09,0,0,0-8,7.19h15v-3.15A8.08,8.08,0,0,0,52.82,263.52Z"/><path class="cls-9" d="M141.31,245.71s-9.78,5-10,9.53c-.06,7.34,7.25,6.92,9.75,3.23a5.72,5.72,0,0,1-2.5,4.56,8.13,8.13,0,0,1-4.45,1.68h15a8.94,8.94,0,0,1-4.9-1.68,5.71,5.71,0,0,1-2.5-4.56c2.5,3.69,9.82,4.11,9.75-3.23C151.13,250.73,141.31,245.71,141.31,245.71Z"/><polygon class="cls-3" points="39.81 163.07 30.41 171.71 30.41 171.71 39.81 163.07"/><polygon class="cls-3" points="14.31 186.5 20.81 180.53 20.81 180.53 14.31 186.5 14.31 186.5 14.31 186.5"/><polygon class="cls-3" points="14.51 270.63 14.98 185.96 20.81 180.66 20.81 180.53 14.31 186.5 14.31 270.71 20.81 270.71 20.81 270.66 14.51 270.63"/><polygon class="cls-3" points="30.66 171.71 43.81 159.76 43.81 159.39 39.81 163.07 30.41 171.71 30.66 171.71"/><polygon class="cls-3" points="14.51 270.63 20.81 270.66 20.81 256.71 26.56 256.71 26.56 242.71 20.81 242.71 20.81 228.71 27.56 228.71 27.56 213.71 20.81 213.71 20.81 199.71 28.06 199.71 28.06 185.71 20.81 185.71 20.81 180.66 14.98 185.96 14.51 270.63"/><polygon class="cls-3" points="39.31 171.71 39.31 185.71 32.06 185.71 32.06 199.71 39.31 199.71 39.31 213.71 32.56 213.71 32.56 228.71 39.31 228.71 39.31 242.71 33.56 242.71 33.56 256.71 39.31 256.71 39.31 270.71 43.81 270.71 43.81 159.76 30.66 171.71 39.31 171.71"/><polygon class="cls-5" points="14.31 186.5 10.76 189.77 14.31 186.5 14.31 186.5"/><path class="cls-5" d="M14.31,186.5h0l-3.56,3.27a20.39,20.39,0,0,0-4,3.28,20.4,20.4,0,0,1,4-3.28Z"/><path class="cls-5" d="M10.76,189.77a20.4,20.4,0,0,0-4,3.28,19.4,19.4,0,0,0-3,4,15.54,15.54,0,0,0-1.86,5.53l.48,68.11h12V186.5Z"/><polygon class="cls-1" points="30.41 171.71 20.81 180.53 20.81 180.53 30.41 171.71 30.41 171.71"/><polygon class="cls-1" points="30.41 171.71 30.41 171.71 20.81 180.53 20.81 180.53 30.41 171.71"/><polygon class="cls-1" points="20.81 180.53 20.81 180.66 30.66 171.71 30.41 171.71 20.81 180.53"/><polygon class="cls-1" points="20.81 270.71 29.41 270.71 20.81 270.66 20.81 270.71"/><polygon class="cls-1" points="39.31 256.71 33.56 256.71 33.56 242.71 39.31 242.71 39.31 228.71 32.56 228.71 32.56 213.71 39.31 213.71 39.31 199.71 32.06 199.71 32.06 185.71 39.31 185.71 39.31 171.71 30.66 171.71 20.81 180.66 20.81 185.71 28.06 185.71 28.06 199.71 20.81 199.71 20.81 213.71 27.56 213.71 27.56 228.71 20.81 228.71 20.81 242.71 26.56 242.71 26.56 256.71 20.81 256.71 20.81 270.66 29.41 270.71 39.31 270.71 39.31 256.71"/><polygon class="cls-7" points="137.81 99.21 134.31 86.71 116.7 98.72 137.81 99.21"/><polygon class="cls-7" points="134.31 86.71 116.31 98.71 116.7 98.72 134.31 86.71"/><path class="cls-9" d="M88.34,161.74c-.25-4.27-9.56-9-9.56-9s-9.26,4.76-9.51,9c-.06,7,6.87,6.56,9.24,3.06,0,.15,0,.32,0,.49a6,6,0,0,1-2.62,4.65,10.2,10.2,0,0,1-1.25.77h8.46a9,9,0,0,1-1.3-.77,6,6,0,0,1-2.62-4.65c0-.17,0-.34,0-.49C81.46,168.3,88.4,168.7,88.34,161.74Z"/></svg>