<svg id="Слой_1" data-name="Слой 1" xmlns="http://www.w3.org/2000/svg" viewBox="0 0 196 276" width="196" height="276"><defs><style>.cls-1,.cls-3{fill:#1a1a1a;}.cls-1,.cls-10,.cls-11,.cls-12,.cls-14,.cls-15,.cls-18,.cls-19,.cls-2,.cls-4,.cls-5,.cls-6,.cls-7,.cls-8,.cls-9{stroke:#000;}.cls-1,.cls-10,.cls-11,.cls-12,.cls-14,.cls-15,.cls-17,.cls-18,.cls-19,.cls-2,.cls-4,.cls-5,.cls-6,.cls-7,.cls-8,.cls-9{stroke-linecap:round;stroke-linejoin:round;}.cls-1,.cls-11,.cls-12,.cls-14,.cls-15,.cls-4,.cls-6,.cls-7,.cls-8{stroke-width:1.5px;}.cls-10,.cls-11,.cls-2{fill:#263352;}.cls-16,.cls-17,.cls-4{fill:none;}.cls-5{fill:#ffdc87;}.cls-10,.cls-5{stroke-width:1.49px;}.cls-13,.cls-18,.cls-6,.cls-9{fill:#a3853a;}.cls-19,.cls-8{fill:#fff;}.cls-12{fill:#666;}.cls-14{fill:gray;}.cls-15{fill:#4d4d4d;}.cls-17{stroke:#a3853a;stroke-width:1.31px;}.cls-18,.cls-19{stroke-width:0.5px;}</style></defs><title>KingOfClubs</title><path class="cls-1" d="M79,120.75c0,1,86.5,84.5,86.5,84.5L165,95.75l-57,34-23-14Z"/><path class="cls-2" d="M78.49,120.25l-15.32,12c.27,0,.53,0,.79.09l2.2-1.7a12.49,12.49,0,1,1-15.67,12.08h0l2.06-1.59c0-.2.06-.41.09-.61L10.93,173.31S3.13,177.77,2,186.14l.48,88.11,163-1v-67Z"/><path class="cls-3" d="M74.49,123.25l-35,28,121,122h5l1-58Zm-11.5,32a12.5,12.5,0,0,1-12.5-12.5h0l15.67-12.07A12.49,12.49,0,0,1,63,155.25Z"/><polygon class="cls-4" points="165.49 206.25 78.49 120.25 24.38 162.75 25.99 162.75 25.99 274.11 165.49 273.25 165.49 206.25"/><path class="cls-5" d="M24.38,162.75,10.93,173.31S3.13,177.77,2,186.14l.48,88.11,23.5-.14V162.75Z"/><rect class="cls-4" x="144.99" y="41.75" width="8" height="52"/><rect class="cls-4" x="152.99" y="41.75" width="8" height="52"/><rect class="cls-6" x="83.49" y="8.25" width="77" height="19"/><polyline class="cls-4" points="84.49 47.25 99.49 47.25 99.49 75.25 110.49 75.25 110.49 69.25 108.49 66.25"/><path class="cls-4" d="M111,74.36c5.52.72,6.74,4.89,11.31,4.89,5,0,6-4,6-4s1.24,7.17-3,10c-3,2-7.46,1.54-11-2-2-2-8-2-8-2h.17s-6,0-8,2c-3.54,3.54-8,4-11,2-4.24-2.83-3-10-3-10s1,4,6,4c3.57,0,5.1-2.54,8.22-4"/><polyline class="cls-4" points="99.49 86.25 101.49 87.25 112.49 87.25 112.49 86.25"/><polygon class="cls-4" points="83.99 88.75 107.99 101.75 144.99 81.75 144.99 41.75 83.99 41.75 83.99 88.75"/><path class="cls-4" d="M130.49,47.25h-19v10h14s4-3,4-6h-18"/><path class="cls-4" d="M95.21,51.25a4.46,4.46,0,0,1-4.22,6h7.5v-6Z"/><path class="cls-4" d="M86.49,52.75a4.46,4.46,0,0,1,.28-1.5H84v6h7A4.5,4.5,0,0,1,86.49,52.75Z"/><path class="cls-4" d="M95.49,52.75a4.46,4.46,0,0,0-.28-1.5H93a2.5,2.5,0,1,1-4,0H86.76a4.49,4.49,0,1,0,8.72,1.5Z"/><path class="cls-7" d="M88.49,52.75A2.5,2.5,0,1,0,93,51.25H89A2.48,2.48,0,0,0,88.49,52.75Z"/><path class="cls-4" d="M124.49,52.75a4.46,4.46,0,0,0-.28-1.5H122a2.5,2.5,0,1,1-4,0h-2.24a4.49,4.49,0,1,0,8.72,1.5Z"/><path class="cls-7" d="M117.49,52.75a2.5,2.5,0,1,0,4.49-1.5h-4A2.48,2.48,0,0,0,117.49,52.75Z"/><rect class="cls-8" x="83.49" y="27.25" width="77" height="9"/><rect class="cls-4" x="83.49" y="36.25" width="77" height="5"/><rect class="cls-4" x="82.99" y="1.75" width="77" height="6"/><path class="cls-1" d="M152.83,8.25h-3.06c-3.06,2-8.16,8-8.16,13-1-7-8.16-13-8.16-13H130.4c-3.06,2-8.16,8-8.16,13-1-7-8.16-13-8.16-13H111c-3.06,2-8.16,8-8.16,13-1-7-8.16-13-8.16-13H91.65c-3.06,2-8.16,8-8.16,13v6h77v-6C159.47,14.25,152.83,8.25,152.83,8.25Z"/><path class="cls-8" d="M98.49,26.75a5.5,5.5,0,0,0-11,0c0,.17,0,.34,0,.5H98.46C98.48,27.08,98.49,26.92,98.49,26.75Z"/><path class="cls-8" d="M117.49,26.75a5.5,5.5,0,0,0-11,0c0,.17,0,.34,0,.5h10.95C117.48,27.08,117.49,26.92,117.49,26.75Z"/><path class="cls-8" d="M137.49,26.75a5.5,5.5,0,0,0-11,0c0,.17,0,.34,0,.5h10.95C137.48,27.08,137.49,26.92,137.49,26.75Z"/><path class="cls-8" d="M156.49,26.75a5.5,5.5,0,0,0-11,0c0,.17,0,.34,0,.5h10.95C156.48,27.08,156.49,26.92,156.49,26.75Z"/><rect class="cls-6" x="165.49" y="190.25" width="18" height="15"/><polyline class="cls-6" points="185.99 181.75 185.99 61.75 174.99 46.75"/><circle class="cls-6" cx="174.99" cy="226.75" r="7.5"/><polygon class="cls-6" points="186.99 181.75 174.99 181.75 164.99 181.75 164.99 191.75 193.99 191.75 186.99 181.75"/><polyline class="cls-6" points="174.99 46.75 174.99 181.75 185.99 181.75"/><rect class="cls-8" x="179.36" y="203.87" width="6.75" height="18" rx="3.18" ry="3.18" transform="translate(-30.14 395.61) rotate(-90)"/><rect class="cls-8" x="181.36" y="197.12" width="6.75" height="18" rx="3.18" ry="3.18" transform="translate(-21.39 390.86) rotate(-90)"/><rect class="cls-8" x="180.36" y="190.37" width="6.75" height="18" rx="3.18" ry="3.18" transform="translate(-15.64 383.11) rotate(-90)"/><path class="cls-8" d="M169.74,213.5c1-1,5-3,6-9,2,3,7,6,7,6v-15h-17v27h9.5"/><rect class="cls-8" x="178.86" y="211.12" width="6.75" height="17" rx="3.09" ry="3.09" transform="translate(-37.39 401.86) rotate(-90)"/><path class="cls-6" d="M165,181.75v-121l10-14v135"/><line class="cls-6" x1="174.99" y1="60.75" x2="164.99" y2="60.75"/><line class="cls-6" x1="174.99" y1="69.99" x2="164.99" y2="69.99"/><line class="cls-6" x1="174.99" y1="78.3" x2="164.99" y2="78.3"/><line class="cls-6" x1="174.99" y1="86.61" x2="164.99" y2="86.61"/><line class="cls-6" x1="164.99" y1="95.85" x2="174.99" y2="95.85"/><line class="cls-6" x1="174.99" y1="104.16" x2="164.99" y2="104.16"/><line class="cls-6" x1="174.99" y1="112.47" x2="164.99" y2="112.47"/><line class="cls-6" x1="174.99" y1="121.71" x2="164.99" y2="121.71"/><line class="cls-6" x1="174.99" y1="130.02" x2="164.99" y2="130.02"/><line class="cls-6" x1="174.99" y1="138.34" x2="164.99" y2="138.34"/><line class="cls-6" x1="174.99" y1="147.57" x2="164.99" y2="147.57"/><line class="cls-6" x1="174.99" y1="155.89" x2="164.99" y2="155.89"/><line class="cls-6" x1="174.99" y1="164.2" x2="164.99" y2="164.2"/><line class="cls-6" x1="174.99" y1="173.44" x2="164.99" y2="173.44"/><path class="cls-9" d="M134,150.25a5,5,0,1,0,5,5A5,5,0,0,0,134,150.25Zm0,8a3,3,0,1,1,3-3A3,3,0,0,1,134,158.25Z"/><path class="cls-9" d="M134,135.25a5,5,0,1,0,5,5A5,5,0,0,0,134,135.25Zm0,8a3,3,0,1,1,3-3A3,3,0,0,1,134,143.25Z"/><path class="cls-9" d="M134,131.25a5,5,0,1,0-5-5A5,5,0,0,0,134,131.25Zm0-8a3,3,0,1,1-3,3A3,3,0,0,1,134,123.25Z"/><rect class="cls-4" x="141.99" y="103.75" width="7" height="86"/><polygon class="cls-6" points="160.99 272.75 149.99 272.75 33.49 156.25 39.49 151.25 160.99 272.75"/><path class="cls-4" d="M2,186.14c1.12-8.36,8.92-12.82,8.92-12.82l67.56-53.06,87,86v67l-163,1Z"/><path class="cls-10" d="M2,185.27v1.89a24.65,24.65,0,0,1,.42-3.93A16.65,16.65,0,0,0,2,185.27Z"/><path class="cls-10" d="M4.57,262.89,22.4,245.22,4.57,230.08,22.4,214.93,4.57,199.78,22.4,180.85,12,172.66c-2.3,1.67-8,4.6-9.55,10.57A24.65,24.65,0,0,0,2,187.16v87.09H24.95Z"/><path class="cls-6" d="M124.49,273.5c-13-25.25-84-94.25-98-101.25,0,0-1,5-.5,8.18,18.22,12.77,73.42,66.73,91.06,93.33C119.49,274.25,124.49,273.5,124.49,273.5Z"/><path class="cls-4" d="M47.49,198.54c23.9,21.91,56.71,55.83,69.57,75.21-12.86-19.38-45.66-53.3-69.57-75.21v75.71h70"/><polygon class="cls-11" points="47.49 216.49 105.24 274.25 115.35 274.25 47.49 206.38 47.49 216.49"/><polygon class="cls-12" points="47.49 226.62 95.12 274.25 105.23 274.25 47.49 216.51 47.49 226.62"/><polygon class="cls-11" points="47.49 236.74 85 274.25 95.11 274.25 47.49 226.63 47.49 236.74"/><polygon class="cls-12" points="47.49 246.86 74.87 274.25 84.98 274.25 47.49 236.75 47.49 246.86"/><polygon class="cls-11" points="47.49 256.99 64.75 274.25 74.86 274.25 47.49 246.88 47.49 256.99"/><polygon class="cls-12" points="47.49 267.11 54.63 274.25 64.73 274.25 47.49 257 47.49 267.11"/><polygon class="cls-11" points="47.49 274.25 54.61 274.25 47.49 267.13 47.49 274.25"/><path class="cls-12" d="M47.49,198.54v7.83l67.88,67.88s1.51-.09,1.62-.5C109,257.75,47.49,198.54,47.49,198.54Z"/><path class="cls-13" d="M161.3,225.7c-.29-8.41-10.92-5.18-10.92-5.18s2.88-1.35,3-5.58c.23-5.89-5.38-6.2-6.66-6.2s-6.89.3-6.66,6.2c.16,4.23,3,5.58,3,5.58s-10.63-3.23-10.92,5.18c-.21,6,8.66,8.57,13.88,1.82-1,5.58-6,7.44-8.75,7.83a68.7,68.7,0,0,0,9.41-.08,68.7,68.7,0,0,0,9.41.08c-2.79-.39-7.79-2.26-8.75-7.83C152.64,234.27,161.51,231.69,161.3,225.7Z"/><path class="cls-13" d="M107.45,156.34a46.57,46.57,0,0,1-32.09,31.23L77,189.2A48.59,48.59,0,0,0,109,157.9Z"/><path class="cls-13" d="M104.19,153.16l-1.68-1.64a40.24,40.24,0,0,1-1.15,4.18l-9.13-9.13a29.72,29.72,0,0,0,.26-3.83c0-.34,0-.68,0-1l-3.33-3.25A26.45,26.45,0,0,1,65.76,169.1L65.7,169l-.08.08c-.87.09-1.74.13-2.63.13a26.55,26.55,0,0,1-6.58-.82L60,172.1c1,.1,1.95.15,2.94.15s2-.05,2.94-.15l9.27,9.27a40.39,40.39,0,0,1-4.8,1.19l1.68,1.7A42.55,42.55,0,0,0,104.19,153.16ZM91.82,149l8.78,8.78a40.32,40.32,0,0,1-2.32,4.85l-8.19-8.19A29.28,29.28,0,0,0,91.82,149Zm-2.65,7.35,8,8a40.61,40.61,0,0,1-3,4.16l-7.83-7.83A29.52,29.52,0,0,0,89.17,156.34ZM77,180.77l.23-.23-8.8-8.8a29.29,29.29,0,0,0,4.84-1.33l8.32,8.32A40.25,40.25,0,0,1,77,180.77Zm6.42-3-8.15-8.15a29.43,29.43,0,0,0,4-2.2l7.9,7.9A40.55,40.55,0,0,1,83.39,177.73ZM88.7,174l-7.83-7.83a29.68,29.68,0,0,0,4.23-3.94l7.79,7.79A40.73,40.73,0,0,1,88.7,174Z"/><path class="cls-13" d="M132.68,180.79l-1.61-1.62A48.59,48.59,0,0,0,99,210.47l1.6,1.56A46.57,46.57,0,0,1,132.68,180.79Z"/><path class="cls-13" d="M142.27,199.26l.06.06.08-.08c.87-.09,1.74-.13,2.63-.13a26.55,26.55,0,0,1,6.58.82L148,196.27c-1-.1-1.95-.15-2.94-.15s-2,.05-2.94.15L132.83,187a40.39,40.39,0,0,1,4.8-1.19L136,184.1a42.55,42.55,0,0,0-32.11,31.1l1.68,1.64a40.24,40.24,0,0,1,1.15-4.18l9.13,9.13a29.72,29.72,0,0,0-.26,3.83c0,.34,0,.68,0,1l3.33,3.25a26.45,26.45,0,0,1,23.38-30.63ZM131.07,187.6l-.23.23,8.8,8.8a29.29,29.29,0,0,0-4.84,1.33l-8.32-8.32A40.25,40.25,0,0,1,131.07,187.6Zm-6.42,3,8.15,8.15a29.43,29.43,0,0,0-4,2.2l-7.9-7.9A40.55,40.55,0,0,1,124.65,190.64Zm-8.43,28.74-8.78-8.78a40.32,40.32,0,0,1,2.32-4.85l8.19,8.19A29.28,29.28,0,0,0,116.21,219.37Zm2.65-7.35-8-8a40.61,40.61,0,0,1,3-4.16l7.83,7.83A29.52,29.52,0,0,0,118.86,212Zm4.07-5.93-7.79-7.79a40.73,40.73,0,0,1,4.19-4l7.83,7.83A29.68,29.68,0,0,0,122.94,206.1Z"/><path class="cls-13" d="M144.49,251.25a26,26,0,0,1-6.43-.8l3.67,3.67c.91.09,1.83.13,2.76.13a28.91,28.91,0,0,0,21-9v-4.66A26,26,0,0,1,144.49,251.25Z"/><path class="cls-13" d="M155.06,267.45a43.2,43.2,0,0,0,10.43-4.1v-2.09a41.41,41.41,0,0,1-11.94,4.68Z"/><path class="cls-13" d="M159.11,271.5a48.17,48.17,0,0,0,6.38-2.52v-2.27a46.16,46.16,0,0,1-8,3.16Z"/><path class="cls-14" d="M43.87,195.25,42.49,194v1.23Z"/><path class="cls-14" d="M42.49,195.25v79h5V198.54q-1.85-1.69-3.62-3.29Z"/><path class="cls-14" d="M42.49,194c-6.48-5.78-12-10.4-16-13.23v93.47h16V194Z"/><path class="cls-15" d="M38.61,190.6c-2.06-1.79-4-3.44-5.8-4.91a4.15,4.15,0,1,0,5.8,4.91Z"/><circle class="cls-15" cx="34.65" cy="197.73" r="4.16"/><circle class="cls-15" cx="34.65" cy="206.04" r="4.16"/><circle class="cls-15" cx="34.65" cy="214.36" r="4.16"/><circle class="cls-15" cx="34.65" cy="222.68" r="4.16"/><circle class="cls-15" cx="34.65" cy="231" r="4.16"/><circle class="cls-15" cx="34.65" cy="239.32" r="4.16"/><circle class="cls-15" cx="34.65" cy="247.64" r="4.16"/><circle class="cls-15" cx="34.65" cy="255.95" r="4.16"/><circle class="cls-15" cx="34.65" cy="264.27" r="4.16"/><path class="cls-15" d="M38.81,272.59a4.16,4.16,0,1,0-8.13,1.16h7.95A4.11,4.11,0,0,0,38.81,272.59Z"/><path class="cls-16" d="M63,153.25A10.5,10.5,0,0,0,64,132.3l-11.41,8.79A10.43,10.43,0,0,0,63,153.25Z"/><path class="cls-17" d="M66.16,130.67,64,132.3a10.57,10.57,0,1,1-11.41,8.79l-2.14,1.65h0a12.5,12.5,0,1,0,15.67-12.08Z"/><polygon class="cls-6" points="165.49 207.25 165.81 214.66 74.05 123.71 78.03 120.69 165.49 207.25"/><path class="cls-18" d="M150.35,192.27l1.13,1.11,3-3,3.92,3.92-3,3,1,1,3-3,3.92,3.92-3,3,1.13,1.11,3-3,.94.94v-4l-.94.94-3.92-3.92,3.92-3.92.94.94v-4.12l-.94.94-3.92-3.92,3.92-3.92.94.94v-4l-.94.94-3.92-3.92,3.92-3.92.94.94v-4.12l-.94.94-3.92-3.92,3.92-3.92.94.94v-4l-.94.94-3.92-3.92,3.92-3.92.94.94v-4.12l-.94.94-3.92-3.92,3.92-3.92.94.94v-4l-.94.94-3.92-3.92,3.92-3.92.94.94v-4.12l-.94.94-3.92-3.92,3.92-3.92.94.94v-4l-.94.94-3.92-3.92,3.92-3.92.94.94v-4.12l-.94.94-3.92-3.92,3.92-3.92.94.94v-4l-.94.94-2-2h-2.08l2.94,2.94-3.92,3.92-3.92-3.92,2.94-2.94h-2.08l-2,2-2-2h-2.08l2.94,2.94L149.49,103v2.36l3.86,3.86-3.86,3.86v2.2l3.86,3.86L149.49,123v2.36l3.86,3.86-3.86,3.86v2.2l3.86,3.86L149.49,143v2.36l3.86,3.86-3.86,3.86v2.2l3.86,3.86L149.49,163v2.36l3.86,3.86-3.86,3.86v2.2l3.86,3.86L149.49,183v2.36l3.86,3.86Zm13.08-3-3.92,3.92-3.92-3.92,3.92-3.92Zm0-10.08-3.92,3.92-3.92-3.92,3.92-3.92Zm0-9.92-3.92,3.92-3.92-3.92,3.92-3.92Zm0-10.08-3.92,3.92-3.92-3.92,3.92-3.92Zm0-9.92-3.92,3.92-3.92-3.92,3.92-3.92Zm0-10.08-3.92,3.92-3.92-3.92,3.92-3.92Zm0-9.92-3.92,3.92-3.92-3.92,3.92-3.92Zm0-10.08-3.92,3.92-3.92-3.92,3.92-3.92Zm0-9.92-3.92,3.92-3.92-3.92,3.92-3.92Zm-12.88-5,3.92-3.92,3.92,3.92-3.92,3.92Zm0,10.08,3.92-3.92,3.92,3.92-3.92,3.92Zm0,9.92,3.92-3.92,3.92,3.92-3.92,3.92Zm0,10.08,3.92-3.92,3.92,3.92-3.92,3.92Zm0,9.92,3.92-3.92,3.92,3.92-3.92,3.92Zm0,10.08,3.92-3.92,3.92,3.92-3.92,3.92Zm0,9.92,3.92-3.92,3.92,3.92-3.92,3.92Zm0,10.08,3.92-3.92,3.92,3.92-3.92,3.92Zm0,9.92,3.92-3.92,3.92,3.92-3.92,3.92Z"/><rect class="cls-19" x="156.74" y="166.5" width="5.54" height="5.54" transform="translate(-72.97 162.37) rotate(-45)"/><polygon class="cls-19" points="149.49 165.41 149.49 173.13 153.35 169.27 149.49 165.41"/><polygon class="cls-19" points="160.63 174.31 164.55 178.23 165.49 177.29 165.49 171.33 164.55 170.39 160.63 174.31"/><rect class="cls-19" x="151.7" y="171.54" width="5.54" height="5.54" transform="translate(-78.01 160.28) rotate(-45)"/><rect class="cls-19" x="156.74" y="156.42" width="5.54" height="5.54" transform="translate(-65.85 159.41) rotate(-45)"/><polygon class="cls-19" points="149.49 155.33 149.49 163.05 153.35 159.19 149.49 155.33"/><polygon class="cls-19" points="160.63 164.23 164.55 168.15 165.49 167.21 165.49 161.25 164.55 160.31 160.63 164.23"/><rect class="cls-19" x="151.7" y="161.46" width="5.54" height="5.54" transform="translate(-70.89 157.33) rotate(-45)"/><rect class="cls-19" x="156.74" y="186.5" width="5.54" height="5.54" transform="translate(-87.11 168.22) rotate(-45)"/><polygon class="cls-19" points="153.35 189.27 149.49 185.41 149.49 191.41 150.35 192.27 153.35 189.27"/><polygon class="cls-19" points="160.63 194.31 164.55 198.23 165.49 197.29 165.49 191.33 164.55 190.39 160.63 194.31"/><polygon class="cls-19" points="158.39 194.31 154.47 190.39 151.48 193.38 155.42 197.28 158.39 194.31"/><rect class="cls-19" x="156.74" y="176.42" width="5.54" height="5.54" transform="translate(-79.99 165.27) rotate(-45)"/><polygon class="cls-19" points="149.49 175.33 149.49 183.05 153.35 179.19 149.49 175.33"/><polygon class="cls-19" points="160.63 184.23 164.55 188.15 165.49 187.21 165.49 181.25 164.55 180.31 160.63 184.23"/><rect class="cls-19" x="151.7" y="181.46" width="5.54" height="5.54" transform="translate(-85.03 163.18) rotate(-45)"/><polygon class="cls-19" points="163.43 199.19 159.51 195.27 156.46 198.32 160.4 202.22 163.43 199.19"/><polygon class="cls-19" points="161.53 203.33 164.48 206.25 165.49 206.25 165.49 201.25 164.55 200.31 161.53 203.33"/><polygon class="cls-19" points="165.49 97.29 165.49 96.25 162.57 96.25 164.55 98.23 165.49 97.29"/><polygon class="cls-19" points="156.45 96.25 152.49 96.25 154.47 98.23 156.45 96.25"/><rect class="cls-19" x="156.74" y="106.5" width="5.54" height="5.54" transform="translate(-30.55 144.8) rotate(-45)"/><polygon class="cls-19" points="149.49 105.41 149.49 113.13 153.35 109.27 149.49 105.41"/><polygon class="cls-19" points="160.63 114.31 164.55 118.23 165.49 117.29 165.49 111.33 164.55 110.39 160.63 114.31"/><rect class="cls-19" x="151.7" y="111.54" width="5.54" height="5.54" transform="translate(-35.59 142.7) rotate(-45)"/><polygon class="cls-19" points="159.51 103.11 163.43 99.19 160.49 96.25 158.53 96.25 155.59 99.19 159.51 103.11"/><polygon class="cls-19" points="150.41 96.25 149.49 96.25 149.49 103.05 153.35 99.19 150.41 96.25"/><polygon class="cls-19" points="160.63 104.23 164.55 108.15 165.49 107.21 165.49 101.25 164.55 100.31 160.63 104.23"/><rect class="cls-19" x="151.7" y="101.46" width="5.54" height="5.54" transform="translate(-28.46 139.75) rotate(-45)"/><rect class="cls-19" x="156.74" y="126.5" width="5.54" height="5.54" transform="translate(-44.69 150.65) rotate(-45)"/><polygon class="cls-19" points="149.49 125.41 149.49 133.13 153.35 129.27 149.49 125.41"/><polygon class="cls-19" points="160.63 134.31 164.55 138.23 165.49 137.29 165.49 131.33 164.55 130.39 160.63 134.31"/><rect class="cls-19" x="151.7" y="131.54" width="5.54" height="5.54" transform="translate(-49.73 148.56) rotate(-45)"/><rect class="cls-19" x="156.74" y="116.42" width="5.54" height="5.54" transform="translate(-37.56 147.7) rotate(-45)"/><polygon class="cls-19" points="149.49 115.33 149.49 123.05 153.35 119.19 149.49 115.33"/><polygon class="cls-19" points="160.63 124.23 164.55 128.15 165.49 127.21 165.49 121.25 164.55 120.31 160.63 124.23"/><rect class="cls-19" x="151.7" y="121.46" width="5.54" height="5.54" transform="translate(-42.6 145.61) rotate(-45)"/><rect class="cls-19" x="156.74" y="146.5" width="5.54" height="5.54" transform="translate(-58.83 156.51) rotate(-45)"/><polygon class="cls-19" points="149.49 145.41 149.49 153.13 153.35 149.27 149.49 145.41"/><polygon class="cls-19" points="160.63 154.31 164.55 158.23 165.49 157.29 165.49 151.33 164.55 150.39 160.63 154.31"/><rect class="cls-19" x="151.7" y="151.54" width="5.54" height="5.54" transform="translate(-63.87 154.42) rotate(-45)"/><rect class="cls-19" x="156.74" y="136.42" width="5.54" height="5.54" transform="translate(-51.7 153.56) rotate(-45)"/><polygon class="cls-19" points="149.49 135.33 149.49 143.05 153.35 139.19 149.49 135.33"/><polygon class="cls-19" points="160.63 144.23 164.55 148.15 165.49 147.21 165.49 141.25 164.55 140.31 160.63 144.23"/><rect class="cls-19" x="151.7" y="141.46" width="5.54" height="5.54" transform="translate(-56.74 151.47) rotate(-45)"/><path class="cls-8" d="M68.49,105.25c0-2,15-17,15-17l24,13,37-20,20,15-56,33Z"/><line class="cls-8" x1="88.49" y1="91.25" x2="75.36" y2="109.37"/><line class="cls-8" x1="84.99" y1="115.15" x2="95.49" y2="95.25"/><line class="cls-8" x1="102.49" y1="99.25" x2="94.7" y2="120.98"/><line class="cls-8" x1="112.49" y1="98.55" x2="123.11" y2="120.63"/><line class="cls-8" x1="120.99" y1="94.5" x2="133.49" y2="114.25"/><line class="cls-8" x1="128.49" y1="90.67" x2="142.49" y2="109.25"/><line class="cls-8" x1="135.24" y1="86.25" x2="151.49" y2="103.25"/><line class="cls-4" x1="107.49" y1="101.25" x2="107.49" y2="129.25"/></svg>