<svg id="Слой_1" data-name="Слой 1" xmlns="http://www.w3.org/2000/svg" viewBox="0 0 225 276.5" width="225" height="276.5"><defs><style>.cls-1{fill:#940a0a;}.cls-1,.cls-12,.cls-2,.cls-3,.cls-4,.cls-5,.cls-6,.cls-7,.cls-8,.cls-9{stroke:#000;stroke-linecap:round;stroke-linejoin:round;}.cls-1,.cls-12,.cls-2,.cls-4,.cls-5,.cls-6,.cls-7,.cls-9{stroke-width:1.5px;}.cls-10,.cls-3,.cls-4{fill:#fff;}.cls-3{stroke-width:0.27px;}.cls-5{fill:#a3853a;}.cls-6,.cls-8{fill:none;}.cls-11,.cls-7{fill:#ffdc87;}.cls-8{stroke-width:0.75px;}.cls-9{fill:#1a1a1a;}.cls-12{fill:gray;}</style></defs><title>KingOfDiamonds</title><path class="cls-1" d="M217,120.07C206,104,181,85,181,85s-2,23-8,28c-1,11-11,11-11,11H117s-3,21-19,51-45,53-45,53v47H222l.57-144S218.45,122.13,217,120.07Z"/><path class="cls-2" d="M209.53,207a41.5,41.5,0,0,1-39.74-53.46l-6-4.11A100,100,0,0,1,148,164.51a56,56,0,0,0,66.58,62.39l6.91-12.4v-9.27A41.47,41.47,0,0,1,209.53,207Z"/><path class="cls-3" d="M187.53,167.5A21,21,0,0,0,221,184.34l-33.17-20.46A21,21,0,0,0,187.53,167.5Z"/><path d="M144.78,166.65c-.16,1.76-.25,3.55-.25,5.35a59,59,0,0,0,68.2,58.28l-.2.22L188,275s-8-33-31-58c-9.5-10.33-27.1-24.3-40.58-33.71L116,183a138.06,138.06,0,0,0,28.9-16.13Z"/><path class="cls-4" d="M109,105v0A9.49,9.49,0,0,0,109,124v0h53V105Z"/><path class="cls-4" d="M123,42V85l10,8,7-5h11l8,6s15-7,22-18V42Z"/><rect class="cls-4" x="181.03" y="42" width="5" height="50"/><rect class="cls-4" x="186.03" y="42" width="12" height="59"/><polygon class="cls-1" points="115.03 12 125.03 19 137.03 10 150.03 19 161.03 10 173.03 19 185.03 10 198.03 19 208.03 12 202.03 30 119.03 30 115.03 12"/><polygon class="cls-5" points="211.03 2 197.77 11.68 186.79 2 173.89 11.68 160.99 2 149.17 11.68 135.19 2 124.29 11.68 112.03 2 116.23 17.4 115.03 12 125.03 19 137.03 10 150.03 19 161.03 10 173.03 19 185.03 10 198.03 19 208.03 12 211.03 2"/><polygon class="cls-6" points="201.03 34 120.03 34 119.03 30 202.03 30 201.03 34"/><polygon class="cls-7" points="199.57 38 121.49 38 120.53 34 200.53 34 199.57 38"/><polygon class="cls-6" points="198.59 42 122.47 42 121.53 38 199.53 38 198.59 42"/><polyline class="cls-6" points="124.03 50 141.03 50 141.03 76 153.03 76 149.03 70"/><line class="cls-6" x1="151.03" y1="50" x2="171.03" y2="50"/><path class="cls-6" d="M156,84H133c-3,0-7-2-7-6,0-6,7-7,7-7-3,4-1,7,2,7,2.55,0,4-2,9-2"/><path class="cls-6" d="M142.53,84h19c3,0,7-2,7-6,0-6-7-7-7-7,3,4,1,7-2,7-2.55,0-4-2-9-2"/><path class="cls-6" d="M169,88s-1,13-4,16"/><path class="cls-6" d="M158,93s-2,9-4,12"/><path class="cls-6" d="M146,105c4-4,5-17,5-17"/><path class="cls-6" d="M140,88s-1,13-5,17"/><path class="cls-6" d="M133,93s-2,10-5,12"/><path class="cls-6" d="M123,85s-1,16-6,20"/><circle class="cls-6" cx="163.53" cy="114" r="9.5"/><path class="cls-6" d="M124,105A9.49,9.49,0,0,0,124,124"/><path class="cls-6" d="M143.53,105a9.5,9.5,0,0,0,0,19"/><path class="cls-8" d="M137.32,54a5.48,5.48,0,0,1-4.67,7A10,10,0,0,0,140,57V54Z"/><path class="cls-8" d="M126.53,55.5a5.49,5.49,0,0,1,.21-1.5H124v3a10,10,0,0,0,7.38,4A5.5,5.5,0,0,1,126.53,55.5Z"/><path class="cls-8" d="M137.53,55.5a5.49,5.49,0,0,0-.21-1.5h-2.7a3,3,0,1,1-5.17,0h-2.7a5.48,5.48,0,0,0,4.67,7c.21,0,.41,0,.62,0s.41,0,.62,0A5.5,5.5,0,0,0,137.53,55.5Z"/><path class="cls-8" d="M132.65,61c-.21,0-.41,0-.62,0A5.57,5.57,0,0,0,132.65,61Z"/><path class="cls-8" d="M132,61c-.21,0-.41,0-.62,0A5.57,5.57,0,0,0,132,61Z"/><path d="M132,58.5a3,3,0,0,0,2.58-4.5h-5.17A3,3,0,0,0,132,58.5Z"/><path class="cls-8" d="M166.32,54a5.48,5.48,0,0,1-4.67,7A10,10,0,0,0,169,57V54Z"/><path class="cls-8" d="M155.53,55.5a5.49,5.49,0,0,1,.21-1.5H153v3a10,10,0,0,0,7.38,4A5.5,5.5,0,0,1,155.53,55.5Z"/><path class="cls-8" d="M166.53,55.5a5.49,5.49,0,0,0-.21-1.5h-2.7a3,3,0,1,1-5.17,0h-2.7a5.48,5.48,0,0,0,4.67,7c.21,0,.41,0,.62,0s.41,0,.62,0A5.5,5.5,0,0,0,166.53,55.5Z"/><path class="cls-8" d="M161.65,61c-.21,0-.41,0-.62,0A5.57,5.57,0,0,0,161.65,61Z"/><path class="cls-8" d="M161,61c-.21,0-.41,0-.62,0A5.57,5.57,0,0,0,161,61Z"/><path d="M161,58.5a3,3,0,0,0,2.58-4.5h-5.17A3,3,0,0,0,161,58.5Z"/><path class="cls-6" d="M114,137h80c2.06-.14,19-9.9,21-20"/><path class="cls-6" d="M113.53,141.19h81C196.74,141,214.91,131.6,217,121"/><path class="cls-9" d="M107,156c8-3,17-9,22-15l-16.5.5Z"/><polygon class="cls-10" points="206.41 216.46 200.78 222.54 196.89 215.11 202.73 208.78 206.41 216.46"/><polygon class="cls-10" points="222.53 213.5 218.53 220.5 213.9 215.27 218.09 207.74 222.53 213.5"/><polygon class="cls-10" points="188.7 212.25 181.11 215.57 180.51 207.21 188.4 203.74 188.7 212.25"/><polygon class="cls-10" points="175.95 203.13 167.78 204.51 169.24 196.25 177.73 194.81 175.95 203.13"/><polygon class="cls-10" points="165.77 188.93 157.56 187.8 161.41 180.35 169.95 181.51 165.77 188.93"/><polygon class="cls-10" points="159.59 172.38 152.81 167.62 159.64 162.76 166.7 167.7 159.59 172.38"/><polygon class="cls-10" points="161.59 155.38 154.81 150.62 163.53 149.5 167.53 151.5 161.59 155.38"/><polygon class="cls-6" points="196.53 275.5 221.53 230.5 221.53 214.5 187.53 275.5 196.53 275.5"/><path class="cls-6" d="M173,275c-2-13-12-32-27.5-49.5-13.2-14.91-46-42-52-43"/><path class="cls-6" d="M188,275s-8-33-31-58c-15.39-16.73-52-43-58-44"/><path class="cls-4" d="M53,245l18-28,1-7s-13,15-19,18"/><polygon class="cls-4" points="53.03 272 102.03 266 114.03 275 53.03 275 53.03 272"/><polygon class="cls-4" points="53.03 266 97.03 247 114.03 252 101.41 266.08 53.03 272 53.03 266"/><polygon class="cls-4" points="53.03 257 86.03 230 105.03 229 97.03 247 53.03 266 53.03 257"/><polygon class="cls-4" points="53.03 257 86.03 230 89.03 211 71.03 217 53.03 245 53.03 257"/><polygon class="cls-5" points="41.53 274.5 32.53 274.5 32.53 167.5 41.53 161.5 41.53 274.5"/><path class="cls-4" d="M9.27,160l23.26,20.5v40.6L12.88,238.5S-8.83,218.5,9.27,160Z"/><path class="cls-5" d="M19.43,169,9.27,160c-18.09,58.5,3.62,78.5,3.62,78.5l7-6.18C18,228,13.4,215.54,13.4,198,13.4,186.15,17.37,174.31,19.43,169Z"/><path class="cls-5" d="M32.53,180.5l-2.68-2.37a76.15,76.15,0,0,0-3,19.87,95.2,95.2,0,0,0,3.32,25.2l2.36-2.09Z"/><path class="cls-5" d="M203.53,228a56,56,0,0,1-55.45-63.78c-1.1.84-2.2,1.65-3.3,2.42-.16,1.76-.25,3.55-.25,5.35a59,59,0,0,0,68.2,58.28l1.89-3.38A56.25,56.25,0,0,1,203.53,228Z"/><path class="cls-6" d="M220.43,184.63h0A21,21,0,0,1,188,167a21.26,21.26,0,0,1,.11-2.19l-18.35-11.27A41.52,41.52,0,0,0,222,205.08V183.47c-.51.4-1,.78-1.6,1.14Z"/><path class="cls-6" d="M220.43,184.63v0h0Z"/><polygon class="cls-6" points="163.76 149.43 221.57 184.64 221.57 180 166.03 146 163.76 149.43"/><path class="cls-11" d="M221.57,169.55l1.91-1.18-1.9-1.17Q221.57,168.37,221.57,169.55Z"/><path class="cls-11" d="M223.48,135.36l-1.58-1c0,.62,0,1.28-.05,2Z"/><path class="cls-11" d="M221.61,156.42l1.87-1.15-1.85-1.14Q221.62,155.26,221.61,156.42Z"/><path class="cls-11" d="M223.68,142l-1.93-1.19c0,.77,0,1.57,0,2.4Z"/><path class="cls-11" d="M223.48,148.72l-1.8-1.11q0,1.09,0,2.24Z"/><path class="cls-11" d="M221.59,163l1.89-1.17-1.88-1.16C221.59,161.43,221.59,162.2,221.59,163Z"/><path class="cls-11" d="M221.57,176.11l1.91-1.18-1.91-1.16C221.57,174.54,221.57,175.33,221.57,176.11Z"/><path class="cls-11" d="M223.48,128.81l-2.65-1.63a20.81,20.81,0,0,1,.85,2.74Z"/><path class="cls-7" d="M218.17,152l-5.31,3.28,5.31,3.28,3.44-2.13q0-1.16,0-2.29Z"/><polygon class="cls-7" points="207.55 158.55 212.86 161.82 218.17 158.55 212.86 155.27 207.55 158.55"/><polygon class="cls-7" points="207.55 151.99 202.24 155.27 207.55 158.55 212.86 155.27 207.55 151.99"/><polygon class="cls-7" points="202.03 148.59 196.72 151.87 202.24 155.27 207.55 151.99 202.03 148.59"/><path class="cls-7" d="M207.34,138.76l-3.66-2.26a56.66,56.66,0,0,1-5.44,3.2L202,142Z"/><path class="cls-7" d="M212.86,135.36l-4.18-2.58a54.36,54.36,0,0,1-5,3.72l3.66,2.26Z"/><polygon class="cls-7" points="212.66 142.04 218.17 138.63 212.86 135.36 207.34 138.76 212.66 142.04"/><path class="cls-7" d="M218.17,145.44l3.55-2.19c0-.83,0-1.63,0-2.4l-3.59-2.21-5.51,3.4Z"/><path class="cls-7" d="M190,141.19l1.37.85,1.37-.85Z"/><path class="cls-7" d="M221.59,160.66q0-2.17,0-4.24l-3.44,2.13Z"/><path class="cls-7" d="M221.58,167.2c0-1.43,0-2.83,0-4.21l-3.42,2.11Z"/><polygon class="cls-7" points="196.72 145.31 191.41 148.59 196.72 151.87 202.03 148.59 196.72 145.31"/><path class="cls-7" d="M221.84,136.37l-3.67,2.27,3.59,2.21C221.78,139.21,221.81,137.71,221.84,136.37Z"/><path class="cls-7" d="M202,142l-3.79-2.34a14.44,14.44,0,0,1-3.67,1.49h-1.79l-1.37.85,5.31,3.28Z"/><path class="cls-7" d="M221.57,173.77c0-1.43,0-2.83,0-4.22l-3.44,2.13Z"/><path class="cls-7" d="M169.24,141.93q-1.39,2.18-2.93,4.24l3.16,1.93,4.92-3Z"/><path class="cls-7" d="M218.17,125.53l-2.24-1.38a21.61,21.61,0,0,1-3.14,4.62l.07,0Z"/><path class="cls-7" d="M179.42,141.19l.63.39.63-.39Z"/><path class="cls-7" d="M212.79,128.76l-.16.18.23-.14Z"/><polygon class="cls-7" points="212.66 142.04 207.34 138.76 202.03 142.04 207.34 145.31 212.66 142.04"/><polygon class="cls-7" points="212.86 148.72 218.17 145.44 212.66 142.04 207.34 145.31 212.86 148.72"/><path class="cls-7" d="M218.17,152l3.49-2.15q0-1.14,0-2.24l-3.51-2.16-5.31,3.28Z"/><polygon class="cls-7" points="207.34 145.31 202.03 142.04 196.72 145.31 202.03 148.59 207.34 145.31"/><path class="cls-7" d="M221.72,143.25l-3.55,2.19,3.51,2.16Q221.7,145.31,221.72,143.25Z"/><polygon class="cls-7" points="207.55 151.99 212.86 155.27 218.17 151.99 212.86 148.72 207.55 151.99"/><path class="cls-7" d="M221.63,154.13c0-1.48,0-2.91,0-4.28L218.17,152Z"/><polygon class="cls-7" points="207.34 145.31 202.03 148.59 207.55 151.99 212.86 148.72 207.34 145.31"/><path class="cls-7" d="M222,131.72a15.79,15.79,0,0,0-.31-1.81l-3.51,2.17,3.73,2.3C221.93,133.37,222,132.47,222,131.72Z"/><polygon class="cls-7" points="174.4 145.07 169.47 148.11 175.55 151.83 180.49 148.78 174.4 145.07"/><path class="cls-7" d="M191.41,142l-1.37-.85h-9.35l-.63.39,6.05,3.73Z"/><polygon class="cls-7" points="186.1 145.31 180.05 141.58 174.4 145.07 180.49 148.78 186.1 145.31"/><polygon class="cls-7" points="196.72 145.31 191.41 142.04 186.1 145.31 191.41 148.59 196.72 145.31"/><polygon class="cls-7" points="207.74 171.53 213.07 174.8 218.13 171.68 212.78 168.43 207.74 171.53"/><polygon class="cls-7" points="207.43 165.17 202.41 168.27 207.74 171.53 212.78 168.43 207.43 165.17"/><path class="cls-7" d="M218.17,165.1l-5.39,3.32,5.35,3.25,3.44-2.13q0-1.19,0-2.35Z"/><polygon class="cls-7" points="180.49 148.78 175.55 151.83 180.88 155.09 185.84 152.03 180.49 148.78"/><polygon class="cls-7" points="202.09 161.92 197.08 165.01 202.41 168.27 207.43 165.17 202.09 161.92"/><polygon class="cls-7" points="185.84 152.03 180.88 155.09 186.21 158.35 191.19 155.28 185.84 152.03"/><polygon class="cls-7" points="191.19 155.28 186.21 158.35 191.75 161.74 196.74 158.66 191.19 155.28"/><polygon class="cls-7" points="196.74 158.66 191.75 161.74 197.08 165.01 202.09 161.92 196.74 158.66"/><polygon class="cls-7" points="207.55 158.55 202.09 161.92 207.43 165.17 212.86 161.82 207.55 158.55"/><polygon class="cls-7" points="207.43 165.17 212.78 168.43 218.17 165.1 212.86 161.82 207.43 165.17"/><path class="cls-7" d="M218.17,158.55l-5.31,3.28,5.31,3.28,3.42-2.11c0-.79,0-1.56,0-2.33Z"/><polygon class="cls-7" points="202.24 155.27 196.74 158.66 202.09 161.92 207.55 158.55 202.24 155.27"/><path class="cls-7" d="M218.13,171.68l-5.06,3.12,5.33,3.26,3.16-2c0-.78,0-1.57,0-2.34Z"/><polygon class="cls-7" points="186.1 145.31 180.49 148.78 185.84 152.03 191.41 148.59 186.1 145.31"/><polygon class="cls-7" points="191.41 148.59 185.84 152.03 191.19 155.28 196.72 151.87 191.41 148.59"/><polygon class="cls-7" points="196.72 151.87 191.19 155.28 196.74 158.66 202.24 155.27 196.72 151.87"/><path class="cls-7" d="M212.86,128.81l5.31,3.28,3.51-2.17a20.81,20.81,0,0,0-.85-2.74l-2.66-1.64Z"/><path class="cls-7" d="M220.83,127.17q-.49-1.28-1.14-2.58l-1.52.94Z"/><path class="cls-7" d="M208.68,132.78l4.18,2.58,5.31-3.28-5.31-3.28-.23.14A37.85,37.85,0,0,1,208.68,132.78Z"/><path class="cls-7" d="M218.17,138.64l3.67-2.27c0-.71,0-1.37.05-2l-3.73-2.3-5.31,3.28Z"/><path class="cls-7" d="M221.57,180q0-2,0-3.89l-3.16,2Z"/><path class="cls-7" d="M215.93,124.15l2.24,1.38,1.52-.94a42.24,42.24,0,0,0-2.66-4.52V121A13.06,13.06,0,0,1,215.93,124.15Z"/><path class="cls-6" d="M117.78,94.75a7.75,7.75,0,0,1,5-7.25C123,86,123,85,123,85V84l-.5,0a9.5,9.5,0,0,0-3.44,18.35,18.71,18.71,0,0,0,1-2.11A7.73,7.73,0,0,1,117.78,94.75Z"/><path class="cls-6" d="M112.53,141.19h82C196.74,141,214.91,131.6,217,121"/><polygon class="cls-6" points="196.53 275.5 221.53 230.5 221.53 214.5 188.53 275.5 196.53 275.5"/><path class="cls-5" d="M203.53,228a56,56,0,0,1-55.45-63.78c-1.1.84-2.2,1.65-3.3,2.42-.16,1.76-.25,3.55-.25,5.35a59,59,0,0,0,68.2,58.28l1.89-3.38A56.25,56.25,0,0,1,203.53,228Z"/><rect class="cls-4" x="32.9" y="236.63" width="6.75" height="18" rx="3.18" ry="3.18" transform="translate(-209.35 281.9) rotate(-90)"/><rect class="cls-4" x="30.9" y="229.87" width="6.75" height="18" rx="3.18" ry="3.18" transform="translate(-204.6 273.15) rotate(-90)"/><rect class="cls-4" x="31.9" y="223.12" width="6.75" height="18" rx="3.18" ry="3.18" transform="translate(-196.85 267.4) rotate(-90)"/><path class="cls-4" d="M49.28,246.25c-1-1-5-3-6-9-2,3-7,6-7,6v-15h17v27h-9.5"/><rect class="cls-4" x="33.4" y="243.88" width="6.75" height="17" rx="3.09" ry="3.09" transform="translate(-215.6 289.15) rotate(-90)"/><path class="cls-5" d="M102.53,174.5,116,183s36-13.66,53.5-41.5L153,141c-16,22-50.5,33.5-50.5,33.5"/><path class="cls-12" d="M152.88,141.19h-24c-5,5.92-13.88,11.82-21.78,14.79-2.18,5.21-4.82,10.92-8,17a14.52,14.52,0,0,1,3.52,1.47C103.84,174.06,137.13,162.65,152.88,141.19Z"/><polygon class="cls-4" points="196.53 275.5 221.53 275.5 221.53 230.5 196.53 275.5"/></svg>