<svg id="Слой_1" data-name="Слой 1" xmlns="http://www.w3.org/2000/svg" xmlns:xlink="http://www.w3.org/1999/xlink" viewBox="0 0 196 273" width="196" height="273"><defs><style>.cls-1,.cls-10,.cls-13,.cls-14,.cls-15,.cls-3,.cls-9{fill:none;}.cls-1,.cls-10,.cls-11,.cls-12,.cls-13,.cls-14,.cls-15,.cls-2,.cls-4,.cls-5,.cls-6,.cls-7,.cls-8,.cls-9{stroke:#000;stroke-linecap:round;stroke-linejoin:round;}.cls-1,.cls-11,.cls-12,.cls-2,.cls-4,.cls-5,.cls-6,.cls-7{stroke-width:0.75px;}.cls-2,.cls-21{fill:#fff;}.cls-4{fill:#a3853a;}.cls-6{fill:#940a0a;}.cls-7{fill:#8e7c51;}.cls-11,.cls-8{fill:#fff6ab;}.cls-8{stroke-width:0.78px;}.cls-9{stroke-width:0.79px;}.cls-10{stroke-width:0.77px;}.cls-12{fill:#999;}.cls-13{stroke-width:0.4px;}.cls-14{stroke-width:0.87px;}.cls-15{stroke-width:0.8px;}.cls-16{clip-path:url(#clip-path);}.cls-17{clip-path:url(#clip-path-2);}.cls-18{clip-path:url(#clip-path-3);}.cls-19{clip-path:url(#clip-path-4);}.cls-20{clip-path:url(#clip-path-5);}.cls-22{clip-path:url(#clip-path-6);}.cls-23{clip-path:url(#clip-path-7);}.cls-24{clip-path:url(#clip-path-8);}</style><clipPath id="clip-path"><path class="cls-1" d="M147.93,88.25H92.5v32C102.5,120.25,137.5,96.25,147.93,88.25Z"/></clipPath><clipPath id="clip-path-2"><polygon class="cls-1" points="119.5 49.25 124.5 55.25 133.5 55.25 138.5 49.25 119.5 49.25"/></clipPath><clipPath id="clip-path-3"><polygon class="cls-1" points="93 49.75 96.33 49.75 107 49.75 107 55.75 96 55.75 93 52.75 93 49.75"/></clipPath><clipPath id="clip-path-4"><path class="cls-1" d="M47.5,218.75s18.94-29.38,27-45.5a273.34,273.34,0,0,0,15-38l105,78v58H47.5Z"/></clipPath><clipPath id="clip-path-5"><path class="cls-1" d="M71.5,180.25l76,57-29,34h-35l-34-55S66.5,188.25,71.5,180.25Z"/></clipPath><clipPath id="clip-path-6"><polygon class="cls-2" points="74.47 166.4 202.77 260.55 197.17 274.18 68.88 180.03 74.47 166.4"/></clipPath><clipPath id="clip-path-7"><path class="cls-1" d="M121.5,218.25c0,.54,0,1.46,0,2a45.24,45.24,0,0,1-41,45l4,6h34l25.78-35.34Z"/></clipPath><clipPath id="clip-path-8"><path class="cls-3" d="M3,271.25s5-63.5,20.5-87c8.5-.5,25,0,25,0v87Z"/></clipPath></defs><title>KingOfHearts</title><rect class="cls-4" x="53.5" y="153.25" width="35" height="28"/><path class="cls-2" d="M55.5,271.25h139v-144c-1.5-1.5-27-28-27-28l-1-75-74,.5v95.5C91.43,129,84,154.33,84,154.33Z"/><polygon class="cls-5" points="194.42 187.41 194.42 213.25 178.5 206.25 194.42 187.41"/><path class="cls-4" d="M194.5,191.25a10.82,10.82,0,0,0-4,6c-1,4-.82,12.42-.82,12.42l-3.18-2.42-3-14L194.3,181Z"/><path class="cls-6" d="M3,271.25s5-63.5,20.5-87c8.5-.5,25,0,25,0v87Z"/><line class="cls-1" x1="107" y1="46.75" x2="93" y2="46.75"/><path class="cls-1" d="M108,38.75v33h14a7.1,7.1,0,0,0-4-6"/><polyline class="cls-1" points="107 79.75 106 77.75 125 77.75 125 79.75"/><polyline class="cls-1" points="122 82.75 120 83.75 109 83.75 107 82.75"/><polyline class="cls-7" points="167 11.75 167 2.75 154 12.75 143 3.75 131 13.75 119 3.75 107 13.75 92 1.75 92 10.75 107 22.75 119 12.75 131 22.75 143 12.75 154 21.75 167 11.75"/><polygon class="cls-5" points="167 11.75 154 21.75 143 12.75 131 22.75 119 12.75 107 22.75 92 10.75 92 28.75 167 28.75 167 11.75"/><rect class="cls-8" x="92.5" y="32.75" width="75" height="5.5"/><rect class="cls-2" x="92" y="28.75" width="75" height="4"/><polygon class="cls-9" points="150 38.75 150 90.27 156.07 94.75 156.07 38.75 150 38.75"/><polygon class="cls-10" points="156.07 38.75 156.07 94.11 162.14 96.75 162.14 38.75 156.07 38.75"/><polygon class="cls-1" points="162.14 38.75 162.14 94.75 167 98.75 167 38.75 162.14 38.75"/><path class="cls-6" d="M89.5,135.25l23,16,47-59-8-7s-36,29-59,35Z"/><polygon class="cls-11" points="116.5 157.25 110.85 152.28 159.5 92.25 164.5 96.25 116.5 157.25"/><polygon class="cls-12" points="132.5 167.25 117.5 156.25 164.5 96.25 177.5 109.25 132.5 167.25"/><polygon class="cls-5" points="177.5 109.25 194.5 127.25 152.5 182.25 132.5 167.25 177.5 109.25"/><path class="cls-5" d="M194.5,161.25s-10,8-15,16-7,20-7,20l14,10s0-11,2-15a23.13,23.13,0,0,1,6-7Z"/><rect class="cls-13" x="190.5" y="127.75" width="4" height="38.5"/><rect class="cls-14" x="183.5" y="124.75" width="7" height="47.59"/><rect class="cls-14" x="176.5" y="137.43" width="7" height="47.59"/><rect class="cls-14" x="169.5" y="149.66" width="7" height="47.59"/><rect class="cls-1" x="162.5" y="160.25" width="7" height="35"/><rect class="cls-1" x="155.5" y="160.25" width="7" height="35"/><path class="cls-4" d="M13.5,161.25v13a7.65,7.65,0,0,1-5,2c-4.12,0-7-3.61-7-9,0-6,4-8,7-8C12.62,159.25,13.5,161.25,13.5,161.25Z"/><rect class="cls-15" x="27.75" y="158.25" width="6.75" height="18" rx="3.18" ry="3.18"/><rect class="cls-15" x="34.5" y="156.25" width="6.75" height="18" rx="3.18" ry="3.18"/><rect class="cls-15" x="41.25" y="157.25" width="6.75" height="18" rx="3.18" ry="3.18"/><path class="cls-2" d="M30.5,180.25c1-1,3-5,9-6-3-2-6-7-6-7h15v17h-27s0-4,0-9.5"/><path class="cls-2" d="M60.3,143.25H48.5v49H60.3a47.53,47.53,0,0,1,0-49Z"/><rect class="cls-4" x="13.5" y="161.25" width="7" height="13"/><line class="cls-1" x1="55.5" y1="167.25" x2="78.5" y2="167.25"/><line class="cls-1" x1="119.5" y1="46.75" x2="138.5" y2="46.75"/><g class="cls-16"><rect class="cls-1" x="99.57" y="88.25" width="6.49" height="31"/><rect class="cls-1" x="106.06" y="88.25" width="6.49" height="31"/><rect class="cls-1" x="112.55" y="88.25" width="6.49" height="31"/><rect class="cls-1" x="119.04" y="88.25" width="6.49" height="31"/><rect class="cls-1" x="125.53" y="88.25" width="6.49" height="31"/><rect class="cls-1" x="132.02" y="88.25" width="6.49" height="31"/><rect class="cls-1" x="138.51" y="88.25" width="6.49" height="31"/></g><path class="cls-1" d="M147.93,88.25H92.5v32C102.5,120.25,137.5,96.25,147.93,88.25Z"/><g class="cls-17"><circle class="cls-1" cx="129.5" cy="50.75" r="4.5"/><circle class="cls-5" cx="129.25" cy="50.5" r="2.25"/></g><polygon class="cls-1" points="119.5 49.25 124.5 55.25 133.5 55.25 138.5 49.25 119.5 49.25"/><g class="cls-18"><circle class="cls-1" cx="100.5" cy="50.75" r="4.5"/><circle class="cls-5" cx="100.25" cy="50.5" r="2.25"/></g><polygon class="cls-1" points="93 49.75 96.33 49.75 107 49.75 107 55.75 96 55.75 93 52.75 93 49.75"/><g class="cls-19"><rect class="cls-2" x="65.69" y="173.07" width="159.14" height="21.08" transform="translate(136.78 -50.36) rotate(36.27)"/><g class="cls-20"><circle class="cls-5" cx="76.38" cy="221.13" r="44.88"/><circle class="cls-4" cx="71.38" cy="215.13" r="36.38"/><circle class="cls-5" cx="71.38" cy="215.13" r="33.95"/></g><path class="cls-1" d="M71.5,180.25l76,57-29,34h-35l-34-55S66.5,188.25,71.5,180.25Z"/><circle class="cls-2" cx="91.95" cy="145.7" r="5.45"/><circle class="cls-2" cx="100.67" cy="152.24" r="5.45"/><circle class="cls-2" cx="109.39" cy="158.78" r="5.45"/><circle class="cls-2" cx="118.11" cy="165.32" r="5.45"/><circle class="cls-2" cx="126.83" cy="171.86" r="5.45"/><circle class="cls-2" cx="136.55" cy="178.4" r="5.45"/><circle class="cls-2" cx="145.55" cy="185.4" r="5.45"/><circle class="cls-2" cx="154.83" cy="191.86" r="5.45"/><circle class="cls-2" cx="164.55" cy="198.4" r="5.45"/><circle class="cls-2" cx="173.55" cy="205.4" r="5.45"/><circle class="cls-2" cx="182.55" cy="212.4" r="5.45"/><circle class="cls-2" cx="191.55" cy="218.4" r="5.45"/><path class="cls-2" d="M86.19,206.76c-4.07,0-6.59,4-7.15,5-.56-1-3.08-4.94-7.15-5-6.56-.05-10.39,5.2-8.31,11.43,2,5.94,7.17,10.3,15.35,14.42v.12l.12-.06.12.06v-.12c8.17-4.12,13.37-8.49,15.35-14.42C96.58,212,92.52,206.71,86.19,206.76Z"/><rect class="cls-12" x="156.39" y="254.57" width="16.01" height="37" transform="translate(193.42 -44.34) rotate(36.27)"/><rect class="cls-2" x="176.48" y="262.92" width="8.05" height="13.27" transform="translate(208.14 -53.68) rotate(38.69)"/><rect class="cls-5" x="127.29" y="239.56" width="29.32" height="49.66" transform="translate(183.93 -32.75) rotate(36.27)"/><polygon class="cls-21" points="74.47 166.4 202.77 260.55 197.17 274.18 68.88 180.03 74.47 166.4"/><g class="cls-22"><rect class="cls-2" x="71.12" y="167.73" width="4.09" height="19.62" transform="translate(119.22 -8.88) rotate(36.27)"/><rect class="cls-2" x="75.02" y="169.34" width="4.09" height="19.62" transform="translate(120.93 -10.88) rotate(36.27)"/><rect class="cls-2" x="78.73" y="172.15" width="4.09" height="19.62" transform="translate(123.31 -12.53) rotate(36.27)"/><rect class="cls-2" x="82.64" y="173.76" width="4.09" height="19.62" transform="translate(125.02 -14.53) rotate(36.27)"/><rect class="cls-2" x="85.27" y="176.76" width="4.09" height="19.62" transform="translate(127.3 -15.5) rotate(36.27)"/><rect class="cls-2" x="89.18" y="178.37" width="4.09" height="19.62" transform="translate(129.01 -17.5) rotate(36.27)"/><rect class="cls-2" x="91.81" y="181.38" width="4.09" height="19.62" transform="translate(131.3 -18.48) rotate(36.27)"/><rect class="cls-2" x="95.72" y="182.99" width="4.09" height="19.62" transform="translate(133.01 -20.48) rotate(36.27)"/><rect class="cls-2" x="98.35" y="185.99" width="4.09" height="19.62" transform="translate(135.3 -21.45) rotate(36.27)"/><rect class="cls-2" x="102.26" y="187.6" width="4.09" height="19.62" transform="translate(137.01 -23.45) rotate(36.27)"/><rect class="cls-2" x="104.7" y="191.81" width="4.09" height="19.62" transform="matrix(0.81, 0.59, -0.59, 0.81, 139.97, -24.08)"/><rect class="cls-2" x="108.6" y="193.42" width="4.09" height="19.62" transform="translate(141.68 -26.08) rotate(36.27)"/><rect class="cls-2" x="111.24" y="196.42" width="4.09" height="19.62" transform="matrix(0.81, 0.59, -0.59, 0.81, 143.97, -27.06)"/><rect class="cls-2" x="115.14" y="198.03" width="4.09" height="19.62" transform="translate(145.68 -29.05) rotate(36.27)"/><rect class="cls-2" x="117.78" y="201.04" width="4.09" height="19.62" transform="matrix(0.81, 0.59, -0.59, 0.81, 147.97, -30.03)"/><rect class="cls-2" x="121.68" y="202.65" width="4.09" height="19.62" transform="translate(149.68 -32.03) rotate(36.27)"/><rect class="cls-2" x="124.32" y="205.66" width="4.09" height="19.62" transform="translate(151.97 -33.01) rotate(36.27)"/><rect class="cls-2" x="128.22" y="207.27" width="4.09" height="19.62" transform="translate(153.68 -35) rotate(36.27)"/><rect class="cls-2" x="130.86" y="210.27" width="4.09" height="19.62" transform="translate(155.97 -35.98) rotate(36.27)"/><rect class="cls-2" x="134.77" y="211.88" width="4.09" height="19.62" transform="translate(157.68 -37.98) rotate(36.27)"/><rect class="cls-2" x="137.4" y="214.89" width="4.09" height="19.62" transform="translate(159.96 -38.96) rotate(36.27)"/><rect class="cls-2" x="141.31" y="216.5" width="4.09" height="19.62" transform="matrix(0.81, 0.59, -0.59, 0.81, 161.67, -40.95)"/><rect class="cls-2" x="143.94" y="219.5" width="4.09" height="19.62" transform="translate(163.96 -41.93) rotate(36.27)"/><rect class="cls-2" x="147.85" y="221.11" width="4.09" height="19.62" transform="translate(165.67 -43.93) rotate(36.27)"/><rect class="cls-2" x="150.48" y="224.12" width="4.09" height="19.62" transform="translate(167.96 -44.91) rotate(36.27)"/><rect class="cls-2" x="154.39" y="225.73" width="4.09" height="19.62" transform="translate(169.67 -46.9) rotate(36.27)"/><rect class="cls-2" x="157.02" y="228.73" width="4.09" height="19.62" transform="translate(171.96 -47.88) rotate(36.27)"/><rect class="cls-2" x="159.66" y="231.74" width="4.09" height="19.62" transform="translate(174.25 -48.86) rotate(36.27)"/><rect class="cls-2" x="163.56" y="233.35" width="4.09" height="19.62" transform="translate(175.96 -50.86) rotate(36.27)"/><rect class="cls-2" x="166.2" y="236.36" width="4.09" height="19.62" transform="translate(178.25 -51.83) rotate(36.27)"/><rect class="cls-2" x="170.1" y="237.97" width="4.09" height="19.62" transform="translate(179.96 -53.83) rotate(36.27)"/><rect class="cls-2" x="172.74" y="240.97" width="4.09" height="19.62" transform="translate(182.24 -54.81) rotate(36.27)"/><rect class="cls-2" x="176.64" y="242.58" width="4.09" height="19.62" transform="translate(183.95 -56.81) rotate(36.27)"/><rect class="cls-2" x="179.28" y="245.59" width="4.09" height="19.62" transform="translate(186.24 -57.78) rotate(36.27)"/><rect class="cls-2" x="183.18" y="247.2" width="4.09" height="19.62" transform="translate(187.95 -59.78) rotate(36.27)"/><rect class="cls-2" x="185.82" y="250.2" width="4.09" height="19.62" transform="translate(190.24 -60.76) rotate(36.27)"/><rect class="cls-2" x="189.72" y="251.81" width="4.09" height="19.62" transform="matrix(0.81, 0.59, -0.59, 0.81, 191.95, -62.76)"/><rect class="cls-2" x="192.36" y="254.82" width="4.09" height="19.62" transform="translate(194.24 -63.73) rotate(36.27)"/><rect class="cls-2" x="196.26" y="256.43" width="4.09" height="19.62" transform="translate(195.95 -65.73) rotate(36.27)"/></g><polygon class="cls-1" points="74.47 166.4 202.77 260.55 197.17 274.18 68.88 180.03 74.47 166.4"/><rect class="cls-6" x="61.69" y="193.07" width="159.14" height="21.08" transform="translate(147.84 -44.12) rotate(36.27)"/><path class="cls-1" d="M47.5,218.75s18.94-29.38,27-45.5a273.34,273.34,0,0,0,15-38l105,78v58H47.5Z"/><polygon class="cls-12" points="50.5 215.25 84 271.25 47.5 271.25 47.5 217.25 50.5 215.25"/><g class="cls-23"><rect class="cls-1" x="133.5" y="223.25" width="15" height="37"/><rect class="cls-1" x="127.14" y="223.25" width="6.36" height="37"/><rect class="cls-1" x="120.79" y="219.25" width="6.36" height="49"/><rect class="cls-1" x="82.79" y="222.25" width="6.36" height="49"/><rect class="cls-1" x="114.43" y="222.25" width="6.36" height="49"/><rect class="cls-1" x="108.07" y="222.25" width="6.36" height="49"/><rect class="cls-1" x="101.71" y="222.25" width="6.36" height="49"/><rect class="cls-1" x="95.36" y="222.25" width="6.36" height="49"/><rect class="cls-1" x="89" y="222.25" width="6.36" height="49"/></g><path class="cls-1" d="M121.5,218.25c0,.54,0,1.46,0,2a45.24,45.24,0,0,1-41,45l4,6h34l25.78-35.34Z"/></g><path class="cls-1" d="M47.5,218.75s18.94-29.38,27-45.5a273.34,273.34,0,0,0,15-38l105,78v58H47.5Z"/><g class="cls-24"><rect class="cls-11" x="9.5" y="203.25" width="39" height="7"/></g><rect class="cls-15" x="21" y="159.25" width="6.75" height="17" rx="3.09" ry="3.09"/></svg>