<svg id="Слой_1" data-name="Слой 1" xmlns="http://www.w3.org/2000/svg" viewBox="0 0 201 276" width="201" height="276"><defs><style>.cls-1{fill:none;}.cls-1,.cls-10,.cls-2,.cls-3,.cls-4,.cls-5,.cls-6,.cls-7,.cls-8{stroke:#000;stroke-linecap:round;stroke-linejoin:round;}.cls-1,.cls-2,.cls-3,.cls-4,.cls-5,.cls-6,.cls-7,.cls-8{stroke-width:1.5px;}.cls-2{fill:#263352;}.cls-3{fill:#1a1a1a;}.cls-4{fill:#a3853a;}.cls-5{fill:gray;}.cls-7{fill:#ffdc87;}.cls-10,.cls-8,.cls-9{fill:#fff;}.cls-10{stroke-width:0.75px;}</style></defs><title>QueenOfSpades</title><polygon class="cls-1" points="79.5 41 153.5 41 153.82 40.5 79.23 40.5 79.5 41"/><polygon class="cls-2" points="171.45 13 178.5 2 58.5 2 64.42 13 171.45 13"/><polygon class="cls-3" points="74.65 32 159.27 32 171.45 13 64.42 13 74.65 32"/><polygon class="cls-1" points="76.27 35 79.23 40.5 153.82 40.5 157.35 35 76.27 35"/><polygon class="cls-4" points="74.65 32 76 34.5 76.27 35 157.35 35 157.67 34.5 159.27 32 74.65 32"/><path class="cls-5" d="M7.69,184a22.39,22.39,0,0,0-3.52,4.63A17.76,17.76,0,0,0,2,195l.56,78.51H12v.5h5.5V177.31C12,180.92,8.23,183.44,7.69,184Z"/><path class="cls-5" d="M51.5,273.5H66v-127h-.26l-14.24,9Z"/><path class="cls-2" d="M51,273.5V155.84c-11.9,7.55-24.87,15.83-33.5,21.47V274h34v-.5Z"/><rect class="cls-6" x="51.5" y="273.5" width="14.5" height="0.5"/><path class="cls-6" d="M65.74,146.5H66v-.16Z"/><path class="cls-3" d="M163,106.83,138,91.5l-58,34v12l-1,.63-13,8.21V274h98Z"/><path class="cls-7" d="M163.3,157.51l-.18-30.2A96,96,0,0,1,74.5,201.87v11A107,107,0,0,0,163.3,157.51Z"/><path class="cls-7" d="M74.5,171.52v30.35a96,96,0,0,0,88.62-74.56l0-6.93Z"/><path class="cls-7" d="M163.3,157.51a107.5,107.5,0,0,1-38.67,40.2L163.75,232Z"/><path class="cls-7" d="M105.39,206.82l58.51,51.26V258L105.46,206.8Z"/><path class="cls-7" d="M76.46,212.76l-1.16.07.62.54Z"/><polygon class="cls-7" points="151.76 274 152.27 274 151.98 273.75 151.76 274"/><path class="cls-7" d="M94.14,210.13,164,271.33v-.23l-69.64-61Z"/><polygon class="cls-7" points="74.5 274 107.71 274 74.5 244.9 74.5 274"/><polygon class="cls-7" points="74.5 231.96 122.48 274 122.74 274 74.5 231.73 74.5 231.96"/><polygon class="cls-7" points="143.89 274 144.85 274 144.31 273.52 143.89 274"/><polygon class="cls-7" points="74.5 218.79 137.51 274 137.6 274 74.5 218.72 74.5 218.79"/><polygon class="cls-7" points="74.5 238.55 74.5 244.9 107.71 274 114.97 274 74.5 238.55"/><polygon class="cls-7" points="74.5 238.32 115.23 274 122.48 274 74.5 231.96 74.5 238.32"/><polygon class="cls-7" points="114.97 274 115.23 274 74.5 238.32 74.5 238.55 114.97 274"/><polygon class="cls-7" points="74.5 225.38 74.5 231.73 122.74 274 130 274 74.5 225.38"/><polygon class="cls-7" points="74.5 225.15 130.26 274 137.51 274 74.5 218.79 74.5 225.15"/><polygon class="cls-7" points="130 274 130.26 274 74.5 225.15 74.5 225.38 130 274"/><path class="cls-7" d="M75.8,213.5l.11-.13-.62-.54-.79,0v5.84L137.6,274h6.29l.42-.48Z"/><path class="cls-7" d="M81.83,212.29c-1.78.2-3.57.35-5.37.47l-.54.62,68.5,60-.11.13.55.48h6.91l.22-.25Z"/><rect class="cls-7" x="110.03" y="197.91" width="0.17" height="91.08" transform="translate(-145.6 165.96) rotate(-48.8)"/><path class="cls-7" d="M156,270.93l-68-59.54q-3,.53-6.13.89L152,273.7l0,0,.29.25h7.25Z"/><path class="cls-7" d="M152,273.75l0,0L81.92,212.28h-.09Z"/><path class="cls-7" d="M164,272.57v-1.25L94.14,210.13c-1.94.46-3.89.87-5.86,1.22l67.86,59.45-.11.13,3.51,3.07H164Z"/><path class="cls-7" d="M156,270.93l.11-.13L88.27,211.35l-.22,0Z"/><path class="cls-7" d="M99.9,208.6q-2.75.81-5.56,1.48l69.64,61,0-6.39Z"/><path class="cls-7" d="M100.1,208.54l63.84,55.93,0-6.39-58.51-51.26C103.65,207.45,101.88,208,100.1,208.54Z"/><path class="cls-7" d="M163.94,264.71v-.23L100.1,208.54l-.19.06Z"/><path class="cls-7" d="M110.48,204.85c-1.66.69-3.33,1.34-5,2L163.9,258l0-6.39Z"/><path class="cls-7" d="M110.66,204.78l53.2,46.61,0-6.09-48.58-42.56Q113,203.82,110.66,204.78Z"/><path class="cls-7" d="M110.48,204.85l53.38,46.77v-.23l-53.2-46.61Z"/><path class="cls-7" d="M163.83,245l-.08-13-39.12-34.27q-4.45,2.68-9.16,4.93Z"/><path class="cls-7" d="M115.47,202.64l-.22.11,48.58,42.56V245Z"/><path class="cls-2" d="M74.5,171.52v30.35a96,96,0,0,0,88.62-74.56l0-6.93Z"/><path class="cls-8" d="M80,124.5v-84h74v28s5,16.67,9,16.33"/><rect class="cls-4" x="163.5" y="190" width="18" height="15"/><polyline class="cls-4" points="184 181.5 184 61.5 173 46.5"/><circle class="cls-4" cx="173" cy="226.5" r="7.5"/><polygon class="cls-4" points="185 181.5 173 181.5 163 181.5 163 191.5 192 191.5 199 182.5 192 177.5 185 181.5"/><polyline class="cls-4" points="173 46.5 173 181.5 184 181.5"/><rect class="cls-8" x="177.38" y="203.63" width="6.75" height="18" rx="3.18" ry="3.18" transform="translate(-31.88 393.38) rotate(-90)"/><rect class="cls-8" x="179.38" y="196.87" width="6.75" height="18" rx="3.18" ry="3.18" transform="translate(-23.12 388.62) rotate(-90)"/><rect class="cls-8" x="178.38" y="190.12" width="6.75" height="18" rx="3.18" ry="3.18" transform="translate(-17.37 380.87) rotate(-90)"/><path class="cls-8" d="M167.75,213.25c1-1,5-3,6-9,2,3,7,6,7,6v-15h-17v27h9.5"/><rect class="cls-8" x="176.88" y="210.88" width="6.75" height="17" rx="3.09" ry="3.09" transform="translate(-39.13 399.63) rotate(-90)"/><path class="cls-4" d="M163,181.5V60.5l10-14v135"/><line class="cls-4" x1="173" y1="60.5" x2="163" y2="60.5"/><line class="cls-4" x1="173" y1="69.74" x2="163" y2="69.74"/><line class="cls-4" x1="173" y1="78.05" x2="163" y2="78.05"/><line class="cls-4" x1="173" y1="86.36" x2="163" y2="86.36"/><line class="cls-4" x1="163" y1="95.6" x2="173" y2="95.6"/><line class="cls-4" x1="163" y1="103.91" x2="173" y2="103.91"/><line class="cls-4" x1="173" y1="112.23" x2="163" y2="112.23"/><line class="cls-4" x1="173" y1="121.46" x2="163" y2="121.46"/><line class="cls-4" x1="173" y1="129.77" x2="163" y2="129.77"/><line class="cls-4" x1="173" y1="138.09" x2="163" y2="138.09"/><line class="cls-4" x1="173" y1="147.32" x2="163" y2="147.32"/><line class="cls-4" x1="173" y1="155.64" x2="163" y2="155.64"/><line class="cls-4" x1="173" y1="163.95" x2="163" y2="163.95"/><line class="cls-4" x1="173" y1="173.19" x2="163" y2="173.19"/><path class="cls-1" d="M7.69,184a22.39,22.39,0,0,0-3.52,4.63A17.76,17.76,0,0,0,2,195l.56,78.51h14l.44-96S10.14,181.49,7.69,184Z"/><polygon class="cls-8" points="44 187.64 44 173.5 36.83 173.5 36.83 165.5 31 168.5 31.32 173.5 24.15 173.5 24.15 187.64 31.32 187.64 31.32 201.78 24.15 201.78 24.15 215.92 31.32 215.92 31.32 231.08 24.15 231.08 24.15 245.22 30.32 245.22 30.32 259.36 24.15 259.36 24.15 273.45 33.37 273.5 44 273.5 44 259.36 36.83 259.36 36.83 245.22 44 245.22 44 231.08 36.83 231.08 36.83 215.92 44 215.92 44 201.78 36.83 201.78 36.83 187.64 44 187.64"/><path class="cls-9" d="M107,175.54c-.29-4.94-11-10.44-11-10.44s-10.71,5.5-11,10.44c-.07,8,7.95,7.58,10.68,3.54,0,.18,0,.37-.05.57a6.91,6.91,0,0,1-3,5.37,11.8,11.8,0,0,1-1.45.89h9.78a10.46,10.46,0,0,1-1.5-.89,6.92,6.92,0,0,1-3-5.37c0-.2,0-.39-.05-.57C99.05,183.12,107.07,183.58,107,175.54Z"/><path class="cls-9" d="M139,157.13c-.29-4.94-11-10.44-11-10.44s-10.71,5.5-11,10.44c-.07,8,7.95,7.58,10.68,3.54,0,.18,0,.37-.05.57a6.91,6.91,0,0,1-3,5.37,11.8,11.8,0,0,1-1.45.89h9.78a10.46,10.46,0,0,1-1.5-.89,6.92,6.92,0,0,1-3-5.37c0-.2,0-.39-.05-.57C131.05,164.71,139.07,165.17,139,157.13Z"/><polygon class="cls-1" points="74.5 274 66.5 274 66.5 176 74.5 171 74.5 274"/><polygon class="cls-7" points="80 137.5 86.5 148 98.5 141 91 130.5 103 123.5 111.5 133 124 126.5 116 116.5 129 108.5 137 118.5 148 111.5 140 102.5 148 97.5 138 92.5 80 125.5 80 137.5"/><path class="cls-1" d="M164,274l-1-167.17L138,91.5l-58,34v12S10.14,181.49,7.69,184a22.39,22.39,0,0,0-3.52,4.63A17.76,17.76,0,0,0,2,195l.56,78.51H12v.5Z"/><circle class="cls-1" cx="150" cy="168.5" r="5.5"/><path class="cls-1" d="M82.21,201.16l1-.14A5.49,5.49,0,0,0,82.21,201.16Z"/><path class="cls-1" d="M96.91,209.44l-2.16.55A5.46,5.46,0,0,0,96.91,209.44Z"/><path class="cls-1" d="M138.28,187.95q-.86.72-1.74,1.43A5.52,5.52,0,0,0,138.28,187.95Z"/><path class="cls-1" d="M139.63,171.54a5.51,5.51,0,0,0-2.66,2.74Q138.33,172.94,139.63,171.54Z"/><path class="cls-1" d="M109.59,197.48a5.44,5.44,0,0,1,1.74-5.06c-1.92.93-3.86,1.81-5.85,2.61A5.49,5.49,0,0,1,109.59,197.48Z"/><path class="cls-1" d="M160.5,137.5a5.49,5.49,0,0,1,2.66-4.7l0-5.49a95.37,95.37,0,0,1-10.66,27,5.53,5.53,0,1,1-1.82,3,96.39,96.39,0,0,1-11,14.25,5.5,5.5,0,1,1-2.66,2.74,96.27,96.27,0,0,1-23.06,16.83,5.5,5.5,0,1,1-3.5,8.42,5.5,5.5,0,1,1-9.36-2.84A95.35,95.35,0,0,1,83.22,201h.28a5.52,5.52,0,1,1-1.29.16c-2.54.34-5.11.58-7.71.71v11A106.94,106.94,0,0,0,94.76,210H94.5a5.52,5.52,0,1,1,2.41-.56,106.38,106.38,0,0,0,29-12.52,5.49,5.49,0,1,1,3.66-2.37c2.4-1.63,4.71-3.36,7-5.17a5.51,5.51,0,1,1,1.74-1.43,107.46,107.46,0,0,0,25-30.44l0-3.66a5.5,5.5,0,1,1-.06-10.7v-.9A5.49,5.49,0,0,1,160.5,137.5Z"/><path class="cls-1" d="M78,206.5a5.5,5.5,0,1,0,5.5-5.5h-.28l-1,.14A5.5,5.5,0,0,0,78,206.5Z"/><path class="cls-1" d="M100,204.5a5.5,5.5,0,1,0-5.5,5.5h.26l2.16-.55A5.49,5.49,0,0,0,100,204.5Z"/><path class="cls-1" d="M105,206a5.48,5.48,0,0,0,5.41-6.48,5.46,5.46,0,0,1-.82-2,5.49,5.49,0,0,0-4.11-2.45c-1.46.59-2.94,1.14-4.44,1.66a5.5,5.5,0,0,0,4,9.32Z"/><path class="cls-1" d="M109.5,196.5a5.51,5.51,0,0,0,.09,1,5.46,5.46,0,0,1,.82,2,5.5,5.5,0,1,0,3.5-8.42q-1.28.67-2.58,1.3A5.48,5.48,0,0,0,109.5,196.5Z"/><path class="cls-1" d="M125,186a5.5,5.5,0,1,0,.92,10.92c1.24-.77,2.46-1.55,3.66-2.37A5.5,5.5,0,0,0,125,186Z"/><path class="cls-1" d="M134,179a5.5,5.5,0,1,0,2.54,10.37q.88-.71,1.74-1.43A5.5,5.5,0,0,0,134,179Z"/><path class="cls-1" d="M142,182a5.5,5.5,0,1,0-2.37-10.46q-1.3,1.39-2.66,2.74a5.5,5.5,0,0,0,5,7.72Z"/><path class="cls-1" d="M156,164a5.5,5.5,0,1,0-3.54-9.71q-.89,1.52-1.82,3A5.49,5.49,0,0,0,156,164Z"/><path class="cls-1" d="M156.5,148.5a5.48,5.48,0,0,0,6.78,5.34l-.06-10.7a5.49,5.49,0,0,0-6.72,5.36Z"/><path class="cls-1" d="M160.5,137.5a5.49,5.49,0,0,0,2.71,4.73l-.06-9.44A5.49,5.49,0,0,0,160.5,137.5Z"/><polygon class="cls-1" points="58.5 2 79.5 41 153.5 41 178.5 2 58.5 2"/><polygon class="cls-4" points="75.61 8.22 88.06 8.22 91 2 72.5 2 75.61 8.22"/><polygon class="cls-4" points="145.61 8.22 158.06 8.22 161 2 142.5 2 145.61 8.22"/><polygon class="cls-4" points="107.61 8.22 126.06 8.22 129 2 104.5 2 107.61 8.22"/><polygon class="cls-10" points="108 51.5 108 60.5 122 60.5 126 55.5 126 51.5 108 51.5"/><line class="cls-10" x1="108" y1="53.5" x2="126" y2="53.5"/><path class="cls-10" d="M109.18,55.5H108v5h7.5A6.5,6.5,0,0,1,109.18,55.5Z"/><path class="cls-10" d="M121.82,55.5a6.5,6.5,0,0,1-6.32,5H122l4-5Z"/><path class="cls-10" d="M121.82,55.5h-3.17a3.48,3.48,0,0,1-6.3,0h-3.17a6.49,6.49,0,0,0,12.64,0Z"/><path class="cls-10" d="M115.5,57.5a3.49,3.49,0,0,0,3.15-2h-6.3A3.49,3.49,0,0,0,115.5,57.5Z"/><polygon class="cls-10" points="95 51.5 95 60.5 81 60.5 81 55.5 81 51.5 95 51.5"/><line class="cls-10" x1="95" y1="53.5" x2="81" y2="53.5"/><path class="cls-10" d="M93.82,55.5H95v5H87.5A6.5,6.5,0,0,0,93.82,55.5Z"/><path class="cls-10" d="M81.18,55.5a6.5,6.5,0,0,0,6.32,5H81v-5Z"/><path class="cls-10" d="M81.18,55.5h3.17a3.48,3.48,0,0,0,6.3,0h3.17a6.49,6.49,0,0,1-12.64,0Z"/><path class="cls-10" d="M87.5,57.5a3.49,3.49,0,0,1-3.15-2h6.3A3.49,3.49,0,0,1,87.5,57.5Z"/><polyline class="cls-10" points="108 68.5 111 73.5 95 73.5 95 60.5"/><polyline class="cls-8" points="66 145.5 66 101.5 80 89.5"/><polyline class="cls-8" points="72 142.5 72 105.5 80 99.5"/><line class="cls-8" x1="138" y1="45.5" x2="138" y2="92.5"/><path class="cls-8" d="M143,45.5s-.56,28.63,1,38c1,6,10,18,20,20"/><path class="cls-1" d="M149.26,45.5s-.49,25.17.88,33.41c.88,5.28,7.94,14.8,11.86,15.59"/><polyline class="cls-8" points="80 84.83 91 78.5 120 78.5 138 89.5"/><line class="cls-8" x1="127" y1="97.5" x2="127" y2="82.5"/><line class="cls-1" x1="100" y1="112.5" x2="100" y2="97.5"/><line class="cls-1" x1="108" y1="109.5" x2="108" y2="97.5"/><line class="cls-8" x1="121" y1="100.5" x2="121" y2="78.5"/><polyline class="cls-8" points="94 116.5 94 98.33 94 85.5 95 83.5 112 83.5 115 86.5 114.5 105.28"/><line class="cls-8" x1="88" y1="120.5" x2="88" y2="80.5"/><line class="cls-1" x1="114" y1="98.17" x2="94" y2="98.17"/><polyline class="cls-1" points="96 89.5 108 89.5 109 88.5"/><rect class="cls-4" x="80" y="40.5" width="74" height="5"/><path class="cls-8" d="M105.39,206.82l58.51,51.26V258L105.46,206.8Z"/><path class="cls-8" d="M76.46,212.76l-1.16.07.62.54Z"/><polygon class="cls-8" points="151.76 274 152.27 274 151.98 273.75 151.76 274"/><path class="cls-8" d="M94.14,210.13,164,271.33v-.23l-69.64-61Z"/><polygon class="cls-8" points="74.5 231.96 122.48 274 122.74 274 74.5 231.73 74.5 231.96"/><polygon class="cls-8" points="143.89 274 144.85 274 144.31 273.52 143.89 274"/><polygon class="cls-8" points="74.5 218.79 137.51 274 137.6 274 74.5 218.72 74.5 218.79"/><polygon class="cls-8" points="74.5 238.55 74.5 244.9 107.71 274 114.97 274 74.5 238.55"/><polygon class="cls-8" points="74.5 238.32 115.23 274 122.48 274 74.5 231.96 74.5 238.32"/><polygon class="cls-8" points="114.97 274 115.23 274 74.5 238.32 74.5 238.55 114.97 274"/><polygon class="cls-8" points="74.5 225.38 74.5 231.73 122.74 274 130 274 74.5 225.38"/><polygon class="cls-8" points="74.5 225.15 130.26 274 137.51 274 74.5 218.79 74.5 225.15"/><polygon class="cls-8" points="130 274 130.26 274 74.5 225.15 74.5 225.38 130 274"/><path class="cls-8" d="M75.8,213.5l.11-.13-.62-.54-.79,0v5.84L137.6,274h6.29l.42-.48Z"/><path class="cls-8" d="M81.83,212.29c-1.78.2-3.57.35-5.37.47l-.54.62,68.5,60-.11.13.55.48h6.91l.22-.25Z"/><rect class="cls-8" x="110.03" y="197.91" width="0.17" height="91.08" transform="translate(-145.6 165.96) rotate(-48.8)"/><path class="cls-8" d="M156,270.93l-68-59.54q-3,.53-6.13.89L152,273.7l0,0,.29.25h7.25Z"/><path class="cls-8" d="M152,273.75l0,0L81.92,212.28h-.09Z"/><path class="cls-8" d="M164,272.57v-1.25L94.14,210.13c-1.94.46-3.89.87-5.86,1.22l67.86,59.45-.11.13,3.51,3.07H164Z"/><path class="cls-8" d="M156,270.93l.11-.13L88.27,211.35l-.22,0Z"/><path class="cls-8" d="M99.9,208.6q-2.75.81-5.56,1.48l69.64,61,0-6.39Z"/><path class="cls-8" d="M100.1,208.54l63.84,55.93,0-6.39-58.51-51.26C103.65,207.45,101.88,208,100.1,208.54Z"/><path class="cls-8" d="M163.94,264.71v-.23L100.1,208.54l-.19.06Z"/><path class="cls-8" d="M110.48,204.85c-1.66.69-3.33,1.34-5,2L163.9,258l0-6.39Z"/><path class="cls-8" d="M110.66,204.78l53.2,46.61,0-6.09-48.58-42.56Q113,203.82,110.66,204.78Z"/><path class="cls-8" d="M110.48,204.85l53.38,46.77v-.23l-53.2-46.61Z"/><path class="cls-7" d="M163.83,245l-.08-13-39.12-34.27q-4.45,2.68-9.16,4.93Z"/><path class="cls-8" d="M115.47,202.64l-.22.11,48.58,42.56V245Z"/><path class="cls-3" d="M163.3,157.51a107.5,107.5,0,0,1-38.67,40.2L163.75,232Z"/><polygon class="cls-8" points="65.5 176 65.5 171 163.5 114 162.5 121 65.5 176"/></svg>