<svg id="Слой_1" data-name="Слой 1" xmlns="http://www.w3.org/2000/svg" viewBox="0 0 188 278" width="188" height="278"><defs><style>.cls-1{fill:#1a1a1a;}.cls-1,.cls-12,.cls-2,.cls-3,.cls-4,.cls-5,.cls-6,.cls-7,.cls-8{stroke:#000;stroke-linecap:round;stroke-linejoin:round;}.cls-1,.cls-2,.cls-3,.cls-4,.cls-5,.cls-6,.cls-7,.cls-8{stroke-width:1.5px;}.cls-12,.cls-2{fill:#263352;}.cls-3{fill:#ffdc87;}.cls-11,.cls-4{fill:#fff;}.cls-10,.cls-5{fill:#a3853a;}.cls-6,.cls-9{fill:none;}.cls-8{fill:#1b1464;}.cls-12{stroke-width:0.5px;}</style></defs><title>QueenOfClubs</title><polygon class="cls-1" points="57.64 137.92 23.64 181.46 23.64 275.48 57.64 275.61 57.64 137.92"/><polygon class="cls-2" points="82.64 275.25 82.14 161.93 185.32 213.57 185.64 276.25 82.64 275.25"/><polygon class="cls-3" points="164.46 209.25 185.64 219.82 185.46 276.25 136.46 276.25 164.46 209.25"/><path class="cls-4" d="M136.64,225.25l-18-9s-5-2-6,1c-1.14,3.42,2.55,4.5,2.55,4.5l-1.55,3.5-1,2s-4.39-2.22-6,1c-2,4,3.55,5.5,3.55,5.5l2.1.89,11.35,6.61,7-1,.93-15.83Z"/><path class="cls-3" d="M2,218.4c-.31,1.71.28,57,.28,57l21.82.08V180.82L10,198.9C8.31,200.13,2.07,211.4,2,218.4Z"/><path class="cls-2" d="M5.14,250.75l12-13-13-13,14-13L6.87,203.53c-2,3.75-4.24,9-4.73,13.3v40.06c.09,10.24.18,18.52.18,18.52h.22l14.6-12.65Z"/><path class="cls-2" d="M174.64,213.25c0,1,4,8,4,8l-23,9,9,20-20,8L152.13,276l-15.92-.06,28.43-67.66Z"/><polygon class="cls-5" points="82.14 108.75 82.14 275.1 70.64 275.1 70.64 121.25 80.64 108.25 82.14 108.75"/><polygon class="cls-4" points="123.14 92.75 123.14 110.49 144.14 91.75 138.39 79.75 123.14 92.75"/><path class="cls-4" d="M81.14,85.75s10,16,20,16c15,0,35-17,37-22s-20-47-20-47h-38Z"/><polyline class="cls-4" points="80.14 43.75 58.14 98.75 58.14 136.75"/><path class="cls-4" d="M123.05,42.38a14.45,14.45,0,0,1-18.84-9.63H93.62A11,11,0,0,1,80.34,43l.81,42.75s10,16,20,16c15,0,35-17,37-22C139.53,76.29,129.41,55.09,123.05,42.38Z"/><path class="cls-4" d="M93.62,32.75h-5.5a5.49,5.49,0,0,1-7.89,4.44L80.34,43A11,11,0,0,0,93.62,32.75Z"/><path class="cls-4" d="M80.23,37.19a5.49,5.49,0,0,0,7.89-4.44h-8Z"/><path class="cls-4" d="M118.14,43.25a14.44,14.44,0,0,0,4.91-.87l-1.55-3.09a10.73,10.73,0,0,1-13.17-6.54h-4.11A14.5,14.5,0,0,0,118.14,43.25Z"/><path class="cls-4" d="M108.33,32.75a10.73,10.73,0,0,0,13.17,6.54c-2-4-3.36-6.54-3.36-6.54Z"/><polygon class="cls-2" points="80.14 31.75 149.14 31.75 161.14 13.75 106.14 1.75 69.14 15.75 80.14 31.75"/><polygon class="cls-5" points="149.14 31.75 80.14 31.75 76.14 24.75 154.14 24.75 149.14 31.75"/><polygon class="cls-4" points="118.14 32.75 143.14 90.75 185.14 114.75 185.14 80.75 150.14 32.75 118.14 32.75"/><line class="cls-4" x1="129.31" y1="32.75" x2="163.44" y2="102.35"/><line class="cls-4" x1="177.69" y1="110.49" x2="132.64" y2="32.75"/><path class="cls-6" d="M81.14,49.75a12,12,0,0,1,8-3c5,0,9,5,9,7v22h6.5"/><path class="cls-6" d="M108.14,50.75s1-4,8-4.5c4-.29,9,1.5,9,3.5"/><path class="cls-6" d="M113.64,85h-22s5.5-3.25,7.5-3.25,2,1,3,1,2-1,3-1C108.14,81.75,113.14,84.25,113.64,85Z"/><path class="cls-6" d="M95.14,85.75a11,11,0,0,0,7,3,11,11,0,0,0,7-3Z"/><circle class="cls-7" cx="90.14" cy="54.96" r="2.14"/><circle class="cls-7" cx="118.14" cy="54.96" r="2.14"/><path class="cls-6" d="M112.79,55a5.3,5.3,0,0,1,.33-1.79,9.65,9.65,0,0,0-4.36,6.07H115A5.33,5.33,0,0,1,112.79,55Z"/><path class="cls-6" d="M121.33,59.25h6.2a9.65,9.65,0,0,0-4.36-6.07,5.24,5.24,0,0,1-1.84,6.07Z"/><path class="cls-6" d="M115,59.25h6.37a5.24,5.24,0,0,0,1.84-6.07,9.58,9.58,0,0,0-10.06,0A5.24,5.24,0,0,0,115,59.25Z"/><polygon class="cls-6" points="80.14 32.75 81.14 108.75 109.14 123.75 144.14 91.75 118.14 32.75 80.14 32.75"/><path class="cls-6" d="M84.79,55a5.3,5.3,0,0,1,.33-1.79,9.65,9.65,0,0,0-4.36,6.07H87A5.33,5.33,0,0,1,84.79,55Z"/><path class="cls-6" d="M95.17,53.18a5.24,5.24,0,0,1-1.84,6.07h4.81V56.06A9.63,9.63,0,0,0,95.17,53.18Z"/><path class="cls-6" d="M95.5,55a5.3,5.3,0,0,0-.33-1.79,9.58,9.58,0,0,0-10.06,0A5.24,5.24,0,0,0,87,59.25h6.37A5.33,5.33,0,0,0,95.5,55Z"/><polygon class="cls-6" points="150.68 95.06 116.9 126.15 116.97 126.19 150.75 95.1 150.68 95.06"/><polygon class="cls-8" points="185.14 161.07 184.67 161.5 185.14 161.75 185.14 161.07"/><polygon class="cls-6" points="185.14 151.18 177.81 157.93 177.89 157.96 185.14 151.29 185.14 151.18"/><polygon class="cls-6" points="163.71 102.5 130.37 133.18 130.45 133.22 163.78 102.54 163.71 102.5"/><polygon class="cls-6" points="185.14 131.59 164.22 150.84 164.39 150.92 185.14 131.83 185.14 131.59"/><polygon class="cls-6" points="176.86 110.02 143.98 140.28 144.06 140.31 176.94 110.06 176.86 110.02"/><polygon class="cls-8" points="144.12 91.31 117.41 115.89 110.39 122.75 116.9 126.15 150.68 95.06 144.12 91.31"/><polygon class="cls-6" points="157.15 98.75 150.75 95.1 116.97 126.19 123.59 129.63 157.15 98.75"/><polygon class="cls-8" points="157.31 98.85 123.76 129.72 130.37 133.18 163.71 102.5 157.31 98.85"/><polygon class="cls-6" points="123.59 129.63 123.76 129.72 157.31 98.85 157.15 98.75 123.59 129.63"/><polygon class="cls-6" points="170.3 106.27 163.78 102.54 130.45 133.22 137.19 136.74 170.3 106.27"/><polygon class="cls-8" points="170.34 106.29 137.23 136.75 143.98 140.28 176.86 110.02 170.34 106.29"/><polygon class="cls-6" points="137.19 136.74 137.23 136.75 170.34 106.29 170.3 106.27 137.19 136.74"/><polygon class="cls-6" points="183.35 113.72 176.94 110.06 144.06 140.31 150.69 143.78 183.35 113.72"/><polygon class="cls-8" points="185.14 114.75 183.49 113.81 150.84 143.85 157.44 147.3 185.14 121.8 185.14 114.75"/><polygon class="cls-6" points="183.35 113.72 150.69 143.78 150.84 143.85 183.49 113.81 183.35 113.72"/><polygon class="cls-6" points="185.14 121.86 157.47 147.31 164.22 150.84 185.14 131.59 185.14 121.86"/><polygon class="cls-6" points="157.44 147.3 157.47 147.31 185.14 121.86 185.14 121.8 157.44 147.3"/><polygon class="cls-8" points="185.14 141.4 185.14 131.83 164.39 150.92 171.03 154.38 185.14 141.4"/><polygon class="cls-6" points="185.14 141.62 171.18 154.47 177.81 157.93 185.14 151.18 185.14 141.62"/><polygon class="cls-6" points="171.03 154.38 171.18 154.47 185.14 141.62 185.14 141.4 171.03 154.38"/><polygon class="cls-8" points="185.14 151.29 177.89 157.96 184.67 161.5 185.14 161.07 185.14 151.29"/><path class="cls-1" d="M119.34,150.37a45.93,45.93,0,0,1-28.29,16l34.34,17.19a49.25,49.25,0,0,1-6.75-24.77A49.76,49.76,0,0,1,119.34,150.37Z"/><path class="cls-1" d="M185.32,213.57l0-8.5a49.21,49.21,0,0,1-11.5,2.73Z"/><path class="cls-1" d="M125.75,131.27l-10.16-5.19a32,32,0,0,1-31.47,26.84c-.67,0-1.34,0-2-.06l0,9.07L86,163.87a43,43,0,0,0,35.52-22,49.24,49.24,0,0,1,3.1-6.89C125.06,133.78,125.43,132.53,125.75,131.27Z"/><path class="cls-5" d="M84.12,149.94c-.67,0-1.34,0-2-.07v3c.66,0,1.33.06,2,.06a32,32,0,0,0,31.43-26.89l-2.83-1.44A29,29,0,0,1,84.12,149.94Z"/><path class="cls-1" d="M112.76,124.64l-16.23-8.28A14,14,0,0,1,83,133.92c-.34,0-.67,0-1,0l.05,16c.66,0,1.33.07,2,.07A29,29,0,0,0,112.76,124.64Z"/><path class="cls-5" d="M94,119.89a11,11,0,0,1-11,11c-.34,0-.67,0-1,0v3c.33,0,.66,0,1,0a14,14,0,0,0,13.48-17.57l-4.11-2.09A10.93,10.93,0,0,1,94,119.89Z"/><path class="cls-9" d="M94,119.89a10.93,10.93,0,0,0-1.58-5.62L82.05,109H82l.08,21.9c.33,0,.66,0,1,0A11,11,0,0,0,94,119.89Z"/><path class="cls-5" d="M168.29,204.9H168l5.81,2.91a49.21,49.21,0,0,0,11.5-2.73v-3.47A46.12,46.12,0,0,1,168.29,204.9Z"/><path class="cls-5" d="M121.86,158.79a46.12,46.12,0,0,1,3.32-17.38q.69-1.73,1.52-3.38a45.69,45.69,0,0,0,1.78-5.37l-1.88-1c-.7,1.07-1.36,2.17-2,3.29A43,43,0,0,1,86,163.87l5,2.52a45.93,45.93,0,0,0,28.29-16,49.76,49.76,0,0,0-.7,8.44,49.25,49.25,0,0,0,6.75,24.77l5.79,2.9A46.07,46.07,0,0,1,121.86,158.79Z"/><path class="cls-1" d="M125.19,141.41a46.28,46.28,0,0,0,6,45.05L168,204.9h.3a46.12,46.12,0,0,0,17-3.3l0-14.32a34.43,34.43,0,0,1-46.55-49.42l-9.18-4.69A46.23,46.23,0,0,0,126.7,138Q126,139.76,125.19,141.41Z"/><path class="cls-6" d="M125.19,141.41q.82-1.65,1.52-3.38Q125.88,139.68,125.19,141.41Z"/><path class="cls-5" d="M166.24,189.84a31.2,31.2,0,0,1-24.64-50.49l-2.93-1.49a34.43,34.43,0,0,0,46.55,49.42v-4A31.06,31.06,0,0,1,166.24,189.84Z"/><path class="cls-1" d="M166.24,189.84a31.06,31.06,0,0,0,19-6.52l-.07-21.75-5-2.57a14,14,0,1,1-22.48-11.47l-16-8.18a31.2,31.2,0,0,0,24.64,50.49Z"/><path class="cls-5" d="M177.13,158.6a11,11,0,1,1-16.45-9.51l-3.05-1.56A14,14,0,1,0,180.11,159l-3-1.55A11.07,11.07,0,0,1,177.13,158.6Z"/><path class="cls-9" d="M155.13,158.68a11,11,0,1,0,21.94-1.22l-16.39-8.36A11,11,0,0,0,155.13,158.68Z"/><path class="cls-6" d="M2.32,275.4s-.6-55.3-.28-57c0-7,6.26-18.27,8-19.5l70.44-90.2,104.8,53.4.56,114Z"/><path class="cls-10" d="M53.3,186.94c-.22-6.29-8.18-3.87-8.18-3.87a4.67,4.67,0,0,0,2.28-4.18c.17-4.41-4-4.64-5-4.64s-5.15.23-5,4.64a4.67,4.67,0,0,0,2.28,4.18s-8-2.42-8.18,3.87c-.16,4.48,6.48,6.42,10.39,1.36-.71,4.17-4.46,5.57-6.55,5.86a51.41,51.41,0,0,0,7-.06,51.41,51.41,0,0,0,7,.06c-2.09-.29-5.83-1.69-6.55-5.86C46.82,193.35,53.46,191.42,53.3,186.94Z"/><path class="cls-10" d="M53.3,221.94c-.22-6.29-8.18-3.87-8.18-3.87a4.67,4.67,0,0,0,2.28-4.18c.17-4.41-4-4.64-5-4.64s-5.15.23-5,4.64a4.67,4.67,0,0,0,2.28,4.18s-8-2.42-8.18,3.87c-.16,4.48,6.48,6.42,10.39,1.36-.71,4.17-4.46,5.57-6.55,5.86a51.41,51.41,0,0,0,7-.06,51.41,51.41,0,0,0,7,.06c-2.09-.29-5.83-1.69-6.55-5.86C46.82,228.35,53.46,226.42,53.3,221.94Z"/><path class="cls-10" d="M53.3,255.94c-.22-6.29-8.18-3.87-8.18-3.87a4.67,4.67,0,0,0,2.28-4.18c.17-4.41-4-4.64-5-4.64s-5.15.23-5,4.64a4.67,4.67,0,0,0,2.28,4.18s-8-2.42-8.18,3.87c-.16,4.48,6.48,6.42,10.39,1.36-.71,4.17-4.46,5.57-6.55,5.86a51.41,51.41,0,0,0,7-.06,51.41,51.41,0,0,0,7,.06c-2.09-.29-5.83-1.69-6.55-5.86C46.82,262.35,53.46,260.42,53.3,255.94Z"/><circle class="cls-5" cx="91.64" cy="183.25" r="5.5" transform="translate(-84.85 79.18) rotate(-32.91)"/><circle class="cls-11" cx="91.64" cy="183.25" r="3"/><circle class="cls-5" cx="91.64" cy="203.25" r="5.5"/><circle class="cls-11" cx="91.64" cy="203.25" r="3"/><circle class="cls-5" cx="91.64" cy="223.25" r="5.5"/><circle class="cls-11" cx="91.64" cy="223.25" r="3"/><circle class="cls-5" cx="91.64" cy="243.25" r="5.5"/><circle class="cls-11" cx="91.64" cy="243.25" r="3"/><circle class="cls-5" cx="91.64" cy="263.25" r="5.5"/><circle class="cls-11" cx="91.64" cy="263.25" r="3"/><polygon class="cls-4" points="135.64 276.25 123.64 276.25 153.83 204.26 164.39 208.68 135.64 276.25"/><polygon class="cls-4" points="186.05 214.23 185.64 220.25 81.64 168.25 82.16 161.15 186.05 214.23"/><path class="cls-4" d="M136.64,225.25l-18-9s-5-2-6,1c-1.14,3.42,2.55,4.5,2.55,4.5"/><path class="cls-4" d="M129.19,221.75s-3.69-1.08-2.55-4.5c1-3,6-1,6-1l13,7-11.47,27.93-21.89-10.51s-4.64-1.42-3.64-4.42,4.49-1.31,4.49-1.31l11.51,5.31"/><path class="cls-4" d="M127.64,228.25l-14-7s-5.39-3.22-7,0c-2,4,1.55,5.5,1.55,5.5"/><path class="cls-4" d="M124.64,233.25l-12-6s-4.39-2.22-6,1c-2,4,3.55,5.5,3.55,5.5l2.1.89"/><rect class="cls-6" x="57.64" y="147" width="13" height="0.25"/><polygon class="cls-6" points="69.82 122.25 70.64 122.25 70.64 121.17 69.82 122.25"/><rect class="cls-6" x="57.64" y="246.25" width="13" height="8.25"/><rect class="cls-6" x="57.64" y="254.5" width="13" height="8.25"/><rect class="cls-6" x="57.64" y="262.75" width="13" height="8.25"/><rect class="cls-6" x="57.64" y="271" width="13" height="5.1"/><rect class="cls-6" x="57.64" y="213.25" width="13" height="8.25"/><rect class="cls-6" x="57.64" y="221.5" width="13" height="8.25"/><rect class="cls-6" x="57.64" y="229.75" width="13" height="8.25"/><rect class="cls-6" x="57.64" y="180.25" width="13" height="8.25"/><rect class="cls-6" x="57.64" y="188.5" width="13" height="8.25"/><rect class="cls-6" x="57.64" y="196.75" width="13" height="8.25"/><rect class="cls-6" x="57.64" y="205" width="13" height="8.25"/><rect class="cls-6" x="57.64" y="147.25" width="13" height="8.25"/><rect class="cls-6" x="57.64" y="155.5" width="13" height="8.25"/><rect class="cls-6" x="57.64" y="163.75" width="13" height="8.25"/><polygon class="cls-6" points="63.54 130.5 70.64 130.5 70.64 122.25 69.82 122.25 63.54 130.5"/><polygon class="cls-6" points="57.64 138.25 57.64 138.75 70.64 138.75 70.64 130.5 63.54 130.5 57.64 138.25"/><rect class="cls-6" x="57.64" y="138.75" width="13" height="8.25"/><rect class="cls-6" x="57.64" y="172" width="13" height="8.25"/><rect class="cls-6" x="57.64" y="238" width="13" height="8.25"/><path class="cls-10" d="M80.44,275.1h1.7v-2.83l-3.53-3.53,3.53-3.53v-6l-3.66-3.66,3.66-3.66v-5l-3.66-3.66,3.66-3.66v-4.42l-4-4,4-4v-5.41l-3.53-3.53,3.53-3.53v-6l-3.66-3.66,3.66-3.66v-5l-3.66-3.66,3.66-3.66v-5l-4-4,4-4v-5.41L78.61,167l3.53-3.53v-6l-3.66-3.66,3.66-3.66v-5l-3.66-3.66,3.66-3.66v-4.42l-4-4,4-4V120l-3.53-3.53,3.53-3.53v-4.15l-1.5-.5-.71.93.76.76-4.41,4.41-.19-.19-5.45,7.08v4.11l4,4-4,4v3.74L75,141.4l-4.31,4.31v4.73l3.87,3.87-3.87,3.87v5.37L74.08,167l-3.44,3.44v5.48l4,4-4,4v4.37L75,192.59l-4.31,4.31v4.73l3.87,3.87-3.87,3.87v5.37l3.44,3.44-3.44,3.44v5.48l4,4-4,4v3.74L75,243.15l-4.31,4.31v4.73l3.87,3.87-3.87,3.87v5.37l3.44,3.44-3.44,3.44v2.93h1.72l4-4ZM72,123.17l4.41-4.41,4.41,4.41-4.41,4.41Zm.32,12.05,4.41-4.41,4.41,4.41-4.41,4.41Zm0,12.36,4.41-4.41,4.41,4.41L76.72,152Zm-.44,12.92,4.41-4.41,4.41,4.41-4.41,4.41ZM72,173.73l4.41-4.41,4.41,4.41-4.41,4.41Zm.32,12.67L76.72,182l4.41,4.41-4.41,4.41Zm0,12.36,4.41-4.41,4.41,4.41-4.41,4.41Zm-.44,12.92,4.41-4.41,4.41,4.41-4.41,4.41ZM72,224.92l4.41-4.41,4.41,4.41-4.41,4.41ZM72.31,237l4.41-4.41L81.13,237l-4.41,4.41Zm0,12.36,4.41-4.41,4.41,4.41-4.41,4.41Zm-.44,12.92,4.41-4.41,4.41,4.41-4.41,4.41Z"/><polygon class="cls-12" points="70.64 265.3 70.64 272.18 74.08 268.74 70.64 265.3"/><polygon class="cls-12" points="82.14 272.27 82.14 265.21 78.61 268.74 82.14 272.27"/><polygon class="cls-12" points="76.41 271.06 72.37 275.1 80.44 275.1 76.41 271.06"/><polygon class="cls-12" points="82.14 259.16 82.14 251.85 78.49 255.51 82.14 259.16"/><rect class="cls-12" x="73.6" y="233.85" width="6.24" height="6.24" transform="translate(-145.09 123.66) rotate(-45)"/><polygon class="cls-12" points="82.14 246.8 82.14 239.49 78.49 243.15 82.14 246.8"/><polygon class="cls-12" points="70.64 238.84 70.64 247.46 74.95 243.15 70.64 238.84"/><rect class="cls-12" x="73.6" y="246.21" width="6.24" height="6.24" transform="translate(-153.83 127.28) rotate(-45)"/><rect class="cls-12" x="73.16" y="259.12" width="6.24" height="6.24" transform="translate(-163.1 130.75) rotate(-45)"/><polygon class="cls-12" points="70.64 252.19 70.64 259.94 74.51 256.06 70.64 252.19"/><polygon class="cls-12" points="70.64 214.74 70.64 221.62 74.08 218.18 70.64 214.74"/><polygon class="cls-12" points="82.14 221.71 82.14 214.65 78.61 218.18 82.14 221.71"/><rect class="cls-12" x="73.28" y="221.8" width="6.24" height="6.24" transform="translate(-136.66 119.9) rotate(-45)"/><polygon class="cls-12" points="82.14 235.07 82.14 227.12 78.17 231.1 82.14 235.07"/><polygon class="cls-12" points="70.64 227.1 70.64 235.09 74.64 231.1 70.64 227.1"/><polygon class="cls-12" points="82.14 208.6 82.14 201.29 78.49 204.95 82.14 208.6"/><rect class="cls-12" x="73.6" y="183.29" width="6.24" height="6.24" transform="translate(-109.34 108.85) rotate(-45)"/><polygon class="cls-12" points="82.14 196.24 82.14 188.93 78.49 192.59 82.14 196.24"/><polygon class="cls-12" points="70.64 188.28 70.64 196.9 74.95 192.59 70.64 188.28"/><rect class="cls-12" x="73.6" y="195.65" width="6.24" height="6.24" transform="translate(-118.08 112.47) rotate(-45)"/><rect class="cls-12" x="73.16" y="208.56" width="6.24" height="6.24" transform="translate(-127.34 115.94) rotate(-45)"/><polygon class="cls-12" points="70.64 201.63 70.64 209.38 74.51 205.5 70.64 201.63"/><polygon class="cls-12" points="70.64 163.56 70.64 170.43 74.08 167 70.64 163.56"/><polygon class="cls-12" points="82.14 170.53 82.14 163.46 78.61 167 82.14 170.53"/><rect class="cls-12" x="73.28" y="170.61" width="6.24" height="6.24" transform="translate(-100.47 104.91) rotate(-45)"/><polygon class="cls-12" points="82.14 183.88 82.14 175.94 78.17 179.91 82.14 183.88"/><polygon class="cls-12" points="70.64 175.92 70.64 183.91 74.64 179.91 70.64 175.92"/><polygon class="cls-12" points="82.14 157.42 82.14 150.1 78.49 153.76 82.14 157.42"/><rect class="cls-12" x="73.6" y="132.1" width="6.24" height="6.24" transform="translate(-73.15 93.86) rotate(-45)"/><polygon class="cls-12" points="82.14 145.06 82.14 137.75 78.49 141.4 82.14 145.06"/><polygon class="cls-12" points="70.64 137.09 70.64 145.72 74.95 141.4 70.64 137.09"/><rect class="cls-12" x="73.6" y="144.46" width="6.24" height="6.24" transform="translate(-81.89 97.48) rotate(-45)"/><rect class="cls-12" x="73.16" y="157.38" width="6.24" height="6.24" transform="translate(-91.15 100.95) rotate(-45)"/><polygon class="cls-12" points="70.64 150.45 70.64 158.19 74.51 154.32 70.64 150.45"/><polygon class="cls-12" points="82.14 119.97 82.14 112.9 78.61 116.44 82.14 119.97"/><rect class="cls-12" x="73.28" y="120.05" width="6.24" height="6.24" transform="translate(-64.72 90.1) rotate(-45)"/><polygon class="cls-12" points="82.14 133.33 82.14 125.38 78.17 129.35 82.14 133.33"/><polygon class="cls-12" points="70.64 125.36 70.64 133.35 74.64 129.35 70.64 125.36"/><polygon class="cls-12" points="80.69 109.94 79.93 109.18 76.09 114.17 76.28 114.35 80.69 109.94"/></svg>