<svg id="Слой_1" data-name="Слой 1" xmlns="http://www.w3.org/2000/svg" viewBox="0 0 209 281" width="209" height="281"><defs><style>.cls-1{fill:#1a1a1a;}.cls-1,.cls-2,.cls-3,.cls-4,.cls-5,.cls-6,.cls-7,.cls-8{stroke:#000;stroke-linecap:round;stroke-linejoin:round;}.cls-1,.cls-2,.cls-3,.cls-4,.cls-6,.cls-7,.cls-8{stroke-width:1.5px;}.cls-2{fill:#940a0a;}.cls-3{fill:#fff;}.cls-4,.cls-5{fill:none;}.cls-5{stroke-width:0.75px;}.cls-6{fill:#ffdc87;}.cls-7{fill:#a3853a;}.cls-8{fill:gray;}</style></defs><title>QueenOfDiamonds</title><path class="cls-1" d="M187.52,104c-11-12-16-17-16-17s-19,13-23,15c-3.22,1.61-9,3-14,1-8-3.19-20-15-20-15v21s-9,37-31,69c-23.12,33.62-34,34-37,35-1,4,0,66,0,66h77.65a112.26,112.26,0,0,1,71.42-74.11c4.72,3.38,9.15,5.86,10.94,7.11V137S198.52,116,187.52,104Z"/><path class="cls-2" d="M181.08,119.5a28.91,28.91,0,0,1-12,4.5H143.52s1.56,2.19,4,5.56c2.64,3.63,6.32,8.64,10.18,13.78,3.36,4.47,6.87,9,10,12.88a80.17,80.17,0,0,0,7.83,8.78l6.18,5.29c4.79,4.1,10.23,8.71,14.82,12.51,4.84,4,8.75,7.09,10,7.71V138L184,117.39A22.29,22.29,0,0,1,181.08,119.5Z"/><rect class="cls-3" x="114.52" y="31" width="78" height="84"/><path class="cls-2" d="M134.65,279h71.87V212A103.37,103.37,0,0,0,134.65,279Z"/><polyline class="cls-4" points="172.02 87.5 172.02 52.5 135.02 34.5 114.02 48.5"/><line class="cls-4" x1="114.02" y1="41.5" x2="127.02" y2="30.5"/><polyline class="cls-4" points="149.02 30.5 180.02 44.5 180.02 95.5"/><polyline class="cls-4" points="169.02 31.5 187.02 40.5 187.02 104.5"/><polygon class="cls-2" points="113.94 31 192.58 31 205.52 6 161.72 18 127.88 2 113.94 17 97.02 7 113.94 31"/><path class="cls-5" d="M115.52,51s12-3,18,3c2,4-4,23-4,23h11V74"/><path class="cls-5" d="M140.52,54a39.58,39.58,0,0,1,6-4c2-1,9-1,11,0"/><path class="cls-5" d="M129.52,84a22.69,22.69,0,0,0,4,1h7s4,0,5-1c-2-2-5-4-6-3-2.55,2.55-3,0-5,0C133.11,81,129.52,84,129.52,84Z"/><path class="cls-5" d="M133.52,88c1,0,5,1,7,0s4.45-3.12,4.23-3.56c-1.23.56-5.06.56-8.64.56s-5.25-.34-5.92-.67S132.52,88,133.52,88Z"/><path class="cls-5" d="M132.52,91s0,1,2,1h7a1,1,0,0,0,1-1"/><path class="cls-5" d="M144.52,58a8.57,8.57,0,0,0,3,3c2,1,7,1,8,0,.71-.71,2-1,3-3,0-1-2-4-4-5a6.38,6.38,0,0,0-6,0C146.52,54,144.52,58,144.52,58Z"/><path class="cls-5" d="M144.52,58a18.33,18.33,0,0,1,4-2c1.43-.37,4,0,6,0a7.14,7.14,0,0,1,4,1.8"/><path class="cls-5" d="M154.52,56c-.41,0-.85,0-1.3,0a2,2,0,1,1-3.33-.12,6.3,6.3,0,0,0-1.37.16,7.15,7.15,0,0,0-.93.33,4,4,0,1,0,7.83-.21A3.91,3.91,0,0,0,154.52,56Z"/><path class="cls-5" d="M149.89,55.84a2,2,0,1,0,3.33.12C152.09,55.91,150.9,55.81,149.89,55.84Z"/><path class="cls-5" d="M116.52,58a8.57,8.57,0,0,0,3,3c2,1,7,1,8,0,.71-.71,2-1,3-3,0-1-2-4-4-5a6.37,6.37,0,0,0-6,0C118.52,54,116.52,58,116.52,58Z"/><path class="cls-5" d="M116.52,58a18.33,18.33,0,0,1,4-2c1.43-.37,4,0,6,0a7.14,7.14,0,0,1,4,1.8"/><path class="cls-5" d="M126.52,56c-.41,0-.85,0-1.3,0a2,2,0,1,1-3.33-.12,6.3,6.3,0,0,0-1.37.16,7.15,7.15,0,0,0-.93.33,4,4,0,1,0,7.83-.21A3.91,3.91,0,0,0,126.52,56Z"/><path class="cls-5" d="M121.89,55.84a2,2,0,1,0,3.33.12C124.09,55.91,122.9,55.81,121.89,55.84Z"/><polygon class="cls-3" points="100.41 278 100.31 278 100.47 278.18 100.53 278.13 100.41 278"/><path class="cls-3" d="M104.52,166.5l-8.5-9c-.91,1.78-1.82,3.49-2.76,5.15L104.52,175Z"/><path class="cls-3" d="M104.52,183.8,90.12,168l0,.05,14.44,15.86Z"/><path class="cls-3" d="M86.57,173.48l17.95,19.72v-.54L86.78,173.17Z"/><path class="cls-3" d="M83,178.82l21.57,23.7V202L83.16,178.51Z"/><path class="cls-3" d="M75.89,188.49l28.63,31.45v-.29L76,188.34Z"/><polygon class="cls-3" points="68.52 278 76.96 278 68.52 268.73 68.52 278"/><polygon class="cls-3" points="68.52 198.33 68.52 199.74 69.08 199.23 104.52 238.17 104.52 237.87 104.51 237.87 68.52 198.33"/><polygon class="cls-3" points="68.52 208.61 69.08 208.1 104.52 247.04 104.52 246.95 68.52 207.4 68.52 208.61"/><polygon class="cls-3" points="68.52 225.63 104.52 265.18 104.52 264.79 68.52 225.24 68.52 225.63"/><polygon class="cls-3" points="104.52 273.85 104.52 273.78 104.48 273.81 104.52 273.85"/><path class="cls-3" d="M72,193.37l32.53,35.74v-.39L72.16,193.17Z"/><polygon class="cls-3" points="68.52 216.46 104.52 256.01 104.52 255.82 68.52 216.27 68.52 216.46"/><path class="cls-3" d="M104.52,175,93.26,162.65c-1,1.8-2.06,3.56-3.15,5.32l14.4,15.82Z"/><path class="cls-3" d="M90.08,168c-1.05,1.7-2.15,3.4-3.3,5.15l17.74,19.49v-8.78Z"/><path class="cls-3" d="M83.52,178l-.36.51L104.52,202V193.2L86.57,173.48C85.6,175,84.59,176.44,83.52,178Z"/><path class="cls-3" d="M79.62,183.52l24.9,27.36v-8.36L83,178.82Q81.24,181.28,79.62,183.52Z"/><path class="cls-3" d="M79.45,183.75c-1.18,1.62-2.33,3.14-3.44,4.59l28.51,31.32v-8.36Z"/><path class="cls-3" d="M104.52,211.29v-.41l-24.9-27.36-.17.23Z"/><path class="cls-3" d="M72.16,193.17l32.36,35.55v-8.78L75.89,188.49Q74,191,72.16,193.17Z"/><path class="cls-3" d="M68.52,197.39v.95l36,39.54h0v-8.76L72,193.37Q70.19,195.54,68.52,197.39Z"/><polygon class="cls-3" points="68.52 199.74 68.52 207.4 104.52 246.95 104.52 238.17 69.08 199.23 68.52 199.74"/><polygon class="cls-3" points="68.52 208.61 68.52 216.27 104.52 255.82 104.52 247.04 69.08 208.1 68.52 208.61"/><polygon class="cls-3" points="68.52 225.24 104.52 264.79 104.52 256.01 68.52 216.46 68.52 225.24"/><polygon class="cls-3" points="68.52 234.3 104.48 273.81 104.52 273.78 104.52 265.18 68.52 225.63 68.52 234.3"/><polygon class="cls-3" points="104.43 273.86 68.52 234.4 68.52 243.07 69.02 243.63 69.08 243.58 100.41 278 104.52 278 104.52 273.85 104.48 273.81 104.43 273.86"/><polygon class="cls-3" points="104.43 273.86 104.48 273.81 68.52 234.3 68.52 234.4 104.43 273.86"/><polygon class="cls-3" points="92.68 278 100.31 278 69.02 243.63 68.52 244.09 68.52 251.46 92.68 278"/><polygon class="cls-3" points="100.41 278 69.08 243.58 69.02 243.63 100.31 278 100.41 278"/><polygon class="cls-3" points="68.52 259.95 84.94 278 92.42 278 68.52 251.75 68.52 259.95"/><polygon class="cls-3" points="68.52 251.75 92.42 278 92.68 278 68.52 251.46 68.52 251.75"/><polygon class="cls-3" points="68.52 260.24 68.52 268.73 76.96 278 84.69 278 68.52 260.24"/><polygon class="cls-3" points="68.52 260.24 84.69 278 84.94 278 68.52 259.95 68.52 260.24"/><polygon class="cls-6" points="105.02 166.93 105.02 279 109.52 279 109.52 171.87 105.02 166.93"/><path class="cls-2" d="M68.52,278V197.39c-13,14.46-19.74,14.86-22,15.61v65Z"/><polygon class="cls-3" points="167.52 263 148.52 268 161.52 279 205.52 279 167.52 263"/><polygon class="cls-3" points="177.74 249.29 158.16 247.65 166.74 262.36 206.52 279 177.74 249.29"/><polygon class="cls-3" points="191.52 240 175.52 231 177.5 248.83 206.52 278 191.52 240"/><polygon class="cls-3" points="206.52 235 196.55 221.11 191.52 240 206.52 278 206.52 235"/><path class="cls-4" d="M143.52,124s25,35,32,41c9.72,8.33,28,24,31,25.51,0,5.49.5,22.49.5,22.49s-31.5-22-41.5-31-35-40-39-48l-5-10Z"/><path class="cls-3" d="M172.54,215.33a97.9,97.9,0,0,1,23.75-9.93c-2-1.43-4.17-3-6.41-4.62a29,29,0,0,1-38.17-33.6c-3.1-3.63-6.32-7.51-9.38-11.32-.41.2-.82.38-1.24.56a42.49,42.49,0,0,0,31.44,58.92Z"/><path class="cls-3" d="M133.78,144.81a29,29,0,0,1-29.41-6c-1.37,3.33-2.91,6.82-4.59,10.41.83.79,3.2,3.29,6.58,6.93a42.51,42.51,0,0,0,34.74.25c.2-.45.4-.9.61-1.35C138.84,151.47,136.13,148,133.78,144.81Z"/><path class="cls-4" d="M141.71,155.07c-.21.44-.41.9-.61,1.35.42-.18.83-.36,1.24-.56Z"/><path class="cls-2" d="M106.37,156.16c-3.38-3.64-5.75-6.14-6.58-6.93l-.27-.24c-.85,1.78-2.61,6.18-3.54,8l62.33,68.39q3.16-2.68,6.54-5.11S123.19,174.27,106.37,156.16Z"/><path class="cls-3" d="M192,109.58a70.61,70.61,0,0,1-8.06,7.81L206.52,138v-1S200.63,121.55,192,109.58Z"/><path class="cls-3" d="M188.53,105.13a57.93,57.93,0,0,1-10,8.87,28.91,28.91,0,0,1-12,4.5H111.78L110,124h59.06a28.91,28.91,0,0,0,12-4.5A62.43,62.43,0,0,0,192,109.58C190.89,108,189.73,106.53,188.53,105.13Z"/><path class="cls-7" d="M205.93,212.24c-1.78-1.25-5.63-4-10.35-7.35A112.26,112.26,0,0,0,124.17,279h10.48A102.21,102.21,0,0,1,205.93,212.24Z"/><path class="cls-4" d="M206.72,201.76c-.11-4.37-.2-8.88-.2-11.25V201.8Z"/><path class="cls-4" d="M206.52,212.09,207,212c-.05-1.85-.17-6-.27-10.22l-.2,0Z"/><path class="cls-4" d="M206.52,212.65l.5.35,0-1-.47.11Z"/><path class="cls-4" d="M206.52,212.09l-.59.15.59.41Z"/><path class="cls-7" d="M143.52,124h-22l5,10c.18.36.42.79.69,1.25l20.32-5.69C145.08,126.19,143.52,124,143.52,124Z"/><path class="cls-3" d="M147.53,129.56l-20.32,5.69a184.14,184.14,0,0,0,12.17,16.87l18.34-8.77C153.85,138.2,150.17,133.19,147.53,129.56Z"/><path class="cls-3" d="M207,213s-.5-17-.5-22.49c-1.25-.62-5.16-3.71-10-7.71l-9,16.26C197.66,206.46,207,213,207,213Z"/><path class="cls-3" d="M175.52,165a80.17,80.17,0,0,1-7.83-8.78c-4.26,3.56-11.07,9.15-15.09,12A171.59,171.59,0,0,0,165.52,182c1.05.94,2.35,2,3.81,3.23,3.58-4,9.42-11.25,12.37-14.94Z"/><path class="cls-7" d="M157.72,143.34l-18.34,8.77c4.18,5.32,8.84,11,13.23,16.09,4-2.84,10.82-8.44,15.09-12C164.59,152.37,161.08,147.81,157.72,143.34Z"/><path class="cls-7" d="M196.52,182.8c-4.6-3.8-10-8.42-14.82-12.51-2.95,3.69-8.79,10.94-12.37,14.94,4.88,4,11.69,9.08,18.2,13.83Z"/><path class="cls-3" d="M26,201.5s-4,29,2,49c4.39,14.62,8,17,8,17l6-5s-8-9-10-19-4-30-2-37A36.09,36.09,0,0,0,26,201.5Z"/><path class="cls-3" d="M25,211.5s-6.1-9.7-16-13c-3-1-7-6-7-6s-1,14,7,20c5.37,4,13,1,16,1Z"/><rect class="cls-3" x="22.34" y="161.68" width="15.36" height="15.36" transform="translate(128.55 28.38) rotate(45)"/><rect class="cls-3" x="22.34" y="187.68" width="15.36" height="15.36" transform="translate(146.94 35.99) rotate(45)"/><rect class="cls-3" x="35.34" y="173.68" width="15.36" height="15.36" transform="translate(201.68 279.19) rotate(135)"/><rect class="cls-3" x="9.34" y="173.68" width="15.36" height="15.36" transform="translate(157.3 297.57) rotate(135)"/><circle class="cls-3" cx="30.02" cy="181.5" r="6"/><rect class="cls-3" x="25.4" y="221.63" width="6.75" height="18" rx="3.18" ry="3.18" transform="translate(-201.86 259.39) rotate(-90)"/><rect class="cls-3" x="23.4" y="214.87" width="6.75" height="18" rx="3.18" ry="3.18" transform="translate(-197.1 250.64) rotate(-90)"/><rect class="cls-3" x="24.4" y="208.12" width="6.75" height="18" rx="3.18" ry="3.18" transform="translate(-189.35 244.89) rotate(-90)"/><path class="cls-3" d="M41.77,231.25c-1-1-5-3-6-9-2,3-7,6-7,6v-15h17v27h-9.5"/><rect class="cls-3" x="25.9" y="228.88" width="6.75" height="17" rx="3.09" ry="3.09" transform="translate(-208.11 266.64) rotate(-90)"/><polygon class="cls-3" points="186.21 149.49 166.18 151.36 171.17 131.62 192 129.63 186.21 149.49"/><path class="cls-3" d="M151.1,124l-1.81,5.22,20.12-.15,2.13-5.5a21.5,21.5,0,0,1-2.47.44Z"/><polygon class="cls-3" points="187.86 149.99 186.07 170.28 205.55 165.24 206.52 157.48 206.52 145.13 187.86 149.99"/><path class="cls-1" d="M190.33,107.33q.86,1.1,1.69,2.25Q191.19,108.43,190.33,107.33Z"/><path class="cls-1" d="M188.53,105.13c.59.68,1.16,1.38,1.73,2.11C189.69,106.52,189.11,105.81,188.53,105.13Z"/><path class="cls-2" d="M178.52,114a57.93,57.93,0,0,0,10-8.87q-.5-.58-1-1.13c-11-12-16-17-16-17s-19,13-23,15c-3.22,1.61-9,3-14,1-8-3.19-20-15-20-15v21s-.87,3.59-2.74,9.5h54.74A28.91,28.91,0,0,0,178.52,114Z"/><polygon class="cls-3" points="188.53 105.13 188.53 105.13 188.53 105.13 188.53 105.13"/><polygon class="cls-3" points="192.01 109.58 192.01 109.58 192.01 109.58 192.01 109.58"/><path class="cls-3" d="M111.78,118.5l-.21.67.21-.67Z"/><path class="cls-3" d="M190.25,107.24l.08.09Z"/><path class="cls-3" d="M151,173.5a29.07,29.07,0,0,1,.7-6.32c-3.1-3.63-6.32-7.51-9.38-11.32"/><path class="cls-8" d="M189.88,200.78A29,29,0,0,1,151,173.5l.7-6.33.89,1A171.59,171.59,0,0,0,165.52,182c1.05.94,2.35,2,3.81,3.23,4.88,4,11.69,9.08,18.2,13.83l2.35,1.71"/><path class="cls-8" d="M124,146.5a28.94,28.94,0,0,0,9.76-1.69c-2.91-3.92-5.24-7.28-6.58-9.56-.27-.46-.51-.88-.69-1.25l-5-10H110s-2.51,7.25-5.72,15l.08-.18A28.89,28.89,0,0,0,124,146.5Z"/></svg>