<svg id="Слой_1" data-name="Слой 1" xmlns="http://www.w3.org/2000/svg" xmlns:xlink="http://www.w3.org/1999/xlink" viewBox="0 0 195 279.5" width="195" height="279.5"><defs><style>.cls-1,.cls-10,.cls-14,.cls-5,.cls-9{fill:none;}.cls-1,.cls-10,.cls-11,.cls-12,.cls-13,.cls-14,.cls-16,.cls-17,.cls-3,.cls-4,.cls-6,.cls-7,.cls-8,.cls-9{stroke:#000;stroke-linecap:round;stroke-linejoin:round;}.cls-1,.cls-14{stroke-width:0.75px;}.cls-2{clip-path:url(#clip-path);}.cls-17,.cls-3{fill:#940a0a;}.cls-10,.cls-11,.cls-12,.cls-13,.cls-16,.cls-17,.cls-3,.cls-4,.cls-6,.cls-7,.cls-8,.cls-9{stroke-width:1.5px;}.cls-11,.cls-12,.cls-13,.cls-14,.cls-3,.cls-8,.cls-9{fill-rule:evenodd;}.cls-13,.cls-4{fill:#a3853a;}.cls-11,.cls-15,.cls-6{fill:#fff;}.cls-12,.cls-7{fill:gray;}.cls-16,.cls-8{fill:#1a1a1a;}</style><clipPath id="clip-path"><path class="cls-1" d="M-221.76,223.5s18.94-29.38,27-45.5a273.34,273.34,0,0,0,15-38l105,78v58h-147Z"/></clipPath></defs><title>QueenOfHearts</title><g class="cls-2"><path class="cls-1" d="M-197.76,185l76,57-29,34h-35l-34-55S-202.76,193-197.76,185Z"/></g><path class="cls-1" d="M-221.76,223.5s18.94-29.38,27-45.5a273.34,273.34,0,0,0,15-38l105,78v58h-147Z"/><path class="cls-3" d="M111.51,32.75s-.27,74.25-.27,88.25c-6,30-41,78-74,91-1.1,27.5-1,66-1,66h157l-.88-231.7L182,32.75Z"/><path class="cls-4" d="M192.24,191s-13.56-2.72-33-20.11h0c-1-.9-2-1.84-3.07-2.82-21.51-20.37-26.3-44.86-26.3-44.86l19.35-.21c4.95,14,21,38,43,48Z"/><path class="cls-5" d="M139.95,103h-6.27A19.26,19.26,0,0,0,139.95,103Z"/><path class="cls-6" d="M120.24,94c4.34,5.71,9,8.24,13.44,9h6.27c5.19-.82,9.64-3.41,12.29-5,8.65-5.19,14.25-13.71,17.46-20a41.48,41.48,0,0,0,3.54-10c.71,1.06-1-35-1-35h-61l.27,48A151.25,151.25,0,0,0,120.24,94Z"/><path class="cls-7" d="M169.69,78c-3.2,6.29-8.81,14.82-17.46,20A44.91,44.91,0,0,0,169.69,78Z"/><path class="cls-8" d="M193.24,277.75V243s-51.23-17.66-75-55.36v90.26Z"/><polygon class="cls-9" points="158.25 32.75 118.24 32.75 111.5 32.75 111.5 44.57 158.25 44.57 158.25 32.75"/><line class="cls-10" x1="116.24" y1="45" x2="116.24" y2="33"/><line class="cls-10" x1="122.24" y1="45" x2="122.24" y2="33"/><line class="cls-10" x1="128.24" y1="45" x2="128.24" y2="33"/><line class="cls-10" x1="134.24" y1="45" x2="134.24" y2="33"/><line class="cls-10" x1="140.24" y1="45" x2="140.24" y2="33"/><line class="cls-10" x1="146.24" y1="45" x2="146.24" y2="33"/><line class="cls-10" x1="152.24" y1="45" x2="152.24" y2="33"/><rect class="cls-10" x="18.74" y="196.27" width="8.31" height="75.23"/><path class="cls-11" d="M129,125.21S116.24,184,91.24,214c-23.4,28.08-55.58,36.2-55.58,36.2V232.78s30.58-9.7,53.26-40.08c18.14-24.29,30.13-60.48,31-69.28A55.66,55.66,0,0,1,129,125.21Z"/><path class="cls-9" d="M192.24,243s-59-21-79.18-65.34c7.42-15,16.83-54.45,16.83-54.45s4.79,24.48,26.3,44.86c21,19.94,36,22.94,36,22.94Z"/><path class="cls-12" d="M192.34,132.12S179.24,122,176.24,114c-8.48,6.1-19.48,7-27,7,3,14,19.28,36.45,43.12,50.45C192.17,162.1,192.34,132.12,192.34,132.12Z"/><polygon class="cls-13" points="184.74 28.15 188.02 21.65 103.18 21.65 108.87 28.15 184.74 28.15"/><polygon class="cls-9" points="108.87 28.15 112.5 32.5 183 32.5 184.74 28.15 108.87 28.15"/><polygon class="cls-13" points="118.24 224 193.24 272 193.24 278.19 118.24 278 118.24 224"/><polygon class="cls-11" points="193.26 47.3 184.24 33 173.67 32.5 193.24 59.01 193.26 47.3"/><polygon class="cls-11" points="146.99 32.5 192.24 93 192.24 82 156.59 32.5 146.99 32.5"/><polygon class="cls-3" points="173.67 32.5 156.59 32.5 192.74 82.65 192.79 59.01 173.67 32.5"/><path class="cls-3" d="M193.24,11s-5,0-16,4c-13-2.49-49-13-49-13s-23.82,12.85-25,13c-3.67-2.85-9-2.8-9-2.8l8.92,9.45H188Z"/><path class="cls-12" d="M192.24,92.48,189,88.62l3.23,4.32Z"/><path class="cls-12" d="M169.69,78c-3.2,6.29-8.81,14.82-17.46,20A44.91,44.91,0,0,0,169.69,78Z"/><path class="cls-12" d="M192.24,93l0-.06-.06.52C192.2,93.16,192.24,93,192.24,93Z"/><path class="cls-11" d="M111.51,113.58V121s5.17,1.54,11.82,2.92l.68-23.3Z"/><path class="cls-11" d="M150.3,125.26c8.77-1.19,18.84-3.87,26.11-8.46L152.24,101Z"/><path class="cls-11" d="M177.31,116.22a26,26,0,0,0,4.92-4.22,46.24,46.24,0,0,0,8.93-15.31c-5-1.42-25.82-7.36-26.93-7.69S174,109.87,177.31,116.22Z"/><path class="cls-11" d="M125.06,124.26A84.1,84.1,0,0,0,140.24,126a75.85,75.85,0,0,0,9.58-.67L137.57,105.7Z"/><path class="cls-12" d="M192.24,92A19.27,19.27,0,0,1,189,88.62c-4.65-6.24-12.91-16.4-15.73-20.62a41.48,41.48,0,0,1-3.54,10,44.91,44.91,0,0,1-17.46,20c-5.78,3.47-20.08,11.68-32-4a151.25,151.25,0,0,1-8.73-13v32.58l12.5-13-.68,23.3,1.73.35,12.51-18.56,12.25,19.62.48-.06L152.24,101l24.17,15.8.91-.59C174,109.87,163.17,88.68,164.24,89s21.94,6.27,26.93,7.69A41.49,41.49,0,0,0,192.24,92"/><path class="cls-14" d="M111.51,48h12.23s6,.5,6,4.5v22h10l-2-3"/><path class="cls-14" d="M122.74,84.5h23l-8-3s-3,0-4,2a3.55,3.55,0,0,0-3-2Z"/><path class="cls-14" d="M122.74,84.5a32.17,32.17,0,0,0,7,4c1.34.45,6.32.89,9,0a32.17,32.17,0,0,0,7-4Z"/><path class="cls-14" d="M139.74,54.5s-1-4,6-6h12"/><path class="cls-14" d="M141.74,57.5a8.61,8.61,0,0,0,8,5c6,0,7-2,9-5"/><path class="cls-14" d="M158.74,57.5s-3-5-8-5a10.5,10.5,0,0,0-9,5Z"/><path class="cls-14" d="M152.46,57.5a2,2,0,0,1,.28,1,2,2,0,0,1-4,0,2,2,0,0,1,.28-1h-2.14a4,4,0,1,0,7.72,0Z"/><path class="cls-14" d="M148.74,58.5a2,2,0,0,0,4,0,2,2,0,0,0-.28-1H149A2,2,0,0,0,148.74,58.5Z"/><path class="cls-14" d="M111.74,57.5a8.61,8.61,0,0,0,8,5c6,0,7-2,9-5"/><path class="cls-14" d="M128.74,57.5s-3-5-8-5a10.5,10.5,0,0,0-9,5Z"/><path class="cls-14" d="M122.46,57.5a2,2,0,0,1,.28,1,2,2,0,0,1-4,0,2,2,0,0,1,.28-1h-2.14a4,4,0,1,0,7.72,0Z"/><path class="cls-14" d="M118.74,58.5a2,2,0,0,0,4,0,2,2,0,0,0-.28-1H119A2,2,0,0,0,118.74,58.5Z"/><line class="cls-10" x1="23.24" y1="202" x2="26.74" y2="202"/><line class="cls-10" x1="23.24" y1="207" x2="26.74" y2="207"/><line class="cls-10" x1="23.24" y1="212" x2="26.74" y2="212"/><line class="cls-10" x1="23.24" y1="217" x2="26.74" y2="217"/><line class="cls-10" x1="23.24" y1="222" x2="26.74" y2="222"/><line class="cls-10" x1="23.24" y1="227" x2="26.74" y2="227"/><line class="cls-10" x1="23.24" y1="262" x2="26.74" y2="262"/><line class="cls-10" x1="23.24" y1="267" x2="26.74" y2="267"/><rect class="cls-10" x="18.74" y="196.27" width="8.31" height="75.23"/><path class="cls-6" d="M36.13,167.14c-7.5-6.58-13.18,2.33-13.18,2.33-.1-.17-6-8.85-13.43-2.33-6.2,5.44-2.86,17.07,13.18,23.08C37.52,185,42.33,172.58,36.13,167.14Z"/><line class="cls-10" x1="23.24" y1="169.5" x2="38.77" y2="169.5"/><line class="cls-10" x1="23.24" y1="175" x2="38.77" y2="175"/><line class="cls-10" x1="23.24" y1="181" x2="35.74" y2="181"/><line class="cls-10" x1="23.24" y1="186" x2="30.74" y2="186"/><path class="cls-11" d="M1.74,198.28s10.47-11.72,20.93,1.55C15.29,205.94,8.24,207,1.74,198.28Z"/><path class="cls-11" d="M44.74,198.28s-10.47-11.72-20.93,1.55C31.18,205.94,38.24,207,44.74,198.28Z"/><ellipse class="cls-6" cx="23.24" cy="192.5" rx="6" ry="4.5"/><ellipse class="cls-6" cx="23.24" cy="192.5" rx="6" ry="4.5"/><line class="cls-6" x1="23.24" y1="190" x2="28.74" y2="190"/><line class="cls-6" x1="23.24" y1="194" x2="28.74" y2="194"/><path class="cls-9" d="M193.22,243s-60-20.68-80.25-65.07l-.13-.28c-5.61,13.14-12.59,26.32-20.94,36.32C71,239,43.12,248.15,37.28,249.85c.1,17.7.46,28.15.46,28.15l155.5-.25ZM121,174.89"/><path class="cls-9" d="M91.91,213.93l-.14.16v63.82l11,0V198.06A111.88,111.88,0,0,1,91.91,213.93Z"/><path class="cls-13" d="M102.77,198.06v79.83l10,0v-100A193.2,193.2,0,0,1,102.77,198.06Z"/><path class="cls-11" d="M112.84,177.62l-.11.25v100h5.5V187.6A82.17,82.17,0,0,1,113,177.9Z"/><path class="cls-12" d="M80.77,225.37v52.56l11,0V214.1A106.51,106.51,0,0,1,80.77,225.37Z"/><path class="cls-9" d="M69.77,234v44l11,0V225.37A115.29,115.29,0,0,1,69.77,234Z"/><path class="cls-12" d="M58.77,240.74V278l11,0V234A123.09,123.09,0,0,1,58.77,240.74Z"/><path class="cls-9" d="M47.77,246V278l11,0V240.74C54.73,242.93,51,244.68,47.77,246Z"/><path class="cls-12" d="M37.28,249.85c.1,17.7.46,28.15.46,28.15l10,0V246A99.22,99.22,0,0,1,37.28,249.85Z"/><line class="cls-10" x1="118.24" y1="230.75" x2="190.74" y2="277.75"/><line class="cls-10" x1="118.24" y1="237.75" x2="179.74" y2="277.5"/><line class="cls-10" x1="118.24" y1="243.75" x2="170.74" y2="277.5"/><line class="cls-10" x1="118.24" y1="249.75" x2="161.74" y2="277.5"/><line class="cls-10" x1="118.24" y1="255.75" x2="152.74" y2="277.5"/><line class="cls-10" x1="118.24" y1="260.75" x2="144.74" y2="277.5"/><line class="cls-10" x1="118.24" y1="267.75" x2="134.74" y2="278.5"/><line class="cls-10" x1="118.24" y1="272.75" x2="125.74" y2="277.5"/><line class="cls-4" x1="102.74" y1="277.5" x2="112.74" y2="263.5"/><line class="cls-4" x1="102.74" y1="267.5" x2="112.74" y2="253.5"/><line class="cls-4" x1="102.74" y1="258.5" x2="112.74" y2="244.5"/><line class="cls-4" x1="102.74" y1="248.5" x2="112.74" y2="234.5"/><line class="cls-4" x1="102.74" y1="238.5" x2="112.74" y2="224.5"/><line class="cls-4" x1="102.74" y1="228.5" x2="112.74" y2="214.5"/><line class="cls-4" x1="102.74" y1="217.5" x2="112.74" y2="203.5"/><line class="cls-4" x1="102.74" y1="207.5" x2="112.74" y2="193.5"/><path class="cls-15" d="M178.55,199.5c-3.29,0-5.32,3.22-5.78,4-.46-.8-2.49-4-5.78-4-5.3,0-8.4,4.2-6.72,9.24,1.6,4.8,5.8,8.32,12.4,11.65v.1l.1-.05.1.05v-.1c6.6-3.33,10.8-6.86,12.4-11.65C186.94,203.7,183.67,199.46,178.55,199.5Z"/><path class="cls-15" d="M144.27,169.5c-3.13,0-5.07,3.06-5.5,3.83-.43-.76-2.37-3.8-5.5-3.83-5.05,0-8,4-6.4,8.8,1.52,4.57,5.52,7.93,11.81,11.1v.1l.09,0,.09,0v-.1c6.29-3.17,10.28-6.53,11.81-11.1C152.27,173.5,149.15,169.46,144.27,169.5Z"/><path class="cls-16" d="M150.45,125.22,144,126l-9.25,9.5,20,1-9,18,19.5-2.5-6,18.89,20-5.89-1.5,18.5,14.5-9.5v-2.62C170.74,158.71,155.4,139.18,150.45,125.22Z"/><rect class="cls-6" x="16.11" y="239.63" width="6.75" height="18" rx="3.18" ry="3.18" transform="translate(-229.14 268.11) rotate(-90)"/><rect class="cls-6" x="14.11" y="232.87" width="6.75" height="18" rx="3.18" ry="3.18" transform="translate(-224.39 259.36) rotate(-90)"/><rect class="cls-6" x="15.11" y="226.12" width="6.75" height="18" rx="3.18" ry="3.18" transform="translate(-216.64 253.61) rotate(-90)"/><path class="cls-6" d="M32.49,249.25c-1-1-5-3-6-9-2,3-7,6-7,6v-15h17v27H27"/><rect class="cls-6" x="16.61" y="246.88" width="6.75" height="17" rx="3.09" ry="3.09" transform="translate(-235.39 275.36) rotate(-90)"/><line class="cls-10" x1="23.24" y1="169" x2="23.24" y2="271.5"/><polygon class="cls-11" points="156.24 45 111.74 45 111.74 32.5 147.13 32.5 156.24 45"/><line class="cls-17" x1="117.74" y1="32.5" x2="117.74" y2="44.5"/><line class="cls-17" x1="123.74" y1="32.5" x2="123.74" y2="44.5"/><line class="cls-17" x1="129.74" y1="32.5" x2="129.74" y2="44.5"/><line class="cls-17" x1="135.74" y1="32.5" x2="135.74" y2="44.5"/><line class="cls-17" x1="141.74" y1="32.5" x2="141.74" y2="44.5"/><line class="cls-17" x1="147.74" y1="32.5" x2="147.74" y2="44.5"/><line class="cls-17" x1="153.74" y1="41.5" x2="153.74" y2="44.5"/></svg>