<svg id="Слой_1" data-name="Слой 1" xmlns="http://www.w3.org/2000/svg" viewBox="0 0 197 278" width="197" height="278"><defs><style>.cls-1{fill:#1a1a1a;}.cls-1,.cls-10,.cls-11,.cls-2,.cls-3,.cls-4,.cls-6,.cls-7,.cls-9{stroke:#000;stroke-linecap:round;stroke-linejoin:round;}.cls-1,.cls-11,.cls-2,.cls-3,.cls-4,.cls-6,.cls-7{stroke-width:1.5px;}.cls-2{fill:#263352;}.cls-3,.cls-5{fill:#fff;}.cls-4{fill:#ffdc87;}.cls-6,.cls-8{fill:gray;}.cls-7,.cls-9{fill:none;}.cls-11{fill:#a3853a;}</style></defs><title>Монтажная область 119</title><rect class="cls-1" x="101.24" y="148.5" width="66" height="127"/><path class="cls-2" d="M39.24,262V181.45L23.23,195H33.74v14h-7v14h7v14h-7v15h7v14h-7v9h-5v-9h-7V252h7V237h-7V223h7V209h-7v-6.79c-5,4.22-8.42,7.2-8.85,7.65a16.39,16.39,0,0,0-2.55,3.39,13.13,13.13,0,0,0-1.58,4.68l.4,57.57H39.24V262Z"/><path class="cls-2" d="M58.74,165l-7.5,6.32V275.5l50,.5V193.5Z"/><rect class="cls-3" x="39.24" y="240" width="12" height="7"/><rect class="cls-3" x="39.24" y="225" width="12" height="7"/><rect class="cls-3" x="39.24" y="232" width="12" height="8"/><rect class="cls-3" x="39.24" y="247" width="12" height="8"/><path class="cls-3" d="M51.24,186v-8H43.33l-4.09,3.45V186Z"/><rect class="cls-3" x="39.24" y="262" width="12" height="8"/><rect class="cls-3" x="39.24" y="255" width="12" height="7"/><rect class="cls-3" x="39.24" y="270" width="12" height="5.5"/><rect class="cls-3" x="39.24" y="186" width="12" height="8"/><path class="cls-3" d="M51.24,178v-6.68L43.33,178Z"/><rect class="cls-3" x="39.24" y="194" width="12" height="7"/><rect class="cls-3" x="39.24" y="217" width="12" height="8"/><rect class="cls-3" x="39.24" y="201" width="12" height="8"/><rect class="cls-3" x="39.24" y="209" width="12" height="8"/><path class="cls-3" d="M21.74,209v14h-7v14h7v15h-7v14h7v9h5v-9h7V252h-7V237h7V223h-7V209h7V195H23.23l-8.49,7.21V209Z"/><path class="cls-3" d="M91.17,198.35a7.1,7.1,0,0,1,4.63,3.38v-7.54A7.11,7.11,0,0,1,91.17,198.35Z"/><path class="cls-3" d="M89.66,226.59a7.09,7.09,0,0,1,6.14,3.54V223A7.09,7.09,0,0,1,89.66,226.59Z"/><path class="cls-3" d="M89.66,269.19a7.09,7.09,0,0,1,6.14,3.54v-7.09A7.09,7.09,0,0,1,89.66,269.19Z"/><path class="cls-3" d="M89.66,255a7.09,7.09,0,0,1,6.14,3.54v-7.09A7.09,7.09,0,0,1,89.66,255Z"/><path class="cls-3" d="M91.17,198.35a7,7,0,0,0-3.47.11,7,7,0,0,0,3.47-.11Z"/><path class="cls-3" d="M89.66,240.79a7.09,7.09,0,0,1,6.14,3.54v-7.09A7.09,7.09,0,0,1,89.66,240.79Z"/><path class="cls-3" d="M87.33,184.7l-4.87-3.36,0,8.15A7.1,7.1,0,0,1,87.33,184.7Z"/><path class="cls-3" d="M89.66,212.38a7.09,7.09,0,0,1,6.14,3.54v-7.09A7.09,7.09,0,0,1,89.66,212.38Z"/><path class="cls-3" d="M89.66,269.19a7.1,7.1,0,1,1,0-14.2,7.1,7.1,0,1,1,0-14.2,7.1,7.1,0,1,1,0-14.2,7.1,7.1,0,1,1,0-14.2,7.1,7.1,0,0,1-2-13.92,7.11,7.11,0,0,1-5.31-5l-.46,82h.67A7.1,7.1,0,0,1,89.66,269.19Z"/><path class="cls-3" d="M82.41,189.49l0,4a7.11,7.11,0,0,0,5.31,5,7,7,0,0,1,3.47-.11,7.11,7.11,0,0,0,4.63-4.17v-3.65l-8.47-5.83A7.1,7.1,0,0,0,82.41,189.49Z"/><path class="cls-3" d="M91.17,198.35a7,7,0,0,1-3.47.11,7.1,7.1,0,1,0,8.09,10.38v-7.12A7.1,7.1,0,0,0,91.17,198.35Z"/><path class="cls-3" d="M89.66,212.38A7.1,7.1,0,1,0,95.8,223v-7.12A7.09,7.09,0,0,0,89.66,212.38Z"/><path class="cls-3" d="M89.66,226.59a7.1,7.1,0,1,0,6.14,10.66v-7.12A7.09,7.09,0,0,0,89.66,226.59Z"/><path class="cls-3" d="M89.66,240.79a7.1,7.1,0,1,0,6.14,10.66v-7.12A7.09,7.09,0,0,0,89.66,240.79Z"/><path class="cls-3" d="M89.66,255a7.1,7.1,0,1,0,6.14,10.66v-7.12A7.09,7.09,0,0,0,89.66,255Z"/><path class="cls-3" d="M89.66,269.19a7.1,7.1,0,0,0-7.05,6.31H95.8v-2.76A7.09,7.09,0,0,0,89.66,269.19Z"/><polygon class="cls-2" points="195.24 275.5 183.24 275.5 183.24 98.5 195.24 106 195.24 275.5"/><polygon class="cls-4" points="183.74 276 175.74 276 175.74 93 183.74 99 183.74 276"/><polygon class="cls-2" points="175.74 276 167.74 276 167.74 88 175.74 93 175.74 276"/><path class="cls-5" d="M76.28,191c-.27-4.51-10.09-9.53-10.09-9.53s-9.78,5-10,9.53c-.06,7.34,7.25,6.92,9.75,3.23,0,.16,0,.34,0,.52a6.31,6.31,0,0,1-2.76,4.91,10.77,10.77,0,0,1-1.32.81H70.7a9.55,9.55,0,0,1-1.37-.81,6.31,6.31,0,0,1-2.76-4.91c0-.18,0-.36,0-.52C69,198,76.34,198.38,76.28,191Z"/><path class="cls-5" d="M76.28,221c-.27-4.51-10.09-9.53-10.09-9.53s-9.78,5-10,9.53c-.06,7.34,7.25,6.92,9.75,3.23,0,.16,0,.34,0,.52a6.31,6.31,0,0,1-2.76,4.91,10.77,10.77,0,0,1-1.32.81H70.7a9.55,9.55,0,0,1-1.37-.81,6.31,6.31,0,0,1-2.76-4.91c0-.18,0-.36,0-.52C69,228,76.34,228.38,76.28,221Z"/><path class="cls-5" d="M76.28,251c-.27-4.51-10.09-9.53-10.09-9.53s-9.78,5-10,9.53c-.06,7.34,7.25,6.92,9.75,3.23,0,.16,0,.34,0,.52a6.31,6.31,0,0,1-2.76,4.91,10.77,10.77,0,0,1-1.32.81H70.7a9.55,9.55,0,0,1-1.37-.81,6.31,6.31,0,0,1-2.76-4.91c0-.18,0-.36,0-.52C69,258,76.34,258.38,76.28,251Z"/><path class="cls-6" d="M9.3,207.1a17.24,17.24,0,0,0-3.42,2.77,16.39,16.39,0,0,0-2.55,3.39,13.14,13.14,0,0,0-1.58,4.68l.4,57.57H12.31V204.33Z"/><polygon class="cls-7" points="58.74 165 100.74 128 100.74 194 58.74 165"/><polygon class="cls-8" points="58.74 165 92.74 188.48 92.74 135.05 58.74 165"/><polygon class="cls-3" points="92.74 135.05 92.74 188.48 100.74 194 100.74 128 92.74 135.05"/><polygon class="cls-3" points="100.74 181 130.74 149 119.74 149 100.74 168 100.74 181"/><path class="cls-2" d="M100.74,168l19-19h-5l-14,14Z"/><path class="cls-7" d="M115.74,83h17l-6-4s-2,2-3,2-3-2-3-2Z"/><path class="cls-7" d="M122.74,92s0-2,3-2c1,0,2,2,2,2"/><path class="cls-7" d="M126.74,69l3,4h-11V50s-2-4-5-4h-12"/><path class="cls-7" d="M128.74,49s2-3,5-3h11"/><path class="cls-7" d="M142.74,50s-5.3-.4-7,0a7.43,7.43,0,0,0-5,5"/><path class="cls-7" d="M103.74,50s5.3-.4,7,0a7.43,7.43,0,0,1,5,5"/><path class="cls-9" d="M113.8,52.4a4.94,4.94,0,0,1,.13,1.1,4.36,4.36,0,1,1-8.7,0,5,5,0,0,1,.08-.81,7.7,7.7,0,0,0-2.58,5.81h14A7.66,7.66,0,0,0,113.8,52.4Z"/><path class="cls-9" d="M109.59,58.16a4.51,4.51,0,0,0,4.35-4.66,4.94,4.94,0,0,0-.13-1.1,6.73,6.73,0,0,0-2.66-1.25,2.56,2.56,0,0,1,.77,1.85,2.34,2.34,0,1,1-4.67,0,2.58,2.58,0,0,1,.66-1.73,6.82,6.82,0,0,0-2.6,1.42,5,5,0,0,0-.08.81A4.51,4.51,0,0,0,109.59,58.16Z"/><path class="cls-10" d="M107.91,51.27a2.58,2.58,0,0,0-.66,1.73,2.34,2.34,0,1,0,4.67,0,2.56,2.56,0,0,0-.77-1.85,6.48,6.48,0,0,0-3.24.11Z"/><path class="cls-9" d="M140.8,52.9a4.94,4.94,0,0,1,.13,1.1,4.36,4.36,0,1,1-8.7,0,5,5,0,0,1,.08-.81A7.7,7.7,0,0,0,129.74,59h14A7.66,7.66,0,0,0,140.8,52.9Z"/><path class="cls-9" d="M136.59,58.66A4.51,4.51,0,0,0,140.94,54a4.94,4.94,0,0,0-.13-1.1,6.73,6.73,0,0,0-2.66-1.25,2.56,2.56,0,0,1,.77,1.85,2.34,2.34,0,1,1-4.67,0,2.58,2.58,0,0,1,.66-1.73,6.82,6.82,0,0,0-2.6,1.42,5,5,0,0,0-.08.81A4.51,4.51,0,0,0,136.59,58.66Z"/><path class="cls-10" d="M134.91,51.77a2.58,2.58,0,0,0-.66,1.73,2.34,2.34,0,1,0,4.67,0,2.56,2.56,0,0,0-.77-1.85,6.48,6.48,0,0,0-3.24.11Z"/><path class="cls-7" d="M115.74,83a18.93,18.93,0,0,0,6,4,10.56,10.56,0,0,0,6,0s5-3,5-4Z"/><path class="cls-7" d="M134.74,30s4,5,8,5"/><path class="cls-7" d="M128.74,30s9,12,16,12"/><path class="cls-7" d="M100.74,43s19-6,26-13"/><path class="cls-7" d="M100.74,37s10-2,17-7"/><path class="cls-7" d="M100.74,81s11,13,16,16,10,4,18,1,22-15,23-17-17-51-17-51l-40-1Z"/><polygon class="cls-3" points="100.74 30 53.26 168.78 100.74 128 100.74 30"/><line class="cls-3" x1="100.74" y1="58" x2="69.74" y2="154"/><polygon class="cls-3" points="140.74 30 169.74 30 188.74 102 157.74 81 140.74 30"/><line class="cls-3" x1="148.74" y1="30" x2="173.98" y2="92"/><rect class="cls-11" x="100.74" y="25" width="69" height="5"/><path class="cls-2" d="M100.74,16c0-1,20-14,20-14l49,17v6h-69Z"/><path class="cls-7" d="M157.74,81c-1,2-15,14-23,17s-13,2-18-1-16-16-16-16l.23,24.25A116.68,116.68,0,0,0,130.74,109c17,0,32-5,37-9.19V88Z"/><rect class="cls-2" x="100.74" y="100" width="67" height="19"/><rect class="cls-7" x="100.74" y="119" width="67" height="6"/><rect class="cls-7" x="101.24" y="125.5" width="67" height="10"/><rect class="cls-7" x="101.24" y="135.5" width="67" height="13"/><line class="cls-7" x1="107.24" y1="135.5" x2="107.24" y2="148.5"/><line class="cls-7" x1="112.24" y1="135.5" x2="112.24" y2="148.5"/><line class="cls-7" x1="117.24" y1="135.5" x2="117.24" y2="148.5"/><line class="cls-7" x1="122.24" y1="135.5" x2="122.24" y2="148.5"/><line class="cls-7" x1="127.24" y1="135.5" x2="127.24" y2="148.5"/><line class="cls-7" x1="132.24" y1="135.5" x2="132.24" y2="148.5"/><line class="cls-7" x1="137.24" y1="135.5" x2="137.24" y2="148.5"/><line class="cls-7" x1="142.24" y1="135.5" x2="142.24" y2="148.5"/><line class="cls-7" x1="147.24" y1="135.5" x2="147.24" y2="148.5"/><line class="cls-7" x1="152.24" y1="135.5" x2="152.24" y2="148.5"/><line class="cls-7" x1="157.24" y1="135.5" x2="157.24" y2="148.5"/><line class="cls-7" x1="162.24" y1="135.5" x2="162.24" y2="148.5"/><polygon class="cls-3" points="100.74 163 100.74 149 114.74 149 100.74 163"/><polygon class="cls-3" points="167.74 230.5 127.24 275.5 140.74 275.5 167.74 246 167.74 230.5"/><path class="cls-2" d="M167.74,246c-1.35,1.41-27,29.5-27,29.5h5s20.65-24.09,22-25.5Z"/><polygon class="cls-3" points="167.74 250 167.74 275.5 145.74 275.5 167.74 250"/><path class="cls-3" d="M167.74,88l-10-7a14.64,14.64,0,0,1-2.42,2.64l12.42,16.07Z"/><path class="cls-3" d="M151,87.41c-1.78,1.46-3.77,3-5.82,4.48l7.22,14.44a67.55,67.55,0,0,0,7.31-2.28Z"/><path class="cls-3" d="M108.76,89.87,101,104.75v.5s3.11.91,8.3,1.84L112.91,94C111.58,92.74,110.15,91.32,108.76,89.87Z"/><path class="cls-3" d="M119.27,98.33l-2,9.92c2.88.32,6.06.57,9.45.69V99.79A16.22,16.22,0,0,1,119.27,98.33Z"/><path class="cls-3" d="M134.74,98c-.47.18-.93.34-1.38.49l1.83,10.4c2.58-.13,5.09-.37,7.51-.69L139.3,95.75A31.21,31.21,0,0,1,134.74,98Z"/><path class="cls-6" d="M167.74,99.81v-.11L155.32,83.64c-1.15,1.08-2.64,2.39-4.32,3.77L159.72,104A29.22,29.22,0,0,0,167.74,99.81Z"/><path class="cls-6" d="M139.3,95.75l3.39,12.45a86.47,86.47,0,0,0,9.7-1.86l-7.22-14.44C143.22,93.3,141.21,94.64,139.3,95.75Z"/><path class="cls-6" d="M126.74,99.79v9.13c1.3,0,2.64.07,4,.07s3,0,4.45-.11l-1.83-10.4A24.08,24.08,0,0,1,126.74,99.79Z"/><path class="cls-6" d="M116.74,97a26.47,26.47,0,0,1-3.82-3l-3.65,13.12c2.3.41,5,.82,8,1.16l2-9.92A23.76,23.76,0,0,1,116.74,97Z"/><path class="cls-6" d="M100.74,81l.23,23.75,7.79-14.87C104.58,85.54,100.74,81,100.74,81Z"/><polygon class="cls-3" points="124.74 223 135.15 209.5 138.24 209.5 127.82 223 124.74 223"/><circle class="cls-3" cx="146.74" cy="194" r="7"/><circle class="cls-3" cx="132.74" cy="192" r="7"/><path class="cls-3" d="M132.74,211s0-4-11-9C121.74,211,129.74,214,132.74,211Z"/><path class="cls-3" d="M135.74,213s6,9,15,1C141.74,208,135.74,213,135.74,213Z"/><path class="cls-3" d="M132.74,199s-4-2-5,4a5.57,5.57,0,0,0,6-2Z"/><path class="cls-3" d="M145.74,201s4-2,5,4a5.57,5.57,0,0,1-6-2Z"/><path class="cls-3" d="M134.74,185.88s-4,2-5-4a5.57,5.57,0,0,1,6,2Z"/><path class="cls-3" d="M147.74,188.88s4,2,5-4a5.57,5.57,0,0,0-6,2Z"/><circle class="cls-3" cx="141.74" cy="184" r="7"/><circle class="cls-3" cx="138.74" cy="203" r="7"/><circle class="cls-3" cx="140.24" cy="193.5" r="5.5"/><polygon class="cls-11" points="100.74 276 95.74 276 95.74 191 100.74 194 100.74 276"/><path class="cls-3" d="M105.24,221.72l24.91-.63s5.38.28,5,3.42c-.4,3.58-4.2,3-4.2,3l-.06,3.83.07,2.23s4.92-.18,5,3.42c.14,4.47-5.53,3.51-5.53,3.51l-2.28-.07-13.07,1.24-5.94-3.84-4-7.35Z"/><path class="cls-3" d="M110,221.72l20.11-.63s5.38.28,5,3.42c-.4,3.58-4.2,3-4.2,3"/><path class="cls-3" d="M114.64,240.37h12.67s3.87,0,3.53,3.08-5.16,2.49-5.16,2.49l-24.28.37-.17-30.8,16.2-.27s5.38.28,5,3.42c-.4,3.58-4.2,3-4.2,3l-10-.17"/><path class="cls-3" d="M116.95,228.22l15.64-.49s6.24-.67,6.36,2.93c.14,4.47-3.71,4.34-3.71,4.34"/><path class="cls-3" d="M117.57,234,131,233.6s4.92-.18,5,3.42c.14,4.47-5.53,3.51-5.53,3.51l-2.28-.07"/></svg>