<svg id="Слой_1" data-name="Слой 1" xmlns="http://www.w3.org/2000/svg" viewBox="0 0 99 142" width="99" height="142"><defs><style>.cls-1{fill:#8c0102;}</style></defs><title>2</title><path class="cls-1" d="M97.9,141H1.48V120.68l34.63-35Q51.48,69.92,56.2,63.83A48.06,48.06,0,0,0,63,52.55,28.72,28.72,0,0,0,65.07,41.8q0-8.3-4.58-12.36T48.27,25.38a35.13,35.13,0,0,0-15.57,3.68A80.32,80.32,0,0,0,16.95,39.53L1.1,20.76Q11.29,12.08,18,8.49A62,62,0,0,1,32.61,3,75,75,0,0,1,50.35,1,52.53,52.53,0,0,1,73.18,5.76,36.44,36.44,0,0,1,88.56,19,35.1,35.1,0,0,1,94,38.4a47.59,47.59,0,0,1-3.35,17.88A68.69,68.69,0,0,1,80.31,73.41q-7,8.77-24.77,25L37.8,115.11v1.32H97.9Z"/></svg>