<svg id="Слой_1" data-name="Слой 1" xmlns="http://www.w3.org/2000/svg" viewBox="0 0 94 142" width="94" height="142"><defs><style>.cls-1{fill:#8c0102;}</style></defs><title>5</title><path class="cls-1" d="M49.41,50.9q20,0,31.84,11.23T93.09,92.89q0,23.12-14.25,35.57T38.08,140.91q-23,0-37.17-7.45V108.27a77.12,77.12,0,0,0,17.36,6.46A76.78,76.78,0,0,0,37,117.23q26.7,0,26.7-21.89,0-20.85-27.64-20.85a68.65,68.65,0,0,0-11,1,80.72,80.72,0,0,0-9.81,2.12L3.65,71.38,8.83,1.09H83.66V25.81H34.4L31.86,52.88l3.3-.66A65,65,0,0,1,49.41,50.9Z"/></svg>