<svg id="Слой_1" data-name="Слой 1" xmlns="http://www.w3.org/2000/svg" viewBox="0 0 100 144" width="100" height="144"><defs><style>.cls-1{fill:#8c0102;}</style></defs><title>6</title><path class="cls-1" d="M1.31,82.24q0-40.95,17.31-61t51.85-20A94,94,0,0,1,89,2.7V26a75.58,75.58,0,0,0-16.61-1.89q-15,0-24.48,4.53A30.45,30.45,0,0,0,33.68,42Q29,50.91,28.11,67.24h1.23q9.34-16,29.91-16,18.49,0,29,11.6T98.69,94.88q0,22.08-12.45,35T51.7,142.72q-15.28,0-26.65-7.08T7.5,115Q1.31,101.39,1.31,82.24Zm49.82,37.17q9.34,0,14.34-6.27t5-17.88q0-10.09-4.67-15.9T51.7,73.56a21.61,21.61,0,0,0-15.14,5.76q-6.28,5.76-6.27,13.4,0,11.23,5.9,19T51.13,119.41Z"/></svg>