<svg id="Слой_1" data-name="Слой 1" xmlns="http://www.w3.org/2000/svg" viewBox="0 0 99 144" width="99" height="144"><defs><style>.cls-1{fill:#8c0102;}</style></defs><title>8</title><path class="cls-1" d="M49.59,1.19q19.81,0,31.94,9T93.66,34.5a31.75,31.75,0,0,1-5.85,18.82Q82,61.58,68.94,68.08q15.47,8.3,22.22,17.31a32.26,32.26,0,0,1,6.75,19.77q0,17-13.3,27.31t-35,10.33Q27,142.81,14,133.19T1.1,105.92A36.15,36.15,0,0,1,7.37,85q6.27-9.15,20.14-16.13-11.8-7.45-17-15.95A35,35,0,0,1,5.34,34.31q0-14.81,12.27-24T49.59,1.19Zm-21.51,103q0,8.12,5.66,12.64t15.47,4.53q10.85,0,16.23-4.67a15.51,15.51,0,0,0,5.38-12.31q0-6.32-5.33-11.84T48.18,80.82Q28.08,90.07,28.08,104.22ZM49.41,22.51q-7.45,0-12,3.82A12.65,12.65,0,0,0,32.8,36.57a15.68,15.68,0,0,0,3.63,10.14q3.63,4.48,13.16,9.2Q58.84,51.57,62.52,47A16.13,16.13,0,0,0,66.2,36.57a12.47,12.47,0,0,0-4.72-10.28Q56.76,22.51,49.41,22.51Z"/></svg>