<svg id="Слой_1" data-name="Слой 1" xmlns="http://www.w3.org/2000/svg" viewBox="0 0 100 144" width="100" height="144"><defs><style>.cls-1{fill:#8c0102;}</style></defs><title>9</title><path class="cls-1" d="M98.69,61.76q0,40.76-17.17,60.86t-52,20.1q-12.27,0-18.59-1.32V118a68.21,68.21,0,0,0,16.61,2q14.62,0,24.06-4.29A30.35,30.35,0,0,0,66,102.19Q71,93,71.8,76.86H70.66Q65.19,85.73,58,89.31T40.09,92.9q-18,0-28.4-11.56T1.31,49.21q0-22.17,12.6-35.05T48.21,1.28Q63.49,1.28,75,8.45t17.6,20.8Q98.68,42.89,98.69,61.76ZM48.77,24.68q-9.06,0-14.15,6.23T29.53,48.84q0,10,4.62,15.85t14.06,5.85a21.68,21.68,0,0,0,15.19-5.8q6.32-5.8,6.32-13.35,0-11.23-5.9-19T48.77,24.68Z"/></svg>