<svg id="Слой_1" data-name="Слой 1" xmlns="http://www.w3.org/2000/svg" viewBox="0 0 190 144" width="190" height="144"><defs><style>.cls-1{fill:#8c0102;}</style></defs><title>10</title><path class="cls-1" d="M69.51,141.11H40.35V61.29l.28-13.11.47-14.34Q33.84,41.1,31,43.36L15.16,56.1,1.1,38.55,45.54,3.17h24Z"/><path class="cls-1" d="M188.9,72.14q0,36.14-11.84,53.5T140.59,143q-23.87,0-36-17.93T92.47,72.14q0-36.51,11.79-53.83T140.59,1q23.87,0,36.09,18.12T188.9,72.14Zm-67.46,0q0,25.38,4.39,36.37t14.77,11q10.19,0,14.72-11.13t4.53-36.23q0-25.38-4.58-36.47T140.59,24.59q-10.29,0-14.72,11.09T121.44,72.14Z"/></svg>