<?xml version="1.0" ?><svg height="32px" id="GooglePlus" style="enable-background:new 0 0 32 32;" version="1.0" viewBox="0 0 32 32" width="32px" xml:space="preserve" xmlns="http://www.w3.org/2000/svg" xmlns:xlink="http://www.w3.org/1999/xlink"><style type="text/css">
	.Drop_x0020_Shadow{fill:none;}
	.Round_x0020_Corners_x0020_2_x0020_pt{fill:#FFFFFF;stroke:#000000;stroke-miterlimit:10;}
	.Live_x0020_Reflect_x0020_X{fill:none;}
	.Bevel_x0020_Soft{fill:url(#SVGID_1_);}
	.Dusk{fill:#FFFFFF;}
	.Foliage_GS{fill:#FFDD00;}
	.Pompadour_GS{fill-rule:evenodd;clip-rule:evenodd;fill:#44ADE2;}
	.st0{fill:#BE1E2D;}
	.st1{fill:#FFFFFF;}
</style><linearGradient gradientUnits="userSpaceOnUse" id="SVGID_1_" x1="-94" x2="-93.2929" y1="0" y2="0.7071"><stop offset="0" style="stop-color:#DEDFE3"/><stop offset="0.1738" style="stop-color:#D8D9DD"/><stop offset="0.352" style="stop-color:#C9CACD"/><stop offset="0.5323" style="stop-color:#B4B5B8"/><stop offset="0.7139" style="stop-color:#989A9C"/><stop offset="0.8949" style="stop-color:#797C7E"/><stop offset="1" style="stop-color:#656B6C"/></linearGradient><g id="XMLID_3_"><circle class="st0" cx="16" cy="15.9" id="XMLID_858_" r="15.1"/><g id="uQPglT.tif_4_"><g id="XMLID_829_"><path class="st1" d="M24.4,11.7C24.4,11.7,24.4,11.8,24.4,11.7c0,1,0,1.9,0,2.8c0,0.1,0,0.2-0.2,0.2     c-0.9,0-1.8,0-2.7,0c-0.1,0-0.1,0-0.1,0.1c0,0.6,0,1.2,0,1.9c0,0.1,0,0.1,0.1,0.1c0.9,0,1.8,0,2.7,0c0.2,0,0.2,0,0.2,0.1     c0,0.9,0,1.8,0,2.7c0,0,0,0.1,0,0.1c0.7,0,1.3,0,2,0c0.1,0,0.1,0,0.1-0.1c0-0.1,0-0.2,0-0.4c0-0.5,0-1,0-1.5c0-0.3,0-0.6,0-0.9     c0-0.1,0-0.1,0.1-0.1c0.9,0,1.8,0,2.7,0c0.1,0,0.1,0,0.1-0.1c0-0.6,0-1.2,0-1.8c0-0.1,0-0.1-0.1-0.1c-0.9,0-1.8,0-2.7,0     c-0.1,0-0.1,0-0.1-0.1c0-0.2,0-0.4,0-0.6c0-0.6,0-1.2,0-1.8c0-0.2,0-0.3,0-0.5C25.8,11.7,25.1,11.7,24.4,11.7z" id="XMLID_832_"/><path class="st1" d="M11.6,7.6c0.1,0,0.2,0,0.3,0c0.6,0,1.2,0.2,1.9,0.3c0.9,0.3,1.7,0.7,2.4,1.2     c0.3,0.2,0.5,0.4,0.7,0.6c0,0-0.1,0.1-0.1,0.1c-0.8,0.8-1.5,1.5-2.3,2.3c-0.1,0.1-0.1,0.1-0.2,0c-0.5-0.4-1-0.8-1.7-1     c-0.4-0.1-0.8-0.2-1.2-0.2c-1.4-0.1-2.6,0.4-3.6,1.3c-0.6,0.5-1,1.1-1.3,1.8c-0.2,0.4-0.3,0.9-0.4,1.4c0,0.4,0,0.8,0,1.2     c0,0.3,0.1,0.7,0.2,1C6.7,18.4,7,19,7.5,19.6c0.7,0.8,1.5,1.3,2.5,1.5c0.6,0.2,1.3,0.2,1.9,0.1c0.3,0,0.7-0.1,1-0.2     c1.3-0.4,2.2-1.2,2.6-2.5c0.1-0.2,0.1-0.4,0.1-0.5c0-0.1,0-0.1-0.1-0.1c-0.9,0-1.8,0-2.8,0c-0.5,0-1.1,0-1.6,0c0,0,0,0-0.1,0     c0,0,0-0.1,0-0.1c0-1,0-1.9,0-2.9c0-0.1,0-0.2,0-0.3c0-0.1,0-0.1,0.1-0.1c0.6,0,1.2,0,1.7,0c0.8,0,1.6,0,2.4,0c1,0,1.9,0,2.9,0     c0.2,0,0.5,0,0.7,0c0.1,0,0.1,0,0.1,0.1c0,0.2,0.1,0.4,0.1,0.6c0,0.3,0.1,0.7,0.1,1c0,0.3,0,0.6,0,1c0,0.3,0,0.6-0.1,0.9     c-0.1,0.4-0.2,0.8-0.3,1.2c-0.2,0.8-0.6,1.5-1,2.1c-0.5,0.7-1.1,1.4-1.8,1.9c-0.8,0.6-1.7,1-2.7,1.2c-0.6,0.1-1.3,0.2-1.9,0.2     c0,0-0.1,0-0.1,0c0,0,0,0-0.1,0c0,0-0.1,0-0.1,0c-0.5,0-1,0-1.6-0.1C9.1,24.4,8.5,24.2,8,24c-1.1-0.4-2-1-2.8-1.8     c-0.8-0.8-1.4-1.6-1.8-2.6c-0.4-0.9-0.6-1.8-0.7-2.7c0-0.1,0-0.3,0-0.4c0-0.2,0-0.4,0-0.6c0,0,0,0,0-0.1c0-0.3,0-0.5,0.1-0.8     c0.1-0.7,0.3-1.4,0.5-2c0.5-1.1,1.2-2.1,2.1-3C6.4,9,7.5,8.4,8.7,8c0.6-0.2,1.2-0.3,1.9-0.4c0.1,0,0.2,0,0.3,0     C11.1,7.6,11.3,7.6,11.6,7.6z" id="XMLID_831_"/><path class="st1" d="M24.4,11.7c0.7,0,1.4,0,2.1,0c0,0.2,0,0.3,0,0.5c0,0.6,0,1.2,0,1.8c0,0.2,0,0.4,0,0.6     c0,0.1,0,0.1,0.1,0.1c0.9,0,1.8,0,2.7,0c0.1,0,0.1,0,0.1,0.1c0,0.6,0,1.2,0,1.8c0,0.1,0,0.1-0.1,0.1c-0.9,0-1.8,0-2.7,0     c-0.1,0-0.1,0-0.1,0.1c0,0.3,0,0.6,0,0.9c0,0.5,0,1,0,1.5c0,0.1,0,0.2,0,0.4c0,0,0,0.1-0.1,0.1c-0.7,0-1.3,0-2,0c0,0,0-0.1,0-0.1     c0-0.9,0-1.8,0-2.7c0-0.1,0-0.1-0.2-0.1c-0.9,0-1.8,0-2.7,0c-0.1,0-0.1,0-0.1-0.1c0-0.6,0-1.2,0-1.9c0-0.1,0-0.1,0.1-0.1     c0.9,0,1.8,0,2.7,0c0.1,0,0.2,0,0.2-0.2C24.4,13.6,24.4,12.7,24.4,11.7C24.4,11.8,24.4,11.7,24.4,11.7z" id="XMLID_830_"/></g></g></g></svg>